<?xml version="1.0" encoding="UTF-8"?>
<svg width="486px" height="314px" viewBox="0 0 486 314" version="1.1" xmlns="http://www.w3.org/2000/svg" xmlns:xlink="http://www.w3.org/1999/xlink">
    <!-- Generator: Sketch 54.1 (76490) - https://sketchapp.com -->
    <title>Illustration-6</title>
    <desc>Created with Sketch.</desc>
    <defs>
        <path d="M51.277704,-2.07168062e-15 L375.722296,2.07168062e-15 C393.552671,-1.2037061e-15 400.018396,1.85651222 406.536914,5.34265408 C413.055433,8.82879593 418.171204,13.9445674 421.657346,20.4630859 C425.143488,26.9816044 427,33.4473292 427,51.277704 L427,202.722296 C427,220.552671 425.143488,227.018396 421.657346,233.536914 C418.171204,240.055433 413.055433,245.171204 406.536914,248.657346 C400.018396,252.143488 393.552671,254 375.722296,254 L51.277704,254 C33.4473292,254 26.9816044,252.143488 20.4630859,248.657346 C13.9445674,245.171204 8.82879593,240.055433 5.34265408,233.536914 C1.85651222,227.018396 8.02470732e-16,220.552671 -1.38112041e-15,202.722296 L1.38112041e-15,51.277704 C-8.02470732e-16,33.4473292 1.85651222,26.9816044 5.34265408,20.4630859 C8.82879593,13.9445674 13.9445674,8.82879593 20.4630859,5.34265408 C26.9816044,1.85651222 33.4473292,1.2037061e-15 51.277704,-2.07168062e-15 Z" id="path-1"></path>
        <filter x="-12.9%" y="-13.8%" width="125.8%" height="143.3%" filterUnits="objectBoundingBox" id="filter-3">
            <feOffset dx="0" dy="20" in="SourceAlpha" result="shadowOffsetOuter1"></feOffset>
            <feGaussianBlur stdDeviation="15" in="shadowOffsetOuter1" result="shadowBlurOuter1"></feGaussianBlur>
            <feColorMatrix values="0 0 0 0 0   0 0 0 0 0   0 0 0 0 0  0 0 0 0.2 0" type="matrix" in="shadowBlurOuter1"></feColorMatrix>
        </filter>
    </defs>
    <g id="Web-Design" stroke="none" stroke-width="1" fill="none" fill-rule="evenodd">
        <g id="2h-Product-Data-&amp;-Analytics" transform="translate(-749.000000, -3373.000000)">
            <g id="Section-1" transform="translate(234.000000, 681.000000)">
                <g id="6" transform="translate(0.000000, 2701.500000)">
                    <g id="Illustration-6" transform="translate(544.000000, 0.500000)">
                        <g id="Desktop-layout" transform="translate(0.500000, 0.000000)">
                            <mask id="mask-2" fill="white">
                                <use xlink:href="#path-1"></use>
                            </mask>
                            <g id="Rectangle">
                                <use fill="black" fill-opacity="1" filter="url(#filter-3)" xlink:href="#path-1"></use>
                                <use fill="#FFFFFF" fill-rule="evenodd" xlink:href="#path-1"></use>
                            </g>
                            <path d="M70.3603516,63.6835938 L68.4326172,63.6835938 C68.3164062,62.7060547 67.5849609,62.1386719 66.6005859,62.1386719 C65.4248047,62.1386719 64.5839844,62.9521484 64.5839844,64.7363281 L64.5839844,65.8779297 C64.5839844,67.4160156 65.1582031,68.5302734 66.6210938,68.5302734 C67.7763672,68.5302734 68.4941406,67.8056641 68.4941406,66.9169922 L68.4941406,66.3837891 L66.6689453,66.3837891 L66.6689453,64.9414062 L70.3740234,64.9414062 L70.3740234,66.7871094 C70.3740234,68.2910156 69.3896484,70.1777344 66.59375,70.1777344 C63.8115234,70.1777344 62.5878906,68.3388672 62.5878906,65.8847656 L62.5878906,64.7226562 C62.5878906,62.1591797 64.0849609,60.4912109 66.6279297,60.4912109 C69.0888672,60.4912109 70.2988281,62.0634766 70.3603516,63.6835938 Z M74.8720703,70.1298828 C72.8691406,70.1298828 71.5292969,68.8994141 71.5292969,66.6435547 L71.5292969,66.0078125 C71.5292969,63.8339844 72.8828125,62.5966797 74.796875,62.5966797 C76.7929688,62.5966797 78.0439453,63.9433594 78.0439453,66.0488281 L78.0439453,66.7666016 L73.4160156,66.7666016 L73.4160156,66.9853516 C73.4160156,68.0244141 74.0244141,68.6806641 74.8857422,68.6806641 C75.5830078,68.6806641 76.0820312,68.3388672 76.2119141,67.7646484 L77.9824219,67.7646484 C77.8320312,68.9199219 76.8886719,70.1298828 74.8720703,70.1298828 Z M73.4160156,65.5908203 L76.1914062,65.5908203 L76.1914062,65.5771484 C76.1914062,64.6816406 75.6445312,64.0048828 74.8105469,64.0048828 C73.9697266,64.0048828 73.4160156,64.6884766 73.4160156,65.5771484 L73.4160156,65.5908203 Z M79.4589844,70 L79.4589844,62.7265625 L81.3320312,62.7265625 L81.3320312,63.8134766 L81.4140625,63.8134766 C81.6396484,63.3076172 82.3027344,62.6171875 83.5263672,62.6171875 C84.9960938,62.6171875 86.0146484,63.5400391 86.0146484,65.3173828 L86.0146484,70 L84.09375,70 L84.09375,65.7480469 C84.09375,64.6542969 83.4648438,64.2441406 82.7470703,64.2441406 C81.8789062,64.2441406 81.3798828,64.8662109 81.3798828,65.7753906 L81.3798828,70 L79.4589844,70 Z M90.7109375,70.1298828 C88.7080078,70.1298828 87.3681641,68.8994141 87.3681641,66.6435547 L87.3681641,66.0078125 C87.3681641,63.8339844 88.7216797,62.5966797 90.6357422,62.5966797 C92.6318359,62.5966797 93.8828125,63.9433594 93.8828125,66.0488281 L93.8828125,66.7666016 L89.2548828,66.7666016 L89.2548828,66.9853516 C89.2548828,68.0244141 89.8632812,68.6806641 90.7246094,68.6806641 C91.421875,68.6806641 91.9208984,68.3388672 92.0507812,67.7646484 L93.8212891,67.7646484 C93.6708984,68.9199219 92.7275391,70.1298828 90.7109375,70.1298828 Z M89.2548828,65.5908203 L92.0302734,65.5908203 L92.0302734,65.5771484 C92.0302734,64.6816406 91.4833984,64.0048828 90.6494141,64.0048828 C89.8085938,64.0048828 89.2548828,64.6884766 89.2548828,65.5771484 L89.2548828,65.5908203 Z M95.2978516,70 L95.2978516,62.7265625 L97.2255859,62.7265625 L97.2255859,63.7519531 L97.3076172,63.7519531 C97.4648438,63.2802734 98.0048828,62.6240234 98.9892578,62.6240234 C99.2558594,62.6240234 99.4472656,62.6445312 99.5839844,62.6787109 L99.5839844,64.3330078 C99.4404297,64.2851562 99.1396484,64.2578125 98.8457031,64.2578125 C97.6835938,64.2578125 97.2734375,64.9482422 97.2734375,65.9257812 L97.2734375,70 L95.2978516,70 Z M104.642578,69.1181641 C104.369141,69.6445312 103.767578,70.109375 102.694336,70.109375 C101.279297,70.109375 100.301758,69.2753906 100.301758,67.9013672 C100.301758,66.5888672 101.210938,65.7548828 102.892578,65.7548828 L104.642578,65.7548828 L104.642578,65.1123047 C104.642578,64.4287109 104.225586,64.0458984 103.514648,64.0458984 C102.810547,64.0458984 102.400391,64.4287109 102.366211,64.9824219 L100.568359,64.9824219 C100.616211,63.7724609 101.381836,62.6171875 103.548828,62.6171875 C105.237305,62.6171875 106.536133,63.3828125 106.536133,65.1123047 L106.536133,70 L104.724609,70 L104.724609,69.1181641 L104.642578,69.1181641 Z M103.330078,68.7285156 C104.054688,68.7285156 104.642578,68.2841797 104.642578,67.6210938 L104.642578,66.8691406 L103.350586,66.8691406 C102.591797,66.8691406 102.208984,67.2314453 102.208984,67.7646484 C102.208984,68.4140625 102.755859,68.7285156 103.330078,68.7285156 Z M108.251953,70 L108.251953,60.1767578 L110.179688,60.1767578 L110.179688,70 L108.251953,70 Z" id="General" fill="#121820" fill-rule="nonzero" mask="url(#mask-2)"></path>
                            <g id="Screen/Sidebar" mask="url(#mask-2)">
                                <g transform="translate(0.000000, 41.000000)" id="Sidebar">
                                    <g>
                                        <rect id="Rectangle" fill="#4CD964" x="0" y="0" width="38" height="213"></rect>
                                        <path d="M23.5885344,13.5089411 L22.253331,14.8441445 C22.0598001,15.0256487 21.7583976,15.0256487 21.5648668,14.8441445 L20.9708976,14.2501753 C20.6659362,13.9590813 20.1860975,13.9590813 19.881136,14.2501753 L17.5064867,16.6272791 C17.2060659,16.9292952 17.2060659,17.417479 17.5064867,17.7194951 L18.1004558,18.312237 C18.2883415,18.5031907 18.2883415,18.8096248 18.1004558,19.0007013 L16.7652525,20.332223 C16.5709853,20.5120091 16.2710554,20.5120091 16.0767882,20.332223 C16.0669705,20.3224053 15.5613604,19.8572931 15.2643759,19.545582 C14.5476858,18.8006662 14.437237,17.8888499 14.9256662,16.7598177 C15.2938289,15.9154979 16.0056101,14.9680926 17.115007,13.8586957 C18.8036466,12.1700561 20.1179874,11.3834151 21.2507013,11.3834151 C21.8354663,11.3855014 22.3950736,11.6210028 22.805575,12.0375175 C23.1737377,12.3725456 23.5811711,12.8131136 23.5860799,12.8167952 C23.7764201,13.0082398 23.7764201,13.3174965 23.5860799,13.5089411 M23.0767882,20.2401823 C22.7086255,21.0832749 21.9956171,22.0319074 20.8862202,23.1413043 C19.1988079,24.8287167 17.884467,25.6153576 16.7517532,25.6153576 C16.1671108,25.6136396 15.6073808,25.378629 15.1968794,24.9624825 C14.8287167,24.6274544 14.4212833,24.1868864 14.4163745,24.1832048 C14.2260344,23.9916374 14.2260344,23.6825035 14.4163745,23.4909362 L15.7515778,22.1557328 C15.8434958,22.0666374 15.9670757,22.0175491 16.0951964,22.0196353 C16.2230715,22.0185309 16.346406,22.0673738 16.4388149,22.1557328 L17.032784,22.7485975 C17.3379909,23.0411641 17.8197931,23.0411641 18.125,22.7485975 L20.497195,20.3762798 C20.798352,20.0745091 20.798352,19.5859572 20.497195,19.2841865 L19.9007714,18.6914446 C19.7128857,18.5003682 19.7128857,18.1939341 19.9007714,18.0029804 L21.2359748,16.6665498 C21.4302419,16.4867637 21.7301718,16.4867637 21.924439,16.6665498 C21.9342567,16.6763675 22.4398668,17.1427069 22.7380785,17.454418 C23.4547686,18.1993338 23.5652174,19.1099229 23.0767882,20.2401823 M19.0012272,8 C13.2022966,7.99926367 8.50073633,12.6997195 8.5,18.4987728 C8.49926367,24.2978261 13.1998422,28.9992637 18.9987728,29 C24.7978261,29.0007363 29.4993864,24.3001578 29.5,18.5012272 L29.5,18.5 C29.5,12.7014376 24.7997896,8.0006136 19.0012272,8" id="Logo" fill="#FFFFFF"></path>
                                        <rect id="Title-Copy" fill="#FFFFFF" opacity="0.3" x="9" y="45" width="20" height="4" rx="2"></rect>
                                        <rect id="Title-Copy-2" fill="#FFFFFF" opacity="0.3" x="9" y="65" width="20" height="4" rx="2"></rect>
                                        <rect id="Title-Copy-3" fill="#FFFFFF" opacity="0.3" x="9" y="85" width="20" height="4" rx="2"></rect>
                                        <rect id="Title-Copy-4" fill="#FFFFFF" opacity="0.3" x="9" y="105" width="20" height="4" rx="2"></rect>
                                    </g>
                                </g>
                            </g>
                            <g id="Tab" mask="url(#mask-2)">
                                <g transform="translate(25.000000, 11.000000)">
                                    <g id="Tab-" transform="translate(45.200007, 0.000000)">
                                        <path d="M10.6080584,0.390000037 C4.9647806,0.390000037 0.390000037,4.9647806 0.390000037,10.6080584 C0.390000037,16.2513362 4.9647806,20.8261168 10.6080584,20.8261168 L296.391942,20.8261168 C302.035219,20.8261168 306.61,16.2513362 306.61,10.6080584 C306.61,4.9647806 302.035219,0.390000037 296.391942,0.390000037 L10.6080584,0.390000037 Z" id="Rectangle-4" stroke="#F8F8F8" stroke-width="0.780000074" fill="#FFFFFF" fill-rule="nonzero"></path>
                                        <path d="M20.7281198,9.44790217 C20.8739539,9.24477616 21.0529886,9.08657462 21.2652292,8.9732928 C21.4774698,8.86001098 21.7124935,8.80337092 21.9703073,8.80337092 C22.4208304,8.80337092 22.7717384,8.93878624 23.0230417,9.20962092 C23.274345,9.48045561 23.3999948,9.89711811 23.3999948,10.4596209 L23.3999948,13.1080584 L22.6304636,13.1080584 L22.6304636,10.4518084 C22.6304636,10.1028483 22.5555945,9.84503842 22.4058542,9.67837092 C22.2561139,9.51170342 22.0328088,9.42837092 21.7359323,9.42837092 C21.5067645,9.42837092 21.3075478,9.47329235 21.1382761,9.56313655 C20.9690044,9.65298075 20.832287,9.77863053 20.7281198,9.94008967 L20.7281198,13.1080584 L19.9585886,13.1080584 L19.9585886,7.01430842 L20.7281198,7.01430842 L20.7281198,9.44790217 Z M25.5757761,7.86196467 L25.5757761,8.88149592 L26.3765573,8.88149592 L26.3765573,9.45180842 L25.5757761,9.45180842 L25.5757761,12.0182147 C25.5757761,12.2161323 25.6167913,12.3554539 25.698823,12.4361834 C25.7808546,12.516913 25.8895775,12.5572772 26.0249948,12.5572772 C26.0692659,12.5572772 26.1187446,12.5514179 26.1734323,12.539699 C26.2281201,12.5279802 26.2736926,12.5156106 26.3101511,12.5025897 L26.4156198,13.0299334 C26.3583279,13.0768087 26.2736933,13.1152197 26.1617136,13.1451678 C26.0497338,13.1751159 25.9390579,13.1900897 25.8296823,13.1900897 C25.5171808,13.1900897 25.2684853,13.0956896 25.0835886,12.9068865 C24.8986918,12.7180835 24.8062448,12.4218625 24.8062448,12.0182147 L24.8062448,9.45180842 L24.1343698,9.45180842 L24.1343698,8.88149592 L24.8062448,8.88149592 L24.8062448,7.86196467 L25.5757761,7.86196467 Z M28.2710886,7.86196467 L28.2710886,8.88149592 L29.0718698,8.88149592 L29.0718698,9.45180842 L28.2710886,9.45180842 L28.2710886,12.0182147 C28.2710886,12.2161323 28.3121038,12.3554539 28.3941355,12.4361834 C28.4761671,12.516913 28.58489,12.5572772 28.7203073,12.5572772 C28.7645784,12.5572772 28.8140571,12.5514179 28.8687448,12.539699 C28.9234326,12.5279802 28.9690051,12.5156106 29.0054636,12.5025897 L29.1109323,13.0299334 C29.0536404,13.0768087 28.9690058,13.1152197 28.8570261,13.1451678 C28.7450463,13.1751159 28.6343704,13.1900897 28.5249948,13.1900897 C28.2124933,13.1900897 27.9637978,13.0956896 27.7789011,12.9068865 C27.5940043,12.7180835 27.5015573,12.4218625 27.5015573,12.0182147 L27.5015573,9.45180842 L26.8296823,9.45180842 L26.8296823,8.88149592 L27.5015573,8.88149592 L27.5015573,7.86196467 L28.2710886,7.86196467 Z M33.4976511,11.1549334 C33.4976511,11.7643115 33.3518192,12.255843 33.0601511,12.6295428 C32.768483,13.0032426 32.3661432,13.1900897 31.8531198,13.1900897 C31.5927019,13.1900897 31.3641885,13.1464703 31.167573,13.0592303 C30.9709574,12.9719903 30.8036413,12.8411322 30.6656198,12.6666522 L30.6656198,14.7330584 L29.8960886,14.7330584 L29.8960886,8.88149592 L30.4859323,8.88149592 L30.6070261,9.42837092 C30.7450476,9.22524491 30.9169209,9.07029854 31.1226511,8.96352717 C31.3283813,8.85675581 31.5679622,8.80337092 31.8414011,8.80337092 C32.3648412,8.80337092 32.7717382,9.01105114 33.0621042,9.4264178 C33.3524702,9.84178446 33.4976511,10.3906071 33.4976511,11.0729022 L33.4976511,11.1549334 Z M32.7281198,11.0729022 C32.7281198,10.5937331 32.6337197,10.1998568 32.4449167,9.89126155 C32.2561137,9.58266626 31.9781217,9.42837092 31.6109323,9.42837092 C31.3895771,9.42837092 31.2007769,9.47850063 31.0445261,9.57876155 C30.8882753,9.67902247 30.7619745,9.81639089 30.6656198,9.99087092 L30.6656198,12.0338397 C30.7619745,12.2083197 30.8882753,12.3443861 31.0445261,12.4420428 C31.2007769,12.5396995 31.3921812,12.5885272 31.6187448,12.5885272 C31.98333,12.5885272 32.2593689,12.455065 32.4468698,12.1881365 C32.6343708,11.9212081 32.7281198,11.5768105 32.7281198,11.1549334 L32.7281198,11.0729022 Z M36.8999948,11.9713397 C36.8999948,11.802068 36.8355423,11.6640485 36.7066355,11.5572772 C36.5777286,11.4505058 36.3335904,11.3567567 35.9742136,11.2760272 C35.4768153,11.1692558 35.0946576,11.0195177 34.8277292,10.8268084 C34.5608008,10.6340991 34.4273386,10.3762892 34.4273386,10.0533709 C34.4273386,9.70961921 34.5738215,9.41535132 34.8667917,9.17055842 C35.1597619,8.92576553 35.5393154,8.80337092 36.0054636,8.80337092 C36.4846326,8.80337092 36.8726496,8.93357796 37.1695261,9.19399592 C37.4664026,9.45441389 37.6083282,9.75779628 37.5953073,10.1041522 L37.5874948,10.1275897 L36.8531198,10.1275897 C36.8531198,9.9452971 36.7730425,9.77993417 36.6128855,9.63149592 C36.4527284,9.48305768 36.2502565,9.40883967 36.0054636,9.40883967 C35.7346289,9.40883967 35.532157,9.47003698 35.3980417,9.59243342 C35.2639264,9.71482987 35.1968698,9.86066175 35.1968698,10.0299334 C35.1968698,10.1966009 35.254812,10.3255059 35.370698,10.4166522 C35.4865839,10.5077985 35.7255138,10.591131 36.0874948,10.6666522 C36.6057266,10.7760277 36.9989518,10.9309741 37.2671823,11.1314959 C37.5354128,11.3320178 37.6695261,11.5937339 37.6695261,11.9166522 C37.6695261,12.291654 37.5178349,12.5976406 37.214448,12.8346209 C36.911061,13.0716013 36.5145806,13.1900897 36.0249948,13.1900897 C35.4859296,13.1900897 35.0614547,13.0533723 34.7515573,12.7799334 C34.4416599,12.5064946 34.294526,12.1874873 34.3101511,11.8229022 L34.3179636,11.7994647 L35.0523386,11.7994647 C35.0653595,12.0729035 35.166921,12.2727713 35.3570261,12.399074 C35.5471312,12.5253768 35.7697852,12.5885272 36.0249948,12.5885272 C36.2984337,12.5885272 36.5126243,12.530585 36.667573,12.414699 C36.8225216,12.2988131 36.8999948,12.1510281 36.8999948,11.9713397 Z M39.4664011,13.1080584 L38.6968698,13.1080584 L38.6968698,12.3189959 L39.4664011,12.3189959 L39.4664011,13.1080584 Z M39.4664011,9.68618342 L38.6968698,9.68618342 L38.6968698,8.89712092 L39.4664011,8.89712092 L39.4664011,9.68618342 Z M40.8062448,13.5963397 L40.1499948,13.5963397 L42.5249948,7.42055842 L43.1773386,7.42055842 L40.8062448,13.5963397 Z M44.1265573,13.5963397 L43.4703073,13.5963397 L45.8453073,7.42055842 L46.4976511,7.42055842 L44.1265573,13.5963397 Z M48.3687448,11.5689959 L48.4664011,12.1119647 L48.4898386,12.1119647 L48.5914011,11.5689959 L49.4351511,8.88149592 L50.0523386,8.88149592 L50.8999948,11.5689959 L51.0093698,12.1744647 L51.0328073,12.1744647 L51.1578073,11.5689959 L51.7828073,8.88149592 L52.5874948,8.88149592 L51.3609323,13.1080584 L50.7398386,13.1080584 L49.9039011,10.5338397 L49.7437448,9.86196467 L49.7203073,9.86196467 L49.5718698,10.5338397 L48.7515573,13.1080584 L48.1304636,13.1080584 L46.9039011,8.88149592 L47.7046823,8.88149592 L48.3687448,11.5689959 Z M54.4234323,11.5689959 L54.5210886,12.1119647 L54.5445261,12.1119647 L54.6460886,11.5689959 L55.4898386,8.88149592 L56.1070261,8.88149592 L56.9546823,11.5689959 L57.0640573,12.1744647 L57.0874948,12.1744647 L57.2124948,11.5689959 L57.8374948,8.88149592 L58.6421823,8.88149592 L57.4156198,13.1080584 L56.7945261,13.1080584 L55.9585886,10.5338397 L55.7984323,9.86196467 L55.7749948,9.86196467 L55.6265573,10.5338397 L54.8062448,13.1080584 L54.1851511,13.1080584 L52.9585886,8.88149592 L53.7593698,8.88149592 L54.4234323,11.5689959 Z M60.4781198,11.5689959 L60.5757761,12.1119647 L60.5992136,12.1119647 L60.7007761,11.5689959 L61.5445261,8.88149592 L62.1617136,8.88149592 L63.0093698,11.5689959 L63.1187448,12.1744647 L63.1421823,12.1744647 L63.2671823,11.5689959 L63.8921823,8.88149592 L64.6968698,8.88149592 L63.4703073,13.1080584 L62.8492136,13.1080584 L62.0132761,10.5338397 L61.8531198,9.86196467 L61.8296823,9.86196467 L61.6812448,10.5338397 L60.8609323,13.1080584 L60.2398386,13.1080584 L59.0132761,8.88149592 L59.8140573,8.88149592 L60.4781198,11.5689959 Z M66.2906198,13.1080584 L65.5210886,13.1080584 L65.5210886,12.3189959 L66.2906198,12.3189959 L66.2906198,13.1080584 Z M70.0484323,11.9713397 C70.0484323,11.802068 69.9839798,11.6640485 69.855073,11.5572772 C69.7261661,11.4505058 69.4820279,11.3567567 69.1226511,11.2760272 C68.6252528,11.1692558 68.2430951,11.0195177 67.9761667,10.8268084 C67.7092383,10.6340991 67.5757761,10.3762892 67.5757761,10.0533709 C67.5757761,9.70961921 67.722259,9.41535132 68.0152292,9.17055842 C68.3081994,8.92576553 68.6877529,8.80337092 69.1539011,8.80337092 C69.6330701,8.80337092 70.0210871,8.93357796 70.3179636,9.19399592 C70.6148401,9.45441389 70.7567657,9.75779628 70.7437448,10.1041522 L70.7359323,10.1275897 L70.0015573,10.1275897 C70.0015573,9.9452971 69.92148,9.77993417 69.761323,9.63149592 C69.6011659,9.48305768 69.398694,9.40883967 69.1539011,9.40883967 C68.8830664,9.40883967 68.6805945,9.47003698 68.5464792,9.59243342 C68.4123639,9.71482987 68.3453073,9.86066175 68.3453073,10.0299334 C68.3453073,10.1966009 68.4032495,10.3255059 68.5191355,10.4166522 C68.6350214,10.5077985 68.8739513,10.591131 69.2359323,10.6666522 C69.7541641,10.7760277 70.1473893,10.9309741 70.4156198,11.1314959 C70.6838503,11.3320178 70.8179636,11.5937339 70.8179636,11.9166522 C70.8179636,12.291654 70.6662724,12.5976406 70.3628855,12.8346209 C70.0594985,13.0716013 69.6630181,13.1900897 69.1734323,13.1900897 C68.6343671,13.1900897 68.2098922,13.0533723 67.8999948,12.7799334 C67.5900974,12.5064946 67.4429635,12.1874873 67.4585886,11.8229022 L67.4664011,11.7994647 L68.2007761,11.7994647 C68.213797,12.0729035 68.3153585,12.2727713 68.5054636,12.399074 C68.6955687,12.5253768 68.9182227,12.5885272 69.1734323,12.5885272 C69.4468712,12.5885272 69.6610618,12.530585 69.8160105,12.414699 C69.9709591,12.2988131 70.0484323,12.1510281 70.0484323,11.9713397 Z M72.4624948,8.88149592 L72.5171823,9.51040217 C72.657808,9.28644272 72.8342386,9.11261633 73.0464792,8.9889178 C73.2587198,8.86521926 73.5002539,8.80337092 73.7710886,8.80337092 C74.22682,8.80337092 74.5796811,8.93683313 74.8296823,9.20376155 C75.0796836,9.47068997 75.2046823,9.88279522 75.2046823,10.4400897 L75.2046823,13.1080584 L74.4351511,13.1080584 L74.4351511,10.4557147 C74.4351511,10.083317 74.3615841,9.81899671 74.214448,9.66274592 C74.0673118,9.50649514 73.8427047,9.42837092 73.5406198,9.42837092 C73.3036395,9.42837092 73.1024696,9.47589649 72.9371042,9.57094905 C72.7717388,9.66600161 72.6408807,9.79946382 72.5445261,9.97133967 L72.5445261,13.1080584 L71.7749948,13.1080584 L71.7749948,8.88149592 L72.4624948,8.88149592 Z M78.9195261,13.1080584 C78.8934843,12.9804536 78.8733022,12.8678245 78.8589792,12.7701678 C78.8446562,12.6725111 78.8361928,12.5742048 78.8335886,12.4752459 C78.6903587,12.6783719 78.5035116,12.8482921 78.2730417,12.9850115 C78.0425718,13.121731 77.7945274,13.1900897 77.5289011,13.1900897 C77.0887947,13.1900897 76.7535116,13.0774606 76.5230417,12.852199 C76.2925718,12.6269375 76.1773386,12.3163937 76.1773386,11.9205584 C76.1773386,11.5169106 76.3407484,11.2011585 76.667573,10.9732928 C76.9943975,10.7454271 77.4377524,10.6314959 77.9976511,10.6314959 L78.8335886,10.6314959 L78.8335886,10.2135272 C78.8335886,9.9661301 78.7580685,9.77016852 78.6070261,9.62563655 C78.4559837,9.48110458 78.2424441,9.40883967 77.9664011,9.40883967 C77.7163998,9.40883967 77.5145789,9.47133905 77.3609323,9.59633967 C77.2072857,9.7213403 77.1304636,9.87107839 77.1304636,10.0455584 L76.3999948,10.0533709 L76.3921823,10.0299334 C76.3739531,9.72264022 76.5178318,9.44139303 76.823823,9.18618342 C77.1298141,8.93097382 77.5249924,8.80337092 78.0093698,8.80337092 C78.4885389,8.80337092 78.8739517,8.9251145 79.1656198,9.1686053 C79.457288,9.4120961 79.6031198,9.76300405 79.6031198,10.2213397 L79.6031198,12.2564959 C79.6031198,12.4075383 79.6109322,12.5533702 79.6265573,12.6939959 C79.6421824,12.8346216 79.670828,12.9726411 79.7124948,13.1080584 L78.9195261,13.1080584 Z M77.6421823,12.5455584 C77.9208296,12.5455584 78.1721291,12.4739446 78.3960886,12.3307147 C78.620048,12.1874848 78.7658799,12.0234239 78.8335886,11.8385272 L78.8335886,11.1510272 L77.9703073,11.1510272 C77.6604099,11.1510272 77.4123655,11.2291514 77.2261667,11.3854022 C77.0399679,11.541653 76.9468698,11.7252449 76.9468698,11.9361834 C76.9468698,12.1236844 77.005463,12.2721204 77.1226511,12.3814959 C77.2398392,12.4908715 77.4130145,12.5455584 77.6421823,12.5455584 Z M84.3218698,11.1549334 C84.3218698,11.7643115 84.176038,12.255843 83.8843698,12.6295428 C83.5927017,13.0032426 83.190362,13.1900897 82.6773386,13.1900897 C82.4169206,13.1900897 82.1884073,13.1464703 81.9917917,13.0592303 C81.7951761,12.9719903 81.6278601,12.8411322 81.4898386,12.6666522 L81.4898386,14.7330584 L80.7203073,14.7330584 L80.7203073,8.88149592 L81.3101511,8.88149592 L81.4312448,9.42837092 C81.5692663,9.22524491 81.7411396,9.07029854 81.9468698,8.96352717 C82.1526,8.85675581 82.392181,8.80337092 82.6656198,8.80337092 C83.1890599,8.80337092 83.5959569,9.01105114 83.886323,9.4264178 C84.176689,9.84178446 84.3218698,10.3906071 84.3218698,11.0729022 L84.3218698,11.1549334 Z M83.5523386,11.0729022 C83.5523386,10.5937331 83.4579385,10.1998568 83.2691355,9.89126155 C83.0803324,9.58266626 82.8023404,9.42837092 82.4351511,9.42837092 C82.2137958,9.42837092 82.0249956,9.47850063 81.8687448,9.57876155 C81.712494,9.67902247 81.5861932,9.81639089 81.4898386,9.99087092 L81.4898386,12.0338397 C81.5861932,12.2083197 81.712494,12.3443861 81.8687448,12.4420428 C82.0249956,12.5396995 82.2163999,12.5885272 82.4429636,12.5885272 C82.8075487,12.5885272 83.0835876,12.455065 83.2710886,12.1881365 C83.4585895,11.9212081 83.5523386,11.5768105 83.5523386,11.1549334 L83.5523386,11.0729022 Z M86.9468698,12.5885272 C87.1838502,12.5885272 87.3908794,12.5097519 87.5679636,12.352199 C87.7450478,12.1946462 87.8335886,12.0012887 87.8335886,11.7721209 L88.5289011,11.7721209 L88.5406198,11.7955584 C88.5510365,12.1601436 88.3947881,12.4837081 88.0718698,12.7662615 C87.7489515,13.048815 87.3739553,13.1900897 86.9468698,13.1900897 C86.3531169,13.1900897 85.8947881,12.9882688 85.5718698,12.5846209 C85.2489515,12.1809731 85.0874948,11.6783739 85.0874948,11.0768084 L85.0874948,10.9127459 C85.0874948,10.3163888 85.2496026,9.81574274 85.573823,9.4107928 C85.8980433,9.00584286 86.355721,8.80337092 86.9468698,8.80337092 C87.4182263,8.80337092 87.8042902,8.9492028 88.105073,9.24087092 C88.4058557,9.53253905 88.5510365,9.89060839 88.5406198,10.3150897 L88.5328073,10.3385272 L87.8335886,10.3385272 C87.8335886,10.0807134 87.749605,9.86131454 87.5816355,9.68032405 C87.4136659,9.49933356 87.2020794,9.40883967 86.9468698,9.40883967 C86.5692638,9.40883967 86.2938759,9.55532258 86.120698,9.8482928 C85.94752,10.141263 85.8609323,10.4960772 85.8609323,10.9127459 L85.8609323,11.0768084 C85.8609323,11.5012897 85.9462179,11.859359 86.1167917,12.1510272 C86.2873655,12.4426953 86.5640554,12.5885272 86.9468698,12.5885272 Z M92.0523386,13.1080584 C92.0262968,12.9804536 92.0061147,12.8678245 91.9917917,12.7701678 C91.9774687,12.6725111 91.9690053,12.5742048 91.9664011,12.4752459 C91.8231712,12.6783719 91.6363241,12.8482921 91.4058542,12.9850115 C91.1753843,13.121731 90.9273399,13.1900897 90.6617136,13.1900897 C90.2216072,13.1900897 89.8863241,13.0774606 89.6558542,12.852199 C89.4253843,12.6269375 89.3101511,12.3163937 89.3101511,11.9205584 C89.3101511,11.5169106 89.4735609,11.2011585 89.8003855,10.9732928 C90.12721,10.7454271 90.5705649,10.6314959 91.1304636,10.6314959 L91.9664011,10.6314959 L91.9664011,10.2135272 C91.9664011,9.9661301 91.890881,9.77016852 91.7398386,9.62563655 C91.5887962,9.48110458 91.3752566,9.40883967 91.0992136,9.40883967 C90.8492123,9.40883967 90.6473914,9.47133905 90.4937448,9.59633967 C90.3400982,9.7213403 90.2632761,9.87107839 90.2632761,10.0455584 L89.5328073,10.0533709 L89.5249948,10.0299334 C89.5067656,9.72264022 89.6506443,9.44139303 89.9566355,9.18618342 C90.2626266,8.93097382 90.6578049,8.80337092 91.1421823,8.80337092 C91.6213514,8.80337092 92.0067642,8.9251145 92.2984323,9.1686053 C92.5901005,9.4120961 92.7359323,9.76300405 92.7359323,10.2213397 L92.7359323,12.2564959 C92.7359323,12.4075383 92.7437447,12.5533702 92.7593698,12.6939959 C92.7749949,12.8346216 92.8036405,12.9726411 92.8453073,13.1080584 L92.0523386,13.1080584 Z M90.7749948,12.5455584 C91.0536421,12.5455584 91.3049416,12.4739446 91.5289011,12.3307147 C91.7528605,12.1874848 91.8986924,12.0234239 91.9664011,11.8385272 L91.9664011,11.1510272 L91.1031198,11.1510272 C90.7932224,11.1510272 90.545178,11.2291514 90.3589792,11.3854022 C90.1727804,11.541653 90.0796823,11.7252449 90.0796823,11.9361834 C90.0796823,12.1236844 90.1382755,12.2721204 90.2554636,12.3814959 C90.3726517,12.4908715 90.545827,12.5455584 90.7749948,12.5455584 Z M94.6851511,13.1080584 L93.9156198,13.1080584 L93.9156198,7.01430842 L94.6851511,7.01430842 L94.6851511,13.1080584 Z M96.7007761,13.1080584 L95.9312448,13.1080584 L95.9312448,7.01430842 L96.7007761,7.01430842 L96.7007761,13.1080584 Z M98.7242136,13.1080584 L97.9546823,13.1080584 L97.9546823,12.3189959 L98.7242136,12.3189959 L98.7242136,13.1080584 Z M100.857026,13.1080584 L100.087495,13.1080584 L100.087495,8.88149592 L100.857026,8.88149592 L100.857026,13.1080584 Z M100.857026,7.79946467 L100.087495,7.79946467 L100.087495,7.01430842 L100.857026,7.01430842 L100.857026,7.79946467 Z M101.860932,10.9557147 C101.860932,10.3307115 102.030201,9.81574274 102.368745,9.4107928 C102.707288,9.00584286 103.166919,8.80337092 103.747651,8.80337092 C104.333592,8.80337092 104.796478,9.00519182 105.136323,9.40883967 C105.476168,9.81248753 105.646089,10.3281074 105.646089,10.9557147 L105.646089,11.0416522 C105.646089,11.6718637 105.476819,12.1874835 105.138276,12.5885272 C104.799733,12.9895708 104.3388,13.1900897 103.755464,13.1900897 C103.172127,13.1900897 102.710543,12.9889198 102.370698,12.586574 C102.030853,12.1842283 101.860932,11.6692595 101.860932,11.0416522 L101.860932,10.9557147 Z M102.630464,11.0416522 C102.630464,11.4895711 102.724864,11.859359 102.913667,12.1510272 C103.10247,12.4426953 103.383066,12.5885272 103.755464,12.5885272 C104.122653,12.5885272 104.401296,12.4426953 104.591401,12.1510272 C104.781506,11.859359 104.876557,11.4895711 104.876557,11.0416522 L104.876557,10.9557147 C104.876557,10.5130041 104.780855,10.1445182 104.589448,9.85024592 C104.398041,9.55597362 104.117445,9.40883967 103.747651,9.40883967 C103.380462,9.40883967 103.10247,9.55597362 102.913667,9.85024592 C102.724864,10.1445182 102.630464,10.5130041 102.630464,10.9557147 L102.630464,11.0416522 Z" id="https://www.snapcall.io" fill="#121820" fill-rule="nonzero"></path>
                                        <g id="Logo" transform="translate(6.799993, 7.000000)" stroke="#121820">
                                            <path d="M3.90045619,0 C1.74656749,-0.000273492312 0.000273492312,1.74561026 0,3.89954455 C-0.000273492312,6.05347883 1.74565585,7.79972725 3.89954455,7.80000074 C6.05347883,7.80027423 7.79977283,6.05434489 7.80000074,3.90045619 L7.80000074,3.90000037 C7.80000074,1.74624841 6.05420815,0.00022791026 3.90045619,0" id="Sign"></path>
                                        </g>
                                        <g id="Group-3" transform="translate(291.992001, 7.992001)" fill="#757575" fill-rule="nonzero">
                                            <path d="M2.59801684,2.61600057 L0.954204368,0.972188094 C0.75925462,0.777238346 0.75925462,0.461162354 0.954204368,0.266212607 C1.14915412,0.0712628587 1.46523011,0.0712628587 1.66017986,0.266212607 L3.30399233,1.91002508 L4.94780481,0.266212607 C5.14275455,0.0712628587 5.45883055,0.0712628587 5.65378029,0.266212607 C5.84873004,0.461162354 5.84873004,0.777238346 5.65378029,0.972188094 L4.00996782,2.61600057 L5.65378029,4.25981304 C5.84873004,4.45476279 5.84873004,4.77083878 5.65378029,4.96578853 C5.45883055,5.16073828 5.14275455,5.16073828 4.94780481,4.96578853 L3.30399233,3.32197606 L1.66017986,4.96578853 C1.46523011,5.16073828 1.14915412,5.16073828 0.954204368,4.96578853 C0.75925462,4.77083878 0.75925462,4.45476279 0.954204368,4.25981304 L2.59801684,2.61600057 Z" id="Close"></path>
                                        </g>
                                    </g>
                                    <g id="More" transform="translate(366.448065, 6.304001)">
                                        <path d="M0.936000103,2.51199883 C0.41906152,2.51199883 0,2.09293731 0,1.57599873 C0,1.05906015 0.41906152,0.639998625 0.936000103,0.639998625 C1.45293869,0.639998625 1.87200021,1.05906015 1.87200021,1.57599873 C1.87200021,2.09293731 1.45293869,2.51199883 0.936000103,2.51199883 Z M0.936000103,5.63199917 C0.41906152,5.63199917 0,5.21293765 0,4.69599907 C0,4.17906049 0.41906152,3.75999897 0.936000103,3.75999897 C1.45293869,3.75999897 1.87200021,4.17906049 1.87200021,4.69599907 C1.87200021,5.21293765 1.45293869,5.63199917 0.936000103,5.63199917 Z M0.936000103,8.75199951 C0.41906152,8.75199951 0,8.33293799 0,7.81599941 C0,7.29906083 0.41906152,6.87999931 0.936000103,6.87999931 C1.45293869,6.87999931 1.87200021,7.29906083 1.87200021,7.81599941 C1.87200021,8.33293799 1.45293869,8.75199951 0.936000103,8.75199951 Z" id="Combined-Shape" fill="#757575"></path>
                                    </g>
                                    <g id="Traffic-" transform="translate(0.096002, 6.864001)">
                                        <circle id="Extend" fill="#29CA41" cx="28.3920031" cy="3.43200038" r="3.43200038"></circle>
                                        <circle id="Close" fill="#FF6058" cx="3.43200038" cy="3.43200038" r="3.43200038"></circle>
                                        <circle id="Minimize" fill="#FFBD2E" cx="15.9120017" cy="3.43200038" r="3.43200038"></circle>
                                    </g>
                                </g>
                            </g>
                            <path d="M1,40.5 L427,40.5" id="Line-5" stroke="#F8F8F8" mask="url(#mask-2)"></path>
                        </g>
                        <g id="Content" transform="translate(63.500000, 39.000000)">
                            <g id="CTA" transform="translate(195.000000, 162.000000)">
                                <path d="M11.7000006,0 L90.2999994,5.32907052e-15 C96.7617313,4.14206962e-15 102,5.23826872 102,11.7000006 L102,11.7000006 C102,18.1617326 96.7617313,23.4000013 90.2999994,23.4000013 L11.7000006,23.4000013 C5.23826872,23.4000013 7.91333932e-16,18.1617326 0,11.7000006 L0,11.7000006 C-7.91333932e-16,5.23826872 5.23826872,2.96335774e-15 11.7000006,1.77635684e-15 Z" id="Green" fill="#3B655B"></path>
                                <path d="M41.2592773,13.4773444 L42.480957,13.4773444 C42.5161133,13.921192 42.9160156,14.3166999 43.6762695,14.3166999 C44.3837891,14.3166999 44.7617188,14.0002936 44.7617188,13.5344733 C44.7617188,13.1257819 44.4541016,12.928028 43.8476562,12.7917975 L42.9467773,12.5852545 C42.1030273,12.4050788 41.3999023,11.9304694 41.3999023,10.9109381 C41.3999023,9.73320377 42.4018555,9.07841861 43.671875,9.07841861 C45.012207,9.07841861 45.9130859,9.81669986 45.9262695,10.8757819 L44.7397461,10.8757819 C44.7089844,10.4539069 44.3618164,10.0627936 43.6674805,10.0627936 C43.0522461,10.0627936 42.6699219,10.3528327 42.6699219,10.8142585 C42.6699219,11.1614264 42.9511719,11.3943366 43.4873047,11.5041999 L44.3969727,11.7063483 C45.2758789,11.8953131 46.0185547,12.3215827 46.0185547,13.4114264 C46.0185547,14.5891608 45.1000977,15.3142585 43.6147461,15.3142585 C41.8481445,15.3142585 41.2768555,14.3254889 41.2592773,13.4773444 Z M49.4594727,14.6331061 C49.2836914,14.971485 48.8969727,15.2703131 48.2070312,15.2703131 C47.2973633,15.2703131 46.6689453,14.7341803 46.6689453,13.8508795 C46.6689453,13.0071295 47.253418,12.4709967 48.3344727,12.4709967 L49.4594727,12.4709967 L49.4594727,12.0579108 C49.4594727,11.6184577 49.1914062,11.3723639 48.734375,11.3723639 C48.2817383,11.3723639 48.0180664,11.6184577 47.9960938,11.9744147 L46.840332,11.9744147 C46.8710938,11.1965827 47.3632812,10.4539069 48.7563477,10.4539069 C49.8417969,10.4539069 50.6767578,10.9460944 50.6767578,12.0579108 L50.6767578,15.2000006 L49.512207,15.2000006 L49.512207,14.6331061 L49.4594727,14.6331061 Z M48.6157227,14.3826178 C49.081543,14.3826178 49.4594727,14.0969733 49.4594727,13.6707038 L49.4594727,13.1873053 L48.6289062,13.1873053 C48.1411133,13.1873053 47.8950195,13.4202155 47.8950195,13.7629889 C47.8950195,14.1804694 48.246582,14.3826178 48.6157227,14.3826178 Z M52.7158203,15.2000006 L51.190918,10.5242194 L52.5136719,10.5242194 L53.4145508,14.0002936 L53.4584961,14.0002936 L54.4604492,10.5242194 L55.7392578,10.5242194 L54.1264648,15.2000006 L52.7158203,15.2000006 Z M58.2529297,15.2834967 C56.965332,15.2834967 56.1040039,14.4924811 56.1040039,13.0422858 L56.1040039,12.6335944 C56.1040039,11.2361335 56.9741211,10.4407233 58.2045898,10.4407233 C59.487793,10.4407233 60.2919922,11.306446 60.2919922,12.6599616 L60.2919922,13.1213874 L57.3168945,13.1213874 L57.3168945,13.2620124 C57.3168945,13.9299811 57.7080078,14.3518561 58.2617188,14.3518561 C58.7099609,14.3518561 59.0307617,14.1321295 59.1142578,13.7629889 L60.2524414,13.7629889 C60.1557617,14.5056647 59.5493164,15.2834967 58.2529297,15.2834967 Z M57.3168945,12.365528 L59.1010742,12.365528 L59.1010742,12.3567389 C59.1010742,11.7810553 58.7495117,11.3459967 58.2133789,11.3459967 C57.6728516,11.3459967 57.3168945,11.7854499 57.3168945,12.3567389 L57.3168945,12.365528 Z" id="Save" fill="#FFFFFF" fill-rule="nonzero"></path>
                            </g>
                            <g id="5" transform="translate(195.000000, 118.000000)">
                                <g id="Input" transform="translate(0.000000, 12.000000)">
                                    <path d="M11.7000006,-3.19744231e-14 L90.2999994,-2.66453526e-14 C96.7617313,-2.78323535e-14 102,5.23826872 102,11.7000006 L102,11.7000006 C102,18.1617326 96.7617313,23.4000013 90.2999994,23.4000013 L11.7000006,23.4000013 C5.23826872,23.4000013 7.91333932e-16,18.1617326 0,11.7000006 L0,11.7000006 C-7.91333932e-16,5.23826872 5.23826872,-2.90110654e-14 11.7000006,-3.01980663e-14 Z" id="Mask-Copy-4" stroke-opacity="0.2" stroke="#121820"></path>
                                    <rect id="Rectangle-Copy-10" fill-opacity="0.2" fill="#121820" x="11.0912552" y="10.7000006" width="20" height="2" rx="1"></rect>
                                </g>
                                <rect id="Label" fill="#D2D2D2" x="1.5" y="0" width="32" height="4" rx="2"></rect>
                            </g>
                            <g id="4" transform="translate(195.000000, 56.500000)">
                                <g id="Dropdown-Copy">
                                    <path d="M11.7000006,17 L90.2999994,17 C96.7617313,17 102,22.2382687 102,28.7000006 L102,28.7000006 C102,35.1617326 96.7617313,40.4000013 90.2999994,40.4000013 L11.7000006,40.4000013 C5.23826872,40.4000013 7.91333932e-16,35.1617326 0,28.7000006 L0,28.7000006 C-7.91333932e-16,22.2382687 5.23826872,17 11.7000006,17 Z" id="Mask-Copy-3" stroke="#121820"></path>
                                    <path d="M0.259277344,5.27734375 L1.48095703,5.27734375 C1.51611328,5.72119141 1.91601562,6.11669922 2.67626953,6.11669922 C3.38378906,6.11669922 3.76171875,5.80029297 3.76171875,5.33447266 C3.76171875,4.92578125 3.45410156,4.72802734 2.84765625,4.59179688 L1.94677734,4.38525391 C1.10302734,4.20507812 0.399902344,3.73046875 0.399902344,2.7109375 C0.399902344,1.53320312 1.40185547,0.878417969 2.671875,0.878417969 C4.01220703,0.878417969 4.91308594,1.61669922 4.92626953,2.67578125 L3.73974609,2.67578125 C3.70898438,2.25390625 3.36181641,1.86279297 2.66748047,1.86279297 C2.05224609,1.86279297 1.66992188,2.15283203 1.66992188,2.61425781 C1.66992188,2.96142578 1.95117188,3.19433594 2.48730469,3.30419922 L3.39697266,3.50634766 C4.27587891,3.6953125 5.01855469,4.12158203 5.01855469,5.21142578 C5.01855469,6.38916016 4.10009766,7.11425781 2.61474609,7.11425781 C0.848144531,7.11425781 0.276855469,6.12548828 0.259277344,5.27734375 Z M7.86181641,7.08349609 C6.57421875,7.08349609 5.71289062,6.29248047 5.71289062,4.84228516 L5.71289062,4.43359375 C5.71289062,3.03613281 6.58300781,2.24072266 7.81347656,2.24072266 C9.09667969,2.24072266 9.90087891,3.10644531 9.90087891,4.45996094 L9.90087891,4.92138672 L6.92578125,4.92138672 L6.92578125,5.06201172 C6.92578125,5.72998047 7.31689453,6.15185547 7.87060547,6.15185547 C8.31884766,6.15185547 8.63964844,5.93212891 8.72314453,5.56298828 L9.86132812,5.56298828 C9.76464844,6.30566406 9.15820312,7.08349609 7.86181641,7.08349609 Z M6.92578125,4.16552734 L8.70996094,4.16552734 L8.70996094,4.15673828 C8.70996094,3.58105469 8.35839844,3.14599609 7.82226562,3.14599609 C7.28173828,3.14599609 6.92578125,3.58544922 6.92578125,4.15673828 L6.92578125,4.16552734 Z M11.1928711,2.32421875 L11.1928711,1.22119141 L12.3925781,1.22119141 L12.3925781,2.32421875 L13.293457,2.32421875 L13.293457,3.27783203 L12.3925781,3.27783203 L12.3925781,5.49267578 C12.3925781,5.94091797 12.590332,6.08154297 13.0561523,6.08154297 C13.1572266,6.08154297 13.2583008,6.08154297 13.3110352,6.07275391 L13.3110352,6.98242188 C13.21875,7 13.003418,7.02197266 12.7573242,7.02197266 C11.5839844,7.02197266 11.1665039,6.63525391 11.1665039,5.67285156 L11.1665039,3.27783203 L10.4985352,3.27783203 L10.4985352,2.32421875 L11.1928711,2.32421875 Z M20.8037109,2.93945312 L19.5644531,2.93945312 C19.4985352,2.35498047 19.0766602,1.94628906 18.3867188,1.94628906 C17.5561523,1.94628906 17.090332,2.54394531 17.090332,3.58544922 L17.090332,4.35009766 C17.090332,5.36083984 17.4726562,6.05517578 18.421875,6.05517578 C19.1601562,6.05517578 19.6040039,5.59375 19.6040039,5.01806641 L19.6040039,4.67529297 L18.4306641,4.67529297 L18.4306641,3.74804688 L20.8125,3.74804688 L20.8125,4.93457031 C20.8125,6.09472656 19.9819336,7.11425781 18.3955078,7.11425781 C16.6157227,7.11425781 15.8071289,5.96728516 15.8071289,4.35449219 L15.8071289,3.57226562 C15.8071289,1.96826172 16.734375,0.887207031 18.3911133,0.887207031 C19.9116211,0.887207031 20.7597656,1.83203125 20.8037109,2.93945312 Z M23.7260742,2.24072266 C25.1103516,2.24072266 25.8837891,3.18115234 25.8837891,4.48193359 L25.8837891,4.81152344 C25.8837891,6.19140625 25.1147461,7.08349609 23.7260742,7.08349609 C22.3330078,7.08349609 21.5551758,6.19140625 21.5551758,4.81591797 L21.5551758,4.48632812 C21.5551758,3.18994141 22.3330078,2.24072266 23.7260742,2.24072266 Z M23.7216797,3.18554688 C23.0800781,3.18554688 22.8076172,3.75683594 22.8076172,4.47753906 L22.8076172,4.83789062 C22.8076172,5.53222656 23.0712891,6.13427734 23.7216797,6.13427734 C24.3720703,6.13427734 24.6357422,5.53662109 24.6357422,4.83789062 L24.6357422,4.47753906 C24.6357422,3.75244141 24.3632812,3.18554688 23.7216797,3.18554688 Z M28.7841797,2.24072266 C30.168457,2.24072266 30.9418945,3.18115234 30.9418945,4.48193359 L30.9418945,4.81152344 C30.9418945,6.19140625 30.1728516,7.08349609 28.7841797,7.08349609 C27.3911133,7.08349609 26.6132812,6.19140625 26.6132812,4.81591797 L26.6132812,4.48632812 C26.6132812,3.18994141 27.3911133,2.24072266 28.7841797,2.24072266 Z M28.7797852,3.18554688 C28.1381836,3.18554688 27.8657227,3.75683594 27.8657227,4.47753906 L27.8657227,4.83789062 C27.8657227,5.53222656 28.1293945,6.13427734 28.7797852,6.13427734 C29.4301758,6.13427734 29.6938477,5.53662109 29.6938477,4.83789062 L29.6938477,4.47753906 C29.6938477,3.75244141 29.4213867,3.18554688 28.7797852,3.18554688 Z M33.8686523,7.83935547 C34.4707031,7.83935547 34.8222656,7.4921875 34.8222656,6.88134766 L34.8222656,6.19580078 L34.7695312,6.19580078 C34.5981445,6.60888672 34.1103516,6.93408203 33.4555664,6.93408203 C32.4008789,6.93408203 31.6889648,6.17382812 31.6889648,4.73242188 L31.6889648,4.45996094 C31.6889648,3.03173828 32.3964844,2.26708984 33.4555664,2.26708984 C34.1015625,2.26708984 34.59375,2.58789062 34.7827148,3.02294922 L34.8354492,3.02294922 L34.8354492,2.32421875 L36.0571289,2.32421875 L36.0571289,6.96923828 C36.0571289,8.265625 34.9101562,8.73144531 33.8510742,8.73144531 C32.4755859,8.73144531 31.847168,8.08544922 31.7900391,7.30322266 L32.980957,7.30322266 C33.0556641,7.61962891 33.3896484,7.83935547 33.8686523,7.83935547 Z M33.8994141,3.24267578 C33.3193359,3.24267578 32.9589844,3.68212891 32.9589844,4.49511719 L32.9589844,4.76318359 C32.9589844,5.57177734 33.3193359,6.02001953 33.8994141,6.02001953 C34.4663086,6.02001953 34.8222656,5.57177734 34.8222656,4.76318359 L34.8222656,4.49511719 C34.8222656,3.69970703 34.453125,3.24267578 33.8994141,3.24267578 Z M37.2041016,7 L37.2041016,0.685058594 L38.4433594,0.685058594 L38.4433594,7 L37.2041016,7 Z M41.5458984,7.08349609 C40.2583008,7.08349609 39.3969727,6.29248047 39.3969727,4.84228516 L39.3969727,4.43359375 C39.3969727,3.03613281 40.2670898,2.24072266 41.4975586,2.24072266 C42.7807617,2.24072266 43.5849609,3.10644531 43.5849609,4.45996094 L43.5849609,4.92138672 L40.6098633,4.92138672 L40.6098633,5.06201172 C40.6098633,5.72998047 41.0009766,6.15185547 41.5546875,6.15185547 C42.0029297,6.15185547 42.3237305,5.93212891 42.4072266,5.56298828 L43.5454102,5.56298828 C43.4487305,6.30566406 42.8422852,7.08349609 41.5458984,7.08349609 Z M40.6098633,4.16552734 L42.394043,4.16552734 L42.394043,4.15673828 C42.394043,3.58105469 42.0424805,3.14599609 41.5063477,3.14599609 C40.9658203,3.14599609 40.6098633,3.58544922 40.6098633,4.15673828 L40.6098633,4.16552734 Z M47.0478516,7 L45.769043,7 L47.7553711,1.00146484 L49.2670898,1.00146484 L51.2446289,7 L49.8911133,7 L49.4472656,5.51025391 L47.4960938,5.51025391 L47.0478516,7 Z M48.5068359,2.19677734 L48.449707,2.19677734 L47.746582,4.57421875 L49.2011719,4.57421875 L48.5068359,2.19677734 Z M51.8554688,7 L51.8554688,2.32421875 L53.0595703,2.32421875 L53.0595703,3.02294922 L53.1123047,3.02294922 C53.2573242,2.69775391 53.6835938,2.25390625 54.4702148,2.25390625 C55.4150391,2.25390625 56.0698242,2.84716797 56.0698242,3.98974609 L56.0698242,7 L54.8349609,7 L54.8349609,4.26660156 C54.8349609,3.56347656 54.4306641,3.29980469 53.9692383,3.29980469 C53.4111328,3.29980469 53.090332,3.69970703 53.090332,4.28417969 L53.090332,7 L51.8554688,7 Z M59.6865234,6.43310547 C59.5107422,6.77148438 59.1240234,7.0703125 58.434082,7.0703125 C57.5244141,7.0703125 56.8959961,6.53417969 56.8959961,5.65087891 C56.8959961,4.80712891 57.4804688,4.27099609 58.5615234,4.27099609 L59.6865234,4.27099609 L59.6865234,3.85791016 C59.6865234,3.41845703 59.418457,3.17236328 58.9614258,3.17236328 C58.5087891,3.17236328 58.2451172,3.41845703 58.2231445,3.77441406 L57.0673828,3.77441406 C57.0981445,2.99658203 57.590332,2.25390625 58.9833984,2.25390625 C60.0688477,2.25390625 60.9038086,2.74609375 60.9038086,3.85791016 L60.9038086,7 L59.7392578,7 L59.7392578,6.43310547 L59.6865234,6.43310547 Z M58.8427734,6.18261719 C59.3085938,6.18261719 59.6865234,5.89697266 59.6865234,5.47070312 L59.6865234,4.98730469 L58.855957,4.98730469 C58.3681641,4.98730469 58.1220703,5.22021484 58.1220703,5.56298828 C58.1220703,5.98046875 58.4736328,6.18261719 58.8427734,6.18261719 Z M62.0068359,7 L62.0068359,0.685058594 L63.2460938,0.685058594 L63.2460938,7 L62.0068359,7 Z M68.4755859,2.32421875 C68.4755859,2.32421875 66.9902344,6.78466797 66.9682617,6.83740234 L66.8496094,7.15820312 C66.5288086,8.01513672 66.0717773,8.65673828 64.8457031,8.65673828 C64.5776367,8.65673828 64.3007812,8.63037109 64.1733398,8.60400391 L64.1733398,7.72509766 C64.2524414,7.74267578 64.4326172,7.75585938 64.5644531,7.75585938 C65.1445312,7.75585938 65.3334961,7.53173828 65.4038086,7.14941406 L65.4389648,7 L63.84375,2.32421875 L65.2104492,2.32421875 L66.1508789,5.91015625 L66.1992188,5.91015625 L67.1660156,2.32421875 L68.4755859,2.32421875 Z M69.4204102,2.32421875 L69.4204102,1.22119141 L70.6201172,1.22119141 L70.6201172,2.32421875 L71.5209961,2.32421875 L71.5209961,3.27783203 L70.6201172,3.27783203 L70.6201172,5.49267578 C70.6201172,5.94091797 70.8178711,6.08154297 71.2836914,6.08154297 C71.3847656,6.08154297 71.4858398,6.08154297 71.5385742,6.07275391 L71.5385742,6.98242188 C71.4462891,7 71.230957,7.02197266 70.9848633,7.02197266 C69.8115234,7.02197266 69.394043,6.63525391 69.394043,5.67285156 L69.394043,3.27783203 L68.7260742,3.27783203 L68.7260742,2.32421875 L69.4204102,2.32421875 Z M72.4921875,7 L72.4921875,2.32421875 L73.7270508,2.32421875 L73.7270508,7 L72.4921875,7 Z M72.421875,1.15966797 C72.421875,0.781738281 72.7294922,0.526855469 73.1074219,0.526855469 C73.4853516,0.526855469 73.7973633,0.781738281 73.7973633,1.15966797 C73.7973633,1.54199219 73.4853516,1.796875 73.1074219,1.796875 C72.7294922,1.796875 72.421875,1.54199219 72.421875,1.15966797 Z M74.6894531,4.82470703 L74.6894531,4.45117188 C74.6894531,3.15039062 75.4760742,2.24072266 76.7988281,2.24072266 C77.9985352,2.24072266 78.7280273,2.99658203 78.7543945,3.92822266 L77.6206055,3.92822266 C77.5634766,3.54589844 77.269043,3.21630859 76.8515625,3.21630859 C76.2802734,3.21630859 75.9331055,3.6953125 75.9331055,4.46435547 L75.9331055,4.81591797 C75.9331055,5.62011719 76.2890625,6.10791016 76.855957,6.10791016 C77.3613281,6.10791016 77.5898438,5.79589844 77.6381836,5.43994141 L78.7719727,5.43994141 C78.684082,6.52978516 77.90625,7.08349609 76.7944336,7.08349609 C75.4936523,7.08349609 74.6894531,6.20898438 74.6894531,4.82470703 Z M79.4750977,3.72167969 C79.4750977,2.67578125 80.3759766,2.24072266 81.3779297,2.24072266 C82.4897461,2.24072266 83.1884766,2.78564453 83.1884766,3.67333984 L82.0986328,3.67333984 C82.0678711,3.39208984 81.8833008,3.08447266 81.3515625,3.08447266 C80.9208984,3.08447266 80.6484375,3.29101562 80.6484375,3.60742188 C80.6484375,4.06005859 81.3339844,4.13037109 81.8657227,4.22705078 C82.7270508,4.38085938 83.3334961,4.68847656 83.3334961,5.54101562 C83.3334961,6.5078125 82.5820312,7.08349609 81.3164062,7.08349609 C80.081543,7.08349609 79.378418,6.5078125 79.378418,5.67724609 L80.578125,5.67724609 C80.6220703,6.00683594 80.9121094,6.23535156 81.3823242,6.23535156 C81.8964844,6.23535156 82.1381836,5.98486328 82.1381836,5.69921875 C82.1381836,5.26416016 81.5668945,5.20703125 80.9824219,5.08837891 C80.1474609,4.91259766 79.4750977,4.59179688 79.4750977,3.72167969 Z" id="SetGoogleAnalytics" fill="#121820" fill-rule="nonzero"></path>
                                    <path d="M12.3227539,26.20586 L12.3227539,30.1213874 C12.3227539,31.0969733 12.9379883,31.7297858 13.9135742,31.7297858 C14.8891602,31.7297858 15.5043945,31.0969733 15.5043945,30.1213874 L15.5043945,26.20586 L16.1503906,26.20586 L16.1503906,30.2048835 C16.1503906,31.4485358 15.3198242,32.327442 13.9135742,32.327442 C12.5117188,32.327442 11.6767578,31.4485358 11.6767578,30.2048835 L11.6767578,26.20586 L12.3227539,26.20586 Z M17.6533203,32.2000006 L16.9633789,32.2000006 L19.1166992,26.20586 L19.7626953,26.20586 L21.9116211,32.2000006 L21.2260742,32.2000006 L20.5888672,30.3323249 L18.2905273,30.3323249 L17.6533203,32.2000006 Z M19.4462891,27.0144538 L19.4287109,27.0144538 L18.4750977,29.7917975 L20.3999023,29.7917975 L19.4462891,27.0144538 Z M25.1547852,30.0247077 L22.3862305,30.0247077 L22.3862305,29.4490241 L25.1547852,29.4490241 L25.1547852,30.0247077 Z M30.340332,26.20586 L28.3276367,29.233692 L30.3007812,32.2000006 L29.5009766,32.2000006 L27.9321289,29.7522467 L27.8925781,29.7522467 L26.3105469,32.2000006 L25.559082,32.2000006 L27.5454102,29.1809577 L25.5854492,26.20586 L26.3764648,26.20586 L27.9672852,28.6536139 L28.0068359,28.6536139 L29.5844727,26.20586 L30.340332,26.20586 Z M35.253418,26.20586 L33.2407227,29.233692 L35.2138672,32.2000006 L34.4140625,32.2000006 L32.8452148,29.7522467 L32.8056641,29.7522467 L31.2236328,32.2000006 L30.472168,32.2000006 L32.4584961,29.1809577 L30.4985352,26.20586 L31.2895508,26.20586 L32.8803711,28.6536139 L32.9199219,28.6536139 L34.4975586,26.20586 L35.253418,26.20586 Z M40.1665039,26.20586 L38.1538086,29.233692 L40.1269531,32.2000006 L39.3271484,32.2000006 L37.7583008,29.7522467 L37.71875,29.7522467 L36.1367188,32.2000006 L35.3852539,32.2000006 L37.371582,29.1809577 L35.4116211,26.20586 L36.2026367,26.20586 L37.793457,28.6536139 L37.8330078,28.6536139 L39.4106445,26.20586 L40.1665039,26.20586 Z M45.0795898,26.20586 L43.0668945,29.233692 L45.0400391,32.2000006 L44.2402344,32.2000006 L42.6713867,29.7522467 L42.6318359,29.7522467 L41.0498047,32.2000006 L40.2983398,32.2000006 L42.284668,29.1809577 L40.324707,26.20586 L41.1157227,26.20586 L42.706543,28.6536139 L42.7460938,28.6536139 L44.3237305,26.20586 L45.0795898,26.20586 Z M48.2480469,30.0247077 L45.4794922,30.0247077 L45.4794922,29.4490241 L48.2480469,29.4490241 L48.2480469,30.0247077 Z M53.4335938,26.20586 L51.4208984,29.233692 L53.394043,32.2000006 L52.5942383,32.2000006 L51.0253906,29.7522467 L50.9858398,29.7522467 L49.4038086,32.2000006 L48.6523438,32.2000006 L50.6386719,29.1809577 L48.6787109,26.20586 L49.4697266,26.20586 L51.0605469,28.6536139 L51.1000977,28.6536139 L52.6777344,26.20586 L53.4335938,26.20586 Z" id="UA-XXXX-X" fill="#121820" fill-rule="nonzero"></path>
                                </g>
                            </g>
                            <g id="3" transform="translate(0.500000, 162.000000)">
                                <g id="Dropdown">
                                    <path d="M11.7000006,0 L90.2999994,5.32907052e-15 C96.7617313,4.14206962e-15 102,5.23826872 102,11.7000006 L102,11.7000006 C102,18.1617326 96.7617313,23.4000013 90.2999994,23.4000013 L11.7000006,23.4000013 C5.23826872,23.4000013 7.91333932e-16,18.1617326 0,11.7000006 L0,11.7000006 C-7.91333932e-16,5.23826872 5.23826872,2.96335774e-15 11.7000006,1.77635684e-15 Z" id="Mask-Copy-4" stroke-opacity="0.2" stroke="#121820"></path>
                                    <rect id="Rectangle-Copy-10" fill-opacity="0.2" fill="#121820" x="11.0912552" y="10.7000006" width="20" height="2" rx="1"></rect>
                                </g>
                            </g>
                            <g id="2" transform="translate(0.500000, 118.000000)">
                                <g id="Line-2" transform="translate(0.000000, 12.000000)">
                                    <g id="Dropdown">
                                        <path d="M11.7000006,0 L90.2999994,5.32907052e-15 C96.7617313,4.14206962e-15 102,5.23826872 102,11.7000006 L102,11.7000006 C102,18.1617326 96.7617313,23.4000013 90.2999994,23.4000013 L11.7000006,23.4000013 C5.23826872,23.4000013 7.91333932e-16,18.1617326 0,11.7000006 L0,11.7000006 C-7.91333932e-16,5.23826872 5.23826872,2.96335774e-15 11.7000006,1.77635684e-15 Z" id="Mask-Copy-4" stroke-opacity="0.2" stroke="#121820"></path>
                                        <rect id="Rectangle-Copy-10" fill-opacity="0.2" fill="#121820" x="11.0912552" y="10.7000006" width="20" height="2" rx="1"></rect>
                                    </g>
                                </g>
                                <rect id="Label" fill="#D2D2D2" x="1.5" y="0" width="32" height="4" rx="2"></rect>
                            </g>
                            <g id="1" transform="translate(0.500000, 61.500000)">
                                <g id="Input" transform="translate(0.000000, 12.000000)">
                                    <g id="Dropdown">
                                        <path d="M11.7000006,0 L90.2999994,5.32907052e-15 C96.7617313,4.14206962e-15 102,5.23826872 102,11.7000006 L102,11.7000006 C102,18.1617326 96.7617313,23.4000013 90.2999994,23.4000013 L11.7000006,23.4000013 C5.23826872,23.4000013 7.91333932e-16,18.1617326 0,11.7000006 L0,11.7000006 C-7.91333932e-16,5.23826872 5.23826872,2.96335774e-15 11.7000006,1.77635684e-15 Z" id="Mask-Copy-4" stroke-opacity="0.2" stroke="#121820"></path>
                                        <rect id="Rectangle-Copy-10" fill-opacity="0.2" fill="#121820" x="11.0912552" y="10.7000006" width="20" height="2" rx="1"></rect>
                                    </g>
                                </g>
                                <rect id="Rectangle-Copy-17" fill="#D2D2D2" x="1.5" y="0" width="32" height="4" rx="2"></rect>
                            </g>
                            <path d="M165.5,1.5 L165.5,214.5" id="Line" stroke="#DCDCDC" stroke-width="0.5" stroke-linecap="square"></path>
                        </g>
                    </g>
                </g>
            </g>
        </g>
    </g>
</svg>