<?xml version="1.0" encoding="UTF-8"?>
<svg width="487px" height="314px" viewBox="0 0 487 314" version="1.1" xmlns="http://www.w3.org/2000/svg" xmlns:xlink="http://www.w3.org/1999/xlink">
    <!-- Generator: Sketch 54.1 (76490) - https://sketchapp.com -->
    <title>Illustration-4</title>
    <desc>Created with Sketch.</desc>
    <defs>
        <path d="M51.277704,-2.07168062e-15 L375.722296,2.07168062e-15 C393.552671,-1.2037061e-15 400.018396,1.85651222 406.536914,5.34265408 C413.055433,8.82879593 418.171204,13.9445674 421.657346,20.4630859 C425.143488,26.9816044 427,33.4473292 427,51.277704 L427,202.722296 C427,220.552671 425.143488,227.018396 421.657346,233.536914 C418.171204,240.055433 413.055433,245.171204 406.536914,248.657346 C400.018396,252.143488 393.552671,254 375.722296,254 L51.277704,254 C33.4473292,254 26.9816044,252.143488 20.4630859,248.657346 C13.9445674,245.171204 8.82879593,240.055433 5.34265408,233.536914 C1.85651222,227.018396 8.02470732e-16,220.552671 -1.38112041e-15,202.722296 L1.38112041e-15,51.277704 C-8.02470732e-16,33.4473292 1.85651222,26.9816044 5.34265408,20.4630859 C8.82879593,13.9445674 13.9445674,8.82879593 20.4630859,5.34265408 C26.9816044,1.85651222 33.4473292,1.2037061e-15 51.277704,-2.07168062e-15 Z" id="path-1"></path>
        <filter x="-12.9%" y="-13.8%" width="125.8%" height="143.3%" filterUnits="objectBoundingBox" id="filter-3">
            <feOffset dx="0" dy="20" in="SourceAlpha" result="shadowOffsetOuter1"></feOffset>
            <feGaussianBlur stdDeviation="15" in="shadowOffsetOuter1" result="shadowBlurOuter1"></feGaussianBlur>
            <feColorMatrix values="0 0 0 0 0   0 0 0 0 0   0 0 0 0 0  0 0 0 0.2 0" type="matrix" in="shadowBlurOuter1"></feColorMatrix>
        </filter>
    </defs>
    <g id="Web-Design" stroke="none" stroke-width="1" fill="none" fill-rule="evenodd">
        <g id="2h-Product-Data-&amp;-Analytics" transform="translate(-756.000000, -2514.000000)">
            <g id="Section-1" transform="translate(234.000000, 681.000000)">
                <g id="4" transform="translate(0.000000, 1842.500000)">
                    <g id="Illustration-4" transform="translate(552.000000, 0.500000)">
                        <g id="Screen/Layout/Desktop/Dashboard">
                            <mask id="mask-2" fill="white">
                                <use xlink:href="#path-1"></use>
                            </mask>
                            <g id="Rectangle">
                                <use fill="black" fill-opacity="1" filter="url(#filter-3)" xlink:href="#path-1"></use>
                                <use fill="#FFFFFF" fill-rule="evenodd" xlink:href="#path-1"></use>
                            </g>
                            <path d="M62.4033203,67.3203125 L64.3037109,67.3203125 C64.3583984,68.0107422 64.9804688,68.6259766 66.1630859,68.6259766 C67.2636719,68.6259766 67.8515625,68.1337891 67.8515625,67.4091797 C67.8515625,66.7734375 67.3730469,66.4658203 66.4296875,66.2539062 L65.0283203,65.9326172 C63.7158203,65.6523438 62.6220703,64.9140625 62.6220703,63.328125 C62.6220703,61.4960938 64.1806641,60.4775391 66.15625,60.4775391 C68.2412109,60.4775391 69.6425781,61.6259766 69.6630859,63.2734375 L67.8173828,63.2734375 C67.7695312,62.6171875 67.2294922,62.0087891 66.1494141,62.0087891 C65.1923828,62.0087891 64.5976562,62.4599609 64.5976562,63.1777344 C64.5976562,63.7177734 65.0351562,64.0800781 65.8691406,64.2509766 L67.2841797,64.5654297 C68.6513672,64.859375 69.8066406,65.5224609 69.8066406,67.2177734 C69.8066406,69.0498047 68.3779297,70.1777344 66.0673828,70.1777344 C63.3193359,70.1777344 62.4306641,68.6396484 62.4033203,67.3203125 Z M71.7753906,62.7265625 L71.7753906,61.0107422 L73.6416016,61.0107422 L73.6416016,62.7265625 L75.0429688,62.7265625 L75.0429688,64.2099609 L73.6416016,64.2099609 L73.6416016,67.6552734 C73.6416016,68.3525391 73.9492188,68.5712891 74.6738281,68.5712891 C74.8310547,68.5712891 74.9882812,68.5712891 75.0703125,68.5576172 L75.0703125,69.9726562 C74.9267578,70 74.5917969,70.0341797 74.2089844,70.0341797 C72.3837891,70.0341797 71.734375,69.4326172 71.734375,67.9355469 L71.734375,64.2099609 L70.6953125,64.2099609 L70.6953125,62.7265625 L71.7753906,62.7265625 Z M80.4570312,69.1181641 C80.1835938,69.6445312 79.5820312,70.109375 78.5087891,70.109375 C77.09375,70.109375 76.1162109,69.2753906 76.1162109,67.9013672 C76.1162109,66.5888672 77.0253906,65.7548828 78.7070312,65.7548828 L80.4570312,65.7548828 L80.4570312,65.1123047 C80.4570312,64.4287109 80.0400391,64.0458984 79.3291016,64.0458984 C78.625,64.0458984 78.2148438,64.4287109 78.1806641,64.9824219 L76.3828125,64.9824219 C76.4306641,63.7724609 77.1962891,62.6171875 79.3632812,62.6171875 C81.0517578,62.6171875 82.3505859,63.3828125 82.3505859,65.1123047 L82.3505859,70 L80.5390625,70 L80.5390625,69.1181641 L80.4570312,69.1181641 Z M79.1445312,68.7285156 C79.8691406,68.7285156 80.4570312,68.2841797 80.4570312,67.6210938 L80.4570312,66.8691406 L79.1650391,66.8691406 C78.40625,66.8691406 78.0234375,67.2314453 78.0234375,67.7646484 C78.0234375,68.4140625 78.5703125,68.7285156 79.1445312,68.7285156 Z M84.6064453,62.7265625 L84.6064453,61.0107422 L86.4726562,61.0107422 L86.4726562,62.7265625 L87.8740234,62.7265625 L87.8740234,64.2099609 L86.4726562,64.2099609 L86.4726562,67.6552734 C86.4726562,68.3525391 86.7802734,68.5712891 87.5048828,68.5712891 C87.6621094,68.5712891 87.8193359,68.5712891 87.9013672,68.5576172 L87.9013672,69.9726562 C87.7578125,70 87.4228516,70.0341797 87.0400391,70.0341797 C85.2148438,70.0341797 84.5654297,69.4326172 84.5654297,67.9355469 L84.5654297,64.2099609 L83.5263672,64.2099609 L83.5263672,62.7265625 L84.6064453,62.7265625 Z M89.3847656,70 L89.3847656,62.7265625 L91.3056641,62.7265625 L91.3056641,70 L89.3847656,70 Z M89.2753906,60.9150391 C89.2753906,60.3271484 89.7539062,59.9306641 90.3417969,59.9306641 C90.9296875,59.9306641 91.4150391,60.3271484 91.4150391,60.9150391 C91.4150391,61.5097656 90.9296875,61.90625 90.3417969,61.90625 C89.7539062,61.90625 89.2753906,61.5097656 89.2753906,60.9150391 Z M92.8642578,64.9003906 C92.8642578,63.2734375 94.265625,62.5966797 95.8242188,62.5966797 C97.5537109,62.5966797 98.640625,63.4443359 98.640625,64.8251953 L96.9453125,64.8251953 C96.8974609,64.3876953 96.6103516,63.9091797 95.7832031,63.9091797 C95.1132812,63.9091797 94.6894531,64.2304688 94.6894531,64.7226562 C94.6894531,65.4267578 95.7558594,65.5361328 96.5830078,65.6865234 C97.9228516,65.9257812 98.8662109,66.4042969 98.8662109,67.7304688 C98.8662109,69.234375 97.6972656,70.1298828 95.7285156,70.1298828 C93.8076172,70.1298828 92.7138672,69.234375 92.7138672,67.9423828 L94.5800781,67.9423828 C94.6484375,68.4550781 95.0996094,68.8105469 95.8310547,68.8105469 C96.6308594,68.8105469 97.0068359,68.4208984 97.0068359,67.9765625 C97.0068359,67.2998047 96.1181641,67.2109375 95.2089844,67.0263672 C93.9101562,66.7529297 92.8642578,66.2539062 92.8642578,64.9003906 Z M100.807617,62.7265625 L100.807617,61.0107422 L102.673828,61.0107422 L102.673828,62.7265625 L104.075195,62.7265625 L104.075195,64.2099609 L102.673828,64.2099609 L102.673828,67.6552734 C102.673828,68.3525391 102.981445,68.5712891 103.706055,68.5712891 C103.863281,68.5712891 104.020508,68.5712891 104.102539,68.5576172 L104.102539,69.9726562 C103.958984,70 103.624023,70.0341797 103.241211,70.0341797 C101.416016,70.0341797 100.766602,69.4326172 100.766602,67.9355469 L100.766602,64.2099609 L99.7275391,64.2099609 L99.7275391,62.7265625 L100.807617,62.7265625 Z M105.585938,70 L105.585938,62.7265625 L107.506836,62.7265625 L107.506836,70 L105.585938,70 Z M105.476562,60.9150391 C105.476562,60.3271484 105.955078,59.9306641 106.542969,59.9306641 C107.130859,59.9306641 107.616211,60.3271484 107.616211,60.9150391 C107.616211,61.5097656 107.130859,61.90625 106.542969,61.90625 C105.955078,61.90625 105.476562,61.5097656 105.476562,60.9150391 Z M109.003906,66.6162109 L109.003906,66.0351562 C109.003906,64.0117188 110.227539,62.5966797 112.285156,62.5966797 C114.151367,62.5966797 115.286133,63.7724609 115.327148,65.2216797 L113.563477,65.2216797 C113.474609,64.6269531 113.016602,64.1142578 112.367188,64.1142578 C111.478516,64.1142578 110.938477,64.859375 110.938477,66.0556641 L110.938477,66.6025391 C110.938477,67.8535156 111.492188,68.6123047 112.374023,68.6123047 C113.160156,68.6123047 113.515625,68.1269531 113.59082,67.5732422 L115.354492,67.5732422 C115.217773,69.2685547 114.007812,70.1298828 112.27832,70.1298828 C110.254883,70.1298828 109.003906,68.7695312 109.003906,66.6162109 Z M116.448242,64.9003906 C116.448242,63.2734375 117.849609,62.5966797 119.408203,62.5966797 C121.137695,62.5966797 122.224609,63.4443359 122.224609,64.8251953 L120.529297,64.8251953 C120.481445,64.3876953 120.194336,63.9091797 119.367188,63.9091797 C118.697266,63.9091797 118.273438,64.2304688 118.273438,64.7226562 C118.273438,65.4267578 119.339844,65.5361328 120.166992,65.6865234 C121.506836,65.9257812 122.450195,66.4042969 122.450195,67.7304688 C122.450195,69.234375 121.28125,70.1298828 119.3125,70.1298828 C117.391602,70.1298828 116.297852,69.234375 116.297852,67.9423828 L118.164062,67.9423828 C118.232422,68.4550781 118.683594,68.8105469 119.415039,68.8105469 C120.214844,68.8105469 120.59082,68.4208984 120.59082,67.9765625 C120.59082,67.2998047 119.702148,67.2109375 118.792969,67.0263672 C117.494141,66.7529297 116.448242,66.2539062 116.448242,64.9003906 Z" id="Statistics" fill="#121820" fill-rule="nonzero" mask="url(#mask-2)"></path>
                            <g id="Screen/Sidebar" mask="url(#mask-2)">
                                <g transform="translate(0.000000, 41.000000)" id="Sidebar">
                                    <g>
                                        <rect id="Rectangle" fill="#4CD964" x="0" y="0" width="38" height="213"></rect>
                                        <path d="M23.5885344,13.5089411 L22.253331,14.8441445 C22.0598001,15.0256487 21.7583976,15.0256487 21.5648668,14.8441445 L20.9708976,14.2501753 C20.6659362,13.9590813 20.1860975,13.9590813 19.881136,14.2501753 L17.5064867,16.6272791 C17.2060659,16.9292952 17.2060659,17.417479 17.5064867,17.7194951 L18.1004558,18.312237 C18.2883415,18.5031907 18.2883415,18.8096248 18.1004558,19.0007013 L16.7652525,20.332223 C16.5709853,20.5120091 16.2710554,20.5120091 16.0767882,20.332223 C16.0669705,20.3224053 15.5613604,19.8572931 15.2643759,19.545582 C14.5476858,18.8006662 14.437237,17.8888499 14.9256662,16.7598177 C15.2938289,15.9154979 16.0056101,14.9680926 17.115007,13.8586957 C18.8036466,12.1700561 20.1179874,11.3834151 21.2507013,11.3834151 C21.8354663,11.3855014 22.3950736,11.6210028 22.805575,12.0375175 C23.1737377,12.3725456 23.5811711,12.8131136 23.5860799,12.8167952 C23.7764201,13.0082398 23.7764201,13.3174965 23.5860799,13.5089411 M23.0767882,20.2401823 C22.7086255,21.0832749 21.9956171,22.0319074 20.8862202,23.1413043 C19.1988079,24.8287167 17.884467,25.6153576 16.7517532,25.6153576 C16.1671108,25.6136396 15.6073808,25.378629 15.1968794,24.9624825 C14.8287167,24.6274544 14.4212833,24.1868864 14.4163745,24.1832048 C14.2260344,23.9916374 14.2260344,23.6825035 14.4163745,23.4909362 L15.7515778,22.1557328 C15.8434958,22.0666374 15.9670757,22.0175491 16.0951964,22.0196353 C16.2230715,22.0185309 16.346406,22.0673738 16.4388149,22.1557328 L17.032784,22.7485975 C17.3379909,23.0411641 17.8197931,23.0411641 18.125,22.7485975 L20.497195,20.3762798 C20.798352,20.0745091 20.798352,19.5859572 20.497195,19.2841865 L19.9007714,18.6914446 C19.7128857,18.5003682 19.7128857,18.1939341 19.9007714,18.0029804 L21.2359748,16.6665498 C21.4302419,16.4867637 21.7301718,16.4867637 21.924439,16.6665498 C21.9342567,16.6763675 22.4398668,17.1427069 22.7380785,17.454418 C23.4547686,18.1993338 23.5652174,19.1099229 23.0767882,20.2401823 M19.0012272,8 C13.2022966,7.99926367 8.50073633,12.6997195 8.5,18.4987728 C8.49926367,24.2978261 13.1998422,28.9992637 18.9987728,29 C24.7978261,29.0007363 29.4993864,24.3001578 29.5,18.5012272 L29.5,18.5 C29.5,12.7014376 24.7997896,8.0006136 19.0012272,8" id="Logo" fill="#FFFFFF"></path>
                                        <rect id="Title-Copy" fill="#FFFFFF" opacity="0.3" x="9" y="45" width="20" height="4" rx="2"></rect>
                                        <rect id="Title-Copy-2" fill="#FFFFFF" opacity="0.3" x="9" y="65" width="20" height="4" rx="2"></rect>
                                        <rect id="Title-Copy-3" fill="#FFFFFF" opacity="0.3" x="9" y="85" width="20" height="4" rx="2"></rect>
                                        <rect id="Title-Copy-4" fill="#FFFFFF" opacity="0.3" x="9" y="105" width="20" height="4" rx="2"></rect>
                                    </g>
                                </g>
                            </g>
                            <g id="Tab" mask="url(#mask-2)">
                                <g transform="translate(25.000000, 11.000000)">
                                    <g id="Tab-" transform="translate(45.200007, 0.000000)">
                                        <path d="M10.6080584,0.390000037 C4.9647806,0.390000037 0.390000037,4.9647806 0.390000037,10.6080584 C0.390000037,16.2513362 4.9647806,20.8261168 10.6080584,20.8261168 L296.391942,20.8261168 C302.035219,20.8261168 306.61,16.2513362 306.61,10.6080584 C306.61,4.9647806 302.035219,0.390000037 296.391942,0.390000037 L10.6080584,0.390000037 Z" id="Rectangle-4" stroke="#F8F8F8" stroke-width="0.780000074" fill="#FFFFFF" fill-rule="nonzero"></path>
                                        <path d="M20.7281198,9.44790217 C20.8739539,9.24477616 21.0529886,9.08657462 21.2652292,8.9732928 C21.4774698,8.86001098 21.7124935,8.80337092 21.9703073,8.80337092 C22.4208304,8.80337092 22.7717384,8.93878624 23.0230417,9.20962092 C23.274345,9.48045561 23.3999948,9.89711811 23.3999948,10.4596209 L23.3999948,13.1080584 L22.6304636,13.1080584 L22.6304636,10.4518084 C22.6304636,10.1028483 22.5555945,9.84503842 22.4058542,9.67837092 C22.2561139,9.51170342 22.0328088,9.42837092 21.7359323,9.42837092 C21.5067645,9.42837092 21.3075478,9.47329235 21.1382761,9.56313655 C20.9690044,9.65298075 20.832287,9.77863053 20.7281198,9.94008967 L20.7281198,13.1080584 L19.9585886,13.1080584 L19.9585886,7.01430842 L20.7281198,7.01430842 L20.7281198,9.44790217 Z M25.5757761,7.86196467 L25.5757761,8.88149592 L26.3765573,8.88149592 L26.3765573,9.45180842 L25.5757761,9.45180842 L25.5757761,12.0182147 C25.5757761,12.2161323 25.6167913,12.3554539 25.698823,12.4361834 C25.7808546,12.516913 25.8895775,12.5572772 26.0249948,12.5572772 C26.0692659,12.5572772 26.1187446,12.5514179 26.1734323,12.539699 C26.2281201,12.5279802 26.2736926,12.5156106 26.3101511,12.5025897 L26.4156198,13.0299334 C26.3583279,13.0768087 26.2736933,13.1152197 26.1617136,13.1451678 C26.0497338,13.1751159 25.9390579,13.1900897 25.8296823,13.1900897 C25.5171808,13.1900897 25.2684853,13.0956896 25.0835886,12.9068865 C24.8986918,12.7180835 24.8062448,12.4218625 24.8062448,12.0182147 L24.8062448,9.45180842 L24.1343698,9.45180842 L24.1343698,8.88149592 L24.8062448,8.88149592 L24.8062448,7.86196467 L25.5757761,7.86196467 Z M28.2710886,7.86196467 L28.2710886,8.88149592 L29.0718698,8.88149592 L29.0718698,9.45180842 L28.2710886,9.45180842 L28.2710886,12.0182147 C28.2710886,12.2161323 28.3121038,12.3554539 28.3941355,12.4361834 C28.4761671,12.516913 28.58489,12.5572772 28.7203073,12.5572772 C28.7645784,12.5572772 28.8140571,12.5514179 28.8687448,12.539699 C28.9234326,12.5279802 28.9690051,12.5156106 29.0054636,12.5025897 L29.1109323,13.0299334 C29.0536404,13.0768087 28.9690058,13.1152197 28.8570261,13.1451678 C28.7450463,13.1751159 28.6343704,13.1900897 28.5249948,13.1900897 C28.2124933,13.1900897 27.9637978,13.0956896 27.7789011,12.9068865 C27.5940043,12.7180835 27.5015573,12.4218625 27.5015573,12.0182147 L27.5015573,9.45180842 L26.8296823,9.45180842 L26.8296823,8.88149592 L27.5015573,8.88149592 L27.5015573,7.86196467 L28.2710886,7.86196467 Z M33.4976511,11.1549334 C33.4976511,11.7643115 33.3518192,12.255843 33.0601511,12.6295428 C32.768483,13.0032426 32.3661432,13.1900897 31.8531198,13.1900897 C31.5927019,13.1900897 31.3641885,13.1464703 31.167573,13.0592303 C30.9709574,12.9719903 30.8036413,12.8411322 30.6656198,12.6666522 L30.6656198,14.7330584 L29.8960886,14.7330584 L29.8960886,8.88149592 L30.4859323,8.88149592 L30.6070261,9.42837092 C30.7450476,9.22524491 30.9169209,9.07029854 31.1226511,8.96352717 C31.3283813,8.85675581 31.5679622,8.80337092 31.8414011,8.80337092 C32.3648412,8.80337092 32.7717382,9.01105114 33.0621042,9.4264178 C33.3524702,9.84178446 33.4976511,10.3906071 33.4976511,11.0729022 L33.4976511,11.1549334 Z M32.7281198,11.0729022 C32.7281198,10.5937331 32.6337197,10.1998568 32.4449167,9.89126155 C32.2561137,9.58266626 31.9781217,9.42837092 31.6109323,9.42837092 C31.3895771,9.42837092 31.2007769,9.47850063 31.0445261,9.57876155 C30.8882753,9.67902247 30.7619745,9.81639089 30.6656198,9.99087092 L30.6656198,12.0338397 C30.7619745,12.2083197 30.8882753,12.3443861 31.0445261,12.4420428 C31.2007769,12.5396995 31.3921812,12.5885272 31.6187448,12.5885272 C31.98333,12.5885272 32.2593689,12.455065 32.4468698,12.1881365 C32.6343708,11.9212081 32.7281198,11.5768105 32.7281198,11.1549334 L32.7281198,11.0729022 Z M36.8999948,11.9713397 C36.8999948,11.802068 36.8355423,11.6640485 36.7066355,11.5572772 C36.5777286,11.4505058 36.3335904,11.3567567 35.9742136,11.2760272 C35.4768153,11.1692558 35.0946576,11.0195177 34.8277292,10.8268084 C34.5608008,10.6340991 34.4273386,10.3762892 34.4273386,10.0533709 C34.4273386,9.70961921 34.5738215,9.41535132 34.8667917,9.17055842 C35.1597619,8.92576553 35.5393154,8.80337092 36.0054636,8.80337092 C36.4846326,8.80337092 36.8726496,8.93357796 37.1695261,9.19399592 C37.4664026,9.45441389 37.6083282,9.75779628 37.5953073,10.1041522 L37.5874948,10.1275897 L36.8531198,10.1275897 C36.8531198,9.9452971 36.7730425,9.77993417 36.6128855,9.63149592 C36.4527284,9.48305768 36.2502565,9.40883967 36.0054636,9.40883967 C35.7346289,9.40883967 35.532157,9.47003698 35.3980417,9.59243342 C35.2639264,9.71482987 35.1968698,9.86066175 35.1968698,10.0299334 C35.1968698,10.1966009 35.254812,10.3255059 35.370698,10.4166522 C35.4865839,10.5077985 35.7255138,10.591131 36.0874948,10.6666522 C36.6057266,10.7760277 36.9989518,10.9309741 37.2671823,11.1314959 C37.5354128,11.3320178 37.6695261,11.5937339 37.6695261,11.9166522 C37.6695261,12.291654 37.5178349,12.5976406 37.214448,12.8346209 C36.911061,13.0716013 36.5145806,13.1900897 36.0249948,13.1900897 C35.4859296,13.1900897 35.0614547,13.0533723 34.7515573,12.7799334 C34.4416599,12.5064946 34.294526,12.1874873 34.3101511,11.8229022 L34.3179636,11.7994647 L35.0523386,11.7994647 C35.0653595,12.0729035 35.166921,12.2727713 35.3570261,12.399074 C35.5471312,12.5253768 35.7697852,12.5885272 36.0249948,12.5885272 C36.2984337,12.5885272 36.5126243,12.530585 36.667573,12.414699 C36.8225216,12.2988131 36.8999948,12.1510281 36.8999948,11.9713397 Z M39.4664011,13.1080584 L38.6968698,13.1080584 L38.6968698,12.3189959 L39.4664011,12.3189959 L39.4664011,13.1080584 Z M39.4664011,9.68618342 L38.6968698,9.68618342 L38.6968698,8.89712092 L39.4664011,8.89712092 L39.4664011,9.68618342 Z M40.8062448,13.5963397 L40.1499948,13.5963397 L42.5249948,7.42055842 L43.1773386,7.42055842 L40.8062448,13.5963397 Z M44.1265573,13.5963397 L43.4703073,13.5963397 L45.8453073,7.42055842 L46.4976511,7.42055842 L44.1265573,13.5963397 Z M48.3687448,11.5689959 L48.4664011,12.1119647 L48.4898386,12.1119647 L48.5914011,11.5689959 L49.4351511,8.88149592 L50.0523386,8.88149592 L50.8999948,11.5689959 L51.0093698,12.1744647 L51.0328073,12.1744647 L51.1578073,11.5689959 L51.7828073,8.88149592 L52.5874948,8.88149592 L51.3609323,13.1080584 L50.7398386,13.1080584 L49.9039011,10.5338397 L49.7437448,9.86196467 L49.7203073,9.86196467 L49.5718698,10.5338397 L48.7515573,13.1080584 L48.1304636,13.1080584 L46.9039011,8.88149592 L47.7046823,8.88149592 L48.3687448,11.5689959 Z M54.4234323,11.5689959 L54.5210886,12.1119647 L54.5445261,12.1119647 L54.6460886,11.5689959 L55.4898386,8.88149592 L56.1070261,8.88149592 L56.9546823,11.5689959 L57.0640573,12.1744647 L57.0874948,12.1744647 L57.2124948,11.5689959 L57.8374948,8.88149592 L58.6421823,8.88149592 L57.4156198,13.1080584 L56.7945261,13.1080584 L55.9585886,10.5338397 L55.7984323,9.86196467 L55.7749948,9.86196467 L55.6265573,10.5338397 L54.8062448,13.1080584 L54.1851511,13.1080584 L52.9585886,8.88149592 L53.7593698,8.88149592 L54.4234323,11.5689959 Z M60.4781198,11.5689959 L60.5757761,12.1119647 L60.5992136,12.1119647 L60.7007761,11.5689959 L61.5445261,8.88149592 L62.1617136,8.88149592 L63.0093698,11.5689959 L63.1187448,12.1744647 L63.1421823,12.1744647 L63.2671823,11.5689959 L63.8921823,8.88149592 L64.6968698,8.88149592 L63.4703073,13.1080584 L62.8492136,13.1080584 L62.0132761,10.5338397 L61.8531198,9.86196467 L61.8296823,9.86196467 L61.6812448,10.5338397 L60.8609323,13.1080584 L60.2398386,13.1080584 L59.0132761,8.88149592 L59.8140573,8.88149592 L60.4781198,11.5689959 Z M66.2906198,13.1080584 L65.5210886,13.1080584 L65.5210886,12.3189959 L66.2906198,12.3189959 L66.2906198,13.1080584 Z M70.0484323,11.9713397 C70.0484323,11.802068 69.9839798,11.6640485 69.855073,11.5572772 C69.7261661,11.4505058 69.4820279,11.3567567 69.1226511,11.2760272 C68.6252528,11.1692558 68.2430951,11.0195177 67.9761667,10.8268084 C67.7092383,10.6340991 67.5757761,10.3762892 67.5757761,10.0533709 C67.5757761,9.70961921 67.722259,9.41535132 68.0152292,9.17055842 C68.3081994,8.92576553 68.6877529,8.80337092 69.1539011,8.80337092 C69.6330701,8.80337092 70.0210871,8.93357796 70.3179636,9.19399592 C70.6148401,9.45441389 70.7567657,9.75779628 70.7437448,10.1041522 L70.7359323,10.1275897 L70.0015573,10.1275897 C70.0015573,9.9452971 69.92148,9.77993417 69.761323,9.63149592 C69.6011659,9.48305768 69.398694,9.40883967 69.1539011,9.40883967 C68.8830664,9.40883967 68.6805945,9.47003698 68.5464792,9.59243342 C68.4123639,9.71482987 68.3453073,9.86066175 68.3453073,10.0299334 C68.3453073,10.1966009 68.4032495,10.3255059 68.5191355,10.4166522 C68.6350214,10.5077985 68.8739513,10.591131 69.2359323,10.6666522 C69.7541641,10.7760277 70.1473893,10.9309741 70.4156198,11.1314959 C70.6838503,11.3320178 70.8179636,11.5937339 70.8179636,11.9166522 C70.8179636,12.291654 70.6662724,12.5976406 70.3628855,12.8346209 C70.0594985,13.0716013 69.6630181,13.1900897 69.1734323,13.1900897 C68.6343671,13.1900897 68.2098922,13.0533723 67.8999948,12.7799334 C67.5900974,12.5064946 67.4429635,12.1874873 67.4585886,11.8229022 L67.4664011,11.7994647 L68.2007761,11.7994647 C68.213797,12.0729035 68.3153585,12.2727713 68.5054636,12.399074 C68.6955687,12.5253768 68.9182227,12.5885272 69.1734323,12.5885272 C69.4468712,12.5885272 69.6610618,12.530585 69.8160105,12.414699 C69.9709591,12.2988131 70.0484323,12.1510281 70.0484323,11.9713397 Z M72.4624948,8.88149592 L72.5171823,9.51040217 C72.657808,9.28644272 72.8342386,9.11261633 73.0464792,8.9889178 C73.2587198,8.86521926 73.5002539,8.80337092 73.7710886,8.80337092 C74.22682,8.80337092 74.5796811,8.93683313 74.8296823,9.20376155 C75.0796836,9.47068997 75.2046823,9.88279522 75.2046823,10.4400897 L75.2046823,13.1080584 L74.4351511,13.1080584 L74.4351511,10.4557147 C74.4351511,10.083317 74.3615841,9.81899671 74.214448,9.66274592 C74.0673118,9.50649514 73.8427047,9.42837092 73.5406198,9.42837092 C73.3036395,9.42837092 73.1024696,9.47589649 72.9371042,9.57094905 C72.7717388,9.66600161 72.6408807,9.79946382 72.5445261,9.97133967 L72.5445261,13.1080584 L71.7749948,13.1080584 L71.7749948,8.88149592 L72.4624948,8.88149592 Z M78.9195261,13.1080584 C78.8934843,12.9804536 78.8733022,12.8678245 78.8589792,12.7701678 C78.8446562,12.6725111 78.8361928,12.5742048 78.8335886,12.4752459 C78.6903587,12.6783719 78.5035116,12.8482921 78.2730417,12.9850115 C78.0425718,13.121731 77.7945274,13.1900897 77.5289011,13.1900897 C77.0887947,13.1900897 76.7535116,13.0774606 76.5230417,12.852199 C76.2925718,12.6269375 76.1773386,12.3163937 76.1773386,11.9205584 C76.1773386,11.5169106 76.3407484,11.2011585 76.667573,10.9732928 C76.9943975,10.7454271 77.4377524,10.6314959 77.9976511,10.6314959 L78.8335886,10.6314959 L78.8335886,10.2135272 C78.8335886,9.9661301 78.7580685,9.77016852 78.6070261,9.62563655 C78.4559837,9.48110458 78.2424441,9.40883967 77.9664011,9.40883967 C77.7163998,9.40883967 77.5145789,9.47133905 77.3609323,9.59633967 C77.2072857,9.7213403 77.1304636,9.87107839 77.1304636,10.0455584 L76.3999948,10.0533709 L76.3921823,10.0299334 C76.3739531,9.72264022 76.5178318,9.44139303 76.823823,9.18618342 C77.1298141,8.93097382 77.5249924,8.80337092 78.0093698,8.80337092 C78.4885389,8.80337092 78.8739517,8.9251145 79.1656198,9.1686053 C79.457288,9.4120961 79.6031198,9.76300405 79.6031198,10.2213397 L79.6031198,12.2564959 C79.6031198,12.4075383 79.6109322,12.5533702 79.6265573,12.6939959 C79.6421824,12.8346216 79.670828,12.9726411 79.7124948,13.1080584 L78.9195261,13.1080584 Z M77.6421823,12.5455584 C77.9208296,12.5455584 78.1721291,12.4739446 78.3960886,12.3307147 C78.620048,12.1874848 78.7658799,12.0234239 78.8335886,11.8385272 L78.8335886,11.1510272 L77.9703073,11.1510272 C77.6604099,11.1510272 77.4123655,11.2291514 77.2261667,11.3854022 C77.0399679,11.541653 76.9468698,11.7252449 76.9468698,11.9361834 C76.9468698,12.1236844 77.005463,12.2721204 77.1226511,12.3814959 C77.2398392,12.4908715 77.4130145,12.5455584 77.6421823,12.5455584 Z M84.3218698,11.1549334 C84.3218698,11.7643115 84.176038,12.255843 83.8843698,12.6295428 C83.5927017,13.0032426 83.190362,13.1900897 82.6773386,13.1900897 C82.4169206,13.1900897 82.1884073,13.1464703 81.9917917,13.0592303 C81.7951761,12.9719903 81.6278601,12.8411322 81.4898386,12.6666522 L81.4898386,14.7330584 L80.7203073,14.7330584 L80.7203073,8.88149592 L81.3101511,8.88149592 L81.4312448,9.42837092 C81.5692663,9.22524491 81.7411396,9.07029854 81.9468698,8.96352717 C82.1526,8.85675581 82.392181,8.80337092 82.6656198,8.80337092 C83.1890599,8.80337092 83.5959569,9.01105114 83.886323,9.4264178 C84.176689,9.84178446 84.3218698,10.3906071 84.3218698,11.0729022 L84.3218698,11.1549334 Z M83.5523386,11.0729022 C83.5523386,10.5937331 83.4579385,10.1998568 83.2691355,9.89126155 C83.0803324,9.58266626 82.8023404,9.42837092 82.4351511,9.42837092 C82.2137958,9.42837092 82.0249956,9.47850063 81.8687448,9.57876155 C81.712494,9.67902247 81.5861932,9.81639089 81.4898386,9.99087092 L81.4898386,12.0338397 C81.5861932,12.2083197 81.712494,12.3443861 81.8687448,12.4420428 C82.0249956,12.5396995 82.2163999,12.5885272 82.4429636,12.5885272 C82.8075487,12.5885272 83.0835876,12.455065 83.2710886,12.1881365 C83.4585895,11.9212081 83.5523386,11.5768105 83.5523386,11.1549334 L83.5523386,11.0729022 Z M86.9468698,12.5885272 C87.1838502,12.5885272 87.3908794,12.5097519 87.5679636,12.352199 C87.7450478,12.1946462 87.8335886,12.0012887 87.8335886,11.7721209 L88.5289011,11.7721209 L88.5406198,11.7955584 C88.5510365,12.1601436 88.3947881,12.4837081 88.0718698,12.7662615 C87.7489515,13.048815 87.3739553,13.1900897 86.9468698,13.1900897 C86.3531169,13.1900897 85.8947881,12.9882688 85.5718698,12.5846209 C85.2489515,12.1809731 85.0874948,11.6783739 85.0874948,11.0768084 L85.0874948,10.9127459 C85.0874948,10.3163888 85.2496026,9.81574274 85.573823,9.4107928 C85.8980433,9.00584286 86.355721,8.80337092 86.9468698,8.80337092 C87.4182263,8.80337092 87.8042902,8.9492028 88.105073,9.24087092 C88.4058557,9.53253905 88.5510365,9.89060839 88.5406198,10.3150897 L88.5328073,10.3385272 L87.8335886,10.3385272 C87.8335886,10.0807134 87.749605,9.86131454 87.5816355,9.68032405 C87.4136659,9.49933356 87.2020794,9.40883967 86.9468698,9.40883967 C86.5692638,9.40883967 86.2938759,9.55532258 86.120698,9.8482928 C85.94752,10.141263 85.8609323,10.4960772 85.8609323,10.9127459 L85.8609323,11.0768084 C85.8609323,11.5012897 85.9462179,11.859359 86.1167917,12.1510272 C86.2873655,12.4426953 86.5640554,12.5885272 86.9468698,12.5885272 Z M92.0523386,13.1080584 C92.0262968,12.9804536 92.0061147,12.8678245 91.9917917,12.7701678 C91.9774687,12.6725111 91.9690053,12.5742048 91.9664011,12.4752459 C91.8231712,12.6783719 91.6363241,12.8482921 91.4058542,12.9850115 C91.1753843,13.121731 90.9273399,13.1900897 90.6617136,13.1900897 C90.2216072,13.1900897 89.8863241,13.0774606 89.6558542,12.852199 C89.4253843,12.6269375 89.3101511,12.3163937 89.3101511,11.9205584 C89.3101511,11.5169106 89.4735609,11.2011585 89.8003855,10.9732928 C90.12721,10.7454271 90.5705649,10.6314959 91.1304636,10.6314959 L91.9664011,10.6314959 L91.9664011,10.2135272 C91.9664011,9.9661301 91.890881,9.77016852 91.7398386,9.62563655 C91.5887962,9.48110458 91.3752566,9.40883967 91.0992136,9.40883967 C90.8492123,9.40883967 90.6473914,9.47133905 90.4937448,9.59633967 C90.3400982,9.7213403 90.2632761,9.87107839 90.2632761,10.0455584 L89.5328073,10.0533709 L89.5249948,10.0299334 C89.5067656,9.72264022 89.6506443,9.44139303 89.9566355,9.18618342 C90.2626266,8.93097382 90.6578049,8.80337092 91.1421823,8.80337092 C91.6213514,8.80337092 92.0067642,8.9251145 92.2984323,9.1686053 C92.5901005,9.4120961 92.7359323,9.76300405 92.7359323,10.2213397 L92.7359323,12.2564959 C92.7359323,12.4075383 92.7437447,12.5533702 92.7593698,12.6939959 C92.7749949,12.8346216 92.8036405,12.9726411 92.8453073,13.1080584 L92.0523386,13.1080584 Z M90.7749948,12.5455584 C91.0536421,12.5455584 91.3049416,12.4739446 91.5289011,12.3307147 C91.7528605,12.1874848 91.8986924,12.0234239 91.9664011,11.8385272 L91.9664011,11.1510272 L91.1031198,11.1510272 C90.7932224,11.1510272 90.545178,11.2291514 90.3589792,11.3854022 C90.1727804,11.541653 90.0796823,11.7252449 90.0796823,11.9361834 C90.0796823,12.1236844 90.1382755,12.2721204 90.2554636,12.3814959 C90.3726517,12.4908715 90.545827,12.5455584 90.7749948,12.5455584 Z M94.6851511,13.1080584 L93.9156198,13.1080584 L93.9156198,7.01430842 L94.6851511,7.01430842 L94.6851511,13.1080584 Z M96.7007761,13.1080584 L95.9312448,13.1080584 L95.9312448,7.01430842 L96.7007761,7.01430842 L96.7007761,13.1080584 Z M98.7242136,13.1080584 L97.9546823,13.1080584 L97.9546823,12.3189959 L98.7242136,12.3189959 L98.7242136,13.1080584 Z M100.857026,13.1080584 L100.087495,13.1080584 L100.087495,8.88149592 L100.857026,8.88149592 L100.857026,13.1080584 Z M100.857026,7.79946467 L100.087495,7.79946467 L100.087495,7.01430842 L100.857026,7.01430842 L100.857026,7.79946467 Z M101.860932,10.9557147 C101.860932,10.3307115 102.030201,9.81574274 102.368745,9.4107928 C102.707288,9.00584286 103.166919,8.80337092 103.747651,8.80337092 C104.333592,8.80337092 104.796478,9.00519182 105.136323,9.40883967 C105.476168,9.81248753 105.646089,10.3281074 105.646089,10.9557147 L105.646089,11.0416522 C105.646089,11.6718637 105.476819,12.1874835 105.138276,12.5885272 C104.799733,12.9895708 104.3388,13.1900897 103.755464,13.1900897 C103.172127,13.1900897 102.710543,12.9889198 102.370698,12.586574 C102.030853,12.1842283 101.860932,11.6692595 101.860932,11.0416522 L101.860932,10.9557147 Z M102.630464,11.0416522 C102.630464,11.4895711 102.724864,11.859359 102.913667,12.1510272 C103.10247,12.4426953 103.383066,12.5885272 103.755464,12.5885272 C104.122653,12.5885272 104.401296,12.4426953 104.591401,12.1510272 C104.781506,11.859359 104.876557,11.4895711 104.876557,11.0416522 L104.876557,10.9557147 C104.876557,10.5130041 104.780855,10.1445182 104.589448,9.85024592 C104.398041,9.55597362 104.117445,9.40883967 103.747651,9.40883967 C103.380462,9.40883967 103.10247,9.55597362 102.913667,9.85024592 C102.724864,10.1445182 102.630464,10.5130041 102.630464,10.9557147 L102.630464,11.0416522 Z" id="https://www.snapcall.io" fill="#121820" fill-rule="nonzero"></path>
                                        <g id="Logo" transform="translate(6.799993, 7.000000)" stroke="#121820">
                                            <path d="M3.90045619,0 C1.74656749,-0.000273492312 0.000273492312,1.74561026 0,3.89954455 C-0.000273492312,6.05347883 1.74565585,7.79972725 3.89954455,7.80000074 C6.05347883,7.80027423 7.79977283,6.05434489 7.80000074,3.90045619 L7.80000074,3.90000037 C7.80000074,1.74624841 6.05420815,0.00022791026 3.90045619,0" id="Sign"></path>
                                        </g>
                                        <g id="Group-3" transform="translate(291.992001, 7.992001)" fill="#757575" fill-rule="nonzero">
                                            <path d="M2.59801684,2.61600057 L0.954204368,0.972188094 C0.75925462,0.777238346 0.75925462,0.461162354 0.954204368,0.266212607 C1.14915412,0.0712628587 1.46523011,0.0712628587 1.66017986,0.266212607 L3.30399233,1.91002508 L4.94780481,0.266212607 C5.14275455,0.0712628587 5.45883055,0.0712628587 5.65378029,0.266212607 C5.84873004,0.461162354 5.84873004,0.777238346 5.65378029,0.972188094 L4.00996782,2.61600057 L5.65378029,4.25981304 C5.84873004,4.45476279 5.84873004,4.77083878 5.65378029,4.96578853 C5.45883055,5.16073828 5.14275455,5.16073828 4.94780481,4.96578853 L3.30399233,3.32197606 L1.66017986,4.96578853 C1.46523011,5.16073828 1.14915412,5.16073828 0.954204368,4.96578853 C0.75925462,4.77083878 0.75925462,4.45476279 0.954204368,4.25981304 L2.59801684,2.61600057 Z" id="Close"></path>
                                        </g>
                                    </g>
                                    <g id="More" transform="translate(366.448065, 6.304001)">
                                        <path d="M0.936000103,2.51199883 C0.41906152,2.51199883 0,2.09293731 0,1.57599873 C0,1.05906015 0.41906152,0.639998625 0.936000103,0.639998625 C1.45293869,0.639998625 1.87200021,1.05906015 1.87200021,1.57599873 C1.87200021,2.09293731 1.45293869,2.51199883 0.936000103,2.51199883 Z M0.936000103,5.63199917 C0.41906152,5.63199917 0,5.21293765 0,4.69599907 C0,4.17906049 0.41906152,3.75999897 0.936000103,3.75999897 C1.45293869,3.75999897 1.87200021,4.17906049 1.87200021,4.69599907 C1.87200021,5.21293765 1.45293869,5.63199917 0.936000103,5.63199917 Z M0.936000103,8.75199951 C0.41906152,8.75199951 0,8.33293799 0,7.81599941 C0,7.29906083 0.41906152,6.87999931 0.936000103,6.87999931 C1.45293869,6.87999931 1.87200021,7.29906083 1.87200021,7.81599941 C1.87200021,8.33293799 1.45293869,8.75199951 0.936000103,8.75199951 Z" id="Combined-Shape" fill="#757575"></path>
                                    </g>
                                    <g id="Traffic-" transform="translate(0.096002, 6.864001)">
                                        <circle id="Extend" fill="#29CA41" cx="28.3920031" cy="3.43200038" r="3.43200038"></circle>
                                        <circle id="Close" fill="#FF6058" cx="3.43200038" cy="3.43200038" r="3.43200038"></circle>
                                        <circle id="Minimize" fill="#FFBD2E" cx="15.9120017" cy="3.43200038" r="3.43200038"></circle>
                                    </g>
                                </g>
                            </g>
                            <path d="M1,40.5 L427,40.5" id="Line-5" stroke="#F8F8F8" mask="url(#mask-2)"></path>
                        </g>
                        <g id="2" transform="translate(242.000000, 89.000000)">
                            <rect id="Rectangle" stroke-opacity="0.2" stroke="#121820" stroke-width="0.5" fill-rule="nonzero" x="0.25" y="0.25" width="159.5" height="140.5" rx="14"></rect>
                            <g id="Circle" transform="translate(80.000000, 81.500000) rotate(-345.000000) translate(-80.000000, -81.500000) translate(35.000000, 36.500000)" stroke-width="20">
                                <path d="M45.1479741,76.8539048 C62.6586761,76.8539048 76.8539048,62.6586761 76.8539048,45.1479741 C76.8539048,27.6372721 62.6586761,13.4420434 45.1479741,13.4420434 C27.6372721,13.4420434 13.4420434,27.6372721 13.4420434,45.1479741 C13.4420434,62.6586761 27.6372721,76.8539048 45.1479741,76.8539048 Z" id="Color" stroke="#6A4AE2" stroke-dasharray="209.4399777507788" transform="translate(45.147974, 45.147974) rotate(-216.000000) translate(-45.147974, -45.147974) "></path>
                                <path d="M45.1479741,76.8539048 C62.6586761,76.8539048 76.8539048,62.6586761 76.8539048,45.1479741 C76.8539048,27.6372721 62.6586761,13.4420434 45.1479741,13.4420434 C27.6372721,13.4420434 13.4420434,27.6372721 13.4420434,45.1479741 C13.4420434,62.6586761 27.6372721,76.8539048 45.1479741,76.8539048 Z" id="Color" stroke="#F5A623" stroke-dasharray="170" transform="translate(45.147974, 45.147974) rotate(-246.000000) translate(-45.147974, -45.147974) "></path>
                                <path d="M45.1479741,76.8539048 C62.6586761,76.8539048 76.8539048,62.6586761 76.8539048,45.1479741 C76.8539048,27.6372721 62.6586761,13.4420434 45.1479741,13.4420434 C27.6372721,13.4420434 13.4420434,27.6372721 13.4420434,45.1479741 C13.4420434,62.6586761 27.6372721,76.8539048 45.1479741,76.8539048 Z" id="Oval" stroke="#3E82FF" stroke-dasharray="27"></path>
                                <path d="M45.1479741,76.8539048 C62.6586761,76.8539048 76.8539048,62.6586761 76.8539048,45.1479741 C76.8539048,27.6372721 62.6586761,13.4420434 45.1479741,13.4420434 C27.6372721,13.4420434 13.4420434,27.6372721 13.4420434,45.1479741 C13.4420434,62.6586761 27.6372721,76.8539048 45.1479741,76.8539048 Z" id="Color" stroke="#FF553D" stroke-dasharray="58" transform="translate(45.147974, 45.147974) rotate(-353.000000) translate(-45.147974, -45.147974) "></path>
                                <path d="M-1.87074525,33.3980581 C-1.87074525,50.9087601 12.3244835,65.1039888 29.8351855,65.1039888 L29.8351855,65.1039888 C47.3458875,65.1039888 61.5411162,50.9087601 61.5411162,33.3980581" id="Path" stroke="#6A4AE2" transform="translate(29.835185, 49.251023) rotate(-285.000000) translate(-29.835185, -49.251023) "></path>
                                <path d="M11.5100529,45.0298085 C11.5100529,62.5405105 25.7052816,76.7357392 43.2159836,76.7357392 L43.2159836,76.7357392 C60.7266857,76.7357392 74.9219144,62.5405105 74.9219144,45.0298085" id="Path" stroke="#4CD964" stroke-dasharray="108" transform="translate(43.215984, 60.882774) rotate(-353.000000) translate(-43.215984, -60.882774) "></path>
                            </g>
                            <g id="Data" transform="translate(21.000000, 92.500000)">
                                <path d="M7.7916556,5.77426327e-16 L24.6083444,1.19893051e-15 C27.2829006,7.07622505e-16 28.2527593,0.278476833 29.2305371,0.801398111 C30.2083149,1.32431939 30.9756806,2.09168511 31.4986019,3.06946289 C32.0215232,4.04724067 32.3,5.01709938 32.3,7.6916556 L32.3,20.8083444 C32.3,23.4829006 32.0215232,24.4527593 31.4986019,25.4305371 C30.9756806,26.4083149 30.2083149,27.1756806 29.2305371,27.6986019 C28.2527593,28.2215232 27.2829006,28.5 24.6083444,28.5 L7.7916556,28.5 C5.11709938,28.5 4.14724067,28.2215232 3.16946289,27.6986019 C2.19168511,27.1756806 1.42431939,26.4083149 0.901398111,25.4305371 C0.378476833,24.4527593 0.1,23.4829006 0.1,20.8083444 L0.1,7.6916556 C0.1,5.01709938 0.378476833,4.04724067 0.901398111,3.06946289 C1.42431939,2.09168511 2.19168511,1.32431939 3.16946289,0.801398111 C4.14724067,0.278476833 5.11709938,1.06873433e-15 7.7916556,5.77426327e-16 Z" id="Mask-Copy-3" fill="#121820"></path>
                                <path d="M14.2527344,11.546875 L15.2917969,11.546875 C15.3542969,11.9570312 15.7175781,12.2148438 16.2253906,12.2148438 C16.7019531,12.2148438 17.1746094,11.8515625 17.1746094,11.2382812 C17.1746094,10.65625 16.7644531,10.2695312 16.2292969,10.2695312 C15.7214844,10.2695312 15.4324219,10.5625 15.3191406,10.8046875 L14.3230469,10.8046875 L14.5691406,7.6640625 L17.8894531,7.6640625 L17.8894531,8.56640625 L15.4675781,8.56640625 L15.3386719,9.8828125 L15.3816406,9.8828125 C15.5027344,9.70703125 15.8933594,9.42578125 16.5222656,9.42578125 C17.4519531,9.42578125 18.2800781,10.09375 18.2800781,11.1875 C18.2800781,12.359375 17.4050781,13.1015625 16.1980469,13.1015625 C14.9675781,13.1015625 14.2839844,12.390625 14.2527344,11.546875 Z" id="5" fill="#FFFFFF" fill-rule="nonzero"></path>
                                <path d="M10.5632813,21.0820312 C10.5632813,21.4804707 10.4148452,21.7877593 10.1179688,22.0039062 C9.82109227,22.2200532 9.40442977,22.328125 8.86796875,22.328125 C8.30025758,22.328125 7.85755367,22.2382821 7.53984375,22.0585938 L7.53984375,21.4570312 C7.74557395,21.5611984 7.96627486,21.6432289 8.20195313,21.703125 C8.43763139,21.7630211 8.66484266,21.7929688 8.88359375,21.7929688 C9.22213711,21.7929688 9.48255117,21.7389328 9.66484375,21.6308594 C9.84713633,21.5227859 9.93828125,21.358074 9.93828125,21.1367188 C9.93828125,20.9700513 9.86601635,20.8274746 9.72148438,20.7089844 C9.5769524,20.5904942 9.29505418,20.4505216 8.87578125,20.2890625 C8.47734176,20.1406243 8.19414146,20.0110683 8.02617188,19.9003906 C7.85820229,19.789713 7.73320354,19.6640632 7.65117188,19.5234375 C7.56914021,19.3828118 7.528125,19.2148447 7.528125,19.0195312 C7.528125,18.6705712 7.67005066,18.3951833 7.95390625,18.1933594 C8.23776184,17.9915354 8.62708086,17.890625 9.121875,17.890625 C9.5828148,17.890625 10.0333311,17.9843741 10.4734375,18.171875 L10.2429688,18.6992188 C9.8132791,18.5221345 9.42396008,18.4335938 9.075,18.4335938 C8.7677068,18.4335938 8.53593828,18.4817704 8.3796875,18.578125 C8.22343672,18.6744796 8.1453125,18.8072908 8.1453125,18.9765625 C8.1453125,19.0911464 8.17460908,19.1888017 8.23320313,19.2695312 C8.29179717,19.3502608 8.38619727,19.427083 8.51640625,19.5 C8.64661523,19.572917 8.89661273,19.6783847 9.26640625,19.8164062 C9.77422129,20.001303 10.1173168,20.1874991 10.2957031,20.375 C10.4740894,20.5625009 10.5632813,20.7981757 10.5632813,21.0820312 Z M13.0007813,21.7929688 C13.1153652,21.7929688 13.2260411,21.7845053 13.3328125,21.7675781 C13.4395839,21.750651 13.5242184,21.733073 13.5867188,21.7148438 L13.5867188,22.2109375 C13.5164059,22.2447918 13.4128913,22.2727863 13.2761719,22.2949219 C13.1394524,22.3170574 13.0164068,22.328125 12.9070313,22.328125 C12.0789021,22.328125 11.6648438,21.8919314 11.6648438,21.0195312 L11.6648438,18.4726562 L11.0515625,18.4726562 L11.0515625,18.1601562 L11.6648438,17.890625 L11.9382813,16.9765625 L12.3132813,16.9765625 L12.3132813,17.96875 L13.5554688,17.96875 L13.5554688,18.4726562 L12.3132813,18.4726562 L12.3132813,20.9921875 C12.3132813,21.2500013 12.3744786,21.447916 12.496875,21.5859375 C12.6192714,21.723959 12.7872385,21.7929688 13.0007813,21.7929688 Z M17.075,22.25 L16.9460938,21.640625 L16.9148438,21.640625 C16.701301,21.9088555 16.4884125,22.0904943 16.2761719,22.1855469 C16.0639312,22.2805994 15.7989599,22.328125 15.48125,22.328125 C15.0567687,22.328125 14.7240897,22.2187511 14.4832031,22 C14.2423165,21.7812489 14.121875,21.4700541 14.121875,21.0664062 C14.121875,20.2018186 14.8132743,19.7486981 16.1960938,19.7070312 L16.9226563,19.6835938 L16.9226563,19.4179688 C16.9226563,19.0820296 16.8503913,18.8339852 16.7058594,18.6738281 C16.5613274,18.5136711 16.3302099,18.4335938 16.0125,18.4335938 C15.6557274,18.4335938 15.2520856,18.5429677 14.8015625,18.7617188 L14.6023438,18.265625 C14.8132823,18.1510411 15.0443998,18.0611982 15.2957031,17.9960938 C15.5470065,17.9309893 15.7989571,17.8984375 16.0515625,17.8984375 C16.5619817,17.8984375 16.9402331,18.0117176 17.1863281,18.2382812 C17.4324231,18.4648449 17.5554688,18.8281225 17.5554688,19.328125 L17.5554688,22.25 L17.075,22.25 Z M15.6101563,21.7929688 C16.0138041,21.7929688 16.3308582,21.6822928 16.5613281,21.4609375 C16.791798,21.2395822 16.9070313,20.9296895 16.9070313,20.53125 L16.9070313,20.1445312 L16.2585938,20.171875 C15.7429662,20.1901043 15.3712251,20.2701816 15.1433594,20.4121094 C14.9154937,20.5540372 14.8015625,20.7747381 14.8015625,21.0742188 C14.8015625,21.3085949 14.8725253,21.4869786 15.0144531,21.609375 C15.1563809,21.7317714 15.3549466,21.7929688 15.6101563,21.7929688 Z M20.8445313,17.890625 C21.0346364,17.890625 21.2052076,17.9062498 21.35625,17.9375 L21.2664063,18.5390625 C21.089322,18.4999998 20.9330736,18.4804688 20.7976563,18.4804688 C20.4513004,18.4804688 20.1550794,18.6210923 19.9089844,18.9023438 C19.6628894,19.1835952 19.5398438,19.5338521 19.5398438,19.953125 L19.5398438,22.25 L18.8914063,22.25 L18.8914063,17.96875 L19.4265625,17.96875 L19.5007813,18.7617188 L19.5320313,18.7617188 C19.6908862,18.4830715 19.8822905,18.2682299 20.10625,18.1171875 C20.3302095,17.9661451 20.5763007,17.890625 20.8445313,17.890625 Z M24.91875,21.0820312 C24.91875,21.4804707 24.770314,21.7877593 24.4734375,22.0039062 C24.176561,22.2200532 23.7598985,22.328125 23.2234375,22.328125 C22.6557263,22.328125 22.2130224,22.2382821 21.8953125,22.0585938 L21.8953125,21.4570312 C22.1010427,21.5611984 22.3217436,21.6432289 22.5574219,21.703125 C22.7931001,21.7630211 23.0203114,21.7929688 23.2390625,21.7929688 C23.5776059,21.7929688 23.8380199,21.7389328 24.0203125,21.6308594 C24.2026051,21.5227859 24.29375,21.358074 24.29375,21.1367188 C24.29375,20.9700513 24.2214851,20.8274746 24.0769531,20.7089844 C23.9324212,20.5904942 23.6505229,20.4505216 23.23125,20.2890625 C22.8328105,20.1406243 22.5496102,20.0110683 22.3816406,19.9003906 C22.213671,19.789713 22.0886723,19.6640632 22.0066406,19.5234375 C21.924609,19.3828118 21.8835938,19.2148447 21.8835938,19.0195312 C21.8835938,18.6705712 22.0255194,18.3951833 22.309375,18.1933594 C22.5932306,17.9915354 22.9825496,17.890625 23.4773438,17.890625 C23.9382836,17.890625 24.3887999,17.9843741 24.8289063,18.171875 L24.5984375,18.6992188 C24.1687479,18.5221345 23.7794288,18.4335938 23.4304688,18.4335938 C23.1231755,18.4335938 22.891407,18.4817704 22.7351563,18.578125 C22.5789055,18.6744796 22.5007813,18.8072908 22.5007813,18.9765625 C22.5007813,19.0911464 22.5300778,19.1888017 22.5886719,19.2695312 C22.6472659,19.3502608 22.741666,19.427083 22.871875,19.5 C23.002084,19.572917 23.2520815,19.6783847 23.621875,19.8164062 C24.12969,20.001303 24.4727856,20.1874991 24.6511719,20.375 C24.8295582,20.5625009 24.91875,20.7981757 24.91875,21.0820312 Z" id="stars" fill="#FFFFFF" fill-rule="nonzero"></path>
                            </g>
                            <g id="Data" transform="translate(108.500000, 57.500000)">
                                <path d="M7.6916556,-3.10752092e-16 L22.3083444,3.10752092e-16 C24.9829006,-1.80555915e-16 25.9527593,0.278476833 26.9305371,0.801398111 C27.9083149,1.32431939 28.6756806,2.09168511 29.1986019,3.06946289 C29.7215232,4.04724067 30,5.01709938 30,7.6916556 L30,12.3083444 C30,14.9829006 29.7215232,15.9527593 29.1986019,16.9305371 C28.6756806,17.9083149 27.9083149,18.6756806 26.9305371,19.1986019 C25.9527593,19.7215232 24.9829006,20 22.3083444,20 L7.6916556,20 C5.01709938,20 4.04724067,19.7215232 3.06946289,19.1986019 C2.09168511,18.6756806 1.32431939,17.9083149 0.801398111,16.9305371 C0.278476833,15.9527593 1.2037061e-16,14.9829006 -2.07168062e-16,12.3083444 L2.07168062e-16,7.6916556 C-1.2037061e-16,5.01709938 0.278476833,4.04724067 0.801398111,3.06946289 C1.32431939,2.09168511 2.09168511,1.32431939 3.06946289,0.801398111 C4.04724067,0.278476833 5.01709938,1.80555915e-16 7.6916556,-3.10752092e-16 Z" id="Mask-Copy-4" fill="#121820"></path>
                                <rect id="Title-Copy-3" fill="#FFFFFF" x="7.5" y="9" width="15" height="2" rx="1"></rect>
                            </g>
                            <path d="M56.8457031,14.6427518 C58.4472656,14.6427518 59.21875,15.5704861 59.21875,16.771658 C59.21875,17.8702908 58.5009766,18.4513455 58.0126953,18.646658 L59.3505859,21.3077908 L57.7783203,21.3077908 L56.6210938,18.856619 L55.5224609,18.856619 L55.5224609,21.3077908 L54.1308594,21.3077908 L54.1308594,14.6427518 L56.8457031,14.6427518 Z M55.5224609,17.8165799 L56.6210938,17.8165799 C57.3242188,17.8165799 57.7636719,17.4650174 57.7636719,16.7960721 C57.7636719,16.0880643 57.2851562,15.731619 56.640625,15.731619 L55.5224609,15.731619 L55.5224609,17.8165799 Z M63.1005859,20.677908 C62.9052734,21.0538846 62.4755859,21.3859158 61.7089844,21.3859158 C60.6982422,21.3859158 60,20.7902127 60,19.8087674 C60,18.8712674 60.6494141,18.2755643 61.8505859,18.2755643 L63.1005859,18.2755643 L63.1005859,17.8165799 C63.1005859,17.3282986 62.8027344,17.0548611 62.2949219,17.0548611 C61.7919922,17.0548611 61.4990234,17.3282986 61.4746094,17.7238065 L60.1904297,17.7238065 C60.2246094,16.8595486 60.7714844,16.0343533 62.3193359,16.0343533 C63.5253906,16.0343533 64.453125,16.5812283 64.453125,17.8165799 L64.453125,21.3077908 L63.1591797,21.3077908 L63.1591797,20.677908 L63.1005859,20.677908 Z M62.1630859,20.3995877 C62.6806641,20.3995877 63.1005859,20.0822049 63.1005859,19.6085721 L63.1005859,19.0714627 L62.1777344,19.0714627 C61.6357422,19.0714627 61.3623047,19.3302518 61.3623047,19.7111111 C61.3623047,20.1749783 61.7529297,20.3995877 62.1630859,20.3995877 Z M66.0644531,16.1124783 L66.0644531,14.8868924 L67.3974609,14.8868924 L67.3974609,16.1124783 L68.3984375,16.1124783 L68.3984375,17.1720486 L67.3974609,17.1720486 L67.3974609,19.6329861 C67.3974609,20.131033 67.6171875,20.287283 68.1347656,20.287283 C68.2470703,20.287283 68.359375,20.287283 68.4179688,20.2775174 L68.4179688,21.2882596 C68.3154297,21.3077908 68.0761719,21.3322049 67.8027344,21.3322049 C66.4990234,21.3322049 66.0351562,20.9025174 66.0351562,19.8331815 L66.0351562,17.1720486 L65.2929688,17.1720486 L65.2929688,16.1124783 L66.0644531,16.1124783 Z M69.4775391,21.3077908 L69.4775391,16.1124783 L70.8496094,16.1124783 L70.8496094,21.3077908 L69.4775391,21.3077908 Z M69.3994141,14.818533 C69.3994141,14.3986111 69.7412109,14.115408 70.1611328,14.115408 C70.5810547,14.115408 70.9277344,14.3986111 70.9277344,14.818533 C70.9277344,15.2433377 70.5810547,15.5265408 70.1611328,15.5265408 C69.7412109,15.5265408 69.3994141,15.2433377 69.3994141,14.818533 Z M72.1289062,21.3077908 L72.1289062,16.1124783 L73.4667969,16.1124783 L73.4667969,16.8888455 L73.5253906,16.8888455 C73.6865234,16.5275174 74.1601562,16.0343533 75.0341797,16.0343533 C76.0839844,16.0343533 76.8115234,16.693533 76.8115234,17.9630643 L76.8115234,21.3077908 L75.4394531,21.3077908 L75.4394531,18.2706815 C75.4394531,17.4894315 74.9902344,17.1964627 74.4775391,17.1964627 C73.8574219,17.1964627 73.5009766,17.6407986 73.5009766,18.2902127 L73.5009766,21.3077908 L72.1289062,21.3077908 Z M80.2197266,22.240408 C80.8886719,22.240408 81.2792969,21.8546658 81.2792969,21.1759549 L81.2792969,20.4142361 L81.2207031,20.4142361 C81.0302734,20.8732205 80.4882812,21.2345486 79.7607422,21.2345486 C78.5888672,21.2345486 77.7978516,20.3898221 77.7978516,18.7882596 L77.7978516,18.4855252 C77.7978516,16.8986111 78.5839844,16.0490018 79.7607422,16.0490018 C80.4785156,16.0490018 81.0253906,16.4054471 81.2353516,16.8888455 L81.2939453,16.8888455 L81.2939453,16.1124783 L82.6513672,16.1124783 L82.6513672,21.2736111 C82.6513672,22.7140408 81.3769531,23.231619 80.2001953,23.231619 C78.671875,23.231619 77.9736328,22.5138455 77.9101562,21.6447049 L79.2333984,21.6447049 C79.3164062,21.9962674 79.6875,22.240408 80.2197266,22.240408 Z M80.2539062,17.1329861 C79.609375,17.1329861 79.2089844,17.6212674 79.2089844,18.5245877 L79.2089844,18.8224393 C79.2089844,19.7208768 79.609375,20.2189236 80.2539062,20.2189236 C80.8837891,20.2189236 81.2792969,19.7208768 81.2792969,18.8224393 L81.2792969,18.5245877 C81.2792969,17.6407986 80.8691406,17.1329861 80.2539062,17.1329861 Z M85.8496094,21.3077908 L85.8496094,16.1124783 L87.2265625,16.1124783 L87.2265625,16.8449002 L87.2851562,16.8449002 C87.3974609,16.5079861 87.7832031,16.0392361 88.4863281,16.0392361 C88.6767578,16.0392361 88.8134766,16.0538846 88.9111328,16.0782986 L88.9111328,17.2599393 C88.8085938,17.2257596 88.59375,17.2062283 88.3837891,17.2062283 C87.5537109,17.2062283 87.2607422,17.6993924 87.2607422,18.3976346 L87.2607422,21.3077908 L85.8496094,21.3077908 Z M92.5244141,20.677908 C92.3291016,21.0538846 91.8994141,21.3859158 91.1328125,21.3859158 C90.1220703,21.3859158 89.4238281,20.7902127 89.4238281,19.8087674 C89.4238281,18.8712674 90.0732422,18.2755643 91.2744141,18.2755643 L92.5244141,18.2755643 L92.5244141,17.8165799 C92.5244141,17.3282986 92.2265625,17.0548611 91.71875,17.0548611 C91.2158203,17.0548611 90.9228516,17.3282986 90.8984375,17.7238065 L89.6142578,17.7238065 C89.6484375,16.8595486 90.1953125,16.0343533 91.7431641,16.0343533 C92.9492188,16.0343533 93.8769531,16.5812283 93.8769531,17.8165799 L93.8769531,21.3077908 L92.5830078,21.3077908 L92.5830078,20.677908 L92.5244141,20.677908 Z M91.5869141,20.3995877 C92.1044922,20.3995877 92.5244141,20.0822049 92.5244141,19.6085721 L92.5244141,19.0714627 L91.6015625,19.0714627 C91.0595703,19.0714627 90.7861328,19.3302518 90.7861328,19.7111111 C90.7861328,20.1749783 91.1767578,20.3995877 91.5869141,20.3995877 Z M95.4882812,16.1124783 L95.4882812,14.8868924 L96.8212891,14.8868924 L96.8212891,16.1124783 L97.8222656,16.1124783 L97.8222656,17.1720486 L96.8212891,17.1720486 L96.8212891,19.6329861 C96.8212891,20.131033 97.0410156,20.287283 97.5585938,20.287283 C97.6708984,20.287283 97.7832031,20.287283 97.8417969,20.2775174 L97.8417969,21.2882596 C97.7392578,21.3077908 97.5,21.3322049 97.2265625,21.3322049 C95.9228516,21.3322049 95.4589844,20.9025174 95.4589844,19.8331815 L95.4589844,17.1720486 L94.7167969,17.1720486 L94.7167969,16.1124783 L95.4882812,16.1124783 Z M98.9013672,21.3077908 L98.9013672,16.1124783 L100.273438,16.1124783 L100.273438,21.3077908 L98.9013672,21.3077908 Z M98.8232422,14.818533 C98.8232422,14.3986111 99.1650391,14.115408 99.5849609,14.115408 C100.004883,14.115408 100.351562,14.3986111 100.351562,14.818533 C100.351562,15.2433377 100.004883,15.5265408 99.5849609,15.5265408 C99.1650391,15.5265408 98.8232422,15.2433377 98.8232422,14.818533 Z M103.754883,16.0197049 C105.292969,16.0197049 106.152344,17.0646268 106.152344,18.5099393 L106.152344,18.8761502 C106.152344,20.4093533 105.297852,21.4005643 103.754883,21.4005643 C102.207031,21.4005643 101.342773,20.4093533 101.342773,18.881033 L101.342773,18.5148221 C101.342773,17.0743924 102.207031,16.0197049 103.754883,16.0197049 Z M103.75,17.0695096 C103.037109,17.0695096 102.734375,17.7042752 102.734375,18.5050565 L102.734375,18.9054471 C102.734375,19.6769315 103.027344,20.3458768 103.75,20.3458768 C104.472656,20.3458768 104.765625,19.6818143 104.765625,18.9054471 L104.765625,18.5050565 C104.765625,17.6993924 104.462891,17.0695096 103.75,17.0695096 Z" id="Ratingratio" fill="#121820" fill-rule="nonzero"></path>
                        </g>
                        <g id="1" transform="translate(66.000000, 89.000000)">
                            <rect id="Rectangle" stroke-opacity="0.2" stroke="#121820" stroke-width="0.5" fill-rule="nonzero" x="0.25" y="0.25" width="159.5" height="140.5" rx="14"></rect>
                            <path d="M56.0864258,17.6115018 L56.0864258,18.3634549 C56.0864258,19.5792752 56.5942383,20.2482205 57.4829102,20.2482205 C58.269043,20.2482205 58.7573242,19.7208768 58.7670898,18.9884549 L60.1245117,18.9884549 L60.1245117,19.1349393 C60.1245117,20.497244 59.0112305,21.434744 57.4731445,21.434744 C55.6713867,21.434744 54.6508789,20.2579861 54.6508789,18.3585721 L54.6508789,17.6115018 C54.6508789,15.6974393 55.6713867,14.5157986 57.4731445,14.5157986 C59.0161133,14.5157986 60.1245117,15.4728299 60.1245117,16.8790799 L60.1245117,17.0206815 L58.7670898,17.0206815 C58.7573242,16.2540799 58.269043,15.7023221 57.4829102,15.7023221 C56.5942383,15.7023221 56.0864258,16.381033 56.0864258,17.6115018 Z M63.9672852,20.677908 C63.7719727,21.0538846 63.3422852,21.3859158 62.5756836,21.3859158 C61.5649414,21.3859158 60.8666992,20.7902127 60.8666992,19.8087674 C60.8666992,18.8712674 61.5161133,18.2755643 62.7172852,18.2755643 L63.9672852,18.2755643 L63.9672852,17.8165799 C63.9672852,17.3282986 63.6694336,17.0548611 63.1616211,17.0548611 C62.6586914,17.0548611 62.3657227,17.3282986 62.3413086,17.7238065 L61.0571289,17.7238065 C61.0913086,16.8595486 61.6381836,16.0343533 63.1860352,16.0343533 C64.3920898,16.0343533 65.3198242,16.5812283 65.3198242,17.8165799 L65.3198242,21.3077908 L64.0258789,21.3077908 L64.0258789,20.677908 L63.9672852,20.677908 Z M63.0297852,20.3995877 C63.5473633,20.3995877 63.9672852,20.0822049 63.9672852,19.6085721 L63.9672852,19.0714627 L63.0444336,19.0714627 C62.5024414,19.0714627 62.2290039,19.3302518 62.2290039,19.7111111 C62.2290039,20.1749783 62.6196289,20.3995877 63.0297852,20.3995877 Z M66.5454102,21.3077908 L66.5454102,14.2911893 L67.9223633,14.2911893 L67.9223633,21.3077908 L66.5454102,21.3077908 Z M69.230957,21.3077908 L69.230957,14.2911893 L70.6079102,14.2911893 L70.6079102,21.3077908 L69.230957,21.3077908 Z M73.840332,21.3077908 L73.840332,16.1124783 L75.2172852,16.1124783 L75.2172852,16.8449002 L75.2758789,16.8449002 C75.3881836,16.5079861 75.7739258,16.0392361 76.4770508,16.0392361 C76.6674805,16.0392361 76.8041992,16.0538846 76.9018555,16.0782986 L76.9018555,17.2599393 C76.7993164,17.2257596 76.5844727,17.2062283 76.3745117,17.2062283 C75.5444336,17.2062283 75.2514648,17.6993924 75.2514648,18.3976346 L75.2514648,21.3077908 L73.840332,21.3077908 Z M80.5151367,20.677908 C80.3198242,21.0538846 79.8901367,21.3859158 79.1235352,21.3859158 C78.112793,21.3859158 77.4145508,20.7902127 77.4145508,19.8087674 C77.4145508,18.8712674 78.0639648,18.2755643 79.2651367,18.2755643 L80.5151367,18.2755643 L80.5151367,17.8165799 C80.5151367,17.3282986 80.2172852,17.0548611 79.7094727,17.0548611 C79.206543,17.0548611 78.9135742,17.3282986 78.8891602,17.7238065 L77.6049805,17.7238065 C77.6391602,16.8595486 78.1860352,16.0343533 79.7338867,16.0343533 C80.9399414,16.0343533 81.8676758,16.5812283 81.8676758,17.8165799 L81.8676758,21.3077908 L80.5737305,21.3077908 L80.5737305,20.677908 L80.5151367,20.677908 Z M79.5776367,20.3995877 C80.0952148,20.3995877 80.5151367,20.0822049 80.5151367,19.6085721 L80.5151367,19.0714627 L79.5922852,19.0714627 C79.050293,19.0714627 78.7768555,19.3302518 78.7768555,19.7111111 C78.7768555,20.1749783 79.1674805,20.3995877 79.5776367,20.3995877 Z M83.4790039,16.1124783 L83.4790039,14.8868924 L84.8120117,14.8868924 L84.8120117,16.1124783 L85.8129883,16.1124783 L85.8129883,17.1720486 L84.8120117,17.1720486 L84.8120117,19.6329861 C84.8120117,20.131033 85.0317383,20.287283 85.5493164,20.287283 C85.6616211,20.287283 85.7739258,20.287283 85.8325195,20.2775174 L85.8325195,21.2882596 C85.7299805,21.3077908 85.4907227,21.3322049 85.2172852,21.3322049 C83.9135742,21.3322049 83.449707,20.9025174 83.449707,19.8331815 L83.449707,17.1720486 L82.7075195,17.1720486 L82.7075195,16.1124783 L83.4790039,16.1124783 Z M86.8920898,21.3077908 L86.8920898,16.1124783 L88.2641602,16.1124783 L88.2641602,21.3077908 L86.8920898,21.3077908 Z M86.8139648,14.818533 C86.8139648,14.3986111 87.1557617,14.115408 87.5756836,14.115408 C87.9956055,14.115408 88.3422852,14.3986111 88.3422852,14.818533 C88.3422852,15.2433377 87.9956055,15.5265408 87.5756836,15.5265408 C87.1557617,15.5265408 86.8139648,15.2433377 86.8139648,14.818533 Z M89.543457,21.3077908 L89.543457,16.1124783 L90.8813477,16.1124783 L90.8813477,16.8888455 L90.9399414,16.8888455 C91.1010742,16.5275174 91.574707,16.0343533 92.4487305,16.0343533 C93.4985352,16.0343533 94.2260742,16.693533 94.2260742,17.9630643 L94.2260742,21.3077908 L92.8540039,21.3077908 L92.8540039,18.2706815 C92.8540039,17.4894315 92.4047852,17.1964627 91.8920898,17.1964627 C91.2719727,17.1964627 90.9155273,17.6407986 90.9155273,18.2902127 L90.9155273,21.3077908 L89.543457,21.3077908 Z M97.6342773,22.240408 C98.3032227,22.240408 98.6938477,21.8546658 98.6938477,21.1759549 L98.6938477,20.4142361 L98.6352539,20.4142361 C98.4448242,20.8732205 97.902832,21.2345486 97.175293,21.2345486 C96.003418,21.2345486 95.2124023,20.3898221 95.2124023,18.7882596 L95.2124023,18.4855252 C95.2124023,16.8986111 95.9985352,16.0490018 97.175293,16.0490018 C97.8930664,16.0490018 98.4399414,16.4054471 98.6499023,16.8888455 L98.7084961,16.8888455 L98.7084961,16.1124783 L100.065918,16.1124783 L100.065918,21.2736111 C100.065918,22.7140408 98.7915039,23.231619 97.6147461,23.231619 C96.0864258,23.231619 95.3881836,22.5138455 95.324707,21.6447049 L96.6479492,21.6447049 C96.730957,21.9962674 97.1020508,22.240408 97.6342773,22.240408 Z M97.668457,17.1329861 C97.0239258,17.1329861 96.6235352,17.6212674 96.6235352,18.5245877 L96.6235352,18.8224393 C96.6235352,19.7208768 97.0239258,20.2189236 97.668457,20.2189236 C98.2983398,20.2189236 98.6938477,19.7208768 98.6938477,18.8224393 L98.6938477,18.5245877 C98.6938477,17.6407986 98.2836914,17.1329861 97.668457,17.1329861 Z M101.135254,17.6652127 C101.135254,16.5031033 102.13623,16.0197049 103.249512,16.0197049 C104.484863,16.0197049 105.26123,16.6251736 105.26123,17.6115018 L104.050293,17.6115018 C104.016113,17.2990018 103.811035,16.9572049 103.220215,16.9572049 C102.741699,16.9572049 102.438965,17.1866971 102.438965,17.5382596 C102.438965,18.0411893 103.200684,18.1193143 103.791504,18.2267361 C104.748535,18.3976346 105.422363,18.7394315 105.422363,19.6866971 C105.422363,20.7609158 104.587402,21.4005643 103.181152,21.4005643 C101.809082,21.4005643 101.027832,20.7609158 101.027832,19.8380643 L102.36084,19.8380643 C102.409668,20.2042752 102.731934,20.4581815 103.254395,20.4581815 C103.825684,20.4581815 104.094238,20.1798611 104.094238,19.8624783 C104.094238,19.3790799 103.459473,19.3156033 102.810059,19.1837674 C101.882324,18.9884549 101.135254,18.6320096 101.135254,17.6652127 Z" id="Callratings" fill="#121820" fill-rule="nonzero"></path>
                            <g id="Circle" transform="translate(35.000000, 36.500000)" stroke-dasharray="200" stroke-width="20">
                                <path d="M45.1479741,76.8539048 C62.6586761,76.8539048 76.8539048,62.6586761 76.8539048,45.1479741 C76.8539048,27.6372721 62.6586761,13.4420434 45.1479741,13.4420434 C27.6372721,13.4420434 13.4420434,27.6372721 13.4420434,45.1479741 C13.4420434,62.6586761 27.6372721,76.8539048 45.1479741,76.8539048 Z" id="Color" stroke="#6A4AE2" transform="translate(45.147974, 45.147974) rotate(-309.000000) translate(-45.147974, -45.147974) "></path>
                                <path d="M38.8212471,76.2226029 C40.8656646,76.636602 42.9814425,76.8539048 45.1479741,76.8539048 L45.1479741,76.8539048 C62.6586761,76.8539048 76.8539048,62.6586761 76.8539048,45.1479741 C76.8539048,27.6372721 62.6586761,13.4420434 45.1479741,13.4420434 C27.6372721,13.4420434 13.4420434,27.6372721 13.4420434,45.1479741" id="Path" stroke="#4CD964" transform="translate(45.147974, 45.147974) rotate(-270.000000) translate(-45.147974, -45.147974) "></path>
                            </g>
                            <g id="Data" transform="translate(104.741299, 37.054649)">
                                <path d="M7.6916556,-3.10752092e-16 L32.3083444,3.10752092e-16 C34.9829006,-1.80555915e-16 35.9527593,0.278476833 36.9305371,0.801398111 C37.9083149,1.32431939 38.6756806,2.09168511 39.1986019,3.06946289 C39.7215232,4.04724067 40,5.01709938 40,7.6916556 L40,24.3083444 C40,26.9829006 39.7215232,27.9527593 39.1986019,28.9305371 C38.6756806,29.9083149 37.9083149,30.6756806 36.9305371,31.1986019 C35.9527593,31.7215232 34.9829006,32 32.3083444,32 L7.6916556,32 C5.01709938,32 4.04724067,31.7215232 3.06946289,31.1986019 C2.09168511,30.6756806 1.32431939,29.9083149 0.801398111,28.9305371 C0.278476833,27.9527593 1.2037061e-16,26.9829006 -2.07168062e-16,24.3083444 L2.07168062e-16,7.6916556 C-1.2037061e-16,5.01709938 0.278476833,4.04724067 0.801398111,3.06946289 C1.32431939,2.09168511 2.09168511,1.32431939 3.06946289,0.801398111 C4.04724067,0.278476833 5.01709938,1.80555915e-16 7.6916556,-3.10752092e-16 Z" id="Mask-Copy-5" fill="#121820"></path>
                                <path d="M12.6855469,7.66796875 L16.4160156,7.66796875 L16.4160156,8.59765625 L14.2558594,13 L13.0683594,13 L15.3027344,8.609375 L15.3027344,8.578125 L12.6855469,8.578125 L12.6855469,7.66796875 Z M19.1425781,12.3007812 C19.6972656,12.3007812 20.1191406,11.9570312 20.1191406,11.453125 C20.1191406,10.9453125 19.6972656,10.5976562 19.1425781,10.5976562 C18.5917969,10.5976562 18.1660156,10.9453125 18.1660156,11.453125 C18.1660156,11.9570312 18.5917969,12.3007812 19.1425781,12.3007812 Z M19.1425781,9.84765625 C19.6074219,9.84765625 19.9511719,9.54296875 19.9511719,9.10546875 C19.9511719,8.671875 19.6074219,8.375 19.1425781,8.375 C18.6816406,8.375 18.3339844,8.671875 18.3339844,9.10546875 C18.3339844,9.54296875 18.6816406,9.84765625 19.1425781,9.84765625 Z M19.1347656,13.1015625 C17.8535156,13.1015625 17.0410156,12.4570312 17.0410156,11.53125 C17.0410156,10.6835938 17.6777344,10.296875 18.1699219,10.203125 L18.1699219,10.1679688 C17.6972656,10.0234375 17.2558594,9.66015625 17.2558594,8.9765625 C17.2558594,8.1640625 17.9980469,7.56640625 19.1425781,7.56640625 C20.2871094,7.56640625 21.0332031,8.1640625 21.0332031,8.9765625 C21.0332031,9.66796875 20.5761719,10.0273438 20.1152344,10.1679688 L20.1152344,10.203125 C20.6113281,10.296875 21.2402344,10.6875 21.2402344,11.5273438 C21.2402344,12.453125 20.4160156,13.1015625 19.1347656,13.1015625 Z M22.5292969,8.93359375 L22.5292969,8.9765625 C22.5292969,9.453125 22.7128906,9.71875 22.9941406,9.71875 C23.2714844,9.71875 23.4589844,9.45703125 23.4589844,8.984375 L23.4589844,8.94140625 C23.4589844,8.46484375 23.2792969,8.20703125 22.9980469,8.20703125 C22.7050781,8.20703125 22.5292969,8.4765625 22.5292969,8.93359375 Z M21.8378906,9.015625 L21.8378906,8.89453125 C21.8378906,8.1640625 22.2792969,7.60546875 23.0019531,7.60546875 C23.7207031,7.60546875 24.1542969,8.16015625 24.1542969,8.90234375 L24.1542969,9.0234375 C24.1542969,9.71875 23.7402344,10.3242188 22.9863281,10.3242188 C22.2636719,10.3242188 21.8378906,9.7578125 21.8378906,9.015625 Z M25.6621094,11.671875 L25.6621094,11.7148438 C25.6621094,12.1875 25.8457031,12.4570312 26.1269531,12.4570312 C26.4003906,12.4570312 26.5878906,12.1953125 26.5878906,11.71875 L26.5878906,11.6757812 C26.5878906,11.203125 26.4082031,10.9453125 26.1269531,10.9453125 C25.8378906,10.9453125 25.6621094,11.2109375 25.6621094,11.671875 Z M24.9707031,11.7539062 L24.9707031,11.6328125 C24.9707031,10.9023438 25.4121094,10.3398438 26.1308594,10.3398438 C26.8535156,10.3398438 27.2832031,10.8945312 27.2832031,11.6367188 L27.2832031,11.7578125 C27.2832031,12.4570312 26.8691406,13.0625 26.1152344,13.0625 C25.3925781,13.0625 24.9707031,12.4921875 24.9707031,11.7539062 Z M22.9238281,13.0039062 L22.1074219,13.0039062 L24.2910156,10.203125 L26.2167969,7.66796875 L27.0332031,7.66796875 L24.8886719,10.4140625 L22.9238281,13.0039062 Z" id="78%" fill="#FFFFFF" fill-rule="nonzero"></path>
                                <path d="M12.6757812,19.640625 C12.8658864,19.640625 13.0364576,19.6562498 13.1875,19.6875 L13.0976562,20.2890625 C12.920572,20.2499998 12.7643236,20.2304688 12.6289062,20.2304688 C12.2825504,20.2304688 11.9863294,20.3710923 11.7402344,20.6523438 C11.4941394,20.9335952 11.3710938,21.2838521 11.3710938,21.703125 L11.3710938,24 L10.7226562,24 L10.7226562,19.71875 L11.2578125,19.71875 L11.3320312,20.5117188 L11.3632812,20.5117188 C11.5221362,20.2330715 11.7135405,20.0182299 11.9375,19.8671875 C12.1614595,19.7161451 12.4075507,19.640625 12.6757812,19.640625 Z M16.6210938,24 L16.4921875,23.390625 L16.4609375,23.390625 C16.2473948,23.6588555 16.0345063,23.8404943 15.8222656,23.9355469 C15.610025,24.0305994 15.3450537,24.078125 15.0273438,24.078125 C14.6028625,24.078125 14.2701835,23.9687511 14.0292969,23.75 C13.7884103,23.5312489 13.6679688,23.2200541 13.6679688,22.8164062 C13.6679688,21.9518186 14.3593681,21.4986981 15.7421875,21.4570312 L16.46875,21.4335938 L16.46875,21.1679688 C16.46875,20.8320296 16.3964851,20.5839852 16.2519531,20.4238281 C16.1074212,20.2636711 15.8763037,20.1835938 15.5585938,20.1835938 C15.2018211,20.1835938 14.7981793,20.2929677 14.3476562,20.5117188 L14.1484375,20.015625 C14.3593761,19.9010411 14.5904935,19.8111982 14.8417969,19.7460938 C15.0931002,19.6809893 15.3450508,19.6484375 15.5976562,19.6484375 C16.1080755,19.6484375 16.4863269,19.7617176 16.7324219,19.9882812 C16.9785169,20.2148449 17.1015625,20.5781225 17.1015625,21.078125 L17.1015625,24 L16.6210938,24 Z M15.15625,23.5429688 C15.5598979,23.5429688 15.876952,23.4322928 16.1074219,23.2109375 C16.3378918,22.9895822 16.453125,22.6796895 16.453125,22.28125 L16.453125,21.8945312 L15.8046875,21.921875 C15.2890599,21.9401043 14.9173188,22.0201816 14.6894531,22.1621094 C14.4615874,22.3040372 14.3476562,22.5247381 14.3476562,22.8242188 C14.3476562,23.0585949 14.4186191,23.2369786 14.5605469,23.359375 C14.7024747,23.4817714 14.9010404,23.5429688 15.15625,23.5429688 Z M19.8203125,23.5429688 C19.9348964,23.5429688 20.0455724,23.5345053 20.1523438,23.5175781 C20.2591151,23.500651 20.3437497,23.483073 20.40625,23.4648438 L20.40625,23.9609375 C20.3359371,23.9947918 20.2324226,24.0227863 20.0957031,24.0449219 C19.9589837,24.0670574 19.835938,24.078125 19.7265625,24.078125 C18.8984334,24.078125 18.484375,23.6419314 18.484375,22.7695312 L18.484375,20.2226562 L17.8710938,20.2226562 L17.8710938,19.9101562 L18.484375,19.640625 L18.7578125,18.7265625 L19.1328125,18.7265625 L19.1328125,19.71875 L20.375,19.71875 L20.375,20.2226562 L19.1328125,20.2226562 L19.1328125,22.7421875 C19.1328125,23.0000013 19.1940098,23.197916 19.3164062,23.3359375 C19.4388027,23.473959 19.6067698,23.5429688 19.8203125,23.5429688 Z M23.0703125,24.078125 C22.4374968,24.078125 21.9381529,23.8854186 21.5722656,23.5 C21.2063784,23.1145814 21.0234375,22.5794305 21.0234375,21.8945312 C21.0234375,21.2044236 21.1933577,20.656252 21.5332031,20.25 C21.8730486,19.843748 22.3294242,19.640625 22.9023438,19.640625 C23.4388048,19.640625 23.8632797,19.8170555 24.1757812,20.1699219 C24.4882828,20.5227882 24.6445312,20.9882784 24.6445312,21.5664062 L24.6445312,21.9765625 L21.6953125,21.9765625 C21.7083334,22.4791692 21.8352853,22.8606758 22.0761719,23.1210938 C22.3170585,23.3815117 22.6562478,23.5117188 23.09375,23.5117188 C23.5546898,23.5117188 24.0104144,23.4153655 24.4609375,23.2226562 L24.4609375,23.8007812 C24.2317697,23.8997401 24.014975,23.9707029 23.8105469,24.0136719 C23.6061188,24.0566408 23.3593764,24.078125 23.0703125,24.078125 Z M22.8945312,20.1835938 C22.5507795,20.1835938 22.2766937,20.2955718 22.0722656,20.5195312 C21.8678375,20.7434907 21.747396,21.0533834 21.7109375,21.4492188 L23.9492188,21.4492188 C23.9492188,21.0403625 23.8580738,20.7272146 23.6757812,20.5097656 C23.4934887,20.2923166 23.2330746,20.1835938 22.8945312,20.1835938 Z M28.6640625,23.4257812 L28.6289062,23.4257812 C28.3294256,23.8606793 27.8815134,24.078125 27.2851562,24.078125 C26.7252576,24.078125 26.2897151,23.8867207 25.9785156,23.5039062 C25.6673162,23.1210918 25.5117188,22.5768264 25.5117188,21.8710938 C25.5117188,21.1653611 25.6679672,20.6171895 25.9804688,20.2265625 C26.2929703,19.8359355 26.7278618,19.640625 27.2851562,19.640625 C27.8658883,19.640625 28.3111964,19.8515604 28.6210938,20.2734375 L28.671875,20.2734375 L28.6445312,19.9648438 L28.6289062,19.6640625 L28.6289062,17.921875 L29.2773438,17.921875 L29.2773438,24 L28.75,24 L28.6640625,23.4257812 Z M27.3671875,23.5351562 C27.809898,23.5351562 28.1308584,23.4147147 28.3300781,23.1738281 C28.5292979,22.9329415 28.6289062,22.5442735 28.6289062,22.0078125 L28.6289062,21.8710938 C28.6289062,21.2643199 28.5279958,20.8313815 28.3261719,20.5722656 C28.1243479,20.3131497 27.8020855,20.1835938 27.359375,20.1835938 C26.9791648,20.1835938 26.6881521,20.3313787 26.4863281,20.6269531 C26.2845042,20.9225275 26.1835938,21.3398411 26.1835938,21.8789062 C26.1835938,22.425784 26.2838532,22.8385403 26.484375,23.1171875 C26.6848968,23.3958347 26.9791647,23.5351562 27.3671875,23.5351562 Z" id="rated" fill="#FFFFFF" fill-rule="nonzero"></path>
                            </g>
                        </g>
                    </g>
                </g>
            </g>
        </g>
    </g>
</svg>