<?xml version="1.0" encoding="UTF-8"?>
<svg width="486px" height="313px" viewBox="0 0 486 313" version="1.1" xmlns="http://www.w3.org/2000/svg" xmlns:xlink="http://www.w3.org/1999/xlink">
    <!-- Generator: Sketch 54.1 (76490) - https://sketchapp.com -->
    <title>Illustration-2 Copy 8</title>
    <desc>Created with Sketch.</desc>
    <defs>
        <path d="M51.277704,-2.07168062e-15 L375.722296,2.07168062e-15 C393.552671,-1.2037061e-15 400.018396,1.85651222 406.536914,5.34265408 C413.055433,8.82879593 418.171204,13.9445674 421.657346,20.4630859 C425.143488,26.9816044 427,33.4473292 427,51.277704 L427,202.722296 C427,220.552671 425.143488,227.018396 421.657346,233.536914 C418.171204,240.055433 413.055433,245.171204 406.536914,248.657346 C400.018396,252.143488 393.552671,254 375.722296,254 L51.277704,254 C33.4473292,254 26.9816044,252.143488 20.4630859,248.657346 C13.9445674,245.171204 8.82879593,240.055433 5.34265408,233.536914 C1.85651222,227.018396 8.02470732e-16,220.552671 -1.38112041e-15,202.722296 L1.38112041e-15,51.277704 C-8.02470732e-16,33.4473292 1.85651222,26.9816044 5.34265408,20.4630859 C8.82879593,13.9445674 13.9445674,8.82879593 20.4630859,5.34265408 C26.9816044,1.85651222 33.4473292,1.2037061e-15 51.277704,-2.07168062e-15 Z" id="path-1"></path>
        <filter x="-12.9%" y="-13.8%" width="125.8%" height="143.3%" filterUnits="objectBoundingBox" id="filter-3">
            <feOffset dx="0" dy="20" in="SourceAlpha" result="shadowOffsetOuter1"></feOffset>
            <feGaussianBlur stdDeviation="15" in="shadowOffsetOuter1" result="shadowBlurOuter1"></feGaussianBlur>
            <feColorMatrix values="0 0 0 0 0   0 0 0 0 0   0 0 0 0 0  0 0 0 0.2 0" type="matrix" in="shadowBlurOuter1"></feColorMatrix>
        </filter>
    </defs>
    <g id="Boards-Animations" stroke="none" stroke-width="1" fill="none" fill-rule="evenodd">
        <g id="2h-Illustrations-Data-Analytics" transform="translate(-321.000000, -1779.000000)">
            <g id="Illustration-2-Copy-8" transform="translate(350.500000, 1788.399994)">
                <g id="Background">
                    <g>
                        <g id="Screen/Layout/Desktop/Dashboard">
                            <mask id="mask-2" fill="white">
                                <use xlink:href="#path-1"></use>
                            </mask>
                            <g id="Rectangle">
                                <use fill="black" fill-opacity="1" filter="url(#filter-3)" xlink:href="#path-1"></use>
                                <use fill="#FFFFFF" fill-rule="evenodd" xlink:href="#path-1"></use>
                            </g>
                            <text id="General-information" mask="url(#mask-2)" font-family="SanFranciscoDisplay-Bold, San Francisco Display" font-size="14" font-weight="bold" fill="#121820">
                                <tspan x="62" y="70">Statistics</tspan>
                            </text>
                            <g id="Screen/Sidebar" mask="url(#mask-2)" fill-rule="evenodd" stroke-width="1">
                                <g transform="translate(0.000000, 41.000000)" id="Sidebar">
                                    <g>
                                        <rect id="Rectangle" fill="#4CD964" x="0" y="0" width="38" height="213"></rect>
                                        <path d="M23.5885344,13.5089411 L22.253331,14.8441445 C22.0598001,15.0256487 21.7583976,15.0256487 21.5648668,14.8441445 L20.9708976,14.2501753 C20.6659362,13.9590813 20.1860975,13.9590813 19.881136,14.2501753 L17.5064867,16.6272791 C17.2060659,16.9292952 17.2060659,17.417479 17.5064867,17.7194951 L18.1004558,18.312237 C18.2883415,18.5031907 18.2883415,18.8096248 18.1004558,19.0007013 L16.7652525,20.332223 C16.5709853,20.5120091 16.2710554,20.5120091 16.0767882,20.332223 C16.0669705,20.3224053 15.5613604,19.8572931 15.2643759,19.545582 C14.5476858,18.8006662 14.437237,17.8888499 14.9256662,16.7598177 C15.2938289,15.9154979 16.0056101,14.9680926 17.115007,13.8586957 C18.8036466,12.1700561 20.1179874,11.3834151 21.2507013,11.3834151 C21.8354663,11.3855014 22.3950736,11.6210028 22.805575,12.0375175 C23.1737377,12.3725456 23.5811711,12.8131136 23.5860799,12.8167952 C23.7764201,13.0082398 23.7764201,13.3174965 23.5860799,13.5089411 M23.0767882,20.2401823 C22.7086255,21.0832749 21.9956171,22.0319074 20.8862202,23.1413043 C19.1988079,24.8287167 17.884467,25.6153576 16.7517532,25.6153576 C16.1671108,25.6136396 15.6073808,25.378629 15.1968794,24.9624825 C14.8287167,24.6274544 14.4212833,24.1868864 14.4163745,24.1832048 C14.2260344,23.9916374 14.2260344,23.6825035 14.4163745,23.4909362 L15.7515778,22.1557328 C15.8434958,22.0666374 15.9670757,22.0175491 16.0951964,22.0196353 C16.2230715,22.0185309 16.346406,22.0673738 16.4388149,22.1557328 L17.032784,22.7485975 C17.3379909,23.0411641 17.8197931,23.0411641 18.125,22.7485975 L20.497195,20.3762798 C20.798352,20.0745091 20.798352,19.5859572 20.497195,19.2841865 L19.9007714,18.6914446 C19.7128857,18.5003682 19.7128857,18.1939341 19.9007714,18.0029804 L21.2359748,16.6665498 C21.4302419,16.4867637 21.7301718,16.4867637 21.924439,16.6665498 C21.9342567,16.6763675 22.4398668,17.1427069 22.7380785,17.454418 C23.4547686,18.1993338 23.5652174,19.1099229 23.0767882,20.2401823 M19.0012272,8 C13.2022966,7.99926367 8.50073633,12.6997195 8.5,18.4987728 C8.49926367,24.2978261 13.1998422,28.9992637 18.9987728,29 C24.7978261,29.0007363 29.4993864,24.3001578 29.5,18.5012272 L29.5,18.5 C29.5,12.7014376 24.7997896,8.0006136 19.0012272,8" id="Logo" fill="#FFFFFF"></path>
                                        <rect id="Title-Copy" fill="#FFFFFF" opacity="0.3" x="9" y="45" width="20" height="4" rx="2"></rect>
                                        <rect id="Title-Copy-2" fill="#FFFFFF" opacity="0.3" x="9" y="65" width="20" height="4" rx="2"></rect>
                                        <rect id="Title-Copy-3" fill="#FFFFFF" opacity="0.3" x="9" y="85" width="20" height="4" rx="2"></rect>
                                        <rect id="Title-Copy-4" fill="#FFFFFF" opacity="0.3" x="9" y="105" width="20" height="4" rx="2"></rect>
                                    </g>
                                </g>
                            </g>
                            <g id="Screen/Navigation/Desktop" mask="url(#mask-2)" fill-rule="evenodd" stroke-width="1">
                                <g transform="translate(24.500000, 11.000000)" id="Tab">
                                    <g>
                                        <g id="Tab-" transform="translate(45.200007, 0.000000)">
                                            <path d="M10.6080584,0.390000037 C4.9647806,0.390000037 0.390000037,4.9647806 0.390000037,10.6080584 C0.390000037,16.2513362 4.9647806,20.8261168 10.6080584,20.8261168 L296.391942,20.8261168 C302.035219,20.8261168 306.61,16.2513362 306.61,10.6080584 C306.61,4.9647806 302.035219,0.390000037 296.391942,0.390000037 L10.6080584,0.390000037 Z" id="Rectangle-4" stroke="#F8F8F8" stroke-width="0.780000074" fill="#FFFFFF" fill-rule="nonzero"></path>
                                            <text id="snapcall.io" font-family="Helvetica" font-size="8" font-weight="normal" fill="#121820">
                                                <tspan x="19.3999948" y="14.1080584">https://www.snapcall.io</tspan>
                                            </text>
                                            <g id="Logo" transform="translate(6.799993, 7.000000)" stroke="#121820">
                                                <path d="M3.90045619,0 C1.74656749,-0.000273492312 0.000273492312,1.74561026 0,3.89954455 C-0.000273492312,6.05347883 1.74565585,7.79972725 3.89954455,7.80000074 C6.05347883,7.80027423 7.79977283,6.05434489 7.80000074,3.90045619 L7.80000074,3.90000037 C7.80000074,1.74624841 6.05420815,0.00022791026 3.90045619,0" id="Sign"></path>
                                            </g>
                                            <g id="Group-3" transform="translate(291.992001, 7.992001)" fill="#757575" fill-rule="nonzero">
                                                <path d="M2.59801684,2.61600057 L0.954204368,0.972188094 C0.75925462,0.777238346 0.75925462,0.461162354 0.954204368,0.266212607 C1.14915412,0.0712628587 1.46523011,0.0712628587 1.66017986,0.266212607 L3.30399233,1.91002508 L4.94780481,0.266212607 C5.14275455,0.0712628587 5.45883055,0.0712628587 5.65378029,0.266212607 C5.84873004,0.461162354 5.84873004,0.777238346 5.65378029,0.972188094 L4.00996782,2.61600057 L5.65378029,4.25981304 C5.84873004,4.45476279 5.84873004,4.77083878 5.65378029,4.96578853 C5.45883055,5.16073828 5.14275455,5.16073828 4.94780481,4.96578853 L3.30399233,3.32197606 L1.66017986,4.96578853 C1.46523011,5.16073828 1.14915412,5.16073828 0.954204368,4.96578853 C0.75925462,4.77083878 0.75925462,4.45476279 0.954204368,4.25981304 L2.59801684,2.61600057 Z" id="Close"></path>
                                            </g>
                                        </g>
                                        <g id="More" transform="translate(366.448065, 6.304001)" fill="#757575">
                                            <path d="M0.936000103,2.51199883 C0.41906152,2.51199883 0,2.09293731 0,1.57599873 C0,1.05906015 0.41906152,0.639998625 0.936000103,0.639998625 C1.45293869,0.639998625 1.87200021,1.05906015 1.87200021,1.57599873 C1.87200021,2.09293731 1.45293869,2.51199883 0.936000103,2.51199883 Z M0.936000103,5.63199917 C0.41906152,5.63199917 0,5.21293765 0,4.69599907 C0,4.17906049 0.41906152,3.75999897 0.936000103,3.75999897 C1.45293869,3.75999897 1.87200021,4.17906049 1.87200021,4.69599907 C1.87200021,5.21293765 1.45293869,5.63199917 0.936000103,5.63199917 Z M0.936000103,8.75199951 C0.41906152,8.75199951 0,8.33293799 0,7.81599941 C0,7.29906083 0.41906152,6.87999931 0.936000103,6.87999931 C1.45293869,6.87999931 1.87200021,7.29906083 1.87200021,7.81599941 C1.87200021,8.33293799 1.45293869,8.75199951 0.936000103,8.75199951 Z" id="Combined-Shape"></path>
                                        </g>
                                        <g id="Traffic-" transform="translate(0.096002, 6.864001)">
                                            <circle id="Extend" fill="#29CA41" cx="28.3920031" cy="3.43200038" r="3.43200038"></circle>
                                            <circle id="Close" fill="#FF6058" cx="3.43200038" cy="3.43200038" r="3.43200038"></circle>
                                            <circle id="Minimize" fill="#FFBD2E" cx="15.9120017" cy="3.43200038" r="3.43200038"></circle>
                                        </g>
                                    </g>
                                </g>
                            </g>
                            <path d="M1,40.5 L427,40.5" id="Line-5" stroke="#F8F8F8" stroke-width="1" mask="url(#mask-2)"></path>
                        </g>
                        <g id="2" transform="translate(241.000000, 89.000000)">
                            <rect id="Rectangle" stroke-opacity="0.2" stroke="#121820" stroke-width="0.5" fill-rule="nonzero" x="0.25" y="0.25" width="159.5" height="140.5" rx="14"></rect>
                            <text id="Call-ratings" font-family="SFCompactDisplay-Bold, SF Compact Display" font-size="10" font-style="condensed" font-weight="bold" fill="#121820">
                                <tspan x="54.230957" y="21.3077908">Call ratings</tspan>
                            </text>
                            <g id="clock" transform="translate(21.000000, 25.500000)">
                                <g id="Circle" transform="translate(59.000000, 56.000000) rotate(-345.000000) translate(-59.000000, -56.000000) translate(14.000000, 11.000000)" stroke-width="20">
                                    <path d="M45.1479741,76.8539048 C62.6586761,76.8539048 76.8539048,62.6586761 76.8539048,45.1479741 C76.8539048,27.6372721 62.6586761,13.4420434 45.1479741,13.4420434 C27.6372721,13.4420434 13.4420434,27.6372721 13.4420434,45.1479741 C13.4420434,62.6586761 27.6372721,76.8539048 45.1479741,76.8539048 Z" id="Color" stroke="#4CD964" stroke-dasharray="141.4400024414062" transform="translate(45.147974, 45.147974) rotate(-46.000000) translate(-45.147974, -45.147974) "></path>
                                    <path d="M45.1479741,76.8539048 C62.6586761,76.8539048 76.8539048,62.6586761 76.8539048,45.1479741 C76.8539048,27.6372721 62.6586761,13.4420434 45.1479741,13.4420434 C27.6372721,13.4420434 13.4420434,27.6372721 13.4420434,45.1479741 C13.4420434,62.6586761 27.6372721,76.8539048 45.1479741,76.8539048 Z" id="Color" stroke="#6A4AE2" stroke-dasharray="209.4399777507788" transform="translate(45.147974, 45.147974) rotate(-216.000000) translate(-45.147974, -45.147974) "></path>
                                    <path d="M45.1479741,76.8539048 C62.6586761,76.8539048 76.8539048,62.6586761 76.8539048,45.1479741 C76.8539048,27.6372721 62.6586761,13.4420434 45.1479741,13.4420434 C27.6372721,13.4420434 13.4420434,27.6372721 13.4420434,45.1479741 C13.4420434,62.6586761 27.6372721,76.8539048 45.1479741,76.8539048 Z" id="Color" stroke="#F5A623" stroke-dasharray="170" transform="translate(45.147974, 45.147974) rotate(-246.000000) translate(-45.147974, -45.147974) "></path>
                                    <path d="M45.1479741,76.8539048 C62.6586761,76.8539048 76.8539048,62.6586761 76.8539048,45.1479741 C76.8539048,27.6372721 62.6586761,13.4420434 45.1479741,13.4420434 C27.6372721,13.4420434 13.4420434,27.6372721 13.4420434,45.1479741 C13.4420434,62.6586761 27.6372721,76.8539048 45.1479741,76.8539048 Z" id="Oval" stroke="#3E82FF" stroke-dasharray="27"></path>
                                    <path d="M45.1479741,76.8539048 C62.6586761,76.8539048 76.8539048,62.6586761 76.8539048,45.1479741 C76.8539048,27.6372721 62.6586761,13.4420434 45.1479741,13.4420434 C27.6372721,13.4420434 13.4420434,27.6372721 13.4420434,45.1479741 C13.4420434,62.6586761 27.6372721,76.8539048 45.1479741,76.8539048 Z" id="Color" stroke="#FF553D" stroke-dasharray="58" transform="translate(45.147974, 45.147974) rotate(-353.000000) translate(-45.147974, -45.147974) "></path>
                                    <path d="M9.87917075,72.2106788 L9.87917075,72.2106788 C27.3898728,72.2106788 41.5851015,58.0154501 41.5851015,40.5047481" id="Path" stroke="#75F5F4" transform="translate(25.732136, 56.357713) rotate(-255.000000) translate(-25.732136, -56.357713) "></path>
                                    <path d="M-1.87074525,33.3980581 C-1.87074525,50.9087601 12.3244835,65.1039888 29.8351855,65.1039888 L29.8351855,65.1039888 C47.3458875,65.1039888 61.5411162,50.9087601 61.5411162,33.3980581" id="Path" stroke="#6A4AE2" transform="translate(29.835185, 49.251023) rotate(-285.000000) translate(-29.835185, -49.251023) "></path>
                                    <path d="M11.5100529,45.0298085 C11.5100529,62.5405105 25.7052816,76.7357392 43.2159836,76.7357392 L43.2159836,76.7357392 C60.7266857,76.7357392 74.9219144,62.5405105 74.9219144,45.0298085" id="Path" stroke="#4CD964" stroke-dasharray="108" transform="translate(43.215984, 60.882774) rotate(-353.000000) translate(-43.215984, -60.882774) "></path>
                                </g>
                                <g id="Data" transform="translate(0.000000, 67.000000)">
                                    <path d="M7.7916556,5.77426327e-16 L24.6083444,1.19893051e-15 C27.2829006,7.07622505e-16 28.2527593,0.278476833 29.2305371,0.801398111 C30.2083149,1.32431939 30.9756806,2.09168511 31.4986019,3.06946289 C32.0215232,4.04724067 32.3,5.01709938 32.3,7.6916556 L32.3,20.8083444 C32.3,23.4829006 32.0215232,24.4527593 31.4986019,25.4305371 C30.9756806,26.4083149 30.2083149,27.1756806 29.2305371,27.6986019 C28.2527593,28.2215232 27.2829006,28.5 24.6083444,28.5 L7.7916556,28.5 C5.11709938,28.5 4.14724067,28.2215232 3.16946289,27.6986019 C2.19168511,27.1756806 1.42431939,26.4083149 0.901398111,25.4305371 C0.378476833,24.4527593 0.1,23.4829006 0.1,20.8083444 L0.1,7.6916556 C0.1,5.01709938 0.378476833,4.04724067 0.901398111,3.06946289 C1.42431939,2.09168511 2.19168511,1.32431939 3.16946289,0.801398111 C4.14724067,0.278476833 5.11709938,1.06873433e-15 7.7916556,5.77426327e-16 Z" id="Mask-Copy-3" fill="#121820"></path>
                                    <text id="5" font-family="SFCompactDisplay-Bold, SF Compact Display" font-size="8" font-style="condensed" font-weight="bold" fill="#FFFFFF">
                                        <tspan x="13.8308594" y="13">5</tspan>
                                    </text>
                                    <text id="stars" font-family="Helvetica" font-size="8" font-weight="normal" fill="#FFFFFF">
                                        <tspan x="7.53203125" y="21.25">stars</tspan>
                                    </text>
                                </g>
                                <g id="Data" transform="translate(87.500000, 32.000000)">
                                    <path d="M7.6916556,-3.10752092e-16 L22.3083444,3.10752092e-16 C24.9829006,-1.80555915e-16 25.9527593,0.278476833 26.9305371,0.801398111 C27.9083149,1.32431939 28.6756806,2.09168511 29.1986019,3.06946289 C29.7215232,4.04724067 30,5.01709938 30,7.6916556 L30,12.3083444 C30,14.9829006 29.7215232,15.9527593 29.1986019,16.9305371 C28.6756806,17.9083149 27.9083149,18.6756806 26.9305371,19.1986019 C25.9527593,19.7215232 24.9829006,20 22.3083444,20 L7.6916556,20 C5.01709938,20 4.04724067,19.7215232 3.06946289,19.1986019 C2.09168511,18.6756806 1.32431939,17.9083149 0.801398111,16.9305371 C0.278476833,15.9527593 1.2037061e-16,14.9829006 -2.07168062e-16,12.3083444 L2.07168062e-16,7.6916556 C-1.2037061e-16,5.01709938 0.278476833,4.04724067 0.801398111,3.06946289 C1.32431939,2.09168511 2.09168511,1.32431939 3.06946289,0.801398111 C4.04724067,0.278476833 5.01709938,1.80555915e-16 7.6916556,-3.10752092e-16 Z" id="Mask-Copy-4" fill="#121820"></path>
                                    <rect id="Title-Copy-3" fill="#FFFFFF" x="7.5" y="9" width="15" height="2" rx="1"></rect>
                                </g>
                            </g>
                        </g>
                        <g id="1" transform="translate(65.000000, 89.000000)">
                            <rect id="Rectangle" stroke-opacity="0.2" stroke="#121820" stroke-width="0.5" fill-rule="nonzero" x="0.25" y="0.25" width="159.5" height="140.5" rx="14"></rect>
                            <text id="Rating-ratio" font-family="SFCompactDisplay-Bold, SF Compact Display" font-size="10" font-style="condensed" font-weight="bold" fill="#121820">
                                <tspan x="53.4423828" y="21.3077908">Rating ratio</tspan>
                            </text>
                            <g id="clock" transform="translate(35.000000, 36.500000)">
                                <g id="Circle">
                                    <path d="M45.1479741,76.8539048 C62.6586761,76.8539048 76.8539048,62.6586761 76.8539048,45.1479741 C76.8539048,27.6372721 62.6586761,13.4420434 45.1479741,13.4420434 C27.6372721,13.4420434 13.4420434,27.6372721 13.4420434,45.1479741 C13.4420434,62.6586761 27.6372721,76.8539048 45.1479741,76.8539048 Z" id="Color" stroke="#6A4AE2" stroke-width="20" stroke-dasharray="200" transform="translate(45.147974, 45.147974) rotate(-309.000000) translate(-45.147974, -45.147974) "></path>
                                    <path d="M38.8212471,76.2226029 C40.8656646,76.636602 42.9814425,76.8539048 45.1479741,76.8539048 L45.1479741,76.8539048 C62.6586761,76.8539048 76.8539048,62.6586761 76.8539048,45.1479741 C76.8539048,27.6372721 62.6586761,13.4420434 45.1479741,13.4420434 C27.6372721,13.4420434 13.4420434,27.6372721 13.4420434,45.1479741" id="Path" stroke="#4CD964" stroke-width="20" stroke-dasharray="200" transform="translate(45.147974, 45.147974) rotate(-270.000000) translate(-45.147974, -45.147974) "></path>
                                    <g id="%" transform="translate(69.741299, 0.554649)">
                                        <path d="M7.6916556,-3.10752092e-16 L32.3083444,3.10752092e-16 C34.9829006,-1.80555915e-16 35.9527593,0.278476833 36.9305371,0.801398111 C37.9083149,1.32431939 38.6756806,2.09168511 39.1986019,3.06946289 C39.7215232,4.04724067 40,5.01709938 40,7.6916556 L40,24.3083444 C40,26.9829006 39.7215232,27.9527593 39.1986019,28.9305371 C38.6756806,29.9083149 37.9083149,30.6756806 36.9305371,31.1986019 C35.9527593,31.7215232 34.9829006,32 32.3083444,32 L7.6916556,32 C5.01709938,32 4.04724067,31.7215232 3.06946289,31.1986019 C2.09168511,30.6756806 1.32431939,29.9083149 0.801398111,28.9305371 C0.278476833,27.9527593 1.2037061e-16,26.9829006 -2.07168062e-16,24.3083444 L2.07168062e-16,7.6916556 C-1.2037061e-16,5.01709938 0.278476833,4.04724067 0.801398111,3.06946289 C1.32431939,2.09168511 2.09168511,1.32431939 3.06946289,0.801398111 C4.04724067,0.278476833 5.01709938,1.80555915e-16 7.6916556,-3.10752092e-16 Z" id="Mask-Copy-5" fill="#121820"></path>
                                        <text id="78%" font-family="SFCompactDisplay-Bold, SF Compact Display" font-size="8" font-style="condensed" font-weight="bold" fill="#FFFFFF">
                                            <tspan x="12.4121094" y="13">78%</tspan>
                                        </text>
                                        <text id="rated" font-family="Helvetica" font-size="8" font-weight="normal" fill="#FFFFFF">
                                            <tspan x="10.8828125" y="23">rated</tspan>
                                        </text>
                                    </g>
                                </g>
                            </g>
                        </g>
                    </g>
                </g>
            </g>
        </g>
    </g>
</svg>