<?xml version="1.0" encoding="UTF-8"?>
<svg width="487px" height="314px" viewBox="0 0 487 314" version="1.1" xmlns="http://www.w3.org/2000/svg" xmlns:xlink="http://www.w3.org/1999/xlink">
    <!-- Generator: Sketch 54.1 (76490) - https://sketchapp.com -->
    <title>Illustration-4</title>
    <desc>Created with Sketch.</desc>
    <defs>
        <path d="M51.277704,-2.07168062e-15 L375.722296,2.07168062e-15 C393.552671,-1.2037061e-15 400.018396,1.85651222 406.536914,5.34265408 C413.055433,8.82879593 418.171204,13.9445674 421.657346,20.4630859 C425.143488,26.9816044 427,33.4473292 427,51.277704 L427,202.722296 C427,220.552671 425.143488,227.018396 421.657346,233.536914 C418.171204,240.055433 413.055433,245.171204 406.536914,248.657346 C400.018396,252.143488 393.552671,254 375.722296,254 L51.277704,254 C33.4473292,254 26.9816044,252.143488 20.4630859,248.657346 C13.9445674,245.171204 8.82879593,240.055433 5.34265408,233.536914 C1.85651222,227.018396 8.02470732e-16,220.552671 -1.38112041e-15,202.722296 L1.38112041e-15,51.277704 C-8.02470732e-16,33.4473292 1.85651222,26.9816044 5.34265408,20.4630859 C8.82879593,13.9445674 13.9445674,8.82879593 20.4630859,5.34265408 C26.9816044,1.85651222 33.4473292,1.2037061e-15 51.277704,-2.07168062e-15 Z" id="path-1"></path>
        <filter x="-12.9%" y="-13.8%" width="125.8%" height="143.3%" filterUnits="objectBoundingBox" id="filter-3">
            <feOffset dx="0" dy="20" in="SourceAlpha" result="shadowOffsetOuter1"></feOffset>
            <feGaussianBlur stdDeviation="15" in="shadowOffsetOuter1" result="shadowBlurOuter1"></feGaussianBlur>
            <feColorMatrix values="0 0 0 0 0   0 0 0 0 0   0 0 0 0 0  0 0 0 0.2 0" type="matrix" in="shadowBlurOuter1"></feColorMatrix>
        </filter>
    </defs>
    <g id="Web-Design" stroke="none" stroke-width="1" fill="none" fill-rule="evenodd">
        <g id="2f-Product-Shopify" transform="translate(-749.000000, -2615.000000)">
            <g id="Section-1" transform="translate(231.000000, 1069.000000)">
                <g id="4" transform="translate(2.000000, 1468.000000)">
                    <g id="Illustration-4" transform="translate(546.000000, 88.000000)">
                        <g id="Screen/Layout/Desktop/Dashboard">
                            <mask id="mask-2" fill="white">
                                <use xlink:href="#path-1"></use>
                            </mask>
                            <g id="Rectangle">
                                <use fill="black" fill-opacity="1" filter="url(#filter-3)" xlink:href="#path-1"></use>
                                <use fill="#FFFFFF" fill-rule="evenodd" xlink:href="#path-1"></use>
                            </g>
                            <text id="General-information" mask="url(#mask-2)" font-family="SanFranciscoDisplay-Bold, San Francisco Display" font-size="14" font-weight="bold" fill="#121820">
                                <tspan x="62" y="70">Statistics</tspan>
                            </text>
                            <g id="Screen/Sidebar" mask="url(#mask-2)">
                                <g transform="translate(0.000000, 41.000000)" id="Sidebar">
                                    <g>
                                        <rect id="Rectangle" fill="#4CD964" x="0" y="0" width="38" height="213"></rect>
                                        <path d="M23.5885344,13.5089411 L22.253331,14.8441445 C22.0598001,15.0256487 21.7583976,15.0256487 21.5648668,14.8441445 L20.9708976,14.2501753 C20.6659362,13.9590813 20.1860975,13.9590813 19.881136,14.2501753 L17.5064867,16.6272791 C17.2060659,16.9292952 17.2060659,17.417479 17.5064867,17.7194951 L18.1004558,18.312237 C18.2883415,18.5031907 18.2883415,18.8096248 18.1004558,19.0007013 L16.7652525,20.332223 C16.5709853,20.5120091 16.2710554,20.5120091 16.0767882,20.332223 C16.0669705,20.3224053 15.5613604,19.8572931 15.2643759,19.545582 C14.5476858,18.8006662 14.437237,17.8888499 14.9256662,16.7598177 C15.2938289,15.9154979 16.0056101,14.9680926 17.115007,13.8586957 C18.8036466,12.1700561 20.1179874,11.3834151 21.2507013,11.3834151 C21.8354663,11.3855014 22.3950736,11.6210028 22.805575,12.0375175 C23.1737377,12.3725456 23.5811711,12.8131136 23.5860799,12.8167952 C23.7764201,13.0082398 23.7764201,13.3174965 23.5860799,13.5089411 M23.0767882,20.2401823 C22.7086255,21.0832749 21.9956171,22.0319074 20.8862202,23.1413043 C19.1988079,24.8287167 17.884467,25.6153576 16.7517532,25.6153576 C16.1671108,25.6136396 15.6073808,25.378629 15.1968794,24.9624825 C14.8287167,24.6274544 14.4212833,24.1868864 14.4163745,24.1832048 C14.2260344,23.9916374 14.2260344,23.6825035 14.4163745,23.4909362 L15.7515778,22.1557328 C15.8434958,22.0666374 15.9670757,22.0175491 16.0951964,22.0196353 C16.2230715,22.0185309 16.346406,22.0673738 16.4388149,22.1557328 L17.032784,22.7485975 C17.3379909,23.0411641 17.8197931,23.0411641 18.125,22.7485975 L20.497195,20.3762798 C20.798352,20.0745091 20.798352,19.5859572 20.497195,19.2841865 L19.9007714,18.6914446 C19.7128857,18.5003682 19.7128857,18.1939341 19.9007714,18.0029804 L21.2359748,16.6665498 C21.4302419,16.4867637 21.7301718,16.4867637 21.924439,16.6665498 C21.9342567,16.6763675 22.4398668,17.1427069 22.7380785,17.454418 C23.4547686,18.1993338 23.5652174,19.1099229 23.0767882,20.2401823 M19.0012272,8 C13.2022966,7.99926367 8.50073633,12.6997195 8.5,18.4987728 C8.49926367,24.2978261 13.1998422,28.9992637 18.9987728,29 C24.7978261,29.0007363 29.4993864,24.3001578 29.5,18.5012272 L29.5,18.5 C29.5,12.7014376 24.7997896,8.0006136 19.0012272,8" id="Logo" fill="#FFFFFF"></path>
                                        <rect id="Title-Copy" fill="#FFFFFF" opacity="0.3" x="9" y="45" width="20" height="4" rx="2"></rect>
                                        <rect id="Title-Copy-2" fill="#FFFFFF" opacity="0.3" x="9" y="65" width="20" height="4" rx="2"></rect>
                                        <rect id="Title-Copy-3" fill="#FFFFFF" opacity="0.3" x="9" y="85" width="20" height="4" rx="2"></rect>
                                        <rect id="Title-Copy-4" fill="#FFFFFF" opacity="0.3" x="9" y="105" width="20" height="4" rx="2"></rect>
                                    </g>
                                </g>
                            </g>
                            <g id="Tab" mask="url(#mask-2)">
                                <g transform="translate(25.000000, 11.000000)">
                                    <g id="Tab-" transform="translate(45.200007, 0.000000)">
                                        <path d="M10.6080584,0.390000037 C4.9647806,0.390000037 0.390000037,4.9647806 0.390000037,10.6080584 C0.390000037,16.2513362 4.9647806,20.8261168 10.6080584,20.8261168 L296.391942,20.8261168 C302.035219,20.8261168 306.61,16.2513362 306.61,10.6080584 C306.61,4.9647806 302.035219,0.390000037 296.391942,0.390000037 L10.6080584,0.390000037 Z" id="Rectangle-4" stroke="#F8F8F8" stroke-width="0.780000074" fill="#FFFFFF" fill-rule="nonzero"></path>
                                        <path d="M20.7281198,9.44790217 C20.8739539,9.24477616 21.0529886,9.08657462 21.2652292,8.9732928 C21.4774698,8.86001098 21.7124935,8.80337092 21.9703073,8.80337092 C22.4208304,8.80337092 22.7717384,8.93878624 23.0230417,9.20962092 C23.274345,9.48045561 23.3999948,9.89711811 23.3999948,10.4596209 L23.3999948,13.1080584 L22.6304636,13.1080584 L22.6304636,10.4518084 C22.6304636,10.1028483 22.5555945,9.84503842 22.4058542,9.67837092 C22.2561139,9.51170342 22.0328088,9.42837092 21.7359323,9.42837092 C21.5067645,9.42837092 21.3075478,9.47329235 21.1382761,9.56313655 C20.9690044,9.65298075 20.832287,9.77863053 20.7281198,9.94008967 L20.7281198,13.1080584 L19.9585886,13.1080584 L19.9585886,7.01430842 L20.7281198,7.01430842 L20.7281198,9.44790217 Z M25.5757761,7.86196467 L25.5757761,8.88149592 L26.3765573,8.88149592 L26.3765573,9.45180842 L25.5757761,9.45180842 L25.5757761,12.0182147 C25.5757761,12.2161323 25.6167913,12.3554539 25.698823,12.4361834 C25.7808546,12.516913 25.8895775,12.5572772 26.0249948,12.5572772 C26.0692659,12.5572772 26.1187446,12.5514179 26.1734323,12.539699 C26.2281201,12.5279802 26.2736926,12.5156106 26.3101511,12.5025897 L26.4156198,13.0299334 C26.3583279,13.0768087 26.2736933,13.1152197 26.1617136,13.1451678 C26.0497338,13.1751159 25.9390579,13.1900897 25.8296823,13.1900897 C25.5171808,13.1900897 25.2684853,13.0956896 25.0835886,12.9068865 C24.8986918,12.7180835 24.8062448,12.4218625 24.8062448,12.0182147 L24.8062448,9.45180842 L24.1343698,9.45180842 L24.1343698,8.88149592 L24.8062448,8.88149592 L24.8062448,7.86196467 L25.5757761,7.86196467 Z M28.2710886,7.86196467 L28.2710886,8.88149592 L29.0718698,8.88149592 L29.0718698,9.45180842 L28.2710886,9.45180842 L28.2710886,12.0182147 C28.2710886,12.2161323 28.3121038,12.3554539 28.3941355,12.4361834 C28.4761671,12.516913 28.58489,12.5572772 28.7203073,12.5572772 C28.7645784,12.5572772 28.8140571,12.5514179 28.8687448,12.539699 C28.9234326,12.5279802 28.9690051,12.5156106 29.0054636,12.5025897 L29.1109323,13.0299334 C29.0536404,13.0768087 28.9690058,13.1152197 28.8570261,13.1451678 C28.7450463,13.1751159 28.6343704,13.1900897 28.5249948,13.1900897 C28.2124933,13.1900897 27.9637978,13.0956896 27.7789011,12.9068865 C27.5940043,12.7180835 27.5015573,12.4218625 27.5015573,12.0182147 L27.5015573,9.45180842 L26.8296823,9.45180842 L26.8296823,8.88149592 L27.5015573,8.88149592 L27.5015573,7.86196467 L28.2710886,7.86196467 Z M33.4976511,11.1549334 C33.4976511,11.7643115 33.3518192,12.255843 33.0601511,12.6295428 C32.768483,13.0032426 32.3661432,13.1900897 31.8531198,13.1900897 C31.5927019,13.1900897 31.3641885,13.1464703 31.167573,13.0592303 C30.9709574,12.9719903 30.8036413,12.8411322 30.6656198,12.6666522 L30.6656198,14.7330584 L29.8960886,14.7330584 L29.8960886,8.88149592 L30.4859323,8.88149592 L30.6070261,9.42837092 C30.7450476,9.22524491 30.9169209,9.07029854 31.1226511,8.96352717 C31.3283813,8.85675581 31.5679622,8.80337092 31.8414011,8.80337092 C32.3648412,8.80337092 32.7717382,9.01105114 33.0621042,9.4264178 C33.3524702,9.84178446 33.4976511,10.3906071 33.4976511,11.0729022 L33.4976511,11.1549334 Z M32.7281198,11.0729022 C32.7281198,10.5937331 32.6337197,10.1998568 32.4449167,9.89126155 C32.2561137,9.58266626 31.9781217,9.42837092 31.6109323,9.42837092 C31.3895771,9.42837092 31.2007769,9.47850063 31.0445261,9.57876155 C30.8882753,9.67902247 30.7619745,9.81639089 30.6656198,9.99087092 L30.6656198,12.0338397 C30.7619745,12.2083197 30.8882753,12.3443861 31.0445261,12.4420428 C31.2007769,12.5396995 31.3921812,12.5885272 31.6187448,12.5885272 C31.98333,12.5885272 32.2593689,12.455065 32.4468698,12.1881365 C32.6343708,11.9212081 32.7281198,11.5768105 32.7281198,11.1549334 L32.7281198,11.0729022 Z M36.8999948,11.9713397 C36.8999948,11.802068 36.8355423,11.6640485 36.7066355,11.5572772 C36.5777286,11.4505058 36.3335904,11.3567567 35.9742136,11.2760272 C35.4768153,11.1692558 35.0946576,11.0195177 34.8277292,10.8268084 C34.5608008,10.6340991 34.4273386,10.3762892 34.4273386,10.0533709 C34.4273386,9.70961921 34.5738215,9.41535132 34.8667917,9.17055842 C35.1597619,8.92576553 35.5393154,8.80337092 36.0054636,8.80337092 C36.4846326,8.80337092 36.8726496,8.93357796 37.1695261,9.19399592 C37.4664026,9.45441389 37.6083282,9.75779628 37.5953073,10.1041522 L37.5874948,10.1275897 L36.8531198,10.1275897 C36.8531198,9.9452971 36.7730425,9.77993417 36.6128855,9.63149592 C36.4527284,9.48305768 36.2502565,9.40883967 36.0054636,9.40883967 C35.7346289,9.40883967 35.532157,9.47003698 35.3980417,9.59243342 C35.2639264,9.71482987 35.1968698,9.86066175 35.1968698,10.0299334 C35.1968698,10.1966009 35.254812,10.3255059 35.370698,10.4166522 C35.4865839,10.5077985 35.7255138,10.591131 36.0874948,10.6666522 C36.6057266,10.7760277 36.9989518,10.9309741 37.2671823,11.1314959 C37.5354128,11.3320178 37.6695261,11.5937339 37.6695261,11.9166522 C37.6695261,12.291654 37.5178349,12.5976406 37.214448,12.8346209 C36.911061,13.0716013 36.5145806,13.1900897 36.0249948,13.1900897 C35.4859296,13.1900897 35.0614547,13.0533723 34.7515573,12.7799334 C34.4416599,12.5064946 34.294526,12.1874873 34.3101511,11.8229022 L34.3179636,11.7994647 L35.0523386,11.7994647 C35.0653595,12.0729035 35.166921,12.2727713 35.3570261,12.399074 C35.5471312,12.5253768 35.7697852,12.5885272 36.0249948,12.5885272 C36.2984337,12.5885272 36.5126243,12.530585 36.667573,12.414699 C36.8225216,12.2988131 36.8999948,12.1510281 36.8999948,11.9713397 Z M39.4664011,13.1080584 L38.6968698,13.1080584 L38.6968698,12.3189959 L39.4664011,12.3189959 L39.4664011,13.1080584 Z M39.4664011,9.68618342 L38.6968698,9.68618342 L38.6968698,8.89712092 L39.4664011,8.89712092 L39.4664011,9.68618342 Z M40.8062448,13.5963397 L40.1499948,13.5963397 L42.5249948,7.42055842 L43.1773386,7.42055842 L40.8062448,13.5963397 Z M44.1265573,13.5963397 L43.4703073,13.5963397 L45.8453073,7.42055842 L46.4976511,7.42055842 L44.1265573,13.5963397 Z M48.3687448,11.5689959 L48.4664011,12.1119647 L48.4898386,12.1119647 L48.5914011,11.5689959 L49.4351511,8.88149592 L50.0523386,8.88149592 L50.8999948,11.5689959 L51.0093698,12.1744647 L51.0328073,12.1744647 L51.1578073,11.5689959 L51.7828073,8.88149592 L52.5874948,8.88149592 L51.3609323,13.1080584 L50.7398386,13.1080584 L49.9039011,10.5338397 L49.7437448,9.86196467 L49.7203073,9.86196467 L49.5718698,10.5338397 L48.7515573,13.1080584 L48.1304636,13.1080584 L46.9039011,8.88149592 L47.7046823,8.88149592 L48.3687448,11.5689959 Z M54.4234323,11.5689959 L54.5210886,12.1119647 L54.5445261,12.1119647 L54.6460886,11.5689959 L55.4898386,8.88149592 L56.1070261,8.88149592 L56.9546823,11.5689959 L57.0640573,12.1744647 L57.0874948,12.1744647 L57.2124948,11.5689959 L57.8374948,8.88149592 L58.6421823,8.88149592 L57.4156198,13.1080584 L56.7945261,13.1080584 L55.9585886,10.5338397 L55.7984323,9.86196467 L55.7749948,9.86196467 L55.6265573,10.5338397 L54.8062448,13.1080584 L54.1851511,13.1080584 L52.9585886,8.88149592 L53.7593698,8.88149592 L54.4234323,11.5689959 Z M60.4781198,11.5689959 L60.5757761,12.1119647 L60.5992136,12.1119647 L60.7007761,11.5689959 L61.5445261,8.88149592 L62.1617136,8.88149592 L63.0093698,11.5689959 L63.1187448,12.1744647 L63.1421823,12.1744647 L63.2671823,11.5689959 L63.8921823,8.88149592 L64.6968698,8.88149592 L63.4703073,13.1080584 L62.8492136,13.1080584 L62.0132761,10.5338397 L61.8531198,9.86196467 L61.8296823,9.86196467 L61.6812448,10.5338397 L60.8609323,13.1080584 L60.2398386,13.1080584 L59.0132761,8.88149592 L59.8140573,8.88149592 L60.4781198,11.5689959 Z M66.2906198,13.1080584 L65.5210886,13.1080584 L65.5210886,12.3189959 L66.2906198,12.3189959 L66.2906198,13.1080584 Z M70.0484323,11.9713397 C70.0484323,11.802068 69.9839798,11.6640485 69.855073,11.5572772 C69.7261661,11.4505058 69.4820279,11.3567567 69.1226511,11.2760272 C68.6252528,11.1692558 68.2430951,11.0195177 67.9761667,10.8268084 C67.7092383,10.6340991 67.5757761,10.3762892 67.5757761,10.0533709 C67.5757761,9.70961921 67.722259,9.41535132 68.0152292,9.17055842 C68.3081994,8.92576553 68.6877529,8.80337092 69.1539011,8.80337092 C69.6330701,8.80337092 70.0210871,8.93357796 70.3179636,9.19399592 C70.6148401,9.45441389 70.7567657,9.75779628 70.7437448,10.1041522 L70.7359323,10.1275897 L70.0015573,10.1275897 C70.0015573,9.9452971 69.92148,9.77993417 69.761323,9.63149592 C69.6011659,9.48305768 69.398694,9.40883967 69.1539011,9.40883967 C68.8830664,9.40883967 68.6805945,9.47003698 68.5464792,9.59243342 C68.4123639,9.71482987 68.3453073,9.86066175 68.3453073,10.0299334 C68.3453073,10.1966009 68.4032495,10.3255059 68.5191355,10.4166522 C68.6350214,10.5077985 68.8739513,10.591131 69.2359323,10.6666522 C69.7541641,10.7760277 70.1473893,10.9309741 70.4156198,11.1314959 C70.6838503,11.3320178 70.8179636,11.5937339 70.8179636,11.9166522 C70.8179636,12.291654 70.6662724,12.5976406 70.3628855,12.8346209 C70.0594985,13.0716013 69.6630181,13.1900897 69.1734323,13.1900897 C68.6343671,13.1900897 68.2098922,13.0533723 67.8999948,12.7799334 C67.5900974,12.5064946 67.4429635,12.1874873 67.4585886,11.8229022 L67.4664011,11.7994647 L68.2007761,11.7994647 C68.213797,12.0729035 68.3153585,12.2727713 68.5054636,12.399074 C68.6955687,12.5253768 68.9182227,12.5885272 69.1734323,12.5885272 C69.4468712,12.5885272 69.6610618,12.530585 69.8160105,12.414699 C69.9709591,12.2988131 70.0484323,12.1510281 70.0484323,11.9713397 Z M72.4624948,8.88149592 L72.5171823,9.51040217 C72.657808,9.28644272 72.8342386,9.11261633 73.0464792,8.9889178 C73.2587198,8.86521926 73.5002539,8.80337092 73.7710886,8.80337092 C74.22682,8.80337092 74.5796811,8.93683313 74.8296823,9.20376155 C75.0796836,9.47068997 75.2046823,9.88279522 75.2046823,10.4400897 L75.2046823,13.1080584 L74.4351511,13.1080584 L74.4351511,10.4557147 C74.4351511,10.083317 74.3615841,9.81899671 74.214448,9.66274592 C74.0673118,9.50649514 73.8427047,9.42837092 73.5406198,9.42837092 C73.3036395,9.42837092 73.1024696,9.47589649 72.9371042,9.57094905 C72.7717388,9.66600161 72.6408807,9.79946382 72.5445261,9.97133967 L72.5445261,13.1080584 L71.7749948,13.1080584 L71.7749948,8.88149592 L72.4624948,8.88149592 Z M78.9195261,13.1080584 C78.8934843,12.9804536 78.8733022,12.8678245 78.8589792,12.7701678 C78.8446562,12.6725111 78.8361928,12.5742048 78.8335886,12.4752459 C78.6903587,12.6783719 78.5035116,12.8482921 78.2730417,12.9850115 C78.0425718,13.121731 77.7945274,13.1900897 77.5289011,13.1900897 C77.0887947,13.1900897 76.7535116,13.0774606 76.5230417,12.852199 C76.2925718,12.6269375 76.1773386,12.3163937 76.1773386,11.9205584 C76.1773386,11.5169106 76.3407484,11.2011585 76.667573,10.9732928 C76.9943975,10.7454271 77.4377524,10.6314959 77.9976511,10.6314959 L78.8335886,10.6314959 L78.8335886,10.2135272 C78.8335886,9.9661301 78.7580685,9.77016852 78.6070261,9.62563655 C78.4559837,9.48110458 78.2424441,9.40883967 77.9664011,9.40883967 C77.7163998,9.40883967 77.5145789,9.47133905 77.3609323,9.59633967 C77.2072857,9.7213403 77.1304636,9.87107839 77.1304636,10.0455584 L76.3999948,10.0533709 L76.3921823,10.0299334 C76.3739531,9.72264022 76.5178318,9.44139303 76.823823,9.18618342 C77.1298141,8.93097382 77.5249924,8.80337092 78.0093698,8.80337092 C78.4885389,8.80337092 78.8739517,8.9251145 79.1656198,9.1686053 C79.457288,9.4120961 79.6031198,9.76300405 79.6031198,10.2213397 L79.6031198,12.2564959 C79.6031198,12.4075383 79.6109322,12.5533702 79.6265573,12.6939959 C79.6421824,12.8346216 79.670828,12.9726411 79.7124948,13.1080584 L78.9195261,13.1080584 Z M77.6421823,12.5455584 C77.9208296,12.5455584 78.1721291,12.4739446 78.3960886,12.3307147 C78.620048,12.1874848 78.7658799,12.0234239 78.8335886,11.8385272 L78.8335886,11.1510272 L77.9703073,11.1510272 C77.6604099,11.1510272 77.4123655,11.2291514 77.2261667,11.3854022 C77.0399679,11.541653 76.9468698,11.7252449 76.9468698,11.9361834 C76.9468698,12.1236844 77.005463,12.2721204 77.1226511,12.3814959 C77.2398392,12.4908715 77.4130145,12.5455584 77.6421823,12.5455584 Z M84.3218698,11.1549334 C84.3218698,11.7643115 84.176038,12.255843 83.8843698,12.6295428 C83.5927017,13.0032426 83.190362,13.1900897 82.6773386,13.1900897 C82.4169206,13.1900897 82.1884073,13.1464703 81.9917917,13.0592303 C81.7951761,12.9719903 81.6278601,12.8411322 81.4898386,12.6666522 L81.4898386,14.7330584 L80.7203073,14.7330584 L80.7203073,8.88149592 L81.3101511,8.88149592 L81.4312448,9.42837092 C81.5692663,9.22524491 81.7411396,9.07029854 81.9468698,8.96352717 C82.1526,8.85675581 82.392181,8.80337092 82.6656198,8.80337092 C83.1890599,8.80337092 83.5959569,9.01105114 83.886323,9.4264178 C84.176689,9.84178446 84.3218698,10.3906071 84.3218698,11.0729022 L84.3218698,11.1549334 Z M83.5523386,11.0729022 C83.5523386,10.5937331 83.4579385,10.1998568 83.2691355,9.89126155 C83.0803324,9.58266626 82.8023404,9.42837092 82.4351511,9.42837092 C82.2137958,9.42837092 82.0249956,9.47850063 81.8687448,9.57876155 C81.712494,9.67902247 81.5861932,9.81639089 81.4898386,9.99087092 L81.4898386,12.0338397 C81.5861932,12.2083197 81.712494,12.3443861 81.8687448,12.4420428 C82.0249956,12.5396995 82.2163999,12.5885272 82.4429636,12.5885272 C82.8075487,12.5885272 83.0835876,12.455065 83.2710886,12.1881365 C83.4585895,11.9212081 83.5523386,11.5768105 83.5523386,11.1549334 L83.5523386,11.0729022 Z M86.9468698,12.5885272 C87.1838502,12.5885272 87.3908794,12.5097519 87.5679636,12.352199 C87.7450478,12.1946462 87.8335886,12.0012887 87.8335886,11.7721209 L88.5289011,11.7721209 L88.5406198,11.7955584 C88.5510365,12.1601436 88.3947881,12.4837081 88.0718698,12.7662615 C87.7489515,13.048815 87.3739553,13.1900897 86.9468698,13.1900897 C86.3531169,13.1900897 85.8947881,12.9882688 85.5718698,12.5846209 C85.2489515,12.1809731 85.0874948,11.6783739 85.0874948,11.0768084 L85.0874948,10.9127459 C85.0874948,10.3163888 85.2496026,9.81574274 85.573823,9.4107928 C85.8980433,9.00584286 86.355721,8.80337092 86.9468698,8.80337092 C87.4182263,8.80337092 87.8042902,8.9492028 88.105073,9.24087092 C88.4058557,9.53253905 88.5510365,9.89060839 88.5406198,10.3150897 L88.5328073,10.3385272 L87.8335886,10.3385272 C87.8335886,10.0807134 87.749605,9.86131454 87.5816355,9.68032405 C87.4136659,9.49933356 87.2020794,9.40883967 86.9468698,9.40883967 C86.5692638,9.40883967 86.2938759,9.55532258 86.120698,9.8482928 C85.94752,10.141263 85.8609323,10.4960772 85.8609323,10.9127459 L85.8609323,11.0768084 C85.8609323,11.5012897 85.9462179,11.859359 86.1167917,12.1510272 C86.2873655,12.4426953 86.5640554,12.5885272 86.9468698,12.5885272 Z M92.0523386,13.1080584 C92.0262968,12.9804536 92.0061147,12.8678245 91.9917917,12.7701678 C91.9774687,12.6725111 91.9690053,12.5742048 91.9664011,12.4752459 C91.8231712,12.6783719 91.6363241,12.8482921 91.4058542,12.9850115 C91.1753843,13.121731 90.9273399,13.1900897 90.6617136,13.1900897 C90.2216072,13.1900897 89.8863241,13.0774606 89.6558542,12.852199 C89.4253843,12.6269375 89.3101511,12.3163937 89.3101511,11.9205584 C89.3101511,11.5169106 89.4735609,11.2011585 89.8003855,10.9732928 C90.12721,10.7454271 90.5705649,10.6314959 91.1304636,10.6314959 L91.9664011,10.6314959 L91.9664011,10.2135272 C91.9664011,9.9661301 91.890881,9.77016852 91.7398386,9.62563655 C91.5887962,9.48110458 91.3752566,9.40883967 91.0992136,9.40883967 C90.8492123,9.40883967 90.6473914,9.47133905 90.4937448,9.59633967 C90.3400982,9.7213403 90.2632761,9.87107839 90.2632761,10.0455584 L89.5328073,10.0533709 L89.5249948,10.0299334 C89.5067656,9.72264022 89.6506443,9.44139303 89.9566355,9.18618342 C90.2626266,8.93097382 90.6578049,8.80337092 91.1421823,8.80337092 C91.6213514,8.80337092 92.0067642,8.9251145 92.2984323,9.1686053 C92.5901005,9.4120961 92.7359323,9.76300405 92.7359323,10.2213397 L92.7359323,12.2564959 C92.7359323,12.4075383 92.7437447,12.5533702 92.7593698,12.6939959 C92.7749949,12.8346216 92.8036405,12.9726411 92.8453073,13.1080584 L92.0523386,13.1080584 Z M90.7749948,12.5455584 C91.0536421,12.5455584 91.3049416,12.4739446 91.5289011,12.3307147 C91.7528605,12.1874848 91.8986924,12.0234239 91.9664011,11.8385272 L91.9664011,11.1510272 L91.1031198,11.1510272 C90.7932224,11.1510272 90.545178,11.2291514 90.3589792,11.3854022 C90.1727804,11.541653 90.0796823,11.7252449 90.0796823,11.9361834 C90.0796823,12.1236844 90.1382755,12.2721204 90.2554636,12.3814959 C90.3726517,12.4908715 90.545827,12.5455584 90.7749948,12.5455584 Z M94.6851511,13.1080584 L93.9156198,13.1080584 L93.9156198,7.01430842 L94.6851511,7.01430842 L94.6851511,13.1080584 Z M96.7007761,13.1080584 L95.9312448,13.1080584 L95.9312448,7.01430842 L96.7007761,7.01430842 L96.7007761,13.1080584 Z M98.7242136,13.1080584 L97.9546823,13.1080584 L97.9546823,12.3189959 L98.7242136,12.3189959 L98.7242136,13.1080584 Z M100.857026,13.1080584 L100.087495,13.1080584 L100.087495,8.88149592 L100.857026,8.88149592 L100.857026,13.1080584 Z M100.857026,7.79946467 L100.087495,7.79946467 L100.087495,7.01430842 L100.857026,7.01430842 L100.857026,7.79946467 Z M101.860932,10.9557147 C101.860932,10.3307115 102.030201,9.81574274 102.368745,9.4107928 C102.707288,9.00584286 103.166919,8.80337092 103.747651,8.80337092 C104.333592,8.80337092 104.796478,9.00519182 105.136323,9.40883967 C105.476168,9.81248753 105.646089,10.3281074 105.646089,10.9557147 L105.646089,11.0416522 C105.646089,11.6718637 105.476819,12.1874835 105.138276,12.5885272 C104.799733,12.9895708 104.3388,13.1900897 103.755464,13.1900897 C103.172127,13.1900897 102.710543,12.9889198 102.370698,12.586574 C102.030853,12.1842283 101.860932,11.6692595 101.860932,11.0416522 L101.860932,10.9557147 Z M102.630464,11.0416522 C102.630464,11.4895711 102.724864,11.859359 102.913667,12.1510272 C103.10247,12.4426953 103.383066,12.5885272 103.755464,12.5885272 C104.122653,12.5885272 104.401296,12.4426953 104.591401,12.1510272 C104.781506,11.859359 104.876557,11.4895711 104.876557,11.0416522 L104.876557,10.9557147 C104.876557,10.5130041 104.780855,10.1445182 104.589448,9.85024592 C104.398041,9.55597362 104.117445,9.40883967 103.747651,9.40883967 C103.380462,9.40883967 103.10247,9.55597362 102.913667,9.85024592 C102.724864,10.1445182 102.630464,10.5130041 102.630464,10.9557147 L102.630464,11.0416522 Z" id="https://www.snapcall.io" fill="#121820" fill-rule="nonzero"></path>
                                        <g id="Logo" transform="translate(6.799993, 7.000000)" stroke="#121820">
                                            <path d="M3.90045619,0 C1.74656749,-0.000273492312 0.000273492312,1.74561026 0,3.89954455 C-0.000273492312,6.05347883 1.74565585,7.79972725 3.89954455,7.80000074 C6.05347883,7.80027423 7.79977283,6.05434489 7.80000074,3.90045619 L7.80000074,3.90000037 C7.80000074,1.74624841 6.05420815,0.00022791026 3.90045619,0" id="Sign"></path>
                                        </g>
                                        <g id="Group-3" transform="translate(291.992001, 7.992001)" fill="#757575" fill-rule="nonzero">
                                            <path d="M2.59801684,2.61600057 L0.954204368,0.972188094 C0.75925462,0.777238346 0.75925462,0.461162354 0.954204368,0.266212607 C1.14915412,0.0712628587 1.46523011,0.0712628587 1.66017986,0.266212607 L3.30399233,1.91002508 L4.94780481,0.266212607 C5.14275455,0.0712628587 5.45883055,0.0712628587 5.65378029,0.266212607 C5.84873004,0.461162354 5.84873004,0.777238346 5.65378029,0.972188094 L4.00996782,2.61600057 L5.65378029,4.25981304 C5.84873004,4.45476279 5.84873004,4.77083878 5.65378029,4.96578853 C5.45883055,5.16073828 5.14275455,5.16073828 4.94780481,4.96578853 L3.30399233,3.32197606 L1.66017986,4.96578853 C1.46523011,5.16073828 1.14915412,5.16073828 0.954204368,4.96578853 C0.75925462,4.77083878 0.75925462,4.45476279 0.954204368,4.25981304 L2.59801684,2.61600057 Z" id="Close"></path>
                                        </g>
                                    </g>
                                    <g id="More" transform="translate(366.448065, 6.304001)">
                                        <path d="M0.936000103,2.51199883 C0.41906152,2.51199883 0,2.09293731 0,1.57599873 C0,1.05906015 0.41906152,0.639998625 0.936000103,0.639998625 C1.45293869,0.639998625 1.87200021,1.05906015 1.87200021,1.57599873 C1.87200021,2.09293731 1.45293869,2.51199883 0.936000103,2.51199883 Z M0.936000103,5.63199917 C0.41906152,5.63199917 0,5.21293765 0,4.69599907 C0,4.17906049 0.41906152,3.75999897 0.936000103,3.75999897 C1.45293869,3.75999897 1.87200021,4.17906049 1.87200021,4.69599907 C1.87200021,5.21293765 1.45293869,5.63199917 0.936000103,5.63199917 Z M0.936000103,8.75199951 C0.41906152,8.75199951 0,8.33293799 0,7.81599941 C0,7.29906083 0.41906152,6.87999931 0.936000103,6.87999931 C1.45293869,6.87999931 1.87200021,7.29906083 1.87200021,7.81599941 C1.87200021,8.33293799 1.45293869,8.75199951 0.936000103,8.75199951 Z" id="Combined-Shape" fill="#757575"></path>
                                    </g>
                                    <g id="Traffic-" transform="translate(0.096002, 6.864001)">
                                        <circle id="Extend" fill="#29CA41" cx="28.3920031" cy="3.43200038" r="3.43200038"></circle>
                                        <circle id="Close" fill="#FF6058" cx="3.43200038" cy="3.43200038" r="3.43200038"></circle>
                                        <circle id="Minimize" fill="#FFBD2E" cx="15.9120017" cy="3.43200038" r="3.43200038"></circle>
                                    </g>
                                </g>
                            </g>
                            <path d="M1,40.5 L427,40.5" id="Line-5" stroke="#F8F8F8" mask="url(#mask-2)"></path>
                        </g>
                        <g id="1" transform="translate(66.000000, 91.000000)">
                            <path d="M-3.63797881e-12,4.54747351e-13 L-3.63797881e-12,125 C-3.63703191e-12,132.731986 6.2680135,139 14,139 L160,139" id="Path-2" stroke="#D0D1D2" stroke-width="0.5" stroke-linecap="round"></path>
                            <g id="Graphics" transform="translate(0.000000, 45.000000)">
                                <polyline id="Path-5" stroke="#3E82FF" points="0 81 21.5915278 81 32.5965587 63.4549794 46.4679948 81 72.2987865 42.22368 94.1573418 53.084755 114.243743 0 136.652221 78.8203525 159 60.2481491"></polyline>
                                <polyline id="Path-3" stroke="#DCDCDC" stroke-width="2" opacity="0.309035528" points="0.397578244 65.2077457 19.1640709 18.5433305 33.0315588 44.5841174 51.7229527 4 81 58.3108426 109.269119 39.0622747 118.420468 54.0352327 129.917394 41.7430223 140.954117 47.3446123 154.259876 15.4927869 164.334946 20.4919205"></polyline>
                                <circle id="Oval" stroke="#3E82FF" stroke-width="3" fill="#FFFFFF" cx="72.5" cy="42.5" r="2.5"></circle>
                                <g id="Data" transform="translate(40.000000, 14.000000)">
                                    <path d="M7.6916556,-4.55058103e-13 L32.3083444,-4.54436599e-13 C34.9829006,-4.54927907e-13 35.9527593,0.278476833 36.9305371,0.801398111 C37.9083149,1.32431939 38.6756806,2.09168511 39.1986019,3.06946289 C39.7215232,4.04724067 40,5.01709938 40,7.6916556 L40,12.3083444 C40,14.9829006 39.7215232,15.9527593 39.1986019,16.9305371 C38.6756806,17.9083149 37.9083149,18.6756806 36.9305371,19.1986019 C35.9527593,19.7215232 34.9829006,20 32.3083444,20 L7.6916556,20 C5.01709938,20 4.04724067,19.7215232 3.06946289,19.1986019 C2.09168511,18.6756806 1.32431939,17.9083149 0.801398111,16.9305371 C0.278476833,15.9527593 1.2037061e-16,14.9829006 -2.07168062e-16,12.3083444 L2.07168062e-16,7.6916556 C-1.2037061e-16,5.01709938 0.278476833,4.04724067 0.801398111,3.06946289 C1.32431939,2.09168511 2.09168511,1.32431939 3.06946289,0.801398111 C4.04724067,0.278476833 5.01709938,-4.54566795e-13 7.6916556,-4.55058103e-13 Z" id="Mask-Copy-5" fill="#121820"></path>
                                    <path d="M12.6386719,9.04296875 L12.6386719,9.64453125 C12.6386719,10.6171875 13.0449219,11.1523437 13.7558594,11.1523437 C14.3847656,11.1523437 14.7753906,10.7304687 14.7832031,10.1445312 L15.8691406,10.1445312 L15.8691406,10.2617187 C15.8691406,11.3515625 14.9785156,12.1015625 13.7480469,12.1015625 C12.3066406,12.1015625 11.4902344,11.1601562 11.4902344,9.640625 L11.4902344,9.04296875 C11.4902344,7.51171875 12.3066406,6.56640625 13.7480469,6.56640625 C14.9824219,6.56640625 15.8691406,7.33203125 15.8691406,8.45703125 L15.8691406,8.5703125 L14.7832031,8.5703125 C14.7753906,7.95703125 14.3847656,7.515625 13.7558594,7.515625 C13.0449219,7.515625 12.6386719,8.05859375 12.6386719,9.04296875 Z M18.9433594,11.4960937 C18.7871094,11.796875 18.4433594,12.0625 17.8300781,12.0625 C17.0214844,12.0625 16.4628906,11.5859375 16.4628906,10.8007812 C16.4628906,10.0507812 16.9824219,9.57421875 17.9433594,9.57421875 L18.9433594,9.57421875 L18.9433594,9.20703125 C18.9433594,8.81640625 18.7050781,8.59765625 18.2988281,8.59765625 C17.8964844,8.59765625 17.6621094,8.81640625 17.6425781,9.1328125 L16.6152344,9.1328125 C16.6425781,8.44140625 17.0800781,7.78125 18.3183594,7.78125 C19.2832031,7.78125 20.0253906,8.21875 20.0253906,9.20703125 L20.0253906,12 L18.9902344,12 L18.9902344,11.4960937 L18.9433594,11.4960937 Z M18.1933594,11.2734375 C18.6074219,11.2734375 18.9433594,11.0195312 18.9433594,10.640625 L18.9433594,10.2109375 L18.2050781,10.2109375 C17.7714844,10.2109375 17.5527344,10.4179687 17.5527344,10.7226562 C17.5527344,11.09375 17.8652344,11.2734375 18.1933594,11.2734375 Z M21.0058594,12 L21.0058594,6.38671875 L22.1074219,6.38671875 L22.1074219,12 L21.0058594,12 Z M23.1542969,12 L23.1542969,6.38671875 L24.2558594,6.38671875 L24.2558594,12 L23.1542969,12 Z M25.1386719,9.0859375 C25.1386719,8.15625 25.9394531,7.76953125 26.8300781,7.76953125 C27.8183594,7.76953125 28.4394531,8.25390625 28.4394531,9.04296875 L27.4707031,9.04296875 C27.4433594,8.79296875 27.2792969,8.51953125 26.8066406,8.51953125 C26.4238281,8.51953125 26.1816406,8.703125 26.1816406,8.984375 C26.1816406,9.38671875 26.7910156,9.44921875 27.2636719,9.53515625 C28.0292969,9.671875 28.5683594,9.9453125 28.5683594,10.703125 C28.5683594,11.5625 27.9003906,12.0742187 26.7753906,12.0742187 C25.6777344,12.0742187 25.0527344,11.5625 25.0527344,10.8242187 L26.1191406,10.8242187 C26.1582031,11.1171875 26.4160156,11.3203125 26.8339844,11.3203125 C27.2910156,11.3203125 27.5058594,11.0976562 27.5058594,10.84375 C27.5058594,10.4570312 26.9980469,10.40625 26.4785156,10.3007812 C25.7363281,10.1445312 25.1386719,9.859375 25.1386719,9.0859375 Z" id="Calls" fill="#FFFFFF" fill-rule="nonzero"></path>
                                </g>
                            </g>
                            <path d="M70.7983398,15.6115018 L70.7983398,16.3634549 C70.7983398,17.5792752 71.3061523,18.2482205 72.1948242,18.2482205 C72.980957,18.2482205 73.4692383,17.7208768 73.4790039,16.9884549 L74.8364258,16.9884549 L74.8364258,17.1349393 C74.8364258,18.497244 73.7231445,19.434744 72.1850586,19.434744 C70.3833008,19.434744 69.362793,18.2579861 69.362793,16.3585721 L69.362793,15.6115018 C69.362793,13.6974393 70.3833008,12.5157986 72.1850586,12.5157986 C73.7280273,12.5157986 74.8364258,13.4728299 74.8364258,14.8790799 L74.8364258,15.0206815 L73.4790039,15.0206815 C73.4692383,14.2540799 72.980957,13.7023221 72.1948242,13.7023221 C71.3061523,13.7023221 70.7983398,14.381033 70.7983398,15.6115018 Z M78.6791992,18.677908 C78.4838867,19.0538846 78.0541992,19.3859158 77.2875977,19.3859158 C76.2768555,19.3859158 75.5786133,18.7902127 75.5786133,17.8087674 C75.5786133,16.8712674 76.2280273,16.2755643 77.4291992,16.2755643 L78.6791992,16.2755643 L78.6791992,15.8165799 C78.6791992,15.3282986 78.3813477,15.0548611 77.8735352,15.0548611 C77.3706055,15.0548611 77.0776367,15.3282986 77.0532227,15.7238065 L75.769043,15.7238065 C75.8032227,14.8595486 76.3500977,14.0343533 77.8979492,14.0343533 C79.1040039,14.0343533 80.0317383,14.5812283 80.0317383,15.8165799 L80.0317383,19.3077908 L78.737793,19.3077908 L78.737793,18.677908 L78.6791992,18.677908 Z M77.7416992,18.3995877 C78.2592773,18.3995877 78.6791992,18.0822049 78.6791992,17.6085721 L78.6791992,17.0714627 L77.7563477,17.0714627 C77.2143555,17.0714627 76.940918,17.3302518 76.940918,17.7111111 C76.940918,18.1749783 77.331543,18.3995877 77.7416992,18.3995877 Z M81.2573242,19.3077908 L81.2573242,12.2911893 L82.6342773,12.2911893 L82.6342773,19.3077908 L81.2573242,19.3077908 Z M83.9428711,19.3077908 L83.9428711,12.2911893 L85.3198242,12.2911893 L85.3198242,19.3077908 L83.9428711,19.3077908 Z M86.4233398,15.6652127 C86.4233398,14.5031033 87.4243164,14.0197049 88.5375977,14.0197049 C89.7729492,14.0197049 90.5493164,14.6251736 90.5493164,15.6115018 L89.3383789,15.6115018 C89.3041992,15.2990018 89.0991211,14.9572049 88.5083008,14.9572049 C88.0297852,14.9572049 87.7270508,15.1866971 87.7270508,15.5382596 C87.7270508,16.0411893 88.4887695,16.1193143 89.0795898,16.2267361 C90.0366211,16.3976346 90.7104492,16.7394315 90.7104492,17.6866971 C90.7104492,18.7609158 89.8754883,19.4005643 88.4692383,19.4005643 C87.097168,19.4005643 86.315918,18.7609158 86.315918,17.8380643 L87.6489258,17.8380643 C87.6977539,18.2042752 88.0200195,18.4581815 88.5424805,18.4581815 C89.1137695,18.4581815 89.3823242,18.1798611 89.3823242,17.8624783 C89.3823242,17.3790799 88.7475586,17.3156033 88.0981445,17.1837674 C87.1704102,16.9884549 86.4233398,16.6320096 86.4233398,15.6652127 Z" id="Calls" fill="#121820" fill-rule="nonzero"></path>
                        </g>
                        <g id="2" transform="translate(242.000000, 89.000000)">
                            <rect id="Border" stroke-opacity="0.2" stroke="#121820" stroke-width="0.5" fill-rule="nonzero" x="0.25" y="0.25" width="159.5" height="140.5" rx="14"></rect>
                            <g id="Circle" transform="translate(35.000000, 36.500000)" stroke-width="20">
                                <path d="M45.1479741,76.8539048 C62.6586761,76.8539048 76.8539048,62.6586761 76.8539048,45.1479741 C76.8539048,27.6372721 62.6586761,13.4420434 45.1479741,13.4420434 C27.6372721,13.4420434 13.4420434,27.6372721 13.4420434,45.1479741 C13.4420434,62.6586761 27.6372721,76.8539048 45.1479741,76.8539048 Z" id="Color" stroke="#4CD964" stroke-dasharray="141.4400024414062" transform="translate(45.147974, 45.147974) rotate(-46.000000) translate(-45.147974, -45.147974) "></path>
                                <path d="M45.1479741,76.8539048 C62.6586761,76.8539048 76.8539048,62.6586761 76.8539048,45.1479741 C76.8539048,27.6372721 62.6586761,13.4420434 45.1479741,13.4420434 C27.6372721,13.4420434 13.4420434,27.6372721 13.4420434,45.1479741 C13.4420434,62.6586761 27.6372721,76.8539048 45.1479741,76.8539048 Z" id="Color" stroke="#75F5F4" stroke-dasharray="209.4399777507788" transform="translate(45.147974, 45.147974) rotate(-216.000000) translate(-45.147974, -45.147974) "></path>
                                <path d="M45.1479741,76.8539048 C62.6586761,76.8539048 76.8539048,62.6586761 76.8539048,45.1479741 C76.8539048,27.6372721 62.6586761,13.4420434 45.1479741,13.4420434 C27.6372721,13.4420434 13.4420434,27.6372721 13.4420434,45.1479741 C13.4420434,62.6586761 27.6372721,76.8539048 45.1479741,76.8539048 Z" id="Color" stroke="#F5A623" stroke-dasharray="170" transform="translate(45.147974, 45.147974) rotate(-246.000000) translate(-45.147974, -45.147974) "></path>
                                <path d="M45.1479741,76.8539048 C62.6586761,76.8539048 76.8539048,62.6586761 76.8539048,45.1479741 C76.8539048,27.6372721 62.6586761,13.4420434 45.1479741,13.4420434 C27.6372721,13.4420434 13.4420434,27.6372721 13.4420434,45.1479741 C13.4420434,62.6586761 27.6372721,76.8539048 45.1479741,76.8539048 Z" id="Color" stroke="#4CD964" stroke-dasharray="75.44000244140625" transform="translate(45.147974, 45.147974) rotate(-309.000000) translate(-45.147974, -45.147974) "></path>
                            </g>
                            <g id="Data" transform="translate(100.980102, 39.787201)">
                                <path d="M7.6916556,-3.10752092e-16 L40.3083444,3.10752092e-16 C42.9829006,-1.80555915e-16 43.9527593,0.278476833 44.9305371,0.801398111 C45.9083149,1.32431939 46.6756806,2.09168511 47.1986019,3.06946289 C47.7215232,4.04724067 48,5.01709938 48,7.6916556 L48,24.3083444 C48,26.9829006 47.7215232,27.9527593 47.1986019,28.9305371 C46.6756806,29.9083149 45.9083149,30.6756806 44.9305371,31.1986019 C43.9527593,31.7215232 42.9829006,32 40.3083444,32 L7.6916556,32 C5.01709938,32 4.04724067,31.7215232 3.06946289,31.1986019 C2.09168511,30.6756806 1.32431939,29.9083149 0.801398111,28.9305371 C0.278476833,27.9527593 1.2037061e-16,26.9829006 -2.07168062e-16,24.3083444 L2.07168062e-16,7.6916556 C-1.2037061e-16,5.01709938 0.278476833,4.04724067 0.801398111,3.06946289 C1.32431939,2.09168511 2.09168511,1.32431939 3.06946289,0.801398111 C4.04724067,0.278476833 5.01709938,1.80555915e-16 7.6916556,-3.10752092e-16 Z" id="Mask-Copy-5" fill="#121820"></path>
                                <path d="M18.0371094,10.6835938 L18.0371094,9.82421875 L18.5878906,9.82421875 C19.0800781,9.82421875 19.4042969,9.52734375 19.4042969,9.109375 C19.4003906,8.71875 19.0800781,8.4296875 18.6035156,8.4296875 C18.0800781,8.4296875 17.8183594,8.80078125 17.8027344,9.140625 L16.7480469,9.140625 C16.7753906,8.2578125 17.4394531,7.56640625 18.6425781,7.56640625 C19.7128906,7.56640625 20.4980469,8.14453125 20.5097656,8.95703125 C20.5214844,9.71484375 19.9511719,10.1210938 19.5488281,10.1757812 L19.5488281,10.21875 C20.0449219,10.2578125 20.6699219,10.6523438 20.6777344,11.5039062 C20.6894531,12.4765625 19.7363281,13.1054688 18.5996094,13.1054688 C17.2910156,13.1054688 16.6738281,12.3554688 16.6542969,11.4960938 L17.6933594,11.4960938 C17.7324219,11.9101562 18.0722656,12.2265625 18.6269531,12.2265625 C19.2089844,12.2265625 19.5566406,11.890625 19.5527344,11.4453125 C19.5488281,11.0078125 19.2167969,10.6835938 18.6152344,10.6835938 L18.0371094,10.6835938 Z M25.1699219,9.0078125 L24.1152344,9.0078125 C24.0800781,8.7421875 23.8066406,8.44921875 23.3613281,8.44921875 C22.6777344,8.44921875 22.3105469,9.19921875 22.3183594,10.2617188 L22.3652344,10.2617188 C22.5097656,9.9140625 22.8964844,9.49609375 23.6113281,9.49609375 C24.4824219,9.49609375 25.2949219,10.109375 25.2949219,11.2304688 C25.2949219,12.4257812 24.4238281,13.1015625 23.3417969,13.1015625 C22.7011719,13.1015625 22.1777344,12.8671875 21.8183594,12.4179688 C21.4589844,11.96875 21.2597656,11.3046875 21.2597656,10.4414062 C21.2597656,8.58203125 22.0878906,7.57421875 23.3886719,7.57421875 C24.5332031,7.57421875 25.1308594,8.3515625 25.1699219,9.0078125 Z M22.4511719,11.2773438 C22.4511719,11.8710938 22.8535156,12.21875 23.3417969,12.21875 C23.8183594,12.21875 24.2207031,11.8867188 24.2207031,11.2773438 C24.2207031,10.671875 23.8105469,10.3320312 23.3378906,10.3320312 C22.8417969,10.3320312 22.4511719,10.6914062 22.4511719,11.2773438 Z M26.5566406,8.93359375 L26.5566406,8.9765625 C26.5566406,9.453125 26.7402344,9.71875 27.0214844,9.71875 C27.2988281,9.71875 27.4863281,9.45703125 27.4863281,8.984375 L27.4863281,8.94140625 C27.4863281,8.46484375 27.3066406,8.20703125 27.0253906,8.20703125 C26.7324219,8.20703125 26.5566406,8.4765625 26.5566406,8.93359375 Z M25.8652344,9.015625 L25.8652344,8.89453125 C25.8652344,8.1640625 26.3066406,7.60546875 27.0292969,7.60546875 C27.7480469,7.60546875 28.1816406,8.16015625 28.1816406,8.90234375 L28.1816406,9.0234375 C28.1816406,9.71875 27.7675781,10.3242188 27.0136719,10.3242188 C26.2910156,10.3242188 25.8652344,9.7578125 25.8652344,9.015625 Z M29.6894531,11.671875 L29.6894531,11.7148438 C29.6894531,12.1875 29.8730469,12.4570312 30.1542969,12.4570312 C30.4277344,12.4570312 30.6152344,12.1953125 30.6152344,11.71875 L30.6152344,11.6757812 C30.6152344,11.203125 30.4355469,10.9453125 30.1542969,10.9453125 C29.8652344,10.9453125 29.6894531,11.2109375 29.6894531,11.671875 Z M28.9980469,11.7539062 L28.9980469,11.6328125 C28.9980469,10.9023438 29.4394531,10.3398438 30.1582031,10.3398438 C30.8808594,10.3398438 31.3105469,10.8945312 31.3105469,11.6367188 L31.3105469,11.7578125 C31.3105469,12.4570312 30.8964844,13.0625 30.1425781,13.0625 C29.4199219,13.0625 28.9980469,12.4921875 28.9980469,11.7539062 Z M26.9511719,13.0039062 L26.1347656,13.0039062 L28.3183594,10.203125 L30.2441406,7.66796875 L31.0605469,7.66796875 L28.9160156,10.4140625 L26.9511719,13.0039062 Z" id="36%" fill="#FFFFFF" fill-rule="nonzero"></path>
                                <path d="M12.7128906,24 L12.0566406,24 L10.9042969,20.1757812 C10.8496091,20.0065096 10.7884118,19.79297 10.7207031,19.5351562 C10.6529945,19.2773425 10.6178386,19.1223961 10.6152344,19.0703125 C10.5579424,19.4140642 10.4667975,19.7903625 10.3417969,20.1992188 L9.22460938,24 L8.56835938,24 L7.04882812,18.2890625 L7.75195312,18.2890625 L8.65429688,21.8164062 C8.7792975,22.3112004 8.87044242,22.7591126 8.92773438,23.1601562 C8.99804723,22.6835914 9.10221285,22.2174502 9.24023438,21.7617188 L10.2636719,18.2890625 L10.9667969,18.2890625 L12.0410156,21.7929688 C12.1660163,22.1966166 12.2714839,22.6523412 12.3574219,23.1601562 C12.4069013,22.7903627 12.5006504,22.3398464 12.6386719,21.8085938 L13.5371094,18.2890625 L14.2402344,18.2890625 L12.7128906,24 Z M15.6855469,24 L15.0371094,24 L15.0371094,19.71875 L15.6855469,19.71875 L15.6855469,24 Z M14.9824219,18.5585938 C14.9824219,18.4101555 15.0188798,18.3014326 15.0917969,18.2324219 C15.1647139,18.1634111 15.2558588,18.1289062 15.3652344,18.1289062 C15.4694016,18.1289062 15.5592444,18.1640621 15.6347656,18.234375 C15.7102868,18.3046879 15.7480469,18.4127597 15.7480469,18.5585938 C15.7480469,18.7044278 15.7102868,18.8131507 15.6347656,18.8847656 C15.5592444,18.9563806 15.4694016,18.9921875 15.3652344,18.9921875 C15.2558588,18.9921875 15.1647139,18.9563806 15.0917969,18.8847656 C15.0188798,18.8131507 14.9824219,18.7044278 14.9824219,18.5585938 Z M19.9902344,24 L19.9902344,21.2304688 C19.9902344,20.8815087 19.9108081,20.6210946 19.7519531,20.4492188 C19.5930982,20.2773429 19.3444027,20.1914062 19.0058594,20.1914062 C18.5579405,20.1914062 18.2298187,20.3124988 18.0214844,20.5546875 C17.81315,20.7968762 17.7089844,21.1966118 17.7089844,21.7539062 L17.7089844,24 L17.0605469,24 L17.0605469,19.71875 L17.5878906,19.71875 L17.6933594,20.3046875 L17.7246094,20.3046875 C17.8574225,20.0937489 18.0436186,19.9303391 18.2832031,19.8144531 C18.5227877,19.6985671 18.7897121,19.640625 19.0839844,19.640625 C19.599612,19.640625 19.9876289,19.7649727 20.2480469,20.0136719 C20.5084648,20.262371 20.6386719,20.6601535 20.6386719,21.2070312 L20.6386719,24 L19.9902344,24 Z M24.8847656,23.4257812 L24.8496094,23.4257812 C24.5501287,23.8606793 24.1022165,24.078125 23.5058594,24.078125 C22.9459607,24.078125 22.5104182,23.8867207 22.1992188,23.5039062 C21.8880193,23.1210918 21.7324219,22.5768264 21.7324219,21.8710938 C21.7324219,21.1653611 21.8886703,20.6171895 22.2011719,20.2265625 C22.5136734,19.8359355 22.9485649,19.640625 23.5058594,19.640625 C24.0865914,19.640625 24.5318995,19.8515604 24.8417969,20.2734375 L24.8925781,20.2734375 L24.8652344,19.9648438 L24.8496094,19.6640625 L24.8496094,17.921875 L25.4980469,17.921875 L25.4980469,24 L24.9707031,24 L24.8847656,23.4257812 Z M23.5878906,23.5351562 C24.0306012,23.5351562 24.3515615,23.4147147 24.5507812,23.1738281 C24.750001,22.9329415 24.8496094,22.5442735 24.8496094,22.0078125 L24.8496094,21.8710938 C24.8496094,21.2643199 24.7486989,20.8313815 24.546875,20.5722656 C24.3450511,20.3131497 24.0227887,20.1835938 23.5800781,20.1835938 C23.1998679,20.1835938 22.9088552,20.3313787 22.7070312,20.6269531 C22.5052073,20.9225275 22.4042969,21.3398411 22.4042969,21.8789062 C22.4042969,22.425784 22.5045563,22.8385403 22.7050781,23.1171875 C22.9056,23.3958347 23.1998679,23.5351562 23.5878906,23.5351562 Z M30.5683594,21.8554688 C30.5683594,22.5533889 30.3925799,23.0983053 30.0410156,23.4902344 C29.6894514,23.8821634 29.2037791,24.078125 28.5839844,24.078125 C28.20117,24.078125 27.8613296,23.9882821 27.5644531,23.8085938 C27.2675766,23.6289054 27.0384123,23.3710954 26.8769531,23.0351562 C26.715494,22.6992171 26.6347656,22.3059918 26.6347656,21.8554688 C26.6347656,21.1575486 26.809243,20.6139342 27.1582031,20.2246094 C27.5071632,19.8352845 27.9915334,19.640625 28.6113281,19.640625 C29.2102895,19.640625 29.6861962,19.8398418 30.0390625,20.2382812 C30.3919288,20.6367207 30.5683594,21.1757779 30.5683594,21.8554688 Z M27.3066406,21.8554688 C27.3066406,22.4023465 27.4160145,22.819009 27.6347656,23.1054688 C27.8535167,23.3919285 28.1751281,23.5351562 28.5996094,23.5351562 C29.0240907,23.5351562 29.3463531,23.3925796 29.5664062,23.1074219 C29.7864594,22.8222642 29.8964844,22.4049507 29.8964844,21.8554688 C29.8964844,21.3111952 29.7864594,20.8977879 29.5664062,20.6152344 C29.3463531,20.3326809 29.0214865,20.1914062 28.5917969,20.1914062 C28.1673156,20.1914062 27.8470063,20.3307278 27.6308594,20.609375 C27.4147125,20.8880222 27.3066406,21.3033827 27.3066406,21.8554688 Z M35.2011719,24 L34.4160156,21.4882812 C34.3665362,21.3346346 34.2740892,20.9856798 34.1386719,20.4414062 L34.1074219,20.4414062 C34.0032547,20.8971377 33.9121098,21.2486967 33.8339844,21.4960938 L33.0253906,24 L32.2753906,24 L31.1074219,19.71875 L31.7871094,19.71875 C32.0631524,20.7942762 32.2734368,21.6132784 32.4179688,22.1757812 C32.5625007,22.7382841 32.6451822,23.1171865 32.6660156,23.3125 L32.6972656,23.3125 C32.7259116,23.1640618 32.7721351,22.9720064 32.8359375,22.7363281 C32.8997399,22.5006499 32.9550779,22.3138028 33.0019531,22.1757812 L33.7871094,19.71875 L34.4902344,19.71875 L35.2558594,22.1757812 C35.4016934,22.6237002 35.5006508,22.9999985 35.5527344,23.3046875 L35.5839844,23.3046875 C35.5944011,23.210937 35.6223956,23.0664072 35.6679688,22.8710938 C35.7135419,22.6757803 35.9850236,21.6250095 36.4824219,19.71875 L37.1542969,19.71875 L35.9707031,24 L35.2011719,24 Z M40.6894531,22.8320312 C40.6894531,23.2304707 40.5410171,23.5377593 40.2441406,23.7539062 C39.9472641,23.9700532 39.5306016,24.078125 38.9941406,24.078125 C38.4264295,24.078125 37.9837255,23.9882821 37.6660156,23.8085938 L37.6660156,23.2070312 C37.8717458,23.3111984 38.0924467,23.3932289 38.328125,23.453125 C38.5638033,23.5130211 38.7910145,23.5429688 39.0097656,23.5429688 C39.348309,23.5429688 39.608723,23.4889328 39.7910156,23.3808594 C39.9733082,23.2727859 40.0644531,23.108074 40.0644531,22.8867188 C40.0644531,22.7200513 39.9921882,22.5774746 39.8476562,22.4589844 C39.7031243,22.3404942 39.4212261,22.2005216 39.0019531,22.0390625 C38.6035136,21.8906243 38.3203133,21.7610683 38.1523438,21.6503906 C37.9843742,21.539713 37.8593754,21.4140632 37.7773438,21.2734375 C37.6953121,21.1328118 37.6542969,20.9648447 37.6542969,20.7695312 C37.6542969,20.4205712 37.7962225,20.1451833 38.0800781,19.9433594 C38.3639337,19.7415354 38.7532527,19.640625 39.2480469,19.640625 C39.7089867,19.640625 40.159503,19.7343741 40.5996094,19.921875 L40.3691406,20.4492188 C39.939451,20.2721345 39.550132,20.1835938 39.2011719,20.1835938 C38.8938787,20.1835938 38.6621102,20.2317704 38.5058594,20.328125 C38.3496086,20.4244796 38.2714844,20.5572908 38.2714844,20.7265625 C38.2714844,20.8411464 38.300781,20.9388017 38.359375,21.0195312 C38.417969,21.1002608 38.5123691,21.177083 38.6425781,21.25 C38.7727871,21.322917 39.0227846,21.4283847 39.3925781,21.5664062 C39.9003932,21.751303 40.2434887,21.9374991 40.421875,22.125 C40.6002613,22.3125009 40.6894531,22.5481757 40.6894531,22.8320312 Z" id="Windows" fill="#FFFFFF" fill-rule="nonzero"></path>
                            </g>
                            <g id="Data" transform="translate(35.000000, 106.500000)">
                                <path d="M7.6916556,-3.10752092e-16 L22.3083444,3.10752092e-16 C24.9829006,-1.80555915e-16 25.9527593,0.278476833 26.9305371,0.801398111 C27.9083149,1.32431939 28.6756806,2.09168511 29.1986019,3.06946289 C29.7215232,4.04724067 30,5.01709938 30,7.6916556 L30,12.3083444 C30,14.9829006 29.7215232,15.9527593 29.1986019,16.9305371 C28.6756806,17.9083149 27.9083149,18.6756806 26.9305371,19.1986019 C25.9527593,19.7215232 24.9829006,20 22.3083444,20 L7.6916556,20 C5.01709938,20 4.04724067,19.7215232 3.06946289,19.1986019 C2.09168511,18.6756806 1.32431939,17.9083149 0.801398111,16.9305371 C0.278476833,15.9527593 1.2037061e-16,14.9829006 -2.07168062e-16,12.3083444 L2.07168062e-16,7.6916556 C-1.2037061e-16,5.01709938 0.278476833,4.04724067 0.801398111,3.06946289 C1.32431939,2.09168511 2.09168511,1.32431939 3.06946289,0.801398111 C4.04724067,0.278476833 5.01709938,1.80555915e-16 7.6916556,-3.10752092e-16 Z" id="Mask-Copy-4" fill="#121820"></path>
                                <rect id="Title-Copy-3" fill="#FFFFFF" x="7.5" y="9" width="15" height="2" rx="1"></rect>
                            </g>
                            <path d="M38.9599609,17.5675565 L38.9599609,18.4171658 C38.9599609,19.662283 39.5654297,20.2677518 40.4150391,20.2677518 C41.2695312,20.2677518 41.8701172,19.662283 41.8701172,18.4171658 L41.8701172,17.5675565 C41.8701172,16.3273221 41.2695312,15.6827908 40.4150391,15.6827908 C39.5654297,15.6827908 38.9599609,16.3273221 38.9599609,17.5675565 Z M37.5195312,18.412283 L37.5195312,17.5822049 C37.5195312,15.6876736 38.6083984,14.5157986 40.4199219,14.5157986 C42.2363281,14.5157986 43.3105469,15.6974393 43.3105469,17.5822049 L43.3105469,18.412283 C43.3105469,20.2921658 42.2265625,21.434744 40.4101562,21.434744 C38.5986328,21.434744 37.5195312,20.2921658 37.5195312,18.412283 Z M47.2460938,21.3712674 C46.5527344,21.3712674 46.0400391,21.0392361 45.7910156,20.5460721 L45.7324219,20.5460721 L45.7324219,23.0265408 L44.3554688,23.0265408 L44.3554688,16.1124783 L45.7128906,16.1124783 L45.7128906,16.8937283 L45.7714844,16.8937283 C46.0253906,16.3859158 46.5527344,16.0490018 47.2607422,16.0490018 C48.4130859,16.0490018 49.2089844,16.9132596 49.2089844,18.490408 L49.2089844,18.9249783 C49.2089844,20.4923611 48.4228516,21.3712674 47.2460938,21.3712674 Z M46.7919922,20.287283 C47.3876953,20.287283 47.7978516,19.8038846 47.7978516,18.8712674 L47.7978516,18.5343533 C47.7978516,17.631033 47.4072266,17.1329861 46.7773438,17.1329861 C46.1425781,17.1329861 45.7226562,17.6554471 45.7226562,18.5294705 L45.7226562,18.8712674 C45.7226562,19.7599393 46.1425781,20.287283 46.7919922,20.287283 Z M52.4169922,21.4005643 C50.9863281,21.4005643 50.0292969,20.521658 50.0292969,18.9103299 L50.0292969,18.4562283 C50.0292969,16.903494 50.9960938,16.0197049 52.3632812,16.0197049 C53.7890625,16.0197049 54.6826172,16.981619 54.6826172,18.4855252 L54.6826172,18.9982205 L51.3769531,18.9982205 L51.3769531,19.1544705 C51.3769531,19.896658 51.8115234,20.365408 52.4267578,20.365408 C52.9248047,20.365408 53.28125,20.1212674 53.3740234,19.7111111 L54.6386719,19.7111111 C54.53125,20.5363065 53.8574219,21.4005643 52.4169922,21.4005643 Z M51.3769531,18.1583768 L53.359375,18.1583768 L53.359375,18.1486111 C53.359375,17.5089627 52.96875,17.0255643 52.3730469,17.0255643 C51.7724609,17.0255643 51.3769531,17.5138455 51.3769531,18.1486111 L51.3769531,18.1583768 Z M55.6933594,21.3077908 L55.6933594,16.1124783 L57.0703125,16.1124783 L57.0703125,16.8449002 L57.1289062,16.8449002 C57.2412109,16.5079861 57.6269531,16.0392361 58.3300781,16.0392361 C58.5205078,16.0392361 58.6572266,16.0538846 58.7548828,16.0782986 L58.7548828,17.2599393 C58.6523438,17.2257596 58.4375,17.2062283 58.2275391,17.2062283 C57.3974609,17.2062283 57.1044922,17.6993924 57.1044922,18.3976346 L57.1044922,21.3077908 L55.6933594,21.3077908 Z M62.3681641,20.677908 C62.1728516,21.0538846 61.7431641,21.3859158 60.9765625,21.3859158 C59.9658203,21.3859158 59.2675781,20.7902127 59.2675781,19.8087674 C59.2675781,18.8712674 59.9169922,18.2755643 61.1181641,18.2755643 L62.3681641,18.2755643 L62.3681641,17.8165799 C62.3681641,17.3282986 62.0703125,17.0548611 61.5625,17.0548611 C61.0595703,17.0548611 60.7666016,17.3282986 60.7421875,17.7238065 L59.4580078,17.7238065 C59.4921875,16.8595486 60.0390625,16.0343533 61.5869141,16.0343533 C62.7929688,16.0343533 63.7207031,16.5812283 63.7207031,17.8165799 L63.7207031,21.3077908 L62.4267578,21.3077908 L62.4267578,20.677908 L62.3681641,20.677908 Z M61.4306641,20.3995877 C61.9482422,20.3995877 62.3681641,20.0822049 62.3681641,19.6085721 L62.3681641,19.0714627 L61.4453125,19.0714627 C60.9033203,19.0714627 60.6298828,19.3302518 60.6298828,19.7111111 C60.6298828,20.1749783 61.0205078,20.3995877 61.4306641,20.3995877 Z M65.3320312,16.1124783 L65.3320312,14.8868924 L66.6650391,14.8868924 L66.6650391,16.1124783 L67.6660156,16.1124783 L67.6660156,17.1720486 L66.6650391,17.1720486 L66.6650391,19.6329861 C66.6650391,20.131033 66.8847656,20.287283 67.4023438,20.287283 C67.5146484,20.287283 67.6269531,20.287283 67.6855469,20.2775174 L67.6855469,21.2882596 C67.5830078,21.3077908 67.34375,21.3322049 67.0703125,21.3322049 C65.7666016,21.3322049 65.3027344,20.9025174 65.3027344,19.8331815 L65.3027344,17.1720486 L64.5605469,17.1720486 L64.5605469,16.1124783 L65.3320312,16.1124783 Z M68.7451172,21.3077908 L68.7451172,16.1124783 L70.1171875,16.1124783 L70.1171875,21.3077908 L68.7451172,21.3077908 Z M68.6669922,14.818533 C68.6669922,14.3986111 69.0087891,14.115408 69.4287109,14.115408 C69.8486328,14.115408 70.1953125,14.3986111 70.1953125,14.818533 C70.1953125,15.2433377 69.8486328,15.5265408 69.4287109,15.5265408 C69.0087891,15.5265408 68.6669922,15.2433377 68.6669922,14.818533 Z M71.3964844,21.3077908 L71.3964844,16.1124783 L72.734375,16.1124783 L72.734375,16.8888455 L72.7929688,16.8888455 C72.9541016,16.5275174 73.4277344,16.0343533 74.3017578,16.0343533 C75.3515625,16.0343533 76.0791016,16.693533 76.0791016,17.9630643 L76.0791016,21.3077908 L74.7070312,21.3077908 L74.7070312,18.2706815 C74.7070312,17.4894315 74.2578125,17.1964627 73.7451172,17.1964627 C73.125,17.1964627 72.7685547,17.6407986 72.7685547,18.2902127 L72.7685547,21.3077908 L71.3964844,21.3077908 Z M79.4873047,22.240408 C80.15625,22.240408 80.546875,21.8546658 80.546875,21.1759549 L80.546875,20.4142361 L80.4882812,20.4142361 C80.2978516,20.8732205 79.7558594,21.2345486 79.0283203,21.2345486 C77.8564453,21.2345486 77.0654297,20.3898221 77.0654297,18.7882596 L77.0654297,18.4855252 C77.0654297,16.8986111 77.8515625,16.0490018 79.0283203,16.0490018 C79.7460938,16.0490018 80.2929688,16.4054471 80.5029297,16.8888455 L80.5615234,16.8888455 L80.5615234,16.1124783 L81.9189453,16.1124783 L81.9189453,21.2736111 C81.9189453,22.7140408 80.6445312,23.231619 79.4677734,23.231619 C77.9394531,23.231619 77.2412109,22.5138455 77.1777344,21.6447049 L78.5009766,21.6447049 C78.5839844,21.9962674 78.9550781,22.240408 79.4873047,22.240408 Z M79.5214844,17.1329861 C78.8769531,17.1329861 78.4765625,17.6212674 78.4765625,18.5245877 L78.4765625,18.8224393 C78.4765625,19.7208768 78.8769531,20.2189236 79.5214844,20.2189236 C80.1513672,20.2189236 80.546875,19.7208768 80.546875,18.8224393 L80.546875,18.5245877 C80.546875,17.6407986 80.1367188,17.1329861 79.5214844,17.1329861 Z M84.9511719,17.6652127 C84.9511719,16.5031033 85.9521484,16.0197049 87.0654297,16.0197049 C88.3007812,16.0197049 89.0771484,16.6251736 89.0771484,17.6115018 L87.8662109,17.6115018 C87.8320312,17.2990018 87.6269531,16.9572049 87.0361328,16.9572049 C86.5576172,16.9572049 86.2548828,17.1866971 86.2548828,17.5382596 C86.2548828,18.0411893 87.0166016,18.1193143 87.6074219,18.2267361 C88.5644531,18.3976346 89.2382812,18.7394315 89.2382812,19.6866971 C89.2382812,20.7609158 88.4033203,21.4005643 86.9970703,21.4005643 C85.625,21.4005643 84.84375,20.7609158 84.84375,19.8380643 L86.1767578,19.8380643 C86.2255859,20.2042752 86.5478516,20.4581815 87.0703125,20.4581815 C87.6416016,20.4581815 87.9101562,20.1798611 87.9101562,19.8624783 C87.9101562,19.3790799 87.2753906,19.3156033 86.6259766,19.1837674 C85.6982422,18.9884549 84.9511719,18.6320096 84.9511719,17.6652127 Z M94.7412109,16.1124783 C94.7412109,16.1124783 93.0908203,21.068533 93.0664062,21.1271268 L92.9345703,21.4835721 C92.578125,22.4357205 92.0703125,23.1486111 90.7080078,23.1486111 C90.4101562,23.1486111 90.1025391,23.1193143 89.9609375,23.0900174 L89.9609375,22.1134549 C90.0488281,22.1329861 90.2490234,22.1476346 90.3955078,22.1476346 C91.0400391,22.1476346 91.25,21.8986111 91.328125,21.4738065 L91.3671875,21.3077908 L89.5947266,16.1124783 L91.1132812,16.1124783 L92.1582031,20.0968533 L92.2119141,20.0968533 L93.2861328,16.1124783 L94.7412109,16.1124783 Z M95.2001953,17.6652127 C95.2001953,16.5031033 96.2011719,16.0197049 97.3144531,16.0197049 C98.5498047,16.0197049 99.3261719,16.6251736 99.3261719,17.6115018 L98.1152344,17.6115018 C98.0810547,17.2990018 97.8759766,16.9572049 97.2851562,16.9572049 C96.8066406,16.9572049 96.5039062,17.1866971 96.5039062,17.5382596 C96.5039062,18.0411893 97.265625,18.1193143 97.8564453,18.2267361 C98.8134766,18.3976346 99.4873047,18.7394315 99.4873047,19.6866971 C99.4873047,20.7609158 98.6523438,21.4005643 97.2460938,21.4005643 C95.8740234,21.4005643 95.0927734,20.7609158 95.0927734,19.8380643 L96.4257812,19.8380643 C96.4746094,20.2042752 96.796875,20.4581815 97.3193359,20.4581815 C97.890625,20.4581815 98.1591797,20.1798611 98.1591797,19.8624783 C98.1591797,19.3790799 97.5244141,19.3156033 96.875,19.1837674 C95.9472656,18.9884549 95.2001953,18.6320096 95.2001953,17.6652127 Z M100.874023,16.1124783 L100.874023,14.8868924 L102.207031,14.8868924 L102.207031,16.1124783 L103.208008,16.1124783 L103.208008,17.1720486 L102.207031,17.1720486 L102.207031,19.6329861 C102.207031,20.131033 102.426758,20.287283 102.944336,20.287283 C103.056641,20.287283 103.168945,20.287283 103.227539,20.2775174 L103.227539,21.2882596 C103.125,21.3077908 102.885742,21.3322049 102.612305,21.3322049 C101.308594,21.3322049 100.844727,20.9025174 100.844727,19.8331815 L100.844727,17.1720486 L100.102539,17.1720486 L100.102539,16.1124783 L100.874023,16.1124783 Z M106.411133,21.4005643 C104.980469,21.4005643 104.023438,20.521658 104.023438,18.9103299 L104.023438,18.4562283 C104.023438,16.903494 104.990234,16.0197049 106.357422,16.0197049 C107.783203,16.0197049 108.676758,16.981619 108.676758,18.4855252 L108.676758,18.9982205 L105.371094,18.9982205 L105.371094,19.1544705 C105.371094,19.896658 105.805664,20.365408 106.420898,20.365408 C106.918945,20.365408 107.275391,20.1212674 107.368164,19.7111111 L108.632812,19.7111111 C108.525391,20.5363065 107.851562,21.4005643 106.411133,21.4005643 Z M105.371094,18.1583768 L107.353516,18.1583768 L107.353516,18.1486111 C107.353516,17.5089627 106.962891,17.0255643 106.367188,17.0255643 C105.766602,17.0255643 105.371094,17.5138455 105.371094,18.1486111 L105.371094,18.1583768 Z M109.6875,21.3077908 L109.6875,16.1124783 L111.025391,16.1124783 L111.025391,16.8790799 L111.09375,16.8790799 C111.230469,16.4982205 111.669922,16.0343533 112.46582,16.0343533 C113.261719,16.0343533 113.740234,16.4005643 113.911133,16.9376736 L113.969727,16.9376736 C114.130859,16.4982205 114.667969,16.0343533 115.546875,16.0343533 C116.611328,16.0343533 117.226562,16.7228299 117.226562,17.7531033 L117.226562,21.3077908 L115.854492,21.3077908 L115.854492,18.1486111 C115.854492,17.4894315 115.50293,17.1720486 114.995117,17.1720486 C114.453125,17.1720486 114.116211,17.5382596 114.116211,18.1925565 L114.116211,21.3077908 L112.797852,21.3077908 L112.797852,18.1925565 C112.797852,17.4552518 112.416992,17.1720486 111.928711,17.1720486 C111.455078,17.1720486 111.05957,17.4796658 111.05957,18.1827908 L111.05957,21.3077908 L109.6875,21.3077908 Z M118.266602,17.6652127 C118.266602,16.5031033 119.267578,16.0197049 120.380859,16.0197049 C121.616211,16.0197049 122.392578,16.6251736 122.392578,17.6115018 L121.181641,17.6115018 C121.147461,17.2990018 120.942383,16.9572049 120.351562,16.9572049 C119.873047,16.9572049 119.570312,17.1866971 119.570312,17.5382596 C119.570312,18.0411893 120.332031,18.1193143 120.922852,18.2267361 C121.879883,18.3976346 122.553711,18.7394315 122.553711,19.6866971 C122.553711,20.7609158 121.71875,21.4005643 120.3125,21.4005643 C118.94043,21.4005643 118.15918,20.7609158 118.15918,19.8380643 L119.492188,19.8380643 C119.541016,20.2042752 119.863281,20.4581815 120.385742,20.4581815 C120.957031,20.4581815 121.225586,20.1798611 121.225586,19.8624783 C121.225586,19.3790799 120.59082,19.3156033 119.941406,19.1837674 C119.013672,18.9884549 118.266602,18.6320096 118.266602,17.6652127 Z" id="Operatingsystems" fill="#121820" fill-rule="nonzero"></path>
                        </g>
                    </g>
                </g>
            </g>
        </g>
    </g>
</svg>