<?xml version="1.0" encoding="UTF-8"?>
<svg width="411px" height="488px" viewBox="0 0 411 488" version="1.1" xmlns="http://www.w3.org/2000/svg" xmlns:xlink="http://www.w3.org/1999/xlink">
    <!-- Generator: Sketch 54.1 (76490) - https://sketchapp.com -->
    <title>Illustartion-3</title>
    <desc>Created with Sketch.</desc>
    <defs>
        <path d="M30.7666206,-4.79572197e-15 L65.2333794,1.2430083e-15 C75.9316037,-7.22223616e-16 79.8110383,1.11390727 83.7221492,3.20559225 C87.6332601,5.29727724 90.7027228,8.36673995 92.7944077,12.2778508 C94.8860927,16.1889617 96,20.0683963 96,30.7666206 L96,83.2333794 C96,93.9316037 94.8860927,97.8110383 92.7944077,101.722149 C90.7027228,105.63326 87.6332601,108.702723 83.7221492,110.794408 C79.8110383,112.886093 75.9316037,114 65.2333794,114 L30.7666206,114 C20.0683963,114 16.1889617,112.886093 12.2778508,110.794408 C8.36673995,108.702723 5.29727724,105.63326 3.20559225,101.722149 C1.11390727,97.8110383 -3.07123127e-15,93.9316037 -4.38138588e-15,83.2333794 L8.28672197e-16,30.7666206 C-4.8148241e-16,20.0683963 1.11390727,16.1889617 3.20559225,12.2778508 C5.29727724,8.36673995 8.36673995,5.29727724 12.2778508,3.20559225 C16.1889617,1.11390727 20.0683963,-2.83049006e-15 30.7666206,-4.79572197e-15 Z" id="path-1"></path>
        <filter x="-36.5%" y="-19.3%" width="172.9%" height="161.4%" filterUnits="objectBoundingBox" id="filter-2">
            <feOffset dx="0" dy="13" in="SourceAlpha" result="shadowOffsetOuter1"></feOffset>
            <feGaussianBlur stdDeviation="9.5" in="shadowOffsetOuter1" result="shadowBlurOuter1"></feGaussianBlur>
            <feColorMatrix values="0 0 0 0 0.258823529   0 0 0 0 0.521568627   0 0 0 0 0.956862745  0 0 0 0.16 0" type="matrix" in="shadowBlurOuter1"></feColorMatrix>
        </filter>
        <path d="M30.7666206,-4.79572197e-15 L65.2333794,4.79572197e-15 C75.9316037,2.83049006e-15 79.8110383,1.11390727 83.7221492,3.20559225 C87.6332601,5.29727724 90.7027228,8.36673995 92.7944077,12.2778508 C94.8860927,16.1889617 96,20.0683963 96,30.7666206 L96,81.2333794 C96,91.9316037 94.8860927,95.8110383 92.7944077,99.7221492 C90.7027228,103.63326 87.6332601,106.702723 83.7221492,108.794408 C79.8110383,110.886093 75.9316037,112 65.2333794,112 L30.7666206,112 C20.0683963,112 16.1889617,110.886093 12.2778508,108.794408 C8.36673995,106.702723 5.29727724,103.63326 3.20559225,99.7221492 C1.11390727,95.8110383 -3.07123127e-15,91.9316037 -4.38138588e-15,81.2333794 L4.38138588e-15,30.7666206 C3.07123127e-15,20.0683963 1.11390727,16.1889617 3.20559225,12.2778508 C5.29727724,8.36673995 8.36673995,5.29727724 12.2778508,3.20559225 C16.1889617,1.11390727 20.0683963,-2.83049006e-15 30.7666206,-4.79572197e-15 Z" id="path-3"></path>
        <filter x="-36.5%" y="-19.6%" width="172.9%" height="162.5%" filterUnits="objectBoundingBox" id="filter-4">
            <feOffset dx="0" dy="13" in="SourceAlpha" result="shadowOffsetOuter1"></feOffset>
            <feGaussianBlur stdDeviation="9.5" in="shadowOffsetOuter1" result="shadowBlurOuter1"></feGaussianBlur>
            <feColorMatrix values="0 0 0 0 0.584313725   0 0 0 0 0.749019608   0 0 0 0 0.274509804  0 0 0 0.16 0" type="matrix" in="shadowBlurOuter1"></feColorMatrix>
        </filter>
        <path d="M30.7666206,-4.79572197e-15 L65.2333794,4.79572197e-15 C75.9316037,2.83049006e-15 79.8110383,1.11390727 83.7221492,3.20559225 C87.6332601,5.29727724 90.7027228,8.36673995 92.7944077,12.2778508 C94.8860927,16.1889617 96,20.0683963 96,30.7666206 L96,81.2333794 C96,91.9316037 94.8860927,95.8110383 92.7944077,99.7221492 C90.7027228,103.63326 87.6332601,106.702723 83.7221492,108.794408 C79.8110383,110.886093 75.9316037,112 65.2333794,112 L30.7666206,112 C20.0683963,112 16.1889617,110.886093 12.2778508,108.794408 C8.36673995,106.702723 5.29727724,103.63326 3.20559225,99.7221492 C1.11390727,95.8110383 -3.07123127e-15,91.9316037 -4.38138588e-15,81.2333794 L4.38138588e-15,30.7666206 C3.07123127e-15,20.0683963 1.11390727,16.1889617 3.20559225,12.2778508 C5.29727724,8.36673995 8.36673995,5.29727724 12.2778508,3.20559225 C16.1889617,1.11390727 20.0683963,-2.83049006e-15 30.7666206,-4.79572197e-15 Z" id="path-5"></path>
        <filter x="-36.5%" y="-19.6%" width="172.9%" height="162.5%" filterUnits="objectBoundingBox" id="filter-6">
            <feOffset dx="0" dy="13" in="SourceAlpha" result="shadowOffsetOuter1"></feOffset>
            <feGaussianBlur stdDeviation="9.5" in="shadowOffsetOuter1" result="shadowBlurOuter1"></feGaussianBlur>
            <feColorMatrix values="0 0 0 0 0.874509804   0 0 0 0 0   0 0 0 0 0.403921569  0 0 0 0.16 0" type="matrix" in="shadowBlurOuter1"></feColorMatrix>
        </filter>
        <path d="M30.7666206,-4.79572197e-15 L65.2333794,4.79572197e-15 C75.9316037,2.83049006e-15 79.8110383,1.11390727 83.7221492,3.20559225 C87.6332601,5.29727724 90.7027228,8.36673995 92.7944077,12.2778508 C94.8860927,16.1889617 96,20.0683963 96,30.7666206 L96,81.2333794 C96,91.9316037 94.8860927,95.8110383 92.7944077,99.7221492 C90.7027228,103.63326 87.6332601,106.702723 83.7221492,108.794408 C79.8110383,110.886093 75.9316037,112 65.2333794,112 L30.7666206,112 C20.0683963,112 16.1889617,110.886093 12.2778508,108.794408 C8.36673995,106.702723 5.29727724,103.63326 3.20559225,99.7221492 C1.11390727,95.8110383 -3.07123127e-15,91.9316037 -4.38138588e-15,81.2333794 L4.38138588e-15,30.7666206 C3.07123127e-15,20.0683963 1.11390727,16.1889617 3.20559225,12.2778508 C5.29727724,8.36673995 8.36673995,5.29727724 12.2778508,3.20559225 C16.1889617,1.11390727 20.0683963,-2.83049006e-15 30.7666206,-4.79572197e-15 Z" id="path-7"></path>
        <filter x="-36.5%" y="-19.6%" width="172.9%" height="162.5%" filterUnits="objectBoundingBox" id="filter-8">
            <feOffset dx="0" dy="13" in="SourceAlpha" result="shadowOffsetOuter1"></feOffset>
            <feGaussianBlur stdDeviation="9.5" in="shadowOffsetOuter1" result="shadowBlurOuter1"></feGaussianBlur>
            <feColorMatrix values="0 0 0 0 0.925490196   0 0 0 0 0.403921569   0 0 0 0 0.215686275  0 0 0 0.16 0" type="matrix" in="shadowBlurOuter1"></feColorMatrix>
        </filter>
        <path d="M30.7666206,-4.79572197e-15 L65.2333794,4.79572197e-15 C75.9316037,2.83049006e-15 79.8110383,1.11390727 83.7221492,3.20559225 C87.6332601,5.29727724 90.7027228,8.36673995 92.7944077,12.2778508 C94.8860927,16.1889617 96,20.0683963 96,30.7666206 L96,81.2333794 C96,91.9316037 94.8860927,95.8110383 92.7944077,99.7221492 C90.7027228,103.63326 87.6332601,106.702723 83.7221492,108.794408 C79.8110383,110.886093 75.9316037,112 65.2333794,112 L30.7666206,112 C20.0683963,112 16.1889617,110.886093 12.2778508,108.794408 C8.36673995,106.702723 5.29727724,103.63326 3.20559225,99.7221492 C1.11390727,95.8110383 -3.07123127e-15,91.9316037 -4.38138588e-15,81.2333794 L4.38138588e-15,30.7666206 C3.07123127e-15,20.0683963 1.11390727,16.1889617 3.20559225,12.2778508 C5.29727724,8.36673995 8.36673995,5.29727724 12.2778508,3.20559225 C16.1889617,1.11390727 20.0683963,-2.83049006e-15 30.7666206,-4.79572197e-15 Z" id="path-9"></path>
        <filter x="-36.5%" y="-19.6%" width="172.9%" height="162.5%" filterUnits="objectBoundingBox" id="filter-10">
            <feOffset dx="0" dy="13" in="SourceAlpha" result="shadowOffsetOuter1"></feOffset>
            <feGaussianBlur stdDeviation="9.5" in="shadowOffsetOuter1" result="shadowBlurOuter1"></feGaussianBlur>
            <feColorMatrix values="0 0 0 0 0.270588235   0 0 0 0 0.592156863   0 0 0 0 0.968627451  0 0 0 0.16 0" type="matrix" in="shadowBlurOuter1"></feColorMatrix>
        </filter>
        <path d="M30.7666206,-4.79572197e-15 L65.2333794,4.79572197e-15 C75.9316037,2.83049006e-15 79.8110383,1.11390727 83.7221492,3.20559225 C87.6332601,5.29727724 90.7027228,8.36673995 92.7944077,12.2778508 C94.8860927,16.1889617 96,20.0683963 96,30.7666206 L96,81.2333794 C96,91.9316037 94.8860927,95.8110383 92.7944077,99.7221492 C90.7027228,103.63326 87.6332601,106.702723 83.7221492,108.794408 C79.8110383,110.886093 75.9316037,112 65.2333794,112 L30.7666206,112 C20.0683963,112 16.1889617,110.886093 12.2778508,108.794408 C8.36673995,106.702723 5.29727724,103.63326 3.20559225,99.7221492 C1.11390727,95.8110383 -3.07123127e-15,91.9316037 -4.38138588e-15,81.2333794 L4.38138588e-15,30.7666206 C3.07123127e-15,20.0683963 1.11390727,16.1889617 3.20559225,12.2778508 C5.29727724,8.36673995 8.36673995,5.29727724 12.2778508,3.20559225 C16.1889617,1.11390727 20.0683963,-2.83049006e-15 30.7666206,-4.79572197e-15 Z" id="path-11"></path>
        <filter x="-36.5%" y="-19.6%" width="172.9%" height="162.5%" filterUnits="objectBoundingBox" id="filter-12">
            <feOffset dx="0" dy="13" in="SourceAlpha" result="shadowOffsetOuter1"></feOffset>
            <feGaussianBlur stdDeviation="9.5" in="shadowOffsetOuter1" result="shadowBlurOuter1"></feGaussianBlur>
            <feColorMatrix values="0 0 0 0 0.607843137   0 0 0 0 0.360784314   0 0 0 0 0.560784314  0 0 0 0.16 0" type="matrix" in="shadowBlurOuter1"></feColorMatrix>
        </filter>
        <ellipse id="path-13" cx="70.283458" cy="70.296537" rx="40.283458" ry="40.296537"></ellipse>
        <filter x="-41.6%" y="-25.4%" width="183.2%" height="183.1%" filterUnits="objectBoundingBox" id="filter-14">
            <feOffset dx="0" dy="13" in="SourceAlpha" result="shadowOffsetOuter1"></feOffset>
            <feGaussianBlur stdDeviation="9" in="shadowOffsetOuter1" result="shadowBlurOuter1"></feGaussianBlur>
            <feColorMatrix values="0 0 0 0 0   0 0 0 0 0   0 0 0 0 0  0 0 0 0.2 0" type="matrix" in="shadowBlurOuter1"></feColorMatrix>
        </filter>
    </defs>
    <g id="Web-Design" stroke="none" stroke-width="1" fill="none" fill-rule="evenodd">
        <g id="2c-Product-Web-Calls" transform="translate(-788.000000, -1913.000000)">
            <g id="Section-1" transform="translate(233.000000, 737.000000)">
                <g id="2" transform="translate(0.000000, 1182.000000)">
                    <g id="Illustartion-3" transform="translate(573.000000, 0.000000)">
                        <g id="1" transform="translate(0.202893, 60.000000)">
                            <g id="Mask">
                                <use fill="black" fill-opacity="1" filter="url(#filter-2)" xlink:href="#path-1"></use>
                                <use fill="#FFFFFF" fill-rule="evenodd" xlink:href="#path-1"></use>
                            </g>
                            <g id="Logos/G-Tag" transform="translate(24.000000, 33.000000)">
                                <g id="google-tag-manager" transform="translate(5.000000, 5.000000)">
                                    <polygon id="Path" fill="#8AB4F8" fill-rule="nonzero" points="22.3109672 36.5544314 15.7167139 29.9524889 29.8817483 15.6428976 36.5974909 22.3571024"></polygon>
                                    <path d="M22.3586402,8.1213274 L15.6444355,1.40558478 L1.40712262,15.6428976 C-0.447511129,17.4959935 -0.449048968,20.499393 1.40404694,22.3540267 C1.40558478,22.3555645 1.40712262,22.3571024 1.40712262,22.3571024 L15.6444355,36.5944152 L22.2309996,29.9770943 L11.4722784,19.009227 L22.3586402,8.1213274 Z" id="Path" fill="#4285F4" fill-rule="nonzero"></path>
                                    <path d="M36.5959531,15.6428976 L22.3586402,1.40558478 C20.5040065,-0.449048968 17.4975314,-0.449048968 15.6428976,1.40558478 C13.7882639,3.26021854 13.7882639,6.26669365 15.6428976,8.11978956 L29.8878996,22.3571024 C31.7425334,24.2117361 34.7490085,24.2117361 36.6021044,22.3571024 C38.4567382,20.5024686 38.4567382,17.4959935 36.6021044,15.6428976 L36.5959531,15.6428976 Z" id="Path" fill="#8AB4F8" fill-rule="nonzero"></path>
                                    <circle id="Oval" fill="#246FDB" fill-rule="nonzero" cx="18.9492513" cy="33.292675" r="4.70578713"></circle>
                                </g>
                            </g>
                        </g>
                        <g id="2" transform="translate(139.000000, 0.000000)">
                            <g id="Mask">
                                <use fill="black" fill-opacity="1" filter="url(#filter-4)" xlink:href="#path-3"></use>
                                <use fill="#FFFFFF" fill-rule="evenodd" xlink:href="#path-3"></use>
                            </g>
                            <g id="Logos/Shopify" transform="translate(24.000000, 32.000000)">
                                <g id="shopify" transform="translate(8.000000, 6.000000)">
                                    <path d="M27.97175,7.1675 C27.946625,6.985 27.78675,6.884 27.654625,6.872875 C27.52275,6.861875 24.73175,6.655 24.73175,6.655 C24.73175,6.655 22.793375,4.730625 22.580625,4.517625 C22.36775,4.30475 21.952,4.3695 21.790625,4.417 C21.766875,4.424 21.367125,4.547375 20.705875,4.752 C20.058375,2.88875 18.915625,1.1765 16.90525,1.1765 C16.84975,1.1765 16.792625,1.17875 16.7355,1.182 C16.16375,0.425875 15.4555,0.097375 14.84375,0.097375 C10.160625,0.097375 7.92325,5.95175 7.22175,8.92675 C5.402,9.490625 4.10925,9.8915 3.944125,9.943375 C2.928375,10.262 2.89625,10.294 2.762875,11.251125 C2.6625,11.97575 0.00475,32.529375 0.00475,32.529375 L20.7145,36.409625 L31.93575,33.982125 C31.93575,33.982125 27.996625,7.35 27.971875,7.1675 L27.97175,7.1675 Z M19.56125,5.106 L17.808875,5.648375 C17.8095,5.524875 17.810125,5.403375 17.810125,5.2705 C17.810125,4.1125 17.649375,3.180125 17.3915,2.441 C18.427375,2.571 19.11725,3.749625 19.56125,5.106 Z M16.1065,2.670625 C16.3945,3.39225 16.58175,4.427875 16.58175,5.825375 C16.58175,5.896875 16.581125,5.96225 16.5805,6.028375 C15.440875,6.381375 14.2025,6.764625 12.961375,7.149125 C13.65825,4.459625 14.9645,3.160625 16.1065,2.670625 Z M14.715125,1.3535 C14.91725,1.3535 15.120875,1.422125 15.31575,1.55625 C13.814875,2.2625 12.206125,4.04125 11.52675,7.593375 L8.666,8.479375 C9.46175,5.77 11.35125,1.3535 14.715,1.3535 L14.715125,1.3535 Z" id="Shape" fill="#95BF46" fill-rule="nonzero"></path>
                                    <path d="M27.654625,6.872875 C27.52275,6.861875 24.73175,6.655 24.73175,6.655 C24.73175,6.655 22.793375,4.730625 22.580625,4.517625 C22.501,4.438375 22.393625,4.39775 22.281375,4.38025 L20.7155,36.409375 L31.93575,33.982125 C31.93575,33.982125 27.9965,7.35 27.97175,7.1675 C27.946625,6.985 27.78675,6.884 27.654625,6.872875" id="Path" fill="#5E8E3E" fill-rule="nonzero"></path>
                                    <path d="M16.90525,13.073125 L15.521625,17.188875 C15.521625,17.188875 14.309375,16.541875 12.823375,16.541875 C10.644875,16.541875 10.53525,17.909 10.53525,18.2535 C10.53525,20.13325 15.43525,20.8535 15.43525,25.2565 C15.43525,28.720625 13.238125,30.95125 10.275625,30.95125 C6.720625,30.95125 4.902625,28.73875 4.902625,28.73875 L5.8545,25.59375 C5.8545,25.59375 7.72325,27.198125 9.300125,27.198125 C10.3305,27.198125 10.749625,26.386875 10.749625,25.794125 C10.749625,23.342125 6.729625,23.23275 6.729625,19.203625 C6.729625,15.8125 9.163625,12.530875 14.076875,12.530875 C15.97,12.530875 16.90525,13.073125 16.90525,13.073125" id="Path" fill="#FFFFFF" fill-rule="nonzero"></path>
                                </g>
                            </g>
                        </g>
                        <g id="5" transform="translate(278.000000, 238.000000)">
                            <g id="Mask">
                                <use fill="black" fill-opacity="1" filter="url(#filter-6)" xlink:href="#path-5"></use>
                                <use fill="#FFFFFF" fill-rule="evenodd" xlink:href="#path-5"></use>
                            </g>
                            <g id="Logos/Prestashop" transform="translate(24.000000, 32.000000)">
                                <g id="prestashop" transform="translate(2.000000, 2.000000)">
                                    <path d="M14.2620156,33.759 C14.6133281,33.6025937 14.9692812,33.4587344 15.3285,33.3238125 C15.734125,33.1713594 16.1430156,33.0280156 16.5574062,32.9032344 C17.0732031,32.7478594 17.5932969,32.6072656 18.1204375,32.495375 C18.8317192,32.3440867 19.5509496,32.2329371 20.2747187,32.1624531 C19.8655863,33.4456287 19.4180517,34.7162418 18.9327188,35.9725781 C18.9527209,36.2178178 18.9655597,36.4635892 18.9712187,36.7095781 C19.9687536,36.5123497 20.9831545,36.4129359 22,36.41275 C23.0365781,36.41275 24.04875,36.5162188 25.0287812,36.7095781 C25.0344403,36.4635892 25.0472791,36.2178178 25.0672812,35.9725781 C24.5818722,34.71627 24.1343368,33.4456545 23.7252812,32.1624531 C24.4497344,32.23275 25.1688594,32.3444688 25.8795625,32.495375 C26.4065312,32.6072656 26.926625,32.7478594 27.4424219,32.9032344 C27.8569844,33.0280156 28.265875,33.1713594 28.6715,33.3238125 C29.0308906,33.4589062 29.3870156,33.6027656 29.7383281,33.7591719 C32.2779509,34.8882818 34.5403878,36.5583321 36.3675469,38.652625 C41.0391094,34.6185469 44,28.6568906 44,22 C44,9.8498125 34.1501875,0 22,0 C9.8498125,0 0,9.8498125 0,22 C0,28.6568906 2.96089062,34.618375 7.63245312,38.652625 C9.45973138,36.5582705 11.7222808,34.888165 14.2620156,33.759" id="Path" fill="#A5DBE8" fill-rule="nonzero"></path>
                                    <path d="M29.7383281,33.7591719 L31.1040469,38.4553125 L31.4914531,38.4735313 C31.7429062,38.4735313 31.9197656,38.5397031 31.9197656,38.7911563 C31.9197656,39.2091562 31.9414219,39.6788906 31.9814687,40.0889844 C32.3217812,40.3779063 32.7361719,40.7037813 33.0503594,41.020375 C34.2268055,40.3352116 35.3372757,39.5425775 36.3675469,38.652625 C34.5403878,36.5583321 32.2779509,34.8882818 29.7383281,33.7591719 M27.0679062,33.71225 L28.6715,33.3238125 C28.265875,33.1713594 27.8569844,33.0280156 27.4424219,32.9032344 C26.926625,32.7478594 26.4065312,32.6072656 25.8795625,32.495375 C25.1682808,32.3440867 24.4490504,32.2329371 23.7252812,32.1624531 C24.1343368,33.4456545 24.5818722,34.71627 25.0672812,35.9725781 C25.0472791,36.2178178 25.0344403,36.4635892 25.0287812,36.7095781 C26.1650469,36.9337031 27.2822344,37.3231719 28.3152031,37.7800156 L27.0679062,33.71225" id="Shape" fill="#525353" fill-rule="nonzero"></path>
                                    <path d="M10.9496406,41.020375 C11.2050469,41.1692187 11.4630312,41.3144531 11.7253125,41.4531562 C11.8170937,41.0122969 11.963875,40.4014531 12.0082187,39.947875 C11.6679062,40.2367969 11.2638281,40.7037812 10.9496406,41.020375 M28.2883906,37.7394531 C27.2433281,37.2765557 26.1500915,36.9311472 25.0287812,36.7095781 C24.0312451,36.5123584 23.0168451,36.4129446 22,36.41275 C20.96325,36.41275 19.95125,36.5162187 18.9712187,36.7095781 C17.835125,36.9335312 16.6497031,37.2733281 15.6170781,37.73 L15.50725,38.4142344 L28.4930937,38.4142344 L28.2883906,37.7394531" id="Shape" fill="#000000" fill-rule="nonzero"></path>
                                    <path d="M11.968,40.0781562 C12.0082187,39.6680625 12.0372656,39.3024844 12.0372656,38.8843125 C12.0372656,38.6330312 12.2096562,38.4719844 12.4611094,38.4719844 L12.8734375,38.4575469 L14.2620156,33.759 C11.7222808,34.888165 9.45973138,36.5582705 7.63245312,38.652625 C8.66272431,39.5425775 9.77319453,40.3352116 10.9496406,41.020375 C11.2638131,40.70348 11.5913609,40.4001313 11.9313906,40.1111562" id="Path" fill="#525353" fill-rule="nonzero"></path>
                                    <path d="M32.1493906,40.9139844 C32.2384219,41.3608594 32.2585312,41.4498906 32.2746875,41.4531562 C32.5361707,41.3142036 32.7947822,41.169913 33.0503594,41.020375 C32.7327929,40.7000604 32.4018091,40.3933327 32.0582969,40.1010156 L32.1493906,40.9139844" id="Path" fill="#000000" fill-rule="nonzero"></path>
                                    <path d="M28.2883906,37.7394531 L28.4930937,38.4142344 L31.14925,38.4142344 L29.7383281,33.7591719 C29.3871015,33.6035361 29.0313356,33.4583524 28.6715,33.3238125 L27.0679062,33.71225 L28.2883906,37.7394531" id="Path" fill="#AA9678" fill-rule="nonzero"></path>
                                    <path d="M12.8973281,39.3543906 C12.91125,39.3445938 12.9253437,39.3347969 12.9390937,39.3248281 L12.8992187,39.3248281 C12.898875,39.334625 12.8978437,39.3445938 12.8973281,39.3543906" id="Path" fill="#C4B6A1" fill-rule="nonzero"></path>
                                    <path d="M31.1007812,39.3248281 L31.0607344,39.3248281 L31.1025,39.3543906 C31.1021562,39.3445938 31.101125,39.334625 31.1007812,39.3248281" id="Path" fill="#AA9678" fill-rule="nonzero"></path>
                                    <path d="M31.0550625,39.2569375 L21.9810937,39.26725 L22,44 C25.377,44 28.57525,43.2370469 31.4347344,41.8771719 C31.2480781,41.0569844 31.2293438,40.1735469 31.1989219,39.3138281 C31.1851719,39.3038594 31.0550625,39.2569375 31.0550625,39.2569375" id="Path" fill="#AA9678" fill-rule="nonzero"></path>
                                    <path d="M21.9853906,39.2868437 C21.9853906,39.2868437 12.8614062,39.2753281 12.8474844,39.285125 C12.8172344,40.1450156 12.6398594,41.1652656 12.5652656,41.8771719 C15.42475,43.2370469 18.623,44 22,44 L22.0051562,39.3021406 L21.9853906,39.2868437" id="Path" fill="#C4B6A1" fill-rule="nonzero"></path>
                                    <polygon id="Path" fill="#786453" fill-rule="nonzero" points="22 38.8695312 22.0001719 38.8695312 22.0001719 39.3248281 22 39.3248281"></polygon>
                                    <path d="M28.8052187,35.7775 L28.8098594,35.7917656 L28.8052187,35.7775 C28.8052187,35.7775 28.582125,35.6006406 28.2990469,35.2749375 C28.582125,35.6006406 28.8052187,35.7775 28.8052187,35.7775" id="Path" fill="#AA9678" fill-rule="nonzero"></path>
                                    <polyline id="Path" fill="#BBBCBD" fill-rule="nonzero" points="36.4130938 22.1998906 36.4129219 22.193875 36.4130938 22.1998906"></polyline>
                                    <path d="M36.3883437,21.8571719 C36.3890312,21.8630156 36.39075,21.8681719 36.3914375,21.8740156 C36.3919531,21.877625 36.3929844,21.8808906 36.3935,21.8843281 L36.3935,21.8857031 C36.4039844,21.96975 36.4079375,22.0575781 36.4098281,22.1460938 C36.4101719,22.1624219 36.4129219,22.1777188 36.4129219,22.193875 L36.4130937,22.1998906 L36.4129219,22.2064219 C36.41275,22.2239531 36.4098281,22.2402813 36.4096562,22.2576406 C36.408489,22.3429855 36.4031545,22.4282224 36.3936719,22.5130469 L36.3936719,22.51425 L36.3912656,22.5267969 C36.3905781,22.5335 36.3885156,22.5395156 36.3876562,22.5460469 C36.3761028,22.633699 36.3596341,22.7206329 36.3383281,22.8064375 L36.3379844,22.8076406 L36.3379844,22.8078125 L36.3410781,22.804375 L36.3422812,22.8004219 L36.3422812,22.8005938 L36.9180625,22.1978281 L36.3376406,21.59025 L36.3378125,21.5914531 C36.3594687,21.6761875 36.3759687,21.7652188 36.3883437,21.8571719" id="Path" fill="#676A6A" fill-rule="nonzero"></path>
                                    <path d="M36.3876563,22.5460469 C36.3892031,22.5347031 36.392125,22.5245625 36.3936719,22.5130469 C36.4038125,22.4305469 36.4075938,22.3444375 36.4096562,22.2576406 C36.4098281,22.2380469 36.4129219,22.2196562 36.4129219,22.1998906 C36.4129219,22.1815 36.4101719,22.1643125 36.4098281,22.1460938 C36.408809,22.059076 36.4033592,21.9721666 36.3935,21.8857031 C36.392125,21.8757344 36.3895469,21.8669688 36.3883438,21.8571719 C36.3766563,21.7676957 36.3597842,21.6789735 36.3378125,21.5914531 C36.33025,21.5618906 36.3197656,21.5355938 36.311,21.5070625 C36.2589219,21.3348438 36.1879375,21.1827344 36.1037188,21.0564063 C36.0714825,21.008389 36.0362348,20.9624635 35.9981875,20.9189062 C35.9634043,20.8804322 35.9253331,20.845064 35.8844063,20.8132031 C35.8692813,20.8016875 35.8532969,20.7936094 35.8378281,20.7836406 C35.790408,20.7524735 35.7390925,20.7276825 35.6852031,20.7099062 C35.6343271,20.6929964 35.5811953,20.6838417 35.5275938,20.68275 C35.473625,20.68275 35.421375,20.6940937 35.3699844,20.7099062 C35.3160105,20.7276068 35.2646284,20.752402 35.2171875,20.7836406 C35.2020625,20.7936094 35.1859063,20.8015156 35.1709531,20.8130313 C35.1001668,20.8682318 35.0379588,20.9336255 34.9863594,21.0070781 C34.9742992,21.0232708 34.962665,21.0397764 34.9514688,21.0565781 C34.86725,21.1829063 34.7960938,21.3350156 34.7441875,21.5072344 L34.7376563,21.5278594 C34.714625,21.6069219 34.69675,21.6901094 34.6817969,21.7755313 C34.6773281,21.8016563 34.6713125,21.82675 34.6677031,21.8535625 C34.6539531,21.949125 34.6469063,22.0488125 34.6451875,22.1509063 C34.6450156,22.165 34.6427813,22.1784063 34.6427813,22.1925 L34.6462188,22.1925 C34.6462188,23.0305625 35.0427344,23.7098125 35.5317188,23.7098125 C35.6159375,23.7098125 35.6968906,23.6878125 35.7740625,23.6501719 C35.8203231,23.6274927 35.8640027,23.5998904 35.9043438,23.5678438 C35.9210156,23.5544375 35.9366563,23.5382813 35.9526406,23.5231563 C35.9916563,23.4867188 36.0287813,23.4454688 36.0640156,23.3995781 C36.0884219,23.3674375 36.1124844,23.3352969 36.1348281,23.299375 C36.1490938,23.2765156 36.1621563,23.2517656 36.1753906,23.2273594 C36.2001406,23.1816406 36.2235156,23.1340313 36.2446563,23.0835 C36.2525625,23.0652813 36.2606406,23.0475781 36.2678594,23.0288438 C36.2948438,22.9585469 36.3183906,22.8842969 36.3383281,22.8064375 C36.3594688,22.7234219 36.3752813,22.6361094 36.3876563,22.5460469 L36.3876563,22.5460469 Z M35.5593906,21.9979375 C35.376,21.9979375 35.2273281,21.7430469 35.2273281,21.4288594 C35.2273281,21.1148437 35.376,20.8599531 35.5593906,20.8599531 C35.7427813,20.8599531 35.8912813,21.1148437 35.8912813,21.4288594 C35.8912813,21.7430469 35.7427813,21.9979375 35.5593906,21.9979375 Z" id="Shape" fill="#000000" fill-rule="nonzero"></path>
                                    <path d="M35.5593906,20.8599531 C35.376,20.8599531 35.2273281,21.1148438 35.2273281,21.4288594 C35.2273281,21.7430469 35.376,21.9979375 35.5593906,21.9979375 C35.7427812,21.9979375 35.8912812,21.7430469 35.8912812,21.4288594 C35.8912812,21.1148438 35.7427812,20.8599531 35.5593906,20.8599531" id="Path" fill="#FFFFFF" fill-rule="nonzero"></path>
                                    <path d="M34.7441875,21.5072344 C34.7960937,21.3350156 34.86725,21.1829062 34.9514687,21.0565781 C34.9628125,21.0393906 34.9743281,21.0234062 34.9863594,21.0070781 C35.0378132,20.9335063 35.1000405,20.8680923 35.1709531,20.8130313 C35.1859063,20.8015156 35.2020625,20.7936094 35.2171875,20.7836406 C35.2645877,20.7523303 35.3159797,20.7275304 35.3699844,20.7099063 C35.4212031,20.69375 35.473625,20.68275 35.5275938,20.68275 C35.5815625,20.68275 35.6339844,20.69375 35.6852031,20.7099063 C35.7390925,20.7276825 35.790408,20.7524735 35.8378281,20.7836406 C35.8532969,20.7936094 35.8692813,20.8016875 35.8844063,20.8132031 C35.9239375,20.8434531 35.96175,20.8792031 35.9981875,20.9189062 C36.0362348,20.9624635 36.0714825,21.008389 36.1037188,21.0564063 C36.1879375,21.1827344 36.2589219,21.3348438 36.311,21.5070625 L36.311,21.5074062 L35.5275938,17.9191719 L34.7440156,21.5072344 L34.7441875,21.5072344" id="Path" fill="#909393" fill-rule="nonzero"></path>
                                    <path d="M25.1451406,22.166375 C25.1441094,22.0941875 25.1394688,22.0228594 25.1313906,21.9527344 C25.1312188,21.951875 25.130875,21.9508438 25.130875,21.9498125 C25.122725,21.8812232 25.1111953,21.8130778 25.0963281,21.745625 L25.0949531,21.7404687 C25.0802149,21.6746604 25.0622611,21.6096136 25.0411563,21.5455625 L25.0394375,21.5412656 C25.018458,21.4777387 24.9942495,21.4153242 24.9669063,21.3542656 C24.9665625,21.3530625 24.9657031,21.3518594 24.9651875,21.3504844 C24.7468577,20.8645998 24.3507006,20.4808053 23.8581406,20.2779844 L23.852125,20.27575 C23.7322867,20.2268627 23.6081002,20.1893995 23.4812188,20.1638594 C23.4779531,20.1633437 23.4748594,20.1631719 23.4715938,20.1624844 C23.3406542,20.1366363 23.2075133,20.1235697 23.0740469,20.1234687 C22.9401563,20.1234687 22.8100469,20.1372187 22.683375,20.1614531 L22.6699688,20.1635156 C22.5439844,20.1886094 22.4224688,20.2253906 22.3057656,20.2721406 L22.2964844,20.27575 C22.1784817,20.3236287 22.0651867,20.3823764 21.9580625,20.4512344 C21.8509844,20.5203281 21.7504375,20.598875 21.6579688,20.6856719 L21.6557344,20.6927187 L21.648,20.6944375 C21.4998895,20.8353503 21.3731418,20.9971287 21.2717656,21.1746562 L21.2679844,21.1810156 C21.2370469,21.2355 21.2090313,21.2922187 21.18325,21.3499687 C21.1805,21.3561562 21.1770625,21.362 21.1744844,21.3681875 C21.1509375,21.4216406 21.1306563,21.4769844 21.11175,21.5326719 C21.1081406,21.5436719 21.1033281,21.5539844 21.0998906,21.5648125 C21.0833906,21.6168906 21.0699844,21.6703437 21.0572656,21.7237969 C21.054,21.7392656 21.0490156,21.7540469 21.04575,21.7693437 C21.03475,21.8222812 21.0271875,21.8764219 21.0201406,21.9307344 C21.0180781,21.9474062 21.0144688,21.9633906 21.01275,21.9800625 C20.99116,22.1858752 21.0006622,22.393765 21.0409375,22.59675 C21.0412813,22.5993281 21.0414531,22.60225 21.0421406,22.605 C21.0680937,22.7344219 21.10625,22.8592031 21.1552344,22.9786562 C21.1559219,22.980375 21.1562656,22.9820937 21.157125,22.9836406 C21.2562839,23.2235057 21.3994566,23.4426953 21.57925,23.6298906 C21.7201875,23.7768437 21.8824375,23.9028281 22.0608437,24.0035469 L22.0634219,24.0050937 C22.1191094,24.036375 22.1766875,24.0645625 22.2352969,24.0906875 C22.2401094,24.09275 22.24475,24.0955 22.2497344,24.0975625 C22.3040469,24.1212812 22.36025,24.1417344 22.4167969,24.1608125 C22.4264219,24.1640781 22.4357031,24.1682031 22.4453281,24.1712969 C22.4975781,24.1879687 22.5515469,24.201375 22.6055156,24.21375 C22.620125,24.2171875 22.6342187,24.222 22.649,24.2250937 C22.7014219,24.2359219 22.7553906,24.2433125 22.8097031,24.2503594 C22.8260312,24.25225 22.8421875,24.2560312 22.8588594,24.25775 C23.3429086,24.3087459 23.8294351,24.1873881 24.2328281,23.9150312 C24.4535162,23.7658991 24.643597,23.5758767 24.7927969,23.3552344 C25.0239468,23.0129622 25.1472679,22.609295 25.1468594,22.1962812 C25.1468594,22.1912969 25.1461719,22.1866562 25.1461719,22.1820156 C25.146,22.1766875 25.1453125,22.1717031 25.1451406,22.166375 L25.1451406,22.166375 Z M23.0740469,21.9235156 C22.7958514,21.9234849 22.5388046,21.7750411 22.3997334,21.5341014 C22.2606623,21.2931617 22.260695,20.9963306 22.3998194,20.7554217 C22.5389437,20.5145127 22.7960233,20.3661255 23.0742188,20.3661563 C23.5042717,20.3662037 23.8528599,20.714869 23.8528125,21.1449219 C23.852765,21.5749748 23.5040998,21.9235631 23.0740469,21.9235156 Z" id="Shape" fill="#000000" fill-rule="nonzero"></path>
                                    <path d="M23.0740469,20.3661562 C22.6440414,20.3661562 22.2954531,20.7147445 22.2954531,21.14475 C22.2954531,21.5747555 22.6440414,21.9233437 23.0740469,21.9233437 C23.5040523,21.9233437 23.8526406,21.5747555 23.8526406,21.14475 C23.8526406,20.7147445 23.5040523,20.3661562 23.0740469,20.3661562" id="Path" fill="#FFFFFF" fill-rule="nonzero"></path>
                                    <path d="M21.648,20.6944375 L21.6557344,20.6927187 L21.6579687,20.6856719 L23.0855625,16.3197031 L23.0855625,15.2979063 L23.0853906,15.2863906 C22.2796288,15.1195653 21.4590214,15.0349132 20.6361719,15.0337344 C20.356875,15.0337344 20.0798125,15.0455938 19.8044687,15.0643281 C19.7644219,15.0670781 19.7242031,15.0694844 19.6839844,15.0725781 C18.2510625,15.181375 16.8399687,15.5548594 15.533375,16.1512656 C14.4129219,16.6629375 13.371875,17.3368594 12.4360156,18.1359062 L12.4360156,18.1360781 L12.4344687,18.1374531 C12.1840712,18.3518778 11.9415116,18.5752895 11.7072656,18.80725 C11.6632656,18.8502187 11.6185781,18.8928438 11.5750937,18.9365 C11.3536642,19.1598285 11.1394551,19.3902022 10.9327969,19.6272656 C10.8879375,19.679 10.8437656,19.7317656 10.7994219,19.7840156 C10.5908682,20.0286948 10.3901317,20.2799306 10.1975156,20.5373437 C10.1815312,20.559 10.1665781,20.5816875 10.1507656,20.6033437 C9.9680575,20.8528536 9.79289498,21.1078022 9.62551563,21.3678437 C9.5926875,21.4185469 9.559,21.4685625 9.52685938,21.5197812 C9.39107812,21.7351406 9.26475,21.9563437 9.13928125,22.1780625 L15.6425156,22.1780625 L21.648,20.6944375" id="Path" fill="#BBBCBD" fill-rule="nonzero"></path>
                                    <path d="M27.1382031,20.2032188 C27.1514375,20.0328906 27.1622656,19.8627344 27.1710313,19.6922344 C27.1828906,19.4615781 27.1909688,19.2305781 27.1954375,18.99975 C27.198875,18.8204844 27.1983594,18.6410469 27.1975,18.4617813 C27.1975,18.4100469 27.1987031,18.3583125 27.1981875,18.3064063 C27.1928274,17.8435353 27.1758064,17.3808729 27.1471406,16.9188594 L27.1431875,16.9162813 L27.1414688,16.9130156 C26.969658,16.8142905 26.7976106,16.7159777 26.6253281,16.6180781 L26.6132969,16.6112031 L26.4787188,16.5350625 L26.4763125,16.5336875 L26.3829844,16.4814375 L26.3645938,16.471125 C26.3420665,16.458619 26.3194356,16.4463008 26.2967031,16.4341719 C25.9977437,16.2790173 25.6927715,16.1357337 25.3825,16.0046562 C24.6429219,15.6923594 23.6467344,15.4185625 23.0855625,15.2863906 L23.0855625,16.3197031 L24.5006094,20.6927187 L24.5021563,20.6963281 C24.64825,20.8355469 24.7738906,20.9955625 24.8746094,21.1719062 L24.8746094,21.1720781 C24.9076094,21.2298281 24.9378594,21.2894687 24.9651875,21.3504844 C24.965875,21.3518594 24.9665625,21.3530625 24.9669063,21.3542656 C24.9942344,21.4151094 25.0182969,21.4775 25.0394375,21.5412656 L25.0411563,21.5455625 C25.062125,21.6093281 25.0801719,21.6742969 25.0949531,21.7404687 L25.0963281,21.745625 C25.1111094,21.8124844 25.122625,21.8807187 25.130875,21.9498125 C25.130875,21.9508437 25.1312188,21.951875 25.1313906,21.9527344 C25.1394688,22.0228594 25.1441094,22.0941875 25.1451406,22.166375 L25.1504688,22.1780625 L26.8831406,22.1780625 C26.9993865,21.5421826 27.0829701,20.9007634 27.1335625,20.2563281 C27.1347656,20.238625 27.1368281,20.2209219 27.1382031,20.2032187" id="Path" fill="#E3DDDB" fill-rule="nonzero"></path>
                                    <path d="M29.4042031,18.6570313 C29.403,18.6589219 29.4021406,18.6611563 29.4011094,18.6630469 L29.4042031,18.6572031" id="Path" fill="#FCB03F" fill-rule="nonzero"></path>
                                    <path d="M21.6579687,20.6856719 C21.751093,20.5984083 21.8519382,20.5197686 21.9592656,20.4507187 C22.0660259,20.3821046 22.1789148,20.3235313 22.2964844,20.27575 C22.2995781,20.274375 22.3028437,20.2735156 22.3057656,20.2721406 C22.4235628,20.2247948 22.5454819,20.188432 22.6699687,20.1635156 L22.683375,20.1614531 C22.812105,20.1364677 22.9429148,20.1237493 23.0740469,20.1234687 C23.2101719,20.1234687 23.3428594,20.1372187 23.4715937,20.1624844 C23.4748594,20.1631719 23.4779531,20.1633437 23.4812187,20.1638594 C23.6102215,20.1897535 23.7364409,20.2279704 23.8581406,20.2779844 C24.0968318,20.3764141 24.3151966,20.5182609 24.5021562,20.6963281 L24.5006094,20.6927188 L23.0855625,16.3197031 L21.6579687,20.6856719" id="Path" fill="#909393" fill-rule="nonzero"></path>
                                    <path d="M21.1552344,22.9786562 C21.1056918,22.8580011 21.0678209,22.7328775 21.0421406,22.605 C21.0414531,22.60225 21.0412813,22.5993281 21.0409375,22.59675 C21.0006622,22.393765 20.99116,22.1858752 21.01275,21.9800625 C21.0144687,21.9633906 21.0180781,21.9474063 21.0201406,21.9307344 C21.0271875,21.8764219 21.03475,21.8222812 21.04575,21.7693438 C21.0490156,21.7540469 21.054,21.7392656 21.0572656,21.7237969 C21.0699844,21.6703438 21.0833906,21.6168906 21.0998906,21.5648125 C21.1035,21.5539844 21.1079687,21.5436719 21.11175,21.5326719 C21.1306563,21.4769844 21.1509375,21.4216406 21.1744844,21.3681875 C21.1770625,21.362 21.1805,21.3561563 21.18325,21.3499688 C21.2090312,21.2922188 21.2370469,21.2355 21.2679844,21.1810156 L21.2717656,21.1746563 C21.3731418,20.9971287 21.4998895,20.8353503 21.648,20.6944375 L15.6425156,22.1780625 L15.631,22.1780625 L21.57925,23.6298906 C21.3994566,23.4426953 21.2562839,23.2235057 21.157125,22.9836406 C21.1562656,22.9820938 21.1559219,22.980375 21.1552344,22.9786563" id="Path" fill="#676A6A" fill-rule="nonzero"></path>
                                    <path d="M34.6677031,21.8535625 C34.6714844,21.82675 34.6771563,21.8016563 34.6817969,21.7755313 C34.69675,21.6901094 34.714625,21.6069219 34.7376563,21.5278594 C34.7402344,21.5189219 34.7412656,21.5087813 34.7440156,21.5000156 L35.5275938,17.9119531 L35.5274219,15.866125 C34.8871875,15.3372656 34.2015781,15.0481719 33.4877813,15.0481719 C32.5857813,15.0481719 31.7447969,15.5462656 31.1159063,16.1614062 C30.4277188,16.8346406 29.8959375,17.6816406 29.4659063,18.536375 C29.4461406,18.5757344 29.4258594,18.6135469 29.4062656,18.6530781 C29.5387813,18.7678906 29.6699219,18.88425 29.7993438,19.0026719 C30.0918112,19.2711904 30.3792363,19.5451496 30.6614688,19.8244063 C30.793125,19.9543438 30.922375,20.0870313 31.0519688,20.2192031 C31.1894688,20.3592813 31.3271406,20.4990156 31.4625781,20.6413281 C31.71025,20.9014941 31.9544487,21.1649446 32.1951094,21.4316094 C32.4016216,21.6593809 32.6058763,21.889189 32.8078438,22.121 L32.8081875,22.1213438 C32.8420469,22.15675 32.8657656,22.1821875 32.874875,22.1925 L34.6420938,22.1925 C34.6420938,22.1782344 34.6450156,22.1651719 34.6451875,22.1509063 C34.6469063,22.0488125 34.6539531,21.949125 34.6677031,21.8535625" id="Shape" fill="#E3DDDB" fill-rule="nonzero"></path>
                                    <path d="M8.07382813,24.4359844 L8.08964063,24.3964531 C8.32693358,23.7807441 8.60058195,23.1796704 8.90914063,22.5964062 C8.95692188,22.5056562 9.00367188,22.4145625 9.05317188,22.3246719 C9.0805,22.275 9.1114375,22.2275625 9.13928125,22.1780625 C9.26475,21.9563437 9.39107813,21.7351406 9.52685938,21.5197812 C9.559,21.4683906 9.5926875,21.4185469 9.62551563,21.3678437 C9.79289498,21.1078022 9.9680575,20.8528536 10.1507656,20.6033437 C10.1665781,20.5816875 10.1815313,20.559 10.1975156,20.5373437 C10.3901317,20.2799306 10.5908682,20.0286948 10.7994219,19.7840156 C10.8437656,19.7317656 10.8877656,19.6791719 10.9327969,19.6272656 C11.1394551,19.3902022 11.3536642,19.1598285 11.5750938,18.9365 C11.61875,18.8928437 11.6632656,18.8502187 11.7072656,18.80725 C11.9415116,18.5752895 12.1840712,18.3518778 12.4344688,18.1374531 L12.4360156,18.1359062 C13.4244688,14.8249063 16.6161875,12.79025 20.1947969,12.79025 C21.6351094,12.79025 23.0675156,13.2053281 24.2950469,13.95625 C25.5542031,14.7264219 26.4127187,15.4788906 27.07925,16.79425 L27.0892188,16.8140156 C27.1060625,16.8473594 27.1249688,16.8793281 27.1414688,16.9130156 L27.1431875,16.9162813 L27.1471406,16.9188594 C27.7068796,17.2651962 28.2400753,17.652698 28.7423125,18.0781563 C28.9112635,18.2207417 29.0769927,18.3671015 29.239375,18.517125 C29.293,18.5662813 29.3481719,18.6130313 29.4011094,18.6630469 C29.4021406,18.6609844 29.403,18.6589219 29.4042031,18.6570313 C29.4047286,18.6556106 29.4053606,18.6542317 29.4060938,18.6529063 C29.4243125,18.6156094 29.4421875,18.577625 29.4605781,18.5408438 C29.9648594,15.3582344 31.5670781,13.6228125 33.2229219,13.6228125 C34.4710781,13.6228125 35.3784062,14.3670313 36.0636719,16.3704063 L36.0707188,16.3918906 L36.0724375,16.3942969 C36.274486,16.6147184 36.463142,16.8470516 36.6373906,17.0900469 L36.6370469,17.089875 C36.6406562,17.0946875 36.6444375,17.0991563 36.6480469,17.1041406 L36.647875,17.1039688 L36.6480469,17.1041406 C36.6578437,17.1331875 36.6662656,17.1630938 36.6757187,17.1921406 L36.6757187,17.1919688 L36.6499375,17.0876406 C34.5900156,10.9891719 28.8218906,6.59845313 22.0280156,6.59845313 C13.5064531,6.59845313 6.59845312,13.5064531 6.59845312,22.0280156 C6.59845312,23.7079219 6.86692187,25.3252656 7.36535937,26.8302031 L7.36742187,26.8214375 C7.54266039,26.0096773 7.77879718,25.2122704 8.07382812,24.4359844" id="Path" fill="#525353" fill-rule="nonzero"></path>
                                    <path d="M36.8804219,22.1985156 L36.3422812,22.8005938 L36.3422812,22.8004219 L36.3410781,22.804375 C36.320625,22.8836094 36.2955313,22.9575156 36.2678594,23.0288438 C36.2606406,23.0475781 36.2525625,23.0652813 36.2446563,23.0835 C36.2240222,23.1325967 36.2009038,23.1806119 36.1753906,23.2273594 C36.1621563,23.2517656 36.1490938,23.2765156 36.1348281,23.299375 C36.1124844,23.335125 36.0884219,23.3676094 36.0640156,23.3995781 C36.0303487,23.4437606 35.9930976,23.4850933 35.9526406,23.5231563 C35.9366563,23.5381094 35.9211875,23.5544375 35.9043438,23.5678438 C35.8640027,23.5998904 35.8203231,23.6274927 35.7740625,23.6501719 C35.6968906,23.6878125 35.6159375,23.7098125 35.5317188,23.7098125 C35.0427344,23.7098125 34.6462188,23.0305625 34.6462188,22.1925 L32.8695469,22.1925 L32.8705781,22.193875 C33.2043679,22.5796713 33.5329085,22.969978 33.8561094,23.3646875 C34.1667156,23.7442229 34.4734709,24.1268935 34.7763281,24.5126406 L34.8210156,24.5691875 C35.1080162,24.9355547 35.3924192,25.3039493 35.6742031,25.6743437 L35.7563594,25.7815937 C36.055694,26.1756204 36.3530986,26.5711095 36.6485625,26.9680469 C37.168519,25.4288502 37.4416257,23.8170679 37.45775,22.1925 L36.9582813,22.1735937 L36.8804219,22.1985156" id="Path" fill="#FFFFFF" fill-rule="nonzero"></path>
                                    <path d="M19.6839844,15.0725781 C19.7242031,15.0694844 19.7644219,15.0670781 19.8044688,15.0643281 C20.0812762,15.0447059 20.3586709,15.0345021 20.6361719,15.0337344 C21.4728594,15.0337344 22.2902969,15.1232813 23.0853906,15.2863906 L23.0855625,15.2863906 C23.6467344,15.4185625 24.6429219,15.6923594 25.3825,16.0046563 C25.6927715,16.1357337 25.9977437,16.2790173 26.2967031,16.4341719 L26.3645938,16.471125 L26.3829844,16.4814375 C26.4106563,16.4969062 26.4409063,16.5135781 26.4763125,16.5336875 L26.4787188,16.5350625 L26.6132969,16.6112031 L26.6253281,16.6180781 C26.8154219,16.7258437 27.0257969,16.8466719 27.1062344,16.8927344 L27.1268594,16.9045938 L27.1414688,16.9130156 C27.1249688,16.8793281 27.1060625,16.8473594 27.0892188,16.8140156 L27.07925,16.79425 C26.4127188,15.4788906 25.386625,14.3507031 24.1274688,13.5805312 C22.8999375,12.8296094 21.4675313,12.4145312 20.0270469,12.4145312 C16.4486094,12.4145312 13.4244688,14.8249062 12.4360156,18.1359062 C13.371875,17.3368594 14.4129219,16.6629375 15.533375,16.1512656 C16.8399688,15.5548594 18.2510625,15.181375 19.6839844,15.0725781" id="Path" fill="#000000" fill-rule="nonzero"></path>
                                    <path d="M36.6480469,17.1041406 L36.647875,17.1039687 L36.6480469,17.1041406 C36.6444375,17.0991563 36.6406562,17.0946875 36.6370469,17.089875 L36.6373906,17.0900469 C36.463142,16.8470516 36.274486,16.6147184 36.0724375,16.3942969 L36.0674531,16.3882813 C35.9813752,16.2947932 35.8924748,16.203944 35.800875,16.1158594 C35.7670156,16.083375 35.7319531,16.0550156 35.69775,16.0239063 C35.6412031,15.9725156 35.585,15.9194063 35.5275937,15.8723125 L35.5275937,17.9191719 L36.3111719,21.5075781 L36.3111719,21.5074063 C36.3197656,21.53525 36.3300781,21.561375 36.3376406,21.59025 L36.8804219,22.1985156 L36.88575,22.1925 L37.4537969,22.1925 C37.4544844,22.1399063 37.45775,22.088 37.45775,22.0352344 L37.45775,22.034375 C37.457471,20.3888241 37.1934453,18.7539537 36.6757187,17.1919688 L36.6757187,17.1921406 C36.6662656,17.1630938 36.6578437,17.1331875 36.6480469,17.1041406" id="Path" fill="#BBBCBD" fill-rule="nonzero"></path>
                                    <path d="M31.1159062,16.1614063 C31.7447969,15.5462656 32.5857812,15.0481719 33.4877812,15.0481719 C34.2015781,15.0481719 34.8871875,15.3372656 35.5274219,15.866125 L35.5275937,15.8723125 L35.5275937,15.8733438 L35.5275937,15.8723125 C35.585,15.9194063 35.6412031,15.9725156 35.69775,16.0239063 C35.7319531,16.0550156 35.7670156,16.083375 35.800875,16.1158594 C35.8924748,16.203944 35.9813752,16.2947932 36.0674531,16.3882812 L36.0724375,16.3942969 C36.0720203,16.3935408 36.0714997,16.3928466 36.0708906,16.3922344 L36.0707187,16.3920625 L36.0636719,16.3704062 C35.3784062,14.3670312 34.2727344,13.0654219 33.0249219,13.0654219 C31.3689062,13.0654219 29.9648594,15.3582344 29.4605781,18.5408437 L29.4659062,18.536375 C29.8959375,17.6816406 30.4277187,16.8346406 31.1159062,16.1614062 M28.8782656,35.7218125 C28.8782656,35.7218125 28.6553437,35.545125 28.3722656,35.2194219 C28.2405609,35.0687914 28.1178032,34.9105667 28.004625,34.7455625 C27.9685312,34.6929687 27.9327812,34.6383125 27.8972031,34.5819375 C27.790125,34.4126406 27.7047031,34.2065625 27.6105156,34.0028906 C27.5015469,33.7670781 27.5012031,33.6101562 27.4386406,33.3905 C27.3926108,33.2287418 27.3560539,33.0644368 27.3291563,32.8984219 C27.2857278,32.6298493 27.2682878,32.357716 27.2770781,32.0857969 C27.2818906,31.928875 27.2980469,31.7664531 27.3215937,31.6011094 C27.3449774,31.4369007 27.3769325,31.2740272 27.4173281,31.1131562 C27.5421094,30.6142031 27.7578125,30.0827656 28.0943438,29.5217656 L28.1799375,29.3296094 C28.2899375,29.1463906 28.3143437,29.1544687 28.4188437,28.9779531 C29.8907812,26.4938437 30.6848437,24.6154219 30.2964062,21.7231094 C30.2538061,21.4268004 30.2054428,21.1313486 30.1513437,20.8369219 C30.1174948,21.0503141 30.081686,21.2633908 30.0439219,21.476125 C30.0293125,21.542125 29.9892656,21.6137969 29.9741406,21.6586562 C29.3347656,23.551 28.3282656,24.9430156 26.8800469,26.5148125 C26.6784122,26.7328094 26.4743263,26.9485262 26.2678281,27.1619219 C25.8989784,27.543238 25.526277,27.9208094 25.1497812,28.2945781 C24.9930312,28.4504687 24.8331875,28.6085937 24.6705937,28.7698125 C24.5212344,28.917625 24.3354375,29.2337031 24.1137187,29.4665937 C23.9769062,29.8497031 23.8213594,30.2817969 23.689875,30.7362344 C23.6305781,30.7137187 23.5740312,30.6936094 23.5137031,30.6702344 C20.7004531,29.5820937 18.816875,28.1282031 18.816875,28.1282031 C18.816875,28.1282031 20.266125,30.0152187 22.7077812,31.7865625 C22.9322598,31.9492352 23.1651274,32.1000053 23.4054219,32.23825 C23.3047031,33.8325625 24.0080156,35.3631094 27.1827187,35.8196094 C27.7194844,35.8967812 28.2691406,35.8931719 28.82275,35.8307812 C28.81725,35.8142812 28.8536875,35.814625 28.8507656,35.8055156 C28.8476719,35.7962344 28.8803281,35.7718281 28.8803281,35.7718281" id="Shape" fill="#000000" fill-rule="nonzero"></path>
                                    <path d="M27.1801406,31.6179531 C29.9985469,32.0727344 34.1697812,31.9981406 38.5,29.9707031 C38.6043281,29.9218906 38.7193125,30.0504531 38.8236406,29.9992344 C38.8236406,29.9992344 35.864125,33.022 32.3296875,34.7309531 C32.2263906,34.7807969 32.1244687,34.8339062 32.0201406,34.8813437 C31.678625,35.0374062 31.3312656,35.1733594 30.9825312,35.2988281 C30.2986406,35.5446094 29.6056406,35.7310937 28.917625,35.8172031 C28.886,35.8213281 28.854375,35.8273437 28.82275,35.8307813 C28.8183904,35.8177968 28.8140935,35.8047915 28.8098594,35.7917656 L28.8052188,35.7775 C28.8052188,35.7775 28.582125,35.6006406 28.2990469,35.2749375 C28.1672281,35.1244447 28.0445199,34.9662096 27.9315781,34.8010781 C27.7738309,34.5719684 27.6357798,34.3299047 27.5189063,34.0774844 C27.4201353,33.8643648 27.3381315,33.6438685 27.2736406,33.418 C27.1523598,32.9941251 27.0977952,32.5539553 27.1119063,32.1132969 C27.1178185,31.9510386 27.1326797,31.7892301 27.1564219,31.6286094 L27.1801406,31.6179531" id="Path" fill="#9F2254" fill-rule="nonzero"></path>
                                    <path d="M25.1600937,28.4092188 C25.5366886,28.0354923 25.9094477,27.6579205 26.2783125,27.2765625 C26.4847656,27.0631237 26.688851,26.8474074 26.8905312,26.6294531 C28.3385781,25.0576563 29.401625,23.58675 30.0411719,21.6944063 C30.056125,21.6495469 30.07125,21.5904219 30.0858594,21.5239063 L30.0927344,21.4931406 C30.1076875,21.4225 30.1222969,21.3439531 30.1369062,21.2554375 C30.14275,21.1944219 30.3340469,21.0713594 30.339375,21.014125 C30.1790156,20.1901563 29.8094844,19.3239063 29.4060937,18.6625313 C29.4070873,18.6651972 29.4080043,18.667891 29.4088437,18.6706094 L29.4011094,18.6630469 C29.3481719,18.6130313 29.293,18.5662813 29.239375,18.517125 C29.0769927,18.3671015 28.9112635,18.2207417 28.7423125,18.0781563 C28.2400439,17.652738 27.7068513,17.2652384 27.1471406,16.9188594 C27.1753281,17.3818906 27.193375,17.8444063 27.1981875,18.3064063 C27.198875,18.3583125 27.1975,18.4100469 27.1975,18.4617813 C27.1983594,18.6410469 27.198875,18.8204844 27.1954375,18.99975 C27.1909964,19.2306935 27.1828599,19.4615512 27.1710312,19.6922344 C27.1622656,19.8627344 27.1514375,20.0328906 27.1382031,20.2032188 C27.1368281,20.2209219 27.1347656,20.238625 27.1335625,20.2563281 C27.0829701,20.9007634 26.9993865,21.5421826 26.8831406,22.1780625 L26.6796406,23.1403906 C26.2545938,24.8636094 25.3912656,26.4266406 24.6814219,28.0405469 C24.4932188,28.4685156 24.3146406,28.9012969 24.1580625,29.3421563 L24.1137188,29.4665938 C24.300086,29.2699389 24.4891666,29.0758735 24.6809063,28.8844531 C24.8436719,28.7234062 25.0035156,28.5651094 25.1600938,28.4092187" id="Path" fill="#FCB03F" fill-rule="nonzero"></path>
                                    <path d="M15.8465313,37.6772344 C16.8793281,37.2203906 17.835125,36.9335313 18.9712187,36.7095781 C18.9655597,36.4635892 18.9527209,36.2178178 18.9327187,35.9725781 C19.4180517,34.7162418 19.8655863,33.4456287 20.2747187,32.1624531 C19.5509496,32.2329371 18.8317192,32.3440867 18.1204375,32.495375 C17.5932969,32.6072656 17.0732031,32.7478594 16.5574062,32.9032344 C16.1430156,33.0280156 15.734125,33.1713594 15.3285,33.3238125 L16.9322656,33.71225 L15.6418281,37.7626563 L15.8465313,37.6772344" id="Path" fill="#525353" fill-rule="nonzero"></path>
                                    <path d="M35.6742031,25.6743437 C35.3924192,25.3039493 35.1080162,24.9355547 34.8210156,24.5691875 L34.7763281,24.5126406 C34.4697288,24.1221182 34.1591343,23.7347489 33.8445937,23.3505937 C33.525105,22.960686 33.2004039,22.5750785 32.8705781,22.193875 C32.8497812,22.1696406 32.8289844,22.1450625 32.8078437,22.121 C32.5360466,21.8088248 32.2601054,21.5002818 31.9800937,21.1954531 C31.8093218,21.0091336 31.636809,20.8244172 31.4625781,20.6413281 C31.3267986,20.4995633 31.1899248,20.3588508 31.0519687,20.2192031 C30.922375,20.0870312 30.793125,19.9543437 30.6614687,19.8244062 C30.3791517,19.5452368 30.0917282,19.2712791 29.7993437,19.0026719 C29.6698076,18.8843554 29.5387128,18.7677566 29.4060937,18.6529062 C29.4053606,18.6542317 29.4047286,18.6556106 29.4042031,18.6570312 C29.6829844,19.4583125 30.001125,20.2695625 30.1604531,21.1052187 C30.201875,21.3226406 30.2360781,21.5340469 30.2639219,21.7406406 C30.6523594,24.6327812 29.7256094,26.5211719 28.2538437,29.0052812 C28.1460833,29.1868284 28.037859,29.3680998 27.9291719,29.5490937 C27.5926406,30.1104375 27.3771094,30.6417031 27.2521562,31.1406562 C27.2118431,31.3015457 27.1798888,31.4644148 27.1564219,31.6286094 C30.0427187,32.0943906 34.3829062,32.1811875 38.8236406,29.9992344 C38.8236406,29.9992344 37.95275,28.7192812 36.642375,26.9597969 C36.3489468,26.5656296 36.0536047,26.1728906 35.7563594,25.7815937 C35.7292031,25.7456719 35.7015312,25.7099219 35.6742031,25.6743438" id="Path" fill="#DF0067" fill-rule="nonzero"></path>
                                    <path d="M15.4885156,38.4865938 L16.9322656,33.71225 L15.3285,33.3238125 C14.9692812,33.4587344 14.6133281,33.6025938 14.2620156,33.759 L12.8321875,38.4865938 L14.4283906,38.5115156 L15.4885156,38.4865938" id="Path" fill="#AA9678" fill-rule="nonzero"></path>
                                    <path d="M16.5034375,36.421 C16.644375,36.4751406 16.7877187,36.5239531 16.9307187,36.5739687 C18.5687271,37.1487888 20.2922471,37.4420859 22.0281875,37.4414219 C24.0029504,37.442555 25.9594529,37.0633688 27.7908125,36.3245781 C27.885,36.2867656 27.9772969,36.2451719 28.0704531,36.2054687 C28.2215304,36.1413022 28.3715956,36.0747784 28.5205937,36.0059219 C28.653625,35.9440469 28.7866562,35.8826875 28.917625,35.8172031 C28.886,35.8213281 28.854375,35.8273437 28.82275,35.8307812 C28.2691406,35.8931719 27.7194844,35.8967812 27.1827187,35.8196094 C24.0080156,35.3631094 23.3047031,33.8325625 23.4054219,32.23825 C23.1651274,32.1000053 22.9322598,31.9492352 22.7077812,31.7865625 C20.266125,30.0152187 18.816875,28.1282031 18.816875,28.1282031 C18.816875,28.1282031 20.7004531,29.5820937 23.5137031,30.6702344 C23.5740312,30.6936094 23.6305781,30.7137187 23.689875,30.7362344 C23.8213594,30.2817969 23.9769062,29.8497031 24.1137187,29.4665937 L24.1580625,29.3421562 C24.3146406,28.9012969 24.4932187,28.4685156 24.6814219,28.0405469 C25.3912656,26.4266406 26.2545937,24.8636094 26.6796406,23.1403906 L26.8831406,22.1780625 L25.1468594,22.1780625 L25.1466875,22.1782344 L25.1468594,22.1816719 L25.1461719,22.1820156 C25.1461719,22.1866562 25.1468594,22.1912969 25.1468594,22.1962812 C25.1472679,22.609295 25.0239468,23.0129622 24.7927969,23.3552344 C24.5675035,23.6881363 24.2508112,23.9488434 23.8808281,24.1059844 C23.5585444,24.2423854 23.2068729,24.2946098 22.8588594,24.25775 C22.8421875,24.2560312 22.8262031,24.2524219 22.8097031,24.2503594 C22.7553906,24.2433125 22.7014219,24.2359219 22.649,24.2250937 C22.6342187,24.2218281 22.620125,24.2171875 22.6055156,24.21375 C22.5515469,24.201375 22.4975781,24.1879687 22.4453281,24.1712969 C22.4357031,24.1680312 22.4264219,24.1640781 22.4167969,24.1608125 C22.36025,24.1417344 22.3040469,24.1212812 22.2497344,24.0975625 C22.24475,24.0955 22.2401094,24.0929219 22.2352969,24.0906875 C22.1767167,24.0648203 22.1193638,24.0362585 22.0634219,24.0050938 L22.0608437,24.0035469 C21.8829366,23.9031664 21.7206847,23.7772793 21.57925,23.6298906 L15.631,22.1780625 L9.13928125,22.1780625 C9.1114375,22.2275625 9.0805,22.275 9.05317187,22.3246719 C9.00367187,22.4145625 8.95692187,22.5058281 8.90914062,22.5964063 C8.74960935,22.897744 8.59943343,23.2039424 8.45882812,23.5145625 C8.32735793,23.8049352 8.20424479,24.0990197 8.08964062,24.3964531 L8.07382812,24.4359844 C7.77879718,25.2122704 7.54266039,26.0096773 7.36742187,26.8214375 C8.38939062,29.9385625 10.3778125,32.6170625 12.9770781,34.5049375 C13.0527031,34.5597656 13.1324531,34.6085781 13.2091094,34.6622031 C13.6489642,34.9710374 14.1046529,35.2566819 14.5743125,35.5179688 C15.1955507,35.8635158 15.8401602,36.1652601 16.5034375,36.421" id="Path" fill="#FFFFFF" fill-rule="nonzero"></path>
                                    <path d="M32.0684375,40.1111563 C32.0268194,39.6985706 32.0052524,39.2842081 32.0038125,38.8695313 C32.0038125,38.6181448 31.8000739,38.4143293 31.5486875,38.4142344 L12.4513125,38.4142344 C12.1998983,38.4143292 11.9961105,38.618117 11.9960156,38.8695312 C11.9960156,39.2875312 11.9714375,39.7010625 11.9313906,40.1111562 C11.8868745,40.5618692 11.8180819,41.0098531 11.7253125,41.4531562 C12.0022031,41.5995937 12.2813281,41.7420781 12.5652656,41.8771719 C12.7551485,41.0485777 12.8663299,40.2038981 12.8973281,39.3543906 C12.8978437,39.3445937 12.898875,39.334625 12.8992187,39.3248281 L31.1007812,39.3248281 C31.101125,39.334625 31.1021563,39.3445937 31.1025,39.3543906 C31.1336405,40.2038964 31.2448784,41.0485679 31.4347344,41.8771719 C31.7176846,41.7417867 31.9977319,41.6004164 32.2746875,41.4531562 C32.1819445,41.0098411 32.1130952,40.5618616 32.0684375,40.1111562" id="Path" fill="#8B7460" fill-rule="nonzero"></path>
                                </g>
                            </g>
                        </g>
                        <g id="6" transform="translate(278.000000, 62.000000)">
                            <g id="Mask">
                                <use fill="black" fill-opacity="1" filter="url(#filter-8)" xlink:href="#path-7"></use>
                                <use fill="#FFFFFF" fill-rule="evenodd" xlink:href="#path-7"></use>
                            </g>
                            <g id="Logos/Magento" transform="translate(24.000000, 32.000000)" fill="#EC6737">
                                <g id="magento-2" transform="translate(8.000000, 5.000000)">
                                    <path d="M18.1065,11.3978253 L18.1065,33.0435111 L15.989875,34.3444496 L13.871625,33.0365972 L13.871625,11.4145443 L8.386875,14.8106361 L8.386875,33.3215742 L15.989875,38 L23.65725,33.288262 L23.65725,14.7988197 L18.1065,11.3978253 Z M15.989875,0 L0,9.74251963 L0,28.2558462 L4.152875,30.7161775 L4.152875,12.201091 L15.993125,4.96088868 L27.844375,12.1905316 L27.89325,12.2185642 L27.888,30.688522 L32,28.2558462 L32,9.74251963 L15.989875,0 Z" id="Shape" fill-rule="nonzero"></path>
                                </g>
                            </g>
                        </g>
                        <g id="7" transform="translate(139.000000, 338.202893)">
                            <g id="Mask-Copy-3">
                                <use fill="black" fill-opacity="1" filter="url(#filter-10)" xlink:href="#path-9"></use>
                                <use fill="#FFFFFF" fill-rule="evenodd" xlink:href="#path-9"></use>
                            </g>
                            <rect id="Rectangle" fill="#4597F7" x="25.2972973" y="32" width="45.4054054" height="48" rx="9"></rect>
                            <path d="M33.515625,58.4375 L35.6875,58.4375 C35.75,59.2265625 36.4609375,59.9296875 37.8125,59.9296875 C39.0703125,59.9296875 39.7421875,59.3671875 39.7421875,58.5390625 C39.7421875,57.8125 39.1953125,57.4609375 38.1171875,57.21875 L36.515625,56.8515625 C35.015625,56.53125 33.765625,55.6875 33.765625,53.875 C33.765625,51.78125 35.546875,50.6171875 37.8046875,50.6171875 C40.1875,50.6171875 41.7890625,51.9296875 41.8125,53.8125 L39.703125,53.8125 C39.6484375,53.0625 39.03125,52.3671875 37.796875,52.3671875 C36.703125,52.3671875 36.0234375,52.8828125 36.0234375,53.703125 C36.0234375,54.3203125 36.5234375,54.734375 37.4765625,54.9296875 L39.09375,55.2890625 C40.65625,55.625 41.9765625,56.3828125 41.9765625,58.3203125 C41.9765625,60.4140625 40.34375,61.703125 37.703125,61.703125 C34.5625,61.703125 33.546875,59.9453125 33.515625,58.4375 Z M43.6640625,50.8359375 L47.65625,50.8359375 C50.921875,50.8359375 52.4375,52.7890625 52.4375,56.1328125 C52.4375,59.5 50.8984375,61.5 47.65625,61.5 L43.6640625,61.5 L43.6640625,50.8359375 Z M45.9296875,52.6640625 L45.9296875,59.671875 L47.328125,59.671875 C49.015625,59.671875 50.1171875,58.8515625 50.1171875,56.1796875 C50.1171875,54.078125 49.40625,52.6640625 47.328125,52.6640625 L45.9296875,52.6640625 Z M62.84375,50.8359375 L59.0703125,55.4375 L63,61.5 L60.296875,61.5 L57.4140625,56.9375 L56.3671875,58.140625 L56.3671875,61.5 L54.1015625,61.5 L54.1015625,50.8359375 L56.3671875,50.8359375 L56.3671875,55.53125 L56.46875,55.53125 L60.3828125,50.8359375 L62.84375,50.8359375 Z" id="SDK" fill="#FFFFFF" fill-rule="nonzero"></path>
                        </g>
                        <g id="8" transform="translate(0.202893, 238.000000)">
                            <g id="Mask">
                                <use fill="black" fill-opacity="1" filter="url(#filter-12)" xlink:href="#path-11"></use>
                                <use fill="#FFFFFF" fill-rule="evenodd" xlink:href="#path-11"></use>
                            </g>
                            <g id="Logos/Woocommerce" transform="translate(24.000000, 32.000000)">
                                <g id="woocommerce" transform="translate(2.000000, 11.000000)">
                                    <path d="M4.08357812,0 L39.8985469,0 C42.1652344,0 44,1.84893791 44,4.13313399 L44,17.9098431 C44,20.1940392 42.1652344,22.0429771 39.8985469,22.0429771 L27.0548437,22.0429771 L28.8177656,26.3934804 L21.0646562,22.0429771 L4.10145312,22.0429771 C1.8349375,22.0429771 0.000171875,20.1940392 0.000171875,17.9098431 L0.000171875,4.13313399 C-0.017875,1.86712418 1.81671875,0 4.08357812,0 Z" id="Path" fill="#9B5C8F" fill-rule="nonzero"></path>
                                    <path d="M2.50559375,3.76715686 C2.75601563,3.42456209 3.1315625,3.24443137 3.63240625,3.20840523 C4.54471875,3.13617974 5.0634375,3.56866667 5.1885625,4.50603922 C5.74303125,8.27319608 6.351125,11.4635882 6.99496875,14.0770425 L10.912,6.56091503 C11.2698437,5.87589869 11.7170625,5.51546405 12.2536562,5.47943791 C13.0406719,5.42539869 13.5234687,5.92993791 13.7202656,6.99340196 C14.1674844,9.39052614 14.7398281,11.4273889 15.4194219,13.157683 C15.8845156,8.5795915 16.6715312,5.28112092 17.7804687,3.24443137 C18.0485937,2.73971895 18.4421875,2.48736275 18.9609062,2.4511634 C19.372375,2.41531046 19.7479219,2.54140196 20.0877187,2.81177124 C20.4275156,3.08214052 20.6064375,3.42456209 20.6421875,3.83920915 C20.6600625,4.16361765 20.6064375,4.43398693 20.4634375,4.70435621 C19.7657969,6.0021634 19.1932812,8.18313072 18.7283594,11.2110588 C18.2813125,14.1490948 18.1202656,16.4383137 18.2275156,18.0785425 C18.2634375,18.5288693 18.1917656,18.9255033 18.0130156,19.268098 C17.7981719,19.6645588 17.4764219,19.8808889 17.0649531,19.916915 C16.5998594,19.9529412 16.1170625,19.7367843 15.6519687,19.250085 C13.9885625,17.5376307 12.6649531,14.9782157 11.6991875,11.5716667 C10.5364531,13.8787255 9.6779375,15.6090196 9.12346875,16.762549 C8.06815625,18.7994118 7.17389062,19.8448627 6.422625,19.898902 C5.93965625,19.9349281 5.52835937,19.520281 5.1706875,18.6553072 C4.25854687,16.2940359 3.27473437,11.7337843 2.21959375,4.97472549 C2.14792187,4.50603922 2.25517187,4.09139216 2.50559375,3.76715686 L2.50559375,3.76715686 Z M40.9430312,6.59694118 C40.2991875,5.46142484 39.351125,4.7765817 38.0813125,4.50603922 C37.7413437,4.43398693 37.4195937,4.39796078 37.115375,4.39796078 C35.3983437,4.39796078 34.0032344,5.29913399 32.9121719,7.10165359 C31.9819844,8.63363072 31.5170625,10.3278987 31.5170625,12.1844575 C31.5170625,13.5723301 31.8032344,14.7618856 32.3755781,15.7532974 C33.0194219,16.8888137 33.9674844,17.5736569 35.2372969,17.8440261 C35.5770937,17.9162516 35.8990156,17.9522778 36.2032344,17.9522778 C37.9381406,17.9522778 39.33325,17.0511046 40.4064375,15.248585 C41.3364531,13.6984216 41.8015469,12.0041536 41.8015469,10.147768 C41.8194219,8.74188235 41.515375,7.57016667 40.9430312,6.59694118 L40.9430312,6.59694118 Z M38.6894062,11.5896797 C38.4389844,12.7792353 37.9917656,13.6623954 37.329875,14.2571732 C36.8113281,14.7258595 36.3283594,14.9240033 35.8813125,14.8339379 C35.4519688,14.7438725 35.094125,14.3654248 34.826,13.6623954 C34.6111563,13.1036438 34.5040781,12.5448922 34.5040781,12.0221667 C34.5040781,11.5716667 34.5398281,11.1209935 34.6292031,10.7065196 C34.79025,9.96746405 35.0942969,9.24642157 35.5770938,8.56157843 C36.1674844,7.6782451 36.7934531,7.31798366 37.4372969,7.44407516 C37.8666406,7.53414052 38.2244844,7.91276144 38.4926094,8.61561765 C38.7072812,9.17436928 38.8145313,9.73312092 38.8145313,10.2558464 C38.8145313,10.7245327 38.7787812,11.1750327 38.6894062,11.5895065 L38.6894062,11.5896797 Z M29.7462344,6.59694118 C29.1023906,5.46142484 28.1364531,4.7765817 26.8845156,4.50603922 C26.5447187,4.43398693 26.2227969,4.39796078 25.9185781,4.39796078 C24.2015469,4.39796078 22.8064375,5.29913399 21.715375,7.10165359 C20.7853594,8.63363072 20.3202656,10.3278987 20.3202656,12.1844575 C20.3202656,13.5723301 20.6064375,14.7618856 21.1787813,15.7532974 C21.822625,16.8888137 22.7706875,17.5736569 24.0405,17.8440261 C24.3804688,17.9162516 24.7022187,17.9522778 25.0064375,17.9522778 C26.7413437,17.9522778 28.1364531,17.0511046 29.2096406,15.248585 C30.1398281,13.6984216 30.60475,12.0041536 30.60475,10.147768 C30.60475,8.74188235 30.3185781,7.57016667 29.7462344,6.59694118 L29.7462344,6.59694118 Z M27.4747344,11.5896797 C27.2243125,12.7792353 26.7770937,13.6623954 26.115375,14.2571732 C25.5966562,14.7258595 25.1136875,14.9240033 24.6664687,14.8339379 C24.2372969,14.7438725 23.879625,14.3654248 23.6111562,13.6623954 C23.3966562,13.1036438 23.2894062,12.5448922 23.2894062,12.0221667 C23.2894062,11.5716667 23.3251562,11.1209935 23.4145312,10.7065196 C23.5755781,9.96746405 23.879625,9.24642157 24.3625937,8.56157843 C24.9528125,7.6782451 25.5787812,7.31798366 26.222625,7.44407516 C26.6519687,7.53414052 27.0098125,7.91276144 27.2779375,8.61561765 C27.4927812,9.17436928 27.5998594,9.73312092 27.5998594,10.2558464 C27.6179062,10.7245327 27.5641094,11.1750327 27.4747344,11.5895065 L27.4747344,11.5896797 Z" id="Shape" fill="#FFFFFF" fill-rule="nonzero"></path>
                                </g>
                            </g>
                        </g>
                        <g id="Button-3-Copy-3" transform="translate(116.601446, 154.601446)">
                            <g id="Oval">
                                <use fill="black" fill-opacity="1" filter="url(#filter-14)" xlink:href="#path-13"></use>
                                <use fill="#4CD964" fill-rule="evenodd" xlink:href="#path-13"></use>
                            </g>
                            <path d="M70.283458,123.296537 C99.5450492,123.296537 123.266256,99.5676288 123.266256,70.296537 C123.266256,41.0254453 99.5450492,17.296537 70.283458,17.296537 C41.0218668,17.296537 17.3006602,41.0254453 17.3006602,70.296537 C17.3006602,99.5676288 41.0218668,123.296537 70.283458,123.296537 Z" id="Oval-Copy" stroke="#4CD964" opacity="0.3" stroke-dasharray="9"></path>
                            <path d="M70.283458,140.296537 C108.930843,140.296537 140.260738,108.95647 140.260738,70.296537 C140.260738,31.6366045 108.930843,0.296537019 70.283458,0.296537019 C31.6360733,0.296537019 0.30617787,31.6366045 0.30617787,70.296537 C0.30617787,108.95647 31.6360733,140.296537 70.283458,140.296537 Z" id="Oval-Copy-2" stroke="#4CD964" opacity="0.2" stroke-dasharray="9"></path>
                            <path d="M81.9003355,76.7545792 L78.8885593,73.7418147 C78.2643461,73.1173966 77.253415,73.1173966 76.6292018,73.7418147 L75.3313848,75.0390064 C74.982498,75.3880077 74.441303,75.4521315 74.0209574,75.1935341 C72.8891769,74.5007875 70.6718539,73.0553753 69.0987106,71.4806644 C67.5255672,69.9070048 66.0806293,67.6889541 65.3881099,66.5578534 C65.1295974,66.1363187 65.1926492,65.5959973 65.5425869,65.246996 L66.839353,63.9477018 C67.4635662,63.324335 67.4635662,62.3130721 66.839353,61.688654 L63.8275769,58.6758895 C63.2033637,58.0514714 62.1924326,58.0514714 61.5682194,58.6758895 L59.7596825,60.4839687 C57.9448404,62.3004576 57.6800227,65.1492335 59.1344184,67.2663682 C60.968176,69.933285 63.4671306,73.38125 65.333465,75.2481969 C67.1997994,77.1151439 70.6476841,79.6149185 73.313726,81.4492779 C75.4280643,82.904151 78.2769565,82.6392464 80.0917986,80.8227575 L81.9003355,79.013627 C82.5245487,78.3902602 82.5245487,77.3789973 81.9003355,76.7545792" id="Fill-17" fill="#FFFFFF"></path>
                        </g>
                    </g>
                </g>
            </g>
        </g>
    </g>
</svg>