<?xml version="1.0" encoding="UTF-8"?>
<svg width="86px" height="30px" viewBox="0 0 86 30" version="1.1" xmlns="http://www.w3.org/2000/svg" xmlns:xlink="http://www.w3.org/1999/xlink">
    <!-- Generator: Sketch 54.1 (76490) - https://sketchapp.com -->
    <title>GDPR compliant - GDPR Copy 7</title>
    <desc>Created with Sketch.</desc>
    <g id="Web-Design" stroke="none" stroke-width="1" fill="none" fill-rule="evenodd">
        <g id="2e-Product-Call-Recording" transform="translate(-234.000000, -1304.000000)">
            <g id="Section-1" transform="translate(234.000000, 737.000000)">
                <g id="1" transform="translate(0.000000, 312.000000)">
                    <g id="GDPR-compliant---GDPR-Copy-7" transform="translate(0.000000, 255.000000)">
                        <g id="Content" transform="translate(0.000000, 0.500000)">
                            <g id="Group" transform="translate(0.000000, -0.000000)" fill="#EA6C00" fill-rule="nonzero">
                                <polygon id="Shape" points="14.4306338 0 14.8981352 1.51311027 16.4112631 1.51311027 15.1871978 2.44822909 15.6546991 3.96133936 14.4306338 3.02562475 13.2068113 3.96133936 13.6743936 2.44822909 12.4499237 1.51311027 13.9630516 1.51311027"></polygon>
                                <polygon id="Shape" points="14.4306338 24.8998474 14.8981352 26.4134109 16.4112631 26.4134109 15.1871978 27.3483891 15.6546991 28.8611868 14.4306338 27.9262937 13.2068113 28.8611868 13.6743936 27.3483891 12.4499237 26.4134109 13.9630516 26.4134109"></polygon>
                                <polygon id="Shape" points="20.6555552 2.26362249 21.1228806 3.7767156 22.6362249 3.7767156 21.4119036 4.71220911 21.8795528 6.22496185 20.6555552 5.28946834 19.4313149 6.22496185 19.8988831 4.71220911 18.6748856 3.7767156 20.1882298 3.7767156"></polygon>
                                <polygon id="Shape" points="25.7488677 6.55507346 26.2161549 8.0680537 27.7293755 8.0680537 26.5051543 9.00343259 26.9727652 10.5164128 25.7488677 9.58137436 24.5246465 10.5164128 24.9922574 9.00343259 23.7680362 8.0680537 25.2809331 8.0680537"></polygon>
                                <polygon id="Shape" points="25.7489082 18.6748856 26.2162049 20.188494 27.7293755 20.188494 26.5052102 21.1235526 26.9730735 22.6362249 25.7489082 21.7015068 24.5246619 22.6362249 24.9922824 21.1235526 23.7680362 20.188494 25.2812877 20.188494"></polygon>
                                <polygon id="Shape" points="3.11264281 6.55507346 3.58000639 8.0680537 5.0931506 8.0680537 3.86905303 9.00343259 4.33641661 10.5164128 3.11264281 9.58137436 1.88830241 10.5164128 2.35590882 9.00343259 1.13181125 8.0680537 2.64527923 8.0680537"></polygon>
                                <polygon id="Shape" points="26.8806385 12.4499237 27.3479352 13.9629039 28.8611868 13.9629039 27.6370215 14.8979424 28.104561 16.4112631 26.8806385 15.476565 25.6564732 16.4112631 26.1243364 14.8979424 24.8998474 13.9629039 26.4127752 13.9629039"></polygon>
                                <polygon id="Shape" points="1.98095296 12.4499237 2.44828789 13.9629039 3.96133936 13.9629039 2.73707401 14.8979424 3.2049755 16.4112631 1.98095296 15.476565 0.756606672 16.4112631 1.22426535 14.8979424 0 13.9629039 1.51329428 13.9629039"></polygon>
                                <polygon id="Shape" points="3.11276421 18.6748856 3.58009914 20.188494 5.0931506 20.188494 3.869209 21.1235526 4.336463 22.6362249 3.11276421 21.7015068 1.88849885 22.6362249 2.3560766 21.1235526 1.13181125 20.188494 2.64518646 20.188494"></polygon>
                                <polygon id="Shape" points="21.7874879 23.7680362 22.2547846 25.2809189 23.7680362 25.2809189 22.5435471 26.2164928 23.0114104 27.7293755 21.7874879 26.7943973 20.5629988 27.7293755 21.030943 26.2164928 19.8066968 25.2809189 21.3199483 25.2809189"></polygon>
                                <polygon id="Shape" points="8.205672 2.26362249 8.67292599 3.7767156 10.1863012 3.7767156 8.96203586 4.71220911 9.42993735 6.22496185 8.205672 5.28946834 6.98164946 6.22496185 7.4492272 4.71220911 6.22496185 3.7767156 7.73801332 3.7767156"></polygon>
                                <polygon id="Shape" points="7.07369889 23.7680362 7.54123842 25.2816972 9.05448996 25.2816972 7.83032466 26.2163953 8.29786419 27.7293755 7.07369889 26.7949328 5.84977638 27.7293755 6.31731591 26.2163953 5.0931506 25.2816972 6.60607842 25.2816972"></polygon>
                            </g>
                            <path d="M42,7.63895751 C42,11.0186677 44.5888353,13.1389575 47.7689478,13.1389575 C49.7824864,13.1389575 51.3325915,12.325914 52.483185,11.0664937 L52.483185,6.90562418 L47.3374753,6.90562418 L47.3374753,9.18533432 L49.7824864,9.18533432 L49.7824864,10.0780879 C49.3510138,10.4288126 48.599932,10.7157691 47.7689478,10.7157691 C46.0270772,10.7157691 44.7965814,9.37663867 44.7965814,7.63895751 C44.7965814,5.90127635 46.0270772,4.56214592 47.7689478,4.56214592 C48.7757171,4.56214592 49.5907208,5.12011693 50.0221934,5.82156621 L52.3233803,4.609972 C51.5403375,3.2867836 50.1020957,2.13895751 47.7689478,2.13895751 C44.5888353,2.13895751 42,4.25924736 42,7.63895751 Z M54.0972119,12.9476532 L54.0972119,2.31431983 L58.5717421,2.31431983 C61.9276397,2.31431983 64.3406899,4.32301548 64.3406899,7.62301548 C64.3406899,10.9230155 61.9276397,12.9476532 58.5877226,12.9476532 L54.0972119,12.9476532 Z M56.8458519,10.5563488 L58.5717421,10.5563488 C60.4414565,10.5563488 61.5281281,9.20127635 61.5281281,7.62301548 C61.5281281,5.9809865 60.5373393,4.70562418 58.5877226,4.70562418 L56.8458519,4.70562418 L56.8458519,10.5563488 Z M65.7150099,12.9476532 L65.7150099,2.31431983 L71.0524852,2.31431983 C73.4495549,2.31431983 74.759953,3.92446476 74.759953,5.85345026 C74.759953,7.76649374 73.4495549,9.34475461 71.0524852,9.34475461 L68.4636499,9.34475461 L68.4636499,12.9476532 L65.7150099,12.9476532 Z M71.9633717,5.83750823 C71.9633717,5.1041749 71.4200359,4.62591403 70.6849345,4.62591403 L68.4636499,4.62591403 L68.4636499,7.01721838 L70.6849345,7.01721838 C71.4200359,7.01721838 71.9633717,6.55489954 71.9633717,5.83750823 Z M81.9351818,12.9476532 L80.1453697,9.34475461 L78.7390888,9.34475461 L78.7390888,12.9476532 L75.9904488,12.9476532 L75.9904488,2.31431983 L81.3279241,2.31431983 C83.6930329,2.31431983 85.0353919,3.87663867 85.0353919,5.85345026 C85.0353919,7.70272563 83.9007789,8.69113142 82.9099901,9.04185606 L85.0833333,12.9476532 L81.9351818,12.9476532 Z M82.2388106,5.82156621 C82.2388106,5.08823287 81.6315529,4.62591403 80.912432,4.62591403 L78.7390888,4.62591403 L78.7390888,7.01721838 L80.912432,7.01721838 C81.6315529,7.01721838 82.2388106,6.55489954 82.2388106,5.82156621 Z" id="GDPR" fill="#2B3945"></path>
                            <text id="Ready" font-family="HelveticaNeue-Bold, Helvetica Neue" font-size="9" font-weight="bold" letter-spacing="0.225000024" fill="#2B3945">
                                <tspan x="43" y="24.8610425">READY</tspan>
                            </text>
                            <path d="M18.4579551,12.7404698 L14.0083356,17.2848111 C13.8801674,17.4157668 13.627,17.5228634 13.4456631,17.5228634 L13.0613346,17.5228634 C12.8799977,17.5228634 12.6268303,17.415408 12.4988381,17.2848111 L10.403429,15.1398289 C10.2754368,15.0088732 10.2756129,14.79468 10.4039571,14.6640831 L11.2285998,13.8238141 C11.356944,13.6928584 11.5668018,13.6928584 11.6953221,13.8234553 L13.034046,15.1846767 C13.1625663,15.315453 13.3724241,15.3152736 13.5005923,15.184318 L17.1697591,11.436833 C17.2979273,11.3060568 17.5079612,11.3053392 17.6366576,11.4355773 L18.4568988,12.265621 C18.5854191,12.3960385 18.5859473,12.6093348 18.4579551,12.7404698 L18.4579551,12.7404698 Z" id="Shape-path" fill="#309670"></path>
                        </g>
                    </g>
                </g>
            </g>
        </g>
    </g>
</svg>