<?xml version="1.0" encoding="UTF-8"?>
<svg width="85px" height="36px" viewBox="0 0 85 36" version="1.1" xmlns="http://www.w3.org/2000/svg" xmlns:xlink="http://www.w3.org/1999/xlink">
    <!-- Generator: Sketch 54.1 (76490) - https://sketchapp.com -->
    <title>GDPR compliant - GDPR Copy 7</title>
    <desc>Created with Sketch.</desc>
    <g id="Web-Design" stroke="none" stroke-width="1" fill="none" fill-rule="evenodd">
        <g id="2e-Product-Call-Recording" transform="translate(-233.000000, -1294.000000)">
            <g id="Section-1" transform="translate(234.000000, 737.000000)">
                <g id="1" transform="translate(0.000000, 312.000000)">
                    <g id="Text">
                        <g id="GDPR-compliant---GDPR-Copy-7" transform="translate(0.000000, 246.000000)">
                            <path d="M5.05577698,0 L77.5219137,0 C80.3141422,-5.12924059e-16 82.5776906,2.26354845 82.5776906,5.05577698 L82.5776906,28.6494029 C82.5776906,31.4416314 80.3141422,33.7051799 77.5219137,33.7051799 L5.05577698,33.7051799 C2.26354845,33.7051799 -5.46229047e-16,31.4416314 -8.8817842e-16,28.6494029 L0,5.05577698 C-3.41949372e-16,2.26354845 2.26354845,-3.75254361e-16 5.05577698,-8.8817842e-16 Z" id="Rectangle-" stroke="#DCDCDC" fill="#FFFFFF"></path>
                            <g id="Group" transform="translate(5.055777, 5.055777)" fill="#EA6C00" fill-rule="nonzero">
                                <polygon id="Shape" points="11.796846 0 12.179022 1.23694697 13.4159834 1.23694697 12.4153267 2.00139384 12.7975027 3.23834081 11.796846 2.4734069 10.7963879 3.23834081 11.17863 2.00139384 10.1776425 1.23694697 11.4146039 1.23694697"></polygon>
                                <polygon id="Shape" points="11.796846 20.3552851 12.179022 21.5926026 13.4159834 21.5926026 12.4153267 22.3569345 12.7975027 23.5936259 11.796846 22.8293636 10.7963879 23.5936259 11.17863 22.3569345 10.1776425 21.5926026 11.4146039 21.5926026"></polygon>
                                <polygon id="Shape" points="16.8856342 1.85048046 17.2676663 3.08741341 18.5048046 3.08741341 17.5039387 3.85216657 17.8862355 5.08882127 16.8856342 4.32406811 15.8848345 5.08882127 16.2670651 3.85216657 15.2664638 3.08741341 16.5036021 3.08741341"></polygon>
                                <polygon id="Shape" points="21.0493476 5.35868301 21.4313485 6.59552368 22.6683857 6.59552368 21.6676015 7.36018314 22.0498671 8.59702382 21.0493476 7.83264264 20.0485635 8.59702382 20.430829 7.36018314 19.4300449 6.59552368 20.6668174 6.59552368"></polygon>
                                <polygon id="Shape" points="21.0493807 15.2664638 21.4313894 16.5038181 22.6683857 16.5038181 21.6676473 17.2682157 22.0501191 18.5048046 21.0493807 17.7406853 20.0485761 18.5048046 20.4308494 17.2682157 19.4300449 16.5038181 20.6671073 16.5038181"></polygon>
                                <polygon id="Shape" points="2.54454298 5.35868301 2.92660631 6.59552368 4.16358104 6.59552368 3.162898 7.36018314 3.54496134 8.59702382 2.54454298 7.83264264 1.54366142 8.59702382 1.92592327 7.36018314 0.925240231 6.59552368 2.16247964 6.59552368"></polygon>
                                <polygon id="Shape" points="21.9745547 10.1776425 22.3565634 11.4144832 23.5936259 11.4144832 22.5928875 12.1788644 22.9750947 13.4159834 21.9745547 12.6518805 20.9738163 13.4159834 21.3562881 12.1788644 20.3552851 11.4144832 21.5920829 11.4144832"></polygon>
                                <polygon id="Shape" points="1.61940198 10.1776425 2.0014419 11.4144832 3.23834081 11.4144832 2.23752061 12.1788644 2.62002369 13.4159834 1.61940198 12.6518805 0.618515618 13.4159834 1.0008202 12.1788644 0 11.4144832 1.2370974 11.4144832"></polygon>
                                <polygon id="Shape" points="2.54464222 15.2664638 2.92668214 16.5038181 4.16358104 16.5038181 3.1630255 17.2682157 3.54499926 18.5048046 2.54464222 17.7406853 1.54382201 18.5048046 1.92606043 17.2682157 0.925240231 16.5038181 2.1624038 16.5038181"></polygon>
                                <polygon id="Shape" points="17.8109737 19.4300449 18.1929824 20.6668058 19.4300449 20.6668058 18.4290418 21.4316247 18.8115136 22.6683857 17.8109737 21.9040538 16.8099706 22.6683857 17.1925086 21.4316247 16.191704 20.6668058 17.4287665 20.6668058"></polygon>
                                <polygon id="Shape" points="6.70802476 1.85048046 7.08999851 3.08741341 8.32716208 3.08741341 7.32634188 3.85216657 7.70884496 5.08882127 6.70802476 4.32406811 5.70740306 5.08882127 6.08964147 3.85216657 5.08882127 3.08741341 6.32572018 3.08741341"></polygon>
                                <polygon id="Shape" points="5.78265221 19.4300449 6.16485939 20.6674421 7.40192185 20.6674421 6.40118344 21.431545 6.78339062 22.6683857 5.78265221 21.9044915 4.78211227 22.6683857 5.16431945 21.431545 4.16358104 20.6674421 5.40037886 20.6674421"></polygon>
                            </g>
                            <path d="M20.1449031,15.470937 L16.5073999,19.1858739 C16.4026242,19.2929284 16.1956633,19.3804784 16.0474229,19.3804784 L15.7332395,19.3804784 C15.5849991,19.3804784 15.3780382,19.2926351 15.2734064,19.1858739 L13.560438,17.4323803 C13.4558062,17.3253258 13.4559501,17.1502258 13.5608698,17.0434646 L14.2350039,16.3565562 C14.3399236,16.2495017 14.5114795,16.2495017 14.616543,16.3562629 L15.7109315,17.4690428 C15.8159951,17.5759506 15.987551,17.575804 16.0923268,17.4687495 L19.0918205,14.4052317 C19.1965962,14.2983239 19.3682961,14.2977373 19.4735036,14.4042052 L20.1440396,15.0827546 C20.2491032,15.1893691 20.249535,15.3637359 20.1449031,15.470937 L20.1449031,15.470937 Z" id="Shape-path" fill="#309670"></path>
                            <path d="M36.2330683,13.1683269 C36.2330683,15.5644815 38.0685067,17.0677294 40.32315,17.0677294 C41.7507132,17.0677294 42.8497102,16.491296 43.6654606,15.5983893 L43.6654606,12.6484066 L40.0172437,12.6484066 L40.0172437,14.2646807 L41.7507132,14.2646807 L41.7507132,14.8976271 C41.4448068,15.1462847 40.9123031,15.3497318 40.32315,15.3497318 C39.0881946,15.3497318 38.2157949,14.400312 38.2157949,13.1683269 C38.2157949,11.9363418 39.0881946,10.9869221 40.32315,10.9869221 C41.0369316,10.9869221 41.6147548,11.3825136 41.9206612,11.8798287 L43.5521619,11.0208299 C42.9969985,10.0827128 41.9773105,9.26892446 40.32315,9.26892446 C38.0685067,9.26892446 36.2330683,10.7721724 36.2330683,13.1683269 Z M44.809777,16.932098 L44.809777,9.39325323 L47.9821396,9.39325323 C50.3614115,9.39325323 52.0722213,10.8173828 52.0722213,13.1570243 C52.0722213,15.4966658 50.3614115,16.932098 47.9934694,16.932098 L44.809777,16.932098 Z M46.758514,15.2367056 L47.9821396,15.2367056 C49.3077339,15.2367056 50.0781648,14.2759833 50.0781648,13.1570243 C50.0781648,11.9928549 49.3757131,11.0886456 47.9934694,11.0886456 L46.758514,11.0886456 L46.758514,15.2367056 Z M53.0465898,16.932098 L53.0465898,9.39325323 L56.8307651,9.39325323 C58.530245,9.39325323 59.459294,10.5348174 59.459294,11.9024339 C59.459294,13.2587478 58.530245,14.3777068 56.8307651,14.3777068 L54.9953268,14.3777068 L54.9953268,16.932098 L53.0465898,16.932098 Z M57.4765674,11.8911313 C57.4765674,11.371211 57.091352,11.0321325 56.5701782,11.0321325 L54.9953268,11.0321325 L54.9953268,12.7275249 L56.5701782,12.7275249 C57.091352,12.7275249 57.4765674,12.399749 57.4765674,11.8911313 Z M64.5464039,16.932098 L63.2774589,14.3777068 L62.2804307,14.3777068 L62.2804307,16.932098 L60.3316937,16.932098 L60.3316937,9.39325323 L64.115869,9.39325323 C65.7926892,9.39325323 66.744398,10.5009096 66.744398,11.9024339 C66.744398,13.2135374 65.9399775,13.9142996 65.2375258,14.1629571 L66.7783876,16.932098 L64.5464039,16.932098 Z M64.7616714,11.8798287 C64.7616714,11.3599084 64.3311365,11.0321325 63.8212925,11.0321325 L62.2804307,11.0321325 L62.2804307,12.7275249 L63.8212925,12.7275249 C64.3311365,12.7275249 64.7616714,12.399749 64.7616714,11.8798287 Z" id="GDPR" fill="#2B3945"></path>
                            <text id="Ready" font-family="HelveticaNeue-Bold, Helvetica Neue" font-size="6.74103597" font-weight="bold" letter-spacing="0.168525899" fill="#2B3945">
                                <tspan x="36.2330683" y="25.5378489">READY</tspan>
                            </text>
                        </g>
                    </g>
                </g>
            </g>
        </g>
    </g>
</svg>