<?xml version="1.0" encoding="UTF-8"?>
<svg width="86px" height="29px" viewBox="0 0 86 29" version="1.1" xmlns="http://www.w3.org/2000/svg" xmlns:xlink="http://www.w3.org/1999/xlink">
    <!-- Generator: Sketch 54.1 (76490) - https://sketchapp.com -->
    <title>API</title>
    <desc>Created with Sketch.</desc>
    <g id="Web-Design" stroke="none" stroke-width="1" fill="none" fill-rule="evenodd">
        <g id="2a-Product-Smart-Voice-Support" transform="translate(-234.000000, -1778.000000)" fill="#121820" fill-rule="nonzero">
            <g id="Section-1" transform="translate(234.000000, 737.000000)">
                <g id="2" transform="translate(0.000000, 731.500000)">
                    <g id="Partners" transform="translate(0.000000, 223.500000)">
                        <g id="API" transform="translate(0.000000, 86.000000)">
                            <g transform="translate(0.000000, 0.119096)">
                                <g id="Cube" transform="translate(0.596154, 0.147892)">
                                    <path d="M0.030726503,22.6337895 L2.55995351e-06,9.64652665 C-0.00149161357,9.00748731 0.65136883,8.57548439 1.23895257,8.82664562 L13.0618807,13.8807343 C13.3885911,14.0203928 13.6008104,14.3410798 13.6016509,14.6963662 L13.6323748,27.6836291 C13.633869,28.3227151 12.9810086,28.754718 12.3934248,28.5035568 L0.570496688,23.4494682 C0.243786309,23.3098096 0.0315202827,22.9891227 0.030726503,22.6337895 Z" id="Path"></path>
                                    <path d="M27.5609203,8.69100268 C28.0298574,8.68983536 28.4507007,9.06706748 28.451868,9.57919545 L28.4825919,22.5664583 C28.4834324,22.9217448 28.2727072,23.2435057 27.9466506,23.3846584 L16.147816,28.4946385 C16.0314105,28.5450201 15.9121568,28.5685534 15.7960315,28.5688802 C15.3270478,28.5699541 14.9061578,28.1927687 14.9049904,27.6806874 L14.8742665,14.6933779 C14.8733793,14.3380914 15.0841512,14.0163305 15.4102546,13.8751778 L27.2090892,8.76524443 C27.3254946,8.71476938 27.4447017,8.69128284 27.5609203,8.69100268 L27.5609203,8.69100268 Z" id="Combined-Shape"></path>
                                    <path d="M14.1517869,2.3132195e-06 C14.2746827,-0.000277844316 14.3976718,0.0248896409 14.5126298,0.0755514619 L26.9517645,5.55912159 C27.6573879,5.87023654 27.6597693,6.8706324 26.9555933,7.18501585 L14.5425133,12.7274191 C14.4278355,12.7786412 14.3049397,12.804369 14.1819972,12.8046959 C14.0591015,12.804976 13.9361123,12.7798085 13.8211543,12.7291467 L1.38206637,7.24557657 C0.676396236,6.93450832 0.67406159,5.93406576 1.37819086,5.61968231 L13.7912242,0.0772791001 C13.9059487,0.026056964 14.0287978,0.000282470755 14.1517869,2.3132195e-06 Z M14.1550087,1.37585597 L2.83734469,6.42919751 L14.1787754,11.4288422 L25.4964862,6.37554735 L14.1550087,1.37585597 Z" id="Combined-Shape"></path>
                                </g>
                                <path d="M53.727,16.799892 L57.982,16.799892 L55.912,10.773892 L55.866,10.773892 L53.727,16.799892 Z M54.072,6.72589196 L57.775,6.72589196 L63.916,23.147892 L60.167,23.147892 L58.925,19.490892 L52.784,19.490892 L51.496,23.147892 L47.862,23.147892 L54.072,6.72589196 Z M69.5279999,14.453892 L72.3339999,14.453892 C72.748002,14.453892 73.1466647,14.4232256 73.5299999,14.361892 C73.9133352,14.3005583 74.2506651,14.1817262 74.5419999,14.005392 C74.8333347,13.8290577 75.0671657,13.5798936 75.2434999,13.257892 C75.4198341,12.9358904 75.5079999,12.5142279 75.5079999,11.992892 C75.5079999,11.471556 75.4198341,11.0498936 75.2434999,10.727892 C75.0671657,10.4058904 74.8333347,10.1567262 74.5419999,9.98039196 C74.2506651,9.80405775 73.9133352,9.6852256 73.5299999,9.62389196 C73.1466647,9.56255832 72.748002,9.53189196 72.3339999,9.53189196 L69.5279999,9.53189196 L69.5279999,14.453892 Z M65.9169999,6.72589196 L73.3229999,6.72589196 C74.3503384,6.72589196 75.2243297,6.87539047 75.9449999,7.17439196 C76.6656702,7.47339346 77.2521643,7.86822284 77.7044999,8.35889196 C78.1568355,8.84956108 78.4864989,9.40922215 78.6934999,10.037892 C78.900501,10.6665618 79.0039999,11.3182219 79.0039999,11.992892 C79.0039999,12.6522286 78.900501,13.3000554 78.6934999,13.936392 C78.4864989,14.5727285 78.1568355,15.1362228 77.7044999,15.626892 C77.2521643,16.1175611 76.6656702,16.5123905 75.9449999,16.811392 C75.2243297,17.1103935 74.3503384,17.259892 73.3229999,17.259892 L69.5279999,17.259892 L69.5279999,23.147892 L65.9169999,23.147892 L65.9169999,6.72589196 Z M81.8329999,6.72589196 L85.4439999,6.72589196 L85.4439999,23.147892 L81.8329999,23.147892 L81.8329999,6.72589196 Z"></path>
                            </g>
                        </g>
                    </g>
                </g>
            </g>
        </g>
    </g>
</svg>