<svg xmlns="http://www.w3.org/2000/svg" viewBox="0 0 187 29"><g fill="none" fill-rule="evenodd" transform="translate(-1 -1)"><path fill="#757575" fill-rule="nonzero" d="M133.824 12.162a9356.9 9356.9 0 0 0-1.97 4.94c-.56 1.41-1.12 2.82-1.682 4.23h-1.205c-1.207-3.037-2.412-6.068-3.616-9.092-.031-.043-.05-.093-.103-.122-.09 0-.092.058-.066.128.071 3.019.02 6.037.037 9.08h-1.378V9.662h2.02l3.654 9.396.102.01 3.65-9.409h2.05v11.657h-1.415V13.71a8.144 8.144 0 0 0 .013-1.555c0-.054 0 .022-.028-.022-.011-.018-.047.002-.063.03zM45.478 11.17l-1.072.943c-.325-.194-.617-.552-1.02-.783-2.59-1.482-6.092.075-6.7 2.997-.442 2.14.316 4.093 2.022 5.181 1.596 1.017 4.034 1.055 5.605-.47.718-.695 1.026-1.564 1.15-2.603h-4.258c-.097-.44-.048-.861-.037-1.315h5.668c.195 1.82-.122 3.472-1.455 4.826-1.483 1.505-3.321 1.884-5.316 1.543a5.9 5.9 0 0 1-4.843-4.72c-.506-2.648.554-5.15 2.766-6.53 2.213-1.382 5.601-1.075 7.311.704.057.071.1.135.18.228zM147.383 21.33h-1.342v-8.312h1.288c.147.333.009.68.098 1.043.265-.227.467-.489.736-.69 1.226-.902 3.091-.853 4.138.133.675.641.886 1.474.893 2.366.016 1.762.01 3.525.01 5.287a.902.902 0 0 1-.038.172h-1.326c-.115-.162-.07-.325-.072-.488-.013-1.627 0-3.254-.04-4.881-.026-1.02-.488-1.616-1.302-1.831a2.17 2.17 0 0 0-2.413.841 3.349 3.349 0 0 0-.578 1.994c-.011 1.301 0 2.603 0 3.905a.932.932 0 0 1-.052.46zM98.06 21.334h-1.445V11.027H93.36V9.674h7.892v1.334H98.06zM187.219 12.957v1.436c-.256.08-.44-.079-.642-.126-1.464-.343-2.462.858-2.655 1.898-.125.672-.07 1.35-.077 2.027v3.124h-1.407v-8.29h1.302c.113.354 0 .71.076 1.075 1.214-1.282 2.345-1.66 3.403-1.144zM79.041 21.336h-1.346V9.664h1.346zM117.767 13.416c0-.13.04-.273-.069-.384a3.806 3.806 0 0 0-1.316.03v1.046a2.603 2.603 0 0 1-.2-.182c-1.232-1.548-3.806-1.587-5.263-.163-1.409 1.372-1.755 3.848-.784 5.695 1.372 2.604 4.734 2.604 6.078.845a.1.1 0 0 1 .162-.031c.021.355.013.711-.022 1.065-.149 2.327-2.23 2.802-3.644 2.278-.672-.245-1.103-.753-1.419-1.422l-1.292.54c.083.37.258.711.508.995.814.996 1.899 1.388 3.157 1.386 1.258-.002 2.406-.325 3.254-1.357.669-.814.837-1.79.846-2.78.023-2.52.007-5.04.004-7.56zm-1.637 5.06a2.587 2.587 0 0 1-2.347 1.713 2.516 2.516 0 0 1-2.462-1.592 3.61 3.61 0 0 1 .072-3.104c.45-.933 1.464-1.53 2.44-1.447 1.14.096 1.903.711 2.315 1.764.161.446.237.92.222 1.394-.008.434-.09.864-.24 1.271zM75.665 13.377c0-.117.032-.244-.067-.356h-1.331v1.111c-1.448-1.931-4.416-1.79-5.783.016-1.126 1.496-1.256 3.156-.628 4.854.681 1.84 2.344 2.74 4.278 2.441.865-.133 1.544-.587 2.115-1.277.192 1.782-.313 2.955-1.465 3.417a3.005 3.005 0 0 1-1.79.143c-.855-.182-1.425-.734-1.79-1.54l-1.278.541c.039.248.136.482.283.685.787 1.19 1.931 1.683 3.322 1.694 1.29.01 2.441-.316 3.3-1.349.651-.783.832-1.725.838-2.698-.004-2.556-.004-5.112-.004-7.682zm-1.704 5.256c-.488 1.074-1.49 1.66-2.566 1.547a2.623 2.623 0 0 1-2.327-2.014 3.637 3.637 0 0 1-.116-.976c-.016-1.073.272-1.953 1.076-2.59a2.525 2.525 0 0 1 3.86.858c.521.989.545 2.166.065 3.175h.008zM171.28 13.029h-1.324v1.06c-.082-.053-.11-.061-.122-.08-1.271-1.724-4.203-1.725-5.647.092-1.139 1.435-1.334 3.718-.48 5.336 1.388 2.63 4.823 2.636 6.164.778l.063.014c.163 2.153-.563 3.028-1.576 3.396-1.403.511-2.41.103-3.531-1.415l-1.23.515c.02.247.112.483.263.679.736 1.113 1.79 1.643 3.111 1.697 1.364.054 2.586-.234 3.509-1.324.678-.803.844-1.774.85-2.775.017-2.522 0-5.044 0-7.566a.675.675 0 0 0-.05-.407zm-1.333 4.099c-.026 1.214-.416 2.242-1.567 2.813-1.627.814-3.535-.337-3.73-2.237-.072-.705-.054-1.406.253-2.072.488-1.033 1.541-1.695 2.56-1.584 1.19.098 2.167.98 2.388 2.152.076.303.109.616.096.928zM180.802 17.455c.025-.125.041-.252.05-.38a5.778 5.778 0 0 0-.03-.65c-.163-1.531-.814-2.766-2.3-3.372-1.488-.605-2.917-.478-4.168.568-1.251 1.047-1.613 2.441-1.513 4.016.184 2.93 2.842 4.719 5.784 3.671.933-.325 1.601-1.012 2.057-1.935l-1.188-.57c-1.245 1.465-2.345 1.827-3.64 1.225-.952-.441-1.695-1.668-1.533-2.575l6.481.002zm-3.877-3.417c1.264.018 2.35 1.015 2.345 2.182h-4.85c.05-1.159 1.247-2.198 2.505-2.18v-.002zM85.293 17.45h3.254c.082-.356.091-.725.026-1.085-.379-3.642-3.941-4.28-5.912-3.13-1.672.977-2.357 2.866-1.998 4.905.42 2.382 2.32 3.728 4.72 3.427 1.387-.173 2.385-.921 3.07-2.187l-1.201-.584c-1.18 1.479-2.408 1.858-3.723 1.19-.921-.468-1.645-1.732-1.426-2.536h3.19zm-.651-3.417c1.279-.01 2.426 1.032 2.374 2.185h-4.817c-.045-1.064 1.195-2.169 2.438-2.18l.005-.005zM108.231 15.925c-.01-1.062-.385-1.967-1.302-2.567-1.05-.685-2.21-.757-3.397-.498-.9.168-1.69.698-2.19 1.464.303.336.667.612 1.072.814 1.19-1.13 2.385-1.4 3.456-.781a1.89 1.89 0 0 1 .949 2.071 1.451 1.451 0 0 1-.189-.045 5.76 5.76 0 0 0-3.35-.24c-2.068.432-2.985 2.749-1.717 4.36 1.092 1.393 3.606 1.464 4.91.162.115-.117.191-.283.375-.351.09.356-.03.698.081 1.019h1.302c.003-1.836.015-3.623 0-5.408zm-4.196 4.394c-1.165-.126-1.85-1.086-1.435-2.07a1.627 1.627 0 0 1 1.192-.952 4.131 4.131 0 0 1 2.845.326c.08.047.156.102.227.162-.045 1.476-1.45 2.679-2.83 2.529v.005zM144.11 15.681a2.724 2.724 0 0 0-1.08-2.175c-1.427-1.099-3.86-1.022-5.215.162-.228.199-.475.4-.564.738.343.255.677.506 1.03.77 1.209-1.176 2.44-1.449 3.527-.813.731.436 1.12 1.302.895 2.046-.074-.02-.153-.036-.226-.062a5.76 5.76 0 0 0-3.314-.208c-2.052.46-2.94 2.676-1.73 4.316.906 1.229 3.08 1.532 4.426.627.312-.24.605-.503.877-.788.104.371-.018.716.088 1.02h1.302c-.005-1.897.02-3.765-.017-5.633zm-4.66 4.526c-.56-.196-.976-.564-1.059-1.172a1.442 1.442 0 0 1 .607-1.422c.861-.651 2.93-.547 3.743.195-.06 1.673-1.772 2.922-3.29 2.399zM161.818 16.202a5.197 5.197 0 0 0-.028-.73c-.112-.793-.437-1.481-1.085-1.976-1.346-1.03-3.622-1.027-4.995 0-.34.222-.614.533-.79.9l1.024.77c1.495-1.224 2.529-1.437 3.596-.759a1.86 1.86 0 0 1 .85 2.028 5.72 5.72 0 0 0-3.528-.29c-1.037.26-1.894.796-2.176 1.904-.281 1.108-.054 2.08.838 2.834 1.033.877 2.823.969 3.967.231a4.29 4.29 0 0 0 .92-.846c.131.386 0 .734.099 1.048h1.313c-.003-1.728-.003-3.417-.005-5.114zm-4.631 4.016c-.662-.207-1.063-.674-1.113-1.302a1.464 1.464 0 0 1 .923-1.485c1.183-.466 2.323-.295 3.428.294-.001 1.704-1.702 2.975-3.238 2.493zM56.678 16.934a4.27 4.27 0 0 0-5.403-4.068c-1.925.5-3.167 2.184-3.17 4.265l.026.436c.205 3.305 3.518 4.935 6.245 3.565 1.692-.847 2.346-2.36 2.302-4.198zm-2.004 2.156a2.766 2.766 0 0 1-3.05 1.087 2.965 2.965 0 0 1-2.086-2.714v-.285c.015-1.122.388-2.071 1.369-2.694a2.739 2.739 0 0 1 3.81.843 3.507 3.507 0 0 1-.043 3.763zM62.131 12.726c-2.468-.024-4.294 1.837-4.32 4.402-.026 2.564 1.764 4.462 4.23 4.475 2.468.013 4.313-1.828 4.332-4.355.017-2.595-1.762-4.497-4.242-4.522zm-.18 7.55a2.657 2.657 0 0 1-2.178-1.226 3.474 3.474 0 0 1 .116-3.917 2.818 2.818 0 0 1 2.942-.976 2.945 2.945 0 0 1 2.063 2.473c.021.202.03.405.04.53-.045 1.9-1.293 3.18-2.983 3.116z"/><path d="M0 0h31.242v31.242H0z"/><path fill="#8AB4F8" fill-rule="nonzero" d="M18.112 28.767l-4.97-4.847 10.675-10.902 5.147 5.044z"/><path fill="#4285F4" fill-rule="nonzero" d="M18.133 7.335L13.18 2.278 2.35 13.006a3.58 3.58 0 0 0 0 5.057l10.668 10.738 5.044-4.719-8.128-8.547 8.2-8.2z"/><path fill="#8AB4F8" fill-rule="nonzero" d="M28.892 13.09L18.153 2.35a3.58 3.58 0 0 0-5.062 5.062l10.74 10.74a3.58 3.58 0 1 0 5.061-5.063z"/><circle cx="15.54" cy="26.442" r="3.498" fill="#246FDB" fill-rule="nonzero"/></g></svg>