<?xml version="1.0" encoding="UTF-8"?>
<svg width="88px" height="17px" viewBox="0 0 88 17" version="1.1" xmlns="http://www.w3.org/2000/svg" xmlns:xlink="http://www.w3.org/1999/xlink">
    <!-- Generator: Sketch 54.1 (76490) - https://sketchapp.com -->
    <title>Shape</title>
    <desc>Created with Sketch.</desc>
    <g id="Symbols" stroke="none" stroke-width="1" fill="none" fill-rule="evenodd">
        <g id="Logos/Station-F" transform="translate(-4.000000, -40.000000)" fill="#121820" fill-rule="nonzero">
            <path d="M89.82992,46.6107951 L85.86288,46.6107951 L85.86288,49.7986506 L89.82992,49.7986506 L89.82992,46.6107951 Z M92,40.2360321 L85.86288,40.2360321 L85.86288,43.4238876 L92,43.4238876 L92,40.2360321 Z M85.42464,40.2360321 L82.24608,40.2360321 L82.24608,56.76302 L85.42464,56.76302 L85.42464,40.2360321 Z M74.13688,40.2360321 L70.95832,40.2360321 L70.95832,47.6734136 L72.05392,50.7664771 C72.60216,52.3248578 73.19352,52.9855582 74.136,52.9855582 L74.136,40.2360321 L74.13688,40.2360321 Z M67.45152,56.76302 L67.45152,49.3256385 L66.35592,46.185179 C65.80768,44.6267983 65.21632,44.0134939 64.27384,44.0134939 L64.27384,56.76302 L67.45152,56.76302 L67.45152,56.76302 Z M74.13688,56.76302 L74.13688,53.4576224 C73.36952,53.4576224 72.40504,53.1504963 71.72568,51.2148433 L67.88976,40.2360321 L64.27296,40.2360321 L64.27296,43.5414297 C65.04032,43.5414297 66.0048,43.8248578 66.68416,45.7842088 L70.52008,56.76302 L74.13688,56.76302 Z M56.79032,53.8121445 C55.89184,53.8121445 55.2556,53.0092562 55.2556,52.0414297 L55.2556,44.9585703 C55.2556,43.9907438 55.89096,43.1878555 56.79032,43.1878555 L56.79032,40 C54.204,40 52.07792,42.1716851 52.07792,44.9585703 L52.07792,52.0414297 C52.07792,54.827367 54.204,57 56.79032,57 L56.79032,53.8121445 L56.79032,53.8121445 Z M61.94096,44.9585703 C61.94096,42.1716851 59.81488,40 57.22856,40 L57.22856,43.1878555 C58.12704,43.1878555 58.76328,43.9907438 58.76328,44.9585703 L58.76328,52.0414297 C58.76328,53.0092562 58.12792,53.8121445 57.22856,53.8121445 L57.22856,57 C59.81488,57 61.94096,54.8283149 61.94096,52.0414297 L61.94096,44.9585703 Z M49.74416,40.2360321 L46.5656,40.2360321 L46.5656,56.76302 L49.74416,56.76302 L49.74416,40.2360321 Z M44.60584,40.2360321 L34.93992,40.2360321 L34.93992,43.4238876 L44.60584,43.4238876 L44.60584,40.2360321 Z M41.36216,43.8959518 L38.1836,43.8959518 L38.1836,56.7639679 L41.36216,56.7639679 L41.36216,43.8959518 Z M30.98872,54.732575 L30.41848,51.9703357 L28.48952,51.9703357 L29.476,47.3899855 C29.03776,45.4543326 28.3804,43.9897959 27.0428,43.9897959 L24.28136,56.76302 L27.48104,56.76302 L27.91928,54.732575 L30.98872,54.732575 Z M35.06488,56.76302 L31.49208,40.2360321 L27.85328,40.2360321 L27.1528,43.5414297 C28.07328,43.5414297 29.21288,44.1319839 29.82712,47.0591614 L31.8652,56.76302 L35.06488,56.76302 Z M24.45472,40.2360321 L14.7888,40.2360321 L14.7888,43.4238876 L24.45472,43.4238876 L24.45472,40.2360321 Z M21.21104,43.8959518 L18.03248,43.8959518 L18.03248,56.7639679 L21.21104,56.7639679 L21.21104,43.8959518 Z M13.64392,44.7225382 C13.5348,41.8892049 11.60584,40 9.15064,40 L9.15064,43.1878555 C9.896,43.2106056 10.46624,43.9196498 10.46624,44.9585703 L13.64392,44.7225382 Z M8.7124,53.8121445 C7.83592,53.7884465 7.17768,52.9381622 7.17768,52.0414297 L4,52.2063678 C4.088,55.0160031 6.10408,56.9990521 8.7124,56.9990521 L8.7124,53.8121445 Z M9.15064,56.9990521 C11.75896,56.9990521 13.97304,54.803669 13.97304,51.9703357 C13.97304,49.6564626 12.94256,48.0506858 10.94848,47.3425895 C10.42224,47.1539534 9.21664,46.6818891 8.7564,46.493253 C8.05504,46.2098249 7.37568,45.7605108 7.37568,44.7689863 C7.37568,43.6826698 8.09904,43.2106056 8.7124,43.1869075 L8.7124,40 C6.3012,40 4.17512,41.9356529 4.17512,44.8163823 C4.17512,46.7292852 5.0736,48.6886361 7.35368,49.5389205 C7.90192,49.7512546 8.49328,49.9872867 9.17264,50.2707148 C10.09312,50.648935 10.68536,51.2148433 10.68536,52.0888257 C10.68536,53.1751422 10.05,53.7884465 9.15064,53.8121445 L9.15064,56.9990521 Z" id="Shape"></path>
        </g>
    </g>
</svg>