<?xml version="1.0" encoding="UTF-8"?>
<svg width="87px" height="20px" viewBox="0 0 87 20" version="1.1" xmlns="http://www.w3.org/2000/svg" xmlns:xlink="http://www.w3.org/1999/xlink">
    <!-- Generator: Sketch 54.1 (76490) - https://sketchapp.com -->
    <title>france-digitale</title>
    <desc>Created with Sketch.</desc>
    <g id="Symbols" stroke="none" stroke-width="1" fill="none" fill-rule="evenodd">
        <g id="Logos/France-Digitale" transform="translate(-4.000000, -38.000000)" fill="#121820" fill-rule="nonzero">
            <g id="france-digitale" transform="translate(4.500000, 38.500000)">
                <g id="Group" transform="translate(33.086207, 0.000000)">
                    <polygon id="Path" points="4.4387931 7.32155172 4.4387931 8.61551724 8.35344828 6.37155172 10.1387931 7.35431034 10.1387931 10.4991379 12.2353448 11.7767241 12.2353448 7.35431034 8.22241379 5.11034483"></polygon>
                    <path d="M8.32068966,0 L0.131034483,4.71724138 L0.131034483,14.1353448 L8.32068966,18.8525862 L16.5103448,14.1353448 L16.5103448,4.71724138 L8.32068966,0 Z M14.0206897,12.7594828 L12.2844828,13.8405172 L8.30431034,11.4818966 L8.30431034,8.55 L4.45517241,10.7939655 L4.45517241,13.8405172 L2.6862069,12.825 L2.63706897,6.22413793 L8.28793103,2.96465517 L14.0206897,6.3387931 L14.0206897,12.7594828 Z" id="Shape"></path>
                </g>
                <g id="Group" transform="translate(0.000000, 6.060345)">
                    <polygon id="Path" points="4.06206897 1.21206897 1.22844828 1.21206897 1.22844828 2.94827586 3.61982759 2.94827586 3.61982759 4.07844828 1.22844828 4.07844828 1.22844828 7.02672414 0 7.02672414 0 0.0818965517 4.06206897 0.0818965517"></polygon>
                    <path d="M8.05862069,7.01034483 L6.68275862,4.56982759 L6.22413793,4.56982759 L6.22413793,7.01034483 L4.97931034,7.01034483 L4.97931034,0.0818965517 L6.73189655,0.0818965517 C8.40258621,0.0818965517 9.1887931,0.687931034 9.1887931,2.16206897 L9.1887931,2.52241379 C9.1887931,3.55431034 8.82844828,4.1112069 7.99310345,4.37327586 L9.51637931,7.01034483 L8.05862069,7.01034483 L8.05862069,7.01034483 Z M6.73189655,3.42327586 C7.63275862,3.42327586 7.87844828,3.11206897 7.87844828,2.45689655 L7.87844828,2.22758621 C7.87844828,1.57241379 7.71465517,1.22844828 6.74827586,1.22844828 L6.22413793,1.22844828 L6.22413793,3.43965517 L6.73189655,3.43965517 L6.73189655,3.42327586 Z" id="Shape"></path>
                    <path d="M14.8232759,7.01034483 L13.5456897,7.01034483 L13.2017241,5.78189655 L11.4163793,5.78189655 L11.0560345,7.01034483 L9.77844828,7.01034483 L11.6948276,0.0818965517 L12.9396552,0.0818965517 L14.8232759,7.01034483 Z M12.8741379,4.56982759 L12.3008621,1.99827586 L11.7275862,4.56982759 L12.8741379,4.56982759 Z" id="Shape"></path>
                    <polygon id="Path" points="19.9008621 7.01034483 18.6887931 7.01034483 16.6577586 2.62068966 16.7724138 5.25775862 16.7724138 7.02672414 15.5439655 7.02672414 15.5439655 0.0818965517 16.7724138 0.0818965517 18.8034483 4.65172414 18.6724138 1.71982759 18.6724138 0.0818965517 19.9008621 0.0818965517"></polygon>
                    <path d="M25.7318966,4.86465517 C25.7318966,6.38793103 25.0112069,7.02672414 23.3568966,7.02672414 C21.7025862,7.02672414 21.0474138,6.38793103 21.0474138,4.96293103 L21.0474138,2.14568966 C21.0474138,0.671551724 21.6862069,0.0818965517 23.3568966,0.0818965517 C25.0275862,0.0818965517 25.7318966,0.687931034 25.7318966,2.22758621 L24.487069,2.22758621 C24.487069,1.55603448 24.3232759,1.17931034 23.3568966,1.17931034 C22.4560345,1.17931034 22.2922414,1.55603448 22.2922414,2.2112069 L22.2922414,4.89741379 C22.2922414,5.55258621 22.4560345,5.92931034 23.3568966,5.92931034 C24.2577586,5.92931034 24.487069,5.55258621 24.487069,4.86465517 L25.7318966,4.86465517 Z" id="Path"></path>
                    <polygon id="Path" points="30.7603448 0.0818965517 30.7603448 1.16293103 28.0086207 1.16293103 28.0086207 2.94827586 30.3508621 2.94827586 30.3508621 4.06206897 28.0086207 4.06206897 28.0086207 5.89655172 30.875 5.89655172 30.875 7.02672414 26.7637931 7.02672414 26.7637931 0.0818965517"></polygon>
                    <path d="M54.4775862,0.0818965517 C56.1482759,0.0818965517 56.8525862,0.687931034 56.8525862,2.14568966 L56.8525862,4.97931034 C56.8525862,6.40431034 56.1318966,7.01034483 54.4775862,7.01034483 L52.2008621,7.01034483 L52.2008621,0.0818965517 L54.4775862,0.0818965517 Z M54.4775862,5.88017241 C55.3784483,5.88017241 55.6077586,5.56896552 55.6077586,4.9137931 L55.6077586,2.2112069 C55.6077586,1.55603448 55.4603448,1.21206897 54.4939655,1.21206897 L53.4293103,1.21206897 L53.4293103,5.88017241 L54.4775862,5.88017241 Z" id="Shape"></path>
                    <polygon id="Path" points="59.2112069 7.02672414 57.9663793 7.02672414 57.9663793 0.0818965517 59.2112069 0.0818965517"></polygon>
                    <path d="M62.7,3.06293103 L65.0258621,3.06293103 L65.0258621,4.86465517 C65.0258621,6.38793103 64.3051724,7.04310345 62.6508621,7.04310345 C60.9965517,7.04310345 60.3413793,6.38793103 60.3413793,4.89741379 L60.3413793,2.11293103 C60.3413793,0.704310345 60.9801724,0.049137931 62.6508621,0.049137931 C64.3215517,0.049137931 65.0258621,0.638793103 65.0258621,2.11293103 L63.7810345,2.11293103 C63.7810345,1.45775862 63.6172414,1.14655172 62.6508621,1.14655172 C61.75,1.14655172 61.5862069,1.55603448 61.5862069,2.17844828 L61.5862069,4.89741379 C61.5862069,5.55258621 61.75,5.92931034 62.6508621,5.92931034 C63.5517241,5.92931034 63.862931,5.55258621 63.862931,4.86465517 L63.862931,4.19310345 L62.6836207,4.19310345 L62.6836207,3.06293103 L62.7,3.06293103 Z" id="Path"></path>
                    <polygon id="Path" points="67.4172414 7.02672414 66.1724138 7.02672414 66.1724138 0.0818965517 67.4172414 0.0818965517"></polygon>
                    <polygon id="Path" points="72.2163793 1.21206897 70.7913793 1.21206897 70.7913793 7.01034483 69.562931 7.01034483 69.562931 1.21206897 68.1215517 1.21206897 68.1215517 0.0982758621 72.2327586 0.0982758621 72.2327586 1.21206897"></polygon>
                    <path d="M76.8353448,7.01034483 L75.5577586,7.01034483 L75.2137931,5.78189655 L73.4448276,5.78189655 L73.0844828,7.01034483 L71.8068966,7.01034483 L73.7068966,0.0818965517 L74.9353448,0.0818965517 L76.8353448,7.01034483 Z M74.8862069,4.56982759 L74.312931,1.99827586 L73.7396552,4.56982759 L74.8862069,4.56982759 Z" id="Shape"></path>
                    <polygon id="Path" points="81.4706897 7.01034483 77.5396552 7.01034483 77.5396552 0.0818965517 78.7844828 0.0818965517 78.7844828 5.88017241 81.4543103 5.88017241 81.4543103 7.01034483"></polygon>
                    <polygon id="Path" points="86.3025862 0.0818965517 86.3025862 1.16293103 83.5508621 1.16293103 83.5508621 2.94827586 85.8931034 2.94827586 85.8931034 4.06206897 83.5508621 4.06206897 83.5508621 5.89655172 86.4172414 5.89655172 86.4172414 7.02672414 82.3060345 7.02672414 82.3060345 0.0818965517"></polygon>
                </g>
            </g>
        </g>
    </g>
</svg>