<?xml version="1.0" encoding="UTF-8"?>
<svg width="88px" height="18px" viewBox="0 0 88 18" version="1.1" xmlns="http://www.w3.org/2000/svg" xmlns:xlink="http://www.w3.org/1999/xlink">
    <!-- Generator: Sketch 54.1 (76490) - https://sketchapp.com -->
    <title>zendesk-logo</title>
    <desc>Created with Sketch.</desc>
    <g id="Symbols" stroke="none" stroke-width="1" fill="none" fill-rule="evenodd">
        <g id="Logos/Zdesk-Black" transform="translate(-4.000000, -39.000000)" fill="#121820" fill-rule="nonzero">
            <g id="zendesk-logo" transform="translate(4.000000, 39.500000)">
                <path d="M58.3050821,14.4318657 C59.456571,14.4592026 60.5711068,14.0245646 61.4000879,13.2248996 L62.9346591,14.8887885 C61.7303063,16.1310403 60.0506862,16.7966093 58.3223245,16.71648 C54.5721085,16.71648 52.1495552,14.216336 52.1495552,10.836831 C52.1142273,9.27439609 52.7163691,7.76488287 53.8173866,6.65573385 C54.918404,5.54658482 56.4234456,4.93335191 57.9860982,4.95718205 C61.7104506,4.95718205 63.8226413,7.80217349 63.6329752,11.7506768 L54.8479865,11.7506768 C55.1013431,13.4230943 56.6222246,14.6026308 58.3050821,14.4318657 Z M60.986271,9.87125817 C60.9028017,8.31674722 59.5751099,7.12414035 58.020583,7.20731164 C56.4254231,7.11366831 55.0323739,8.27643031 54.8393653,9.86263699 L60.986271,9.87125817 Z" id="Shape"></path>
                <polygon id="Path" points="0 14.3111691 6.77625233 7.41422011 0.155181351 7.41422011 0.155181351 5.23306001 9.9143641 5.23306001 9.9143641 7.44008367 3.13811177 14.3370326 10.0350607 14.3370326 10.0350607 16.5095715 0 16.5095715"></polygon>
                <path d="M18.104491,14.4318657 C19.2559798,14.4592026 20.3705157,14.0245646 21.1994968,13.2248996 L22.7340679,14.8887885 C21.5297151,16.1310403 19.8500951,16.7966093 18.1217333,16.71648 C14.3715174,16.71648 11.948964,14.216336 11.948964,10.836831 C11.9136361,9.27439609 12.515778,7.76488287 13.6167954,6.65573385 C14.7178129,5.54658482 16.2228545,4.93335191 17.7855071,4.95718205 C21.5098595,4.95718205 23.6220501,7.80217349 23.432384,11.7506768 L14.6560165,11.7506768 C14.9092816,13.4194355 16.4247938,14.5977462 18.104491,14.4318657 L18.104491,14.4318657 Z M20.7856799,9.87125817 C20.6976438,8.3201795 19.371334,7.13266957 17.8199918,7.21593283 C16.2342396,7.13130194 14.8528264,8.28687105 14.6560165,9.86263699 L20.7856799,9.87125817 Z" id="Shape"></path>
                <path d="M38.0884005,10.836831 C38.0224037,9.29939158 38.5886445,7.80195034 39.6554012,6.69284906 C40.7221579,5.58374777 42.1964344,4.9596742 43.7352775,4.96580324 C45.1793749,4.9551162 46.5535013,5.58689844 47.4854935,6.69004047 L47.4854935,0 L49.8821832,0 L49.8821832,16.483708 L47.4854935,16.483708 L47.4854935,14.9318945 C46.5668283,16.0692679 45.1800441,16.7261657 43.7180351,16.71648 C42.1852458,16.7034597 40.7227543,16.0716265 39.6626646,14.9644579 C38.602575,13.8572892 38.0348469,12.3687398 38.0884005,10.836831 Z M47.6148112,10.836831 C47.6148112,8.86563227 46.0168389,7.26765995 44.0456402,7.26765995 C42.0744414,7.26765995 40.4764691,8.86563227 40.4764691,10.836831 C40.4764691,12.8080298 42.0744414,14.4060021 44.0456402,14.4060021 C46.0168389,14.4060021 47.6148112,12.8080298 47.6148112,10.836831 Z" id="Shape"></path>
                <path d="M65.1330616,14.0956394 L67.2969793,12.9317793 C67.8792665,13.9743276 68.991314,14.6083606 70.1850767,14.5784258 C71.5386029,14.5784258 72.236919,13.8801097 72.236919,13.0869606 C72.236919,12.2938115 70.9264987,11.9834488 69.5040029,11.6903285 C67.5814784,11.2851327 65.5986056,10.6557861 65.5986056,8.32806585 C65.5986056,6.54348031 67.3228428,4.87959138 69.9609258,4.87959138 C71.7527467,4.771741 73.4723804,5.60055874 74.5042909,7.06937266 L72.4955546,8.24185398 C71.9324821,7.405502 70.9770775,6.9196478 69.969547,6.95729724 C68.6849903,6.95729724 68.0297801,7.58664383 68.0297801,8.31082347 C68.0297801,9.03500311 69.0643225,9.34536581 70.6937266,9.70745563 C72.5472817,10.1126514 74.6422299,10.7247556 74.6422299,13.0697182 C74.6422299,14.6301529 73.2887037,16.7251012 70.0816224,16.7078588 C68.0681854,16.8555769 66.1469707,15.8414165 65.1330616,14.0956394 L65.1330616,14.0956394 Z" id="Path"></path>
                <polygon id="Path" points="80.8753475 11.4747988 78.9786866 13.5525047 78.9786866 16.4923292 76.5819968 16.4923292 76.5819968 0 78.9786866 0 78.9786866 10.7937251 84.0565652 5.17271171 86.9705261 5.17271171 82.5651 10.0091972 87.0739804 16.483708 84.3755491 16.483708"></polygon>
                <path d="M30.9673007,4.96580324 C28.1223093,4.96580324 25.7428619,6.81935827 25.7428619,9.88850054 L25.7428619,16.483708 L28.1826576,16.483708 L28.1826576,10.1902421 C28.0959711,9.40095578 28.3647369,8.613992 28.9161188,8.04262047 C29.4675006,7.47124893 30.2443984,7.17463983 31.0362702,7.2331752 C32.8467193,7.2331752 33.7433227,8.34530822 33.7433227,10.1902421 L33.7433227,16.483708 L36.2089819,16.483708 L36.2089819,9.88850054 C36.2089819,6.81935827 33.8122922,4.96580324 30.9673007,4.96580324 Z" id="Path"></path>
            </g>
        </g>
    </g>
</svg>