<svg xmlns="http://www.w3.org/2000/svg" viewBox="0 0 49 25"><g fill="none" fill-rule="nonzero"><path fill="#FEE463" d="M13.773 24.04H.523c.045-.817.06-1.636.133-2.45.16-1.71.535-3.393 1.116-5.013 1.457-4.121 3.897-7.588 7.337-10.36 4.073-3.281 8.765-5.03 14.025-5.309a23.43 23.43 0 0 1 4.606.214c2.856.414 5.557 1.284 8.081 2.662 4.216 2.3 7.448 5.546 9.661 9.746 1.735 3.293 2.573 6.805 2.58 10.51H34.461c.18-.05.361-.095.54-.148 2.454-.736 3.907-3.319 3.26-5.796-.638-2.44-2.997-3.918-5.516-3.457-1.92.351-3.46 1.896-3.778 3.793a5.615 5.615 0 0 0-.012 1.622h7.08v-1.31H30.57c.047-.226.074-.426.132-.616.528-1.71 2.606-2.434 4.135-1.785 1.476.628 2.284 2.312 1.793 3.903-.412 1.333-1.31 2.206-2.76 2.385-1.112.138-2.011-.31-2.729-1.14a.441.441 0 0 0-.286-.138c-.44-.014-.88-.007-1.32-.005a1.627 1.627 0 0 0-.17.016c.44 1.064 1.453 1.995 2.634 2.417.286.102.584.172.875.259H24.91c.01-.02.022-.038.03-.058l3.888-8.986c.024-.056.04-.115.067-.198-.546 0-1.065.007-1.584-.003-.176-.004-.268.04-.337.215-.311.796-.643 1.584-.968 2.376a4377.57 4377.57 0 0 1-1.725 4.209c-.027.065-.088.116-.136.172l-.132-.177a6023.668 6023.668 0 0 1-2.677-6.613c-.052-.13-.113-.189-.268-.184-.418.013-.836.005-1.254.005h-.424c.037.09.057.143.08.196l3.874 8.805c.028.079.051.159.07.24H15.4a.685.685 0 0 1 .112-.043c1.473-.32 2.587-1.106 3.29-2.425.033-.06.06-.125.1-.211-.096-.006-.167-.012-.237-.013-.396 0-.793.01-1.189-.005-.18-.006-.289.055-.405.188-.786.901-1.778 1.3-2.98 1.058-1.466-.297-2.534-1.608-2.583-3.144-.058-1.8 1.174-3.109 2.738-3.318 1.289-.173 2.685.541 3.196 1.7.124.281.176.593.274.929h-5.489c0 .378.003.732 0 1.09-.002.178.076.225.253.225 2.223-.005 4.445-.005 6.668 0 .05 0 .1-.007.16-.011l.035-.325c.34-3.323-2.784-5.903-6.055-5-2.236.618-3.716 2.848-3.402 5.124.276 1.999 1.629 3.565 3.515 4.073.124.034.247.072.37.108z"/><path fill="#252120" d="M13.773 24.04c-.124-.037-.247-.075-.371-.109-1.888-.508-3.239-2.074-3.516-4.072-.314-2.276 1.167-4.507 3.402-5.124 3.272-.905 6.396 1.674 6.055 4.996l-.036.325c-.06.005-.11.011-.16.011H12.48c-.176 0-.256-.047-.253-.224.004-.356 0-.712 0-1.09h5.489c-.097-.337-.15-.647-.274-.93-.51-1.158-1.907-1.872-3.196-1.7-1.564.209-2.796 1.518-2.738 3.319.049 1.535 1.117 2.844 2.584 3.143 1.201.243 2.193-.157 2.98-1.058.116-.132.224-.194.404-.187.397.014.793.004 1.189.005.07 0 .14.007.238.012-.04.086-.067.15-.1.212-.704 1.318-1.818 2.105-3.291 2.424a.685.685 0 0 0-.111.043l-1.628.003zM32.876 24.04c-.292-.087-.589-.16-.875-.26-1.182-.421-2.196-1.353-2.634-2.416.056-.009.113-.014.17-.017.44 0 .88-.009 1.32.006.11.009.212.058.286.137.716.83 1.615 1.279 2.73 1.141 1.45-.18 2.347-1.052 2.758-2.385.492-1.589-.316-3.275-1.792-3.9-1.528-.65-3.61.075-4.135 1.783-.059.19-.085.39-.132.616h5.464v1.311h-7.081a5.615 5.615 0 0 1 .012-1.622c.318-1.897 1.858-3.442 3.778-3.793 2.519-.46 4.878 1.018 5.515 3.457.647 2.475-.806 5.058-3.26 5.794-.176.053-.36.098-.54.147h-1.584z"/><path fill="#242020" d="M23.412 24.04a1.974 1.974 0 0 0-.072-.24c-1.289-2.935-2.58-5.87-3.873-8.805-.024-.053-.044-.106-.08-.197h.424c.418 0 .836.009 1.254-.004.155-.005.216.054.269.184a2413.766 2413.766 0 0 0 2.676 6.613l.132.177c.044-.058.109-.11.136-.173.578-1.401 1.153-2.804 1.725-4.209.324-.79.656-1.58.969-2.375.068-.173.16-.218.336-.216.519.011 1.038.004 1.585.004-.029.083-.044.142-.068.198l-3.886 8.986c-.008.02-.02.038-.03.057h-1.497z"/></g></svg>