<svg xmlns="http://www.w3.org/2000/svg" viewBox="0 0 55 35"><g fill="none" fill-rule="nonzero"><path fill="#B3B2B1" d="M7.26 34.181c0-1.546.005-3.091.013-4.636 0-.396.028-.79.033-1.178 0-.156.061-.236.217-.222h36.824c.144 0 .212.071.212.236 0 1.864.024 3.73.033 5.595a.654.654 0 0 1-.042.158H7.608c-.08.009-.16.027-.236.054l-.111-.007zm3.395-2.524c-.061-.106-.099-.165-.134-.236-.272-.504-.54-1.013-.82-1.515a.828.828 0 0 0-.195-.175c-.05.074-.128.14-.142.22a67.98 67.98 0 0 0-.337 1.94c-.05.31-.09.624-.14.942.116 0 .19.021.262.024.442 0 .437 0 .496-.439.038-.292.09-.584.135-.874.236.362.453.737.651 1.122.062.088.136.167.22.235.08-.07.152-.149.214-.235.206-.375.4-.757.598-1.136.083.306.147.617.19.93.076.42.081.413.523.401.184 0 .236-.05.21-.254-.151-.81-.277-1.626-.423-2.44a2.672 2.672 0 0 0-.165-.445c-.115.115-.218.24-.31.375-.278.514-.542 1.02-.833 1.56zm21.755-.332A1.583 1.583 0 0 0 34 32.932a1.606 1.606 0 1 0-.025-3.21 1.59 1.59 0 0 0-1.565 1.603zm-8.026.014a1.623 1.623 0 0 0 1.612 1.59 1.6 1.6 0 1 0 1.121-2.743 1.607 1.607 0 0 0-2.733 1.153zm-1.943.294l.135-.084a.912.912 0 0 0 .472-1.052.965.965 0 0 0-.963-.723h-1.133c-.18 0-.255.066-.255.25v2.592c0 .236.118.267.302.255.184-.012.427.059.427-.26v-.707a.678.678 0 0 1 .102-.235c.083.045.198.07.236.139.127.207.236.431.34.65.215.432.41.507.944.328l-.607-1.153zm18.594-1.19h.985c.247 0 .304-.118.302-.332-.003-.215-.04-.347-.293-.342h-1.473c-.198 0-.267.073-.264.266v2.574c0 .191.063.271.262.267.472 0 .963-.012 1.444 0 .255 0 .326-.109.326-.342 0-.234-.08-.347-.33-.337-.317.014-.635 0-.959 0v-.57h.803c.26 0 .257-.173.262-.357.005-.183 0-.337-.265-.325-.264.012-.521 0-.8 0v-.502zm-26.395 0c.363 0 .694-.012 1.022 0 .236 0 .279-.122.27-.318-.01-.196.032-.368-.258-.36-.489.014-.982 0-1.47 0-.2 0-.268.07-.265.263v2.574c0 .191.056.274.257.269.491 0 .982-.012 1.473 0 .257 0 .264-.14.262-.328-.002-.188.019-.363-.264-.351-.335.017-.673 0-1.018 0v-.57h.812c.262 0 .236-.165.236-.34 0-.174.029-.35-.236-.34-.264.013-.54 0-.823 0l.002-.499zm15.107 1.306h.472a.988.988 0 0 0 .045-1.973c-.32-.014-.642 0-.963 0-.184 0-.25.07-.248.252v2.593c0 .264.156.255.335.25.18-.005.376.045.362-.25-.015-.295.007-.556.007-.872h-.01zM17.85 30.443v2.16c0 .3.175.275.37.275.197 0 .376.023.367-.276-.017-.613 0-1.225 0-1.838 0-.1 0-.198.014-.32h.45c.237 0 .267-.152.267-.34 0-.189-.028-.337-.271-.335h-1.652a.288.288 0 0 0-.215.09.37.37 0 0 0 .342.575l.328.01zm19.932 1.763v-2.168c0-.278-.158-.274-.349-.264-.191.01-.39-.06-.387.254v2.593c0 .203.087.26.274.255.441 0 .885-.012 1.326 0 .253 0 .27-.135.265-.323-.005-.189.023-.37-.26-.356-.283.014-.543.01-.86.01h-.009zm-23.21-2.66l.684-.298c.146-.063.271-.122.158-.332-.113-.21-.222-.19-.385-.087-.162.103-.269.172-.41.235-.213.12-.258.257-.038.481h-.01z"/><path fill="#F8B020" d="M.236 15.684c.094-.47.208-.942.276-1.414.158-1.1.314-2.199.423-3.3.052-.52-.017-1.05-.017-1.578a2.214 2.214 0 0 1 1.91-2.164c.59-.075 1.119.236 1.18.823.086.794.117 1.593.092 2.392-.019.825-.101 1.65-.193 2.474-.107.943-.253 1.9-.38 2.85a.31.31 0 0 0 0 .07c1.18-.372 2.091-1.178 3.012-1.958.864-.73 1.692-1.504 2.596-2.19.437-.332.944-.688 1.575-.532.944.236 1.362.917 1.078 1.845-.302.988-.96 1.73-1.756 2.336-.873.667-1.8 1.268-2.717 1.885-.994.665-1.992 1.327-3.005 1.961a4.83 4.83 0 0 1-.97.382c-.453.16-.902.333-1.367.448-.465.116-.816-.047-1.08-.51a5.65 5.65 0 0 1-.605-2.073 1.325 1.325 0 0 0-.061-.203l.01-1.544z"/><path fill="#D8D7D7" d="M7.374 34.181c.077-.027.156-.045.236-.054h36.93a.417.417 0 0 1 0 .054H7.375z"/><path fill="#0D68A6" d="M50.385 15.847c0 1.577-.33 2.703-1.274 3.564-.536.49-1.093.975-1.856 1.122-.228.08-.452.174-.668.282a9.165 9.165 0 0 1-1.206.356 2.263 2.263 0 0 0-1.102.472.782.782 0 0 0-.237.363c-.328 1.117-1.144 1.121-1.888.796a3.471 3.471 0 0 1-.39-.235 1.044 1.044 0 0 1-.472-.771c-.126-.5-.283-.99-.472-1.469-.042-.122-.103-.235-.134-.37a4.71 4.71 0 0 0-.59-1.414 5.453 5.453 0 0 1-.416-1.133c-.137-.401-.25-.809-.399-1.205-.099-.259-.236-.502-.368-.752a6.861 6.861 0 0 1-.34-.707c-.335-.916-.668-1.833-.977-2.76-.142-.426-.213-.876-.335-1.31-.262-.924-.5-1.855-.81-2.762-.406-1.193.347-1.72 1.16-1.886.213-.033.432-.033.646 0a.757.757 0 0 1 .725.637c.236.853.387 1.74.734 2.545.347.806.583 1.65.852 2.472.125.385.255.766.396 1.144a.99.99 0 0 0 .187.235c.068-.078.172-.146.203-.235a3.018 3.018 0 0 1 1.496-1.671c1.327-.686 2.691-1.155 4.223-.543.425.15.814.385 1.143.691.205.203.458.36.663.582.326.377.593.8.793 1.256.427.842.67 1.764.713 2.706zm-7.79.349a3.24 3.24 0 0 0 1.006 1.867c.399.381.885.683 1.416.537.791-.215 1.528-.58 1.835-1.447.041-.143.102-.28.179-.408a1.69 1.69 0 0 0 .286-1.593c-.175-.53-.324-1.066-.69-1.502a1.028 1.028 0 0 0-1.126-.398c-.91.24-1.725.75-2.337 1.464a2.254 2.254 0 0 0-.573 1.48h.004z"/><path fill="#16AAC3" d="M21.327 16.894c-.03.4-.083.798-.16 1.192-.298 1.179-1.417 1.862-2.694 1.584-.944-.203-1.855-.49-2.78-.74-.472-.13-.928-.16-1.308.236a.678.678 0 0 0-.142.888c.472.778 1.034 1.504 1.924 1.838.46.186.973.19 1.435.012.427-.208.91-.27 1.377-.177.644.168.944.762.658 1.358-.147.253-.32.49-.514.707-.057.073-.15.118-.208.191-.498.606-1.18.834-1.924.943-.27.033-.545.008-.805-.073-1.201-.356-2.167-1.117-3.132-1.886a.53.53 0 0 1-.102-.134c-.401-.646-.81-1.29-1.197-1.945a2.168 2.168 0 0 1-.311-1.623c.3-1.202.682-2.386 1.024-3.578.134-.47.427-.88.829-1.16.814-.598 1.626-1.178 2.634-1.435a5.598 5.598 0 0 1 2.4-.167 3.373 3.373 0 0 1 2.855 2.828c.068.377.094.754.141 1.14zm-4.154-1.549c-.288.026-.692.085-1.096.094a1.18 1.18 0 0 0-.963.601.532.532 0 0 0 .267.832 9.424 9.424 0 0 0 2.771.625.562.562 0 0 0 .432-.177c.247-.365.302-.827.147-1.24-.227-.542-.657-.759-1.558-.735z"/><path fill="#DE308A" d="M27.649 9.146c-.036.88-.104 1.671-.095 2.461.017 1.454.022 2.91.177 4.363.083.78 0 1.579.036 2.357.045 1.11.127 2.215.189 3.323 0 .259 0 .52-.015.78-.033.582-.052 1.164-.12 1.742a2.725 2.725 0 0 1-.869 1.73c-.6.551-1.208.537-1.765-.048a2.891 2.891 0 0 1-.786-2.731c.3-1.363.188-2.708 0-4.068a2.984 2.984 0 0 1 .087-.976c.236-1.122.038-2.234-.035-3.35-.04-.59-.022-1.178 0-1.77a46.01 46.01 0 0 1 .16-2.856c.019-.235-.052-.488-.05-.733 0-.381.029-.763.055-1.143.019-.235.08-.471.087-.707.021-.921.963-1.38 1.598-1.34.321.018.51.26.67.513.423.75.655 1.593.676 2.453z"/><path fill="#AC5A9E" d="M50.687 5.743c-.335-.318-.649-.63-.977-.919-.687-.608-.725-1.362-.489-2.168.32-1.096 1.44-1.917 2.609-2.03 1.605-.155 2.8 1.217 3.019 2.525.116.67.034 1.358-.236 1.982-.534 1.27-1.483 2.156-2.597 2.894-.425.277-.866.53-1.322.754-.51.255-.963.047-1.347-.292-.345-.306-.373-.719-.265-1.148.108-.304.318-.562.595-.728.354-.278.817-.439 1.01-.87z"/><path fill="#ADB925" d="M36.597 23.38c.08.905-.399 1.258-1.012 1.49a3.58 3.58 0 0 1-.76.2 1.022 1.022 0 0 1-1.117-.597 3.545 3.545 0 0 1-.328-1.414 12.617 12.617 0 0 0-.335-2.163c-.276-1.085-.682-2.145-.69-3.277.01-.712.082-1.422.218-2.12a1.67 1.67 0 0 1 .458-.764 1.013 1.013 0 0 1 1.695.174c.212.384.371.796.472 1.223.304 1.212.592 2.43.845 3.656.212 1.04.37 2.09.543 3.14.017.15.02.3.011.452z"/><path fill="#ADB926" d="M30.687 11.282c.011-.764.33-1.49.883-2.018a.446.446 0 0 1 .269-.118c.28-.023.564-.03.847-.03.772 0 1.211.344 1.379 1.1a2.354 2.354 0 0 1-.215 1.697 1.823 1.823 0 0 1-2.08.854c-.472-.128-.694-.512-.944-.846-.125-.158-.1-.422-.14-.64z"/><path fill="#FDFDFD" d="M10.655 31.657c.29-.54.555-1.046.834-1.544.09-.134.194-.26.309-.374.068.143.123.292.165.445.146.813.272 1.629.423 2.44.037.204-.026.25-.21.254-.442.012-.447.019-.522-.4a7.419 7.419 0 0 0-.191-.932c-.199.38-.392.762-.598 1.136a1.354 1.354 0 0 1-.214.236 1.212 1.212 0 0 1-.22-.236c-.198-.385-.415-.76-.651-1.122-.045.29-.097.583-.135.875-.059.445-.054.448-.496.438-.073 0-.146-.014-.262-.023.05-.33.09-.644.14-.943.108-.648.217-1.294.337-1.94.014-.08.092-.146.142-.22.074.048.14.107.196.175.278.502.547 1.011.819 1.516.035.054.064.113.134.219zM32.41 31.325a1.587 1.587 0 0 1 1.597-1.578 1.587 1.587 0 0 1 1.58 1.594 1.611 1.611 0 0 1-1.586 1.591 1.587 1.587 0 0 1-1.591-1.607zm2.445 0a.869.869 0 0 0-.88-.877.925.925 0 0 0-.866.881.91.91 0 0 0 .901.872.857.857 0 0 0 .845-.876zM24.382 31.339a1.607 1.607 0 0 1 2.733-1.152 1.6 1.6 0 0 1-1.121 2.743 1.63 1.63 0 0 1-1.612-1.591zm2.476-.019a.874.874 0 0 0-1.505-.6.873.873 0 0 0 .65 1.481.901.901 0 0 0 .855-.881zM22.44 31.633l.61 1.179c-.538.179-.734.104-.944-.328-.11-.219-.212-.443-.34-.65-.042-.069-.158-.095-.236-.14a.678.678 0 0 0-.101.236c-.014.236 0 .472 0 .707 0 .319-.236.248-.427.26-.192.012-.305-.021-.303-.255V30.05c0-.184.076-.253.255-.25h1.133c.451-.013.851.287.963.723a.912.912 0 0 1-.472 1.052l-.139.058zm-.669-1.277c-.13.05-.328.064-.375.156-.173.339.012.608.384.608.373 0 .598-.13.602-.361.005-.23-.21-.358-.611-.403z"/><path fill="#FBFBFB" d="M41.035 30.443v.519h.8c.26 0 .27.136.265.325-.005.189.023.37-.262.356-.286-.014-.524 0-.803 0v.57h.959c.25 0 .33.097.33.337 0 .24-.07.35-.326.342-.472-.014-.963 0-1.444 0-.199 0-.265-.075-.262-.266v-2.574c0-.193.066-.271.264-.266h1.473c.253 0 .293.132.293.341 0 .21-.055.342-.302.333-.32-.03-.638-.017-.985-.017z"/><path fill="#FCFCFC" d="M14.64 30.443v.519h.824c.269 0 .236.167.236.34 0 .171.023.35-.236.339-.26-.012-.527 0-.812 0v.57h1.017c.283 0 .262.165.264.351.003.186 0 .335-.262.328-.49-.014-.982 0-1.473 0-.2 0-.26-.078-.257-.269v-2.574c0-.193.066-.268.265-.264.488 0 .982.012 1.47 0 .29 0 .25.18.257.36.008.182-.02.328-.269.32-.33-.034-.66-.02-1.024-.02z"/><path fill="#FDFDFD" d="M29.757 31.749v.877c0 .278-.187.235-.362.25-.174.014-.337.014-.335-.25.012-.868 0-1.735 0-2.593 0-.181.064-.257.248-.252h.963a.988.988 0 0 1-.045 1.973l-.47-.005zm0-.639c.273 0 .547.08.708-.198a.37.37 0 0 0-.02-.33c-.176-.235-.433-.125-.681-.118l-.007.646z"/><path fill="#FBFBFB" d="M17.86 30.443h-.324a.37.37 0 0 1-.342-.575.288.288 0 0 1 .215-.09h1.652c.236 0 .272.144.272.335 0 .191-.024.347-.267.34h-.451c0 .122-.014.221-.014.32 0 .613-.014 1.226 0 1.839 0 .299-.17.275-.366.275-.196 0-.378.026-.37-.275.004-.715-.005-1.42-.005-2.169z"/><path fill="#FAFAFA" d="M37.792 32.206h.876c.278 0 .255.172.26.356.004.184-.013.33-.265.323-.442-.014-.885 0-1.327 0-.186 0-.276-.052-.274-.255v-2.592c0-.314.208-.248.388-.255.179-.007.354-.014.349.264-.014.696-.007 1.4-.007 2.16z"/><path fill="#FBFBFB" d="M14.58 29.545c-.219-.224-.174-.36.048-.471.142-.073.276-.158.41-.236.135-.078.28-.113.386.087.106.2 0 .27-.159.333l-.684.287z"/><path fill="#FDFDFE" d="M42.59 16.196c.007-.547.211-1.073.577-1.48a4.625 4.625 0 0 1 2.337-1.464c.422-.121.874.039 1.126.398.365.436.514.971.689 1.502a1.69 1.69 0 0 1-.286 1.593 1.712 1.712 0 0 0-.18.408c-.306.867-1.042 1.232-1.833 1.447-.538.146-1.025-.156-1.417-.537a3.24 3.24 0 0 1-1.012-1.867z"/><path fill="#FCFDFE" d="M17.173 15.345c.901-.028 1.331.189 1.558.735.155.413.1.875-.147 1.24a.562.562 0 0 1-.432.177 9.424 9.424 0 0 1-2.77-.625.533.533 0 0 1-.268-.832 1.18 1.18 0 0 1 .963-.6c.409-.005.808-.064 1.096-.095z"/><path fill="#B4B3B2" d="M34.855 31.325a.855.855 0 0 1-.845.876.91.91 0 0 1-.901-.872.925.925 0 0 1 .866-.881.872.872 0 0 1 .88.877zM26.858 31.32a.874.874 0 0 1-1.309.766.874.874 0 1 1 .866-1.52c.272.154.44.442.443.754z"/><path fill="#B9B8B7" d="M21.771 30.356c.401.045.616.174.611.403-.004.229-.217.36-.602.36-.384 0-.557-.268-.384-.607.047-.083.245-.106.375-.156z"/><path fill="#B7B6B5" d="M29.768 31.11v-.646c.248 0 .506-.117.683.118a.37.37 0 0 1 .019.33c-.154.278-.428.198-.702.198z"/></g></svg>