<svg xmlns="http://www.w3.org/2000/svg" viewBox="0 0 49 26"><defs><linearGradient id="a" x1="0%" x2="99.873%" y1="105.842%" y2="105.842%"><stop offset="0%" stop-color="#7C2270"/><stop offset="24.719%" stop-color="#AA147E"/><stop offset="81.461%" stop-color="#E41D25"/><stop offset="100%" stop-color="#E41D25"/></linearGradient></defs><path fill="url(#a)" fill-rule="nonzero" d="M.881 24.94C.347 24.919 0 24.674 0 24.15V.776C0 .368.294 0 .747 0h41.996c.377 0 .678.034.855.529 0 0 4.257 13.234 4.332 13.473.158.5.055.754-.374 1.025C33.878 23.735 13.425 25 4.135 25c-1.332 0-2.432-.027-3.254-.06zM26.758 6.893c.78-.906 2.158-1.313 3.879-1.313.799 0 1.564.077 2.182.231l2.916 9.056h8.59l-.532-1.679h-6.116l-.885-2.745h5.132l-.522-1.62h-5.131l-1.337-4.181c-.512-.273-2.573-.867-4.852-.867-3.526 0-6.014 1.67-6.402 4.156-.005.037-.034.049-.079.049-.043 0-.07-.009-.084-.05L22.24 3.972h-2.578c-.842 3.125-2.412 6.083-3.994 8.332L14.1 7.471c-.012-.038-.033-.048-.077-.048s-.073.008-.087.048c-.236.686-.522 1.168-1.426 1.835l1.798 5.56h2.404c1.963-2.42 3.567-5.384 4.347-7.638l2.45 7.638h2.24l-.767-2.387c-.013-.041.02-.05.066-.05.03 0 .08 0 .128.05 1.528 1.636 3.887 2.563 6.599 2.563.876 0 1.769-.047 2.506-.16l-.605-1.76c-.596.075-1.26.115-1.903.115-3.059 0-5.344-1.475-5.69-3.809-.146-.978.087-1.856.674-2.536zm-14.482 6.303a8.26 8.26 0 0 1-1.793.24c-1.405.031-2.955-.303-3.254-1.184-.253-.744.798-1.13 2.34-1.87 1.968-.944 4.42-2.072 3.431-4.135-.835-1.743-2.921-2.548-6.143-2.475-1.715.039-3.725.65-4.7 1.1l.788 1.694c1.325-.663 3.008-1.047 4.357-1.08 1.557-.034 2.629.293 2.955.981.421.889-.775 1.567-2.289 2.28-1.906.898-4.107 1.988-3.331 3.925.654 1.635 3.2 2.406 6.016 2.342.876-.02 1.4-.09 2.134-.223l-.51-1.595z" transform="matrix(1 0 0 -1 .75 25.5)"/></svg>