<svg xmlns="http://www.w3.org/2000/svg" viewBox="0 0 55 34"><g fill="none" fill-rule="nonzero"><path fill="#201C1D" d="M27.695.837c.087.023.174.04.261.07.487.174.741.543.823 1.033.039.228.032.462.056.693.054.502.307.962.704 1.277.435.37.89.72 1.345 1.068.52.382.989.83 1.392 1.334.668.86 1.1 1.88 1.25 2.958.174 1.232.042 2.425-.506 3.55-.87 1.781-2.271 2.935-4.217 3.349-2.16.46-4.06-.11-5.638-1.646a5.706 5.706 0 0 1-1.716-3.48c-.224-1.858.253-3.521 1.46-4.967.387-.466.864-.831 1.335-1.203.41-.323.825-.638 1.219-.98.453-.383.706-.951.685-1.542-.006-.24.034-.478.12-.702.153-.415.519-.716.957-.789a.306.306 0 0 0 .053-.02l.417-.003zm-.196 14a4.612 4.612 0 0 0 4.272-2.866 4.575 4.575 0 0 0-1.06-5.017 4.629 4.629 0 0 0-5.069-.91 4.589 4.589 0 0 0-2.755 4.33c.07 2.485 2.115 4.463 4.612 4.462z"/><path fill="#201B1C" d="M0 21.522c.947 0 1.894-.012 2.84.008.645 0 1.264.249 1.729.693.358.343.597.791.682 1.28.124.58.053 1.185-.203 1.721-.343.704-.926 1.106-1.684 1.26a4.047 4.047 0 0 1-.766.074c-.828.01-1.654 0-2.485.004-.038 0-.076.006-.113.01v-.5h.45v-4.07H0v-.48zm1.47 4.087c.522-.013 1.044 0 1.566-.048a1.281 1.281 0 0 0 1.033-.667c.177-.328.245-.704.194-1.073-.068-.687-.536-1.219-1.225-1.3-.513-.057-1.034-.031-1.55-.042-.006 0-.012.007-.02.012l.002 3.118zM54.993 22.475h-1.788v4.07h-1.01v-4.07h-1.792v-.953h4.59z"/><path fill="#FBFBFB" d="M0 21.997h.45v4.07H0z"/><path fill="#201B1C" d="M47.075 23.552v.958h-2.737v1.083h3.05v.962h-4.065v-5.033h3.958v.953h-2.944v1.076zM12.383 21.522v.953H9.437v1.08h2.733v.96H9.439v1.078h3.046v.963H8.42v-5.034z"/><path fill="#211C1D" d="M33.336 26.56h-1.044a.15.15 0 0 1-.101-.078l-.546-1.085a.122.122 0 0 0-.125-.08H29.4a.118.118 0 0 0-.125.078c-.174.365-.352.727-.536 1.088-.015.031-.053.073-.08.073-.349.005-.697 0-1.059 0 .1-.205.192-.397.286-.587l2.144-4.36c.02-.062.083-.1.148-.091.195.006.39 0 .585.004.04.005.077.027.1.06a1072.82 1072.82 0 0 1 2.419 4.865l.054.112zm-3.541-2.22h1.331l-.672-1.332-.66 1.333zM20.89 21.508l-2.77 5.711c-.921-1.905-1.838-3.8-2.76-5.71h.782c.11 0 .243-.03.324.02.081.05.104.181.15.277l1.5 3.104.275-.562c.442-.914.883-1.83 1.323-2.744a.144.144 0 0 1 .156-.098c.336.006.669.002 1.02.002z"/><path fill="#201B1C" d="M40.265 25.587v.966h-4.022v-5.03h.998v4.06zM24.921 26.577h-1.004v-5.074h1.004z"/><path fill="#252021" d="M31.58 32.787c.03.025.056.046.08.07a.107.107 0 0 1 .01.158.098.098 0 0 1-.156.009c-.07-.078-.13-.062-.214-.023a.685.685 0 0 1-.842-.23.69.69 0 0 1 .087-.865.714.714 0 0 1 .902-.043.67.67 0 0 1 .174.841c-.01.027-.025.053-.04.083zm-.185-.159a.474.474 0 0 0-.123-.611.428.428 0 0 0-.56.053.485.485 0 0 0-.026.61.416.416 0 0 0 .547.103c-.051-.044-.101-.086-.148-.129a.109.109 0 0 1-.01-.165.103.103 0 0 1 .157 0c.053.04.104.087.163.14z"/><path fill="#231E1F" d="M12.055 32.133v.767c0 .08-.021.141-.11.143-.09.002-.122-.062-.122-.145 0-.333 0-.666.005-.997a.196.196 0 0 1 .077-.15.15.15 0 0 1 .19.061c.19.249.382.494.573.74.012.016.026.03.05.059.005-.04.01-.065.01-.087v-.633c0-.082.023-.15.118-.149.095.001.114.063.114.142v1.019c0 .061-.01.131-.081.135a.22.22 0 0 1-.16-.06c-.2-.244-.391-.496-.584-.745l-.08-.1zM7.272 32.134v.764c0 .08-.02.142-.109.145-.09.003-.123-.06-.123-.145 0-.331 0-.664.005-.997a.197.197 0 0 1 .075-.148.148.148 0 0 1 .192.058c.184.243.373.483.56.723l.063.078c.004-.04.01-.065.01-.087v-.634c0-.087.022-.15.116-.15s.116.069.116.151v.998c0 .064 0 .128-.08.15a.148.148 0 0 1-.174-.067l-.58-.748a.46.46 0 0 0-.071-.09zM44.728 32.165V32.944c-.005.071-.05.117-.115.1-.041-.01-.101-.064-.102-.1a30.364 30.364 0 0 1 0-1.091c0-.035.045-.097.07-.097a.256.256 0 0 1 .174.05c.118.13.22.275.33.414.098.133.205.26.32.38v-.73c0-.078.038-.13.118-.128.08.003.112.054.112.133v1.008c0 .067 0 .135-.08.16-.082.023-.131-.019-.175-.078-.164-.215-.33-.428-.497-.64l-.127-.162-.028.002z"/><path fill="#241F20" d="M24.049 33.055a.654.654 0 0 1-.674-.663.661.661 0 0 1 .688-.667.669.669 0 0 1 .575.338.662.662 0 0 1-.007.666.67.67 0 0 1-.582.326zm.435-.665a.434.434 0 0 0-.87.03.434.434 0 0 0 .435.426.436.436 0 0 0 .44-.456h-.005z"/><path fill="#262122" d="M36.008 32.392v-.433c0-.187.022-.213.206-.21.149-.005.298.002.446.02.32.05.547.336.522.656a.635.635 0 0 1-.609.607c-.142.01-.284.006-.427.005-.103 0-.141-.042-.143-.148.005-.166.005-.332.005-.497zm.242.433c.103 0 .196.005.29 0a.433.433 0 0 0 .096-.845 2.91 2.91 0 0 0-.386-.03v.875z"/><path fill="#221D1E" d="M16.52 32.545l.22.275c.05.063.095.129.02.2-.056.052-.137.027-.203-.056-.065-.083-.148-.173-.211-.27a.21.21 0 0 0-.225-.107.97.97 0 0 1-.143 0v.314c0 .081-.022.14-.112.141-.09.001-.12-.052-.12-.135V31.88c0-.087.041-.136.132-.136.167 0 .334-.005.5 0 .313.014.493.25.414.533a.398.398 0 0 1-.271.268zm-.539-.152c.147-.007.285-.006.42-.025.104-.01.18-.1.175-.203a.177.177 0 0 0-.167-.192c-.14-.014-.281 0-.425 0l-.003.42zM42.086 32.546c.075.094.15.186.221.278.073.092.075.163.013.2-.08.047-.142.016-.195-.055-.067-.086-.145-.173-.205-.26a.23.23 0 0 0-.249-.12.874.874 0 0 1-.129 0v.32c0 .086-.027.137-.116.136-.089-.002-.115-.058-.115-.14v-1.017c0-.094.04-.142.137-.142.163 0 .327-.005.49 0 .315.012.494.24.42.527a.398.398 0 0 1-.272.273zm-.541-.152c.149-.008.287-.007.424-.026a.193.193 0 0 0 .169-.195.18.18 0 0 0-.17-.2 4.062 4.062 0 0 0-.423 0v.421z"/><path fill="#241F20" d="M9.65 32.515h-.246c-.064 0-.12-.03-.105-.096a.155.155 0 0 1 .1-.104c.118-.009.237-.009.355 0a.119.119 0 0 1 .122.129c0 .114.005.228 0 .346a.182.182 0 0 1-.056.117c-.261.21-.756.238-1.012-.068a.7.7 0 0 1 .106-.969.755.755 0 0 1 .824-.033c.069.045.113.1.063.18-.05.079-.12.059-.19.014-.2-.126-.42-.115-.566.028a.494.494 0 0 0-.074.594.453.453 0 0 0 .64.125c.036-.023.03-.11.04-.166a.594.594 0 0 0-.002-.097zM14.538 31.953v.33h.482c.08 0 .165 0 .163.107-.001.107-.087.102-.158.101h-.485v.34h.44a.787.787 0 0 1 .196.004.16.16 0 0 1 .098.096c.014.062-.03.106-.099.106h-.761a.108.108 0 0 1-.117-.119V31.87c0-.086.05-.123.134-.123h.71c.072 0 .126.023.126.104 0 .08-.054.103-.125.103h-.604zM18.332 31.953v.33h.331a.867.867 0 0 1 .208 0c.049.013.09.049.108.096.015.066-.038.106-.108.107h-.537v.34h.629c.064 0 .116.032.105.097-.007.04-.054.104-.087.104-.261.008-.528.01-.792 0-.036 0-.096-.078-.096-.12a25.86 25.86 0 0 1 0-1.04.116.116 0 0 1 .133-.126h.72c.068 0 .118.03.12.1.003.07-.048.109-.122.108l-.612.004zM34.032 31.953v.33h.472c.08 0 .174-.01.18.102.008.11-.092.108-.173.107h-.475v.34h.637c.055 0 .114.041.099.104-.009.039-.06.096-.093.097-.261.008-.515.007-.773 0a.106.106 0 0 1-.11-.114v-1.06c0-.078.049-.117.13-.116h.72c.075 0 .124.036.121.11-.002.074-.05.1-.121.1h-.614zM47.983 32.49v.34h.563c.032 0 .072-.012.087 0 .038.027.082.068.087.106a.125.125 0 0 1-.087.092c-.26.008-.522.006-.783 0a.105.105 0 0 1-.106-.117v-1.048a.111.111 0 0 1 .123-.124h.73c.072 0 .118.035.119.103 0 .067-.05.107-.125.106h-.61v.33h.471c.087 0 .188-.014.187.104 0 .119-.106.103-.19.103l-.466.005z"/><path fill="#231E1F" d="M10.615 31.953v.33h.502c.079 0 .147.013.148.104 0 .091-.07.106-.147.105h-.503v.34h.558c.032 0 .072-.012.092 0 .037.026.087.066.087.105a.127.127 0 0 1-.087.092c-.262.008-.529.009-.792 0-.034 0-.093-.07-.094-.11a28.606 28.606 0 0 1 0-1.058.106.106 0 0 1 .119-.115h.741a.104.104 0 1 1 0 .208h-.624z"/><path fill="#241F20" d="M37.91 31.953v.33h.501c.078 0 .147.01.146.105 0 .095-.07.104-.147.104h-.497v.34h.59c.079 0 .148.014.15.104 0 .089-.07.105-.148.105h-.678c-.125 0-.152-.028-.152-.154v-.986c0-.122.029-.151.144-.152h.69c.076 0 .134.022.132.107-.002.086-.064.104-.138.103-.194-.006-.39-.006-.594-.006z"/><path fill="#221D1E" d="M26.296 32.21c.008.139.008.277 0 .415a.477.477 0 0 1-.48.433c-.414.014-.614-.173-.614-.588v-.53c0-.148.031-.204.117-.201.086.002.112.055.112.196 0 .187-.004.374 0 .562.01.26.181.397.418.336a.266.266 0 0 0 .218-.26c.011-.179.008-.359.01-.539v-.173a.11.11 0 0 1 .115-.12.108.108 0 0 1 .114.12v.353l-.01-.003z"/><path fill="#241F20" d="M21.506 32.96c-.027.025-.056.073-.087.075a.174.174 0 0 1-.13-.052.691.691 0 0 1-.088-.186.095.095 0 0 0-.107-.073 7.085 7.085 0 0 1-.47 0 .097.097 0 0 0-.109.07c-.022.062-.05.122-.077.181a.109.109 0 0 1-.157.058.095.095 0 0 1-.046-.139c.163-.363.323-.727.493-1.085a.166.166 0 0 1 .14-.074c.062.015.113.055.143.11.16.336.31.677.463 1.018.01.024.017.052.032.097zm-.649-.947l-.215.5h.435l-.22-.5zM42.903 33.048c-.098-.011-.14-.048-.127-.126a.421.421 0 0 1 .033-.087c.146-.324.292-.648.436-.972.033-.072.07-.135.163-.136.094 0 .132.06.165.133.142.321.289.64.435.961.012.029.036.06.032.087-.006.043-.02.107-.049.12-.028.012-.094-.008-.14-.02-.015-.005-.028-.033-.031-.052-.04-.21-.174-.26-.367-.23-.094.009-.188.009-.281 0a.092.092 0 0 0-.106.071 1.01 1.01 0 0 1-.08.18.34.34 0 0 1-.083.071zm.505-1.04l-.217.5h.435c-.074-.16-.142-.322-.221-.496l.003-.003zM27.282 33.053a.786.786 0 0 1-.443-.128c-.068-.043-.121-.097-.07-.173.053-.076.122-.059.19-.01.102.08.23.12.36.109.087-.009.174-.032.191-.14.018-.107-.06-.146-.142-.173-.096-.03-.194-.052-.29-.087-.217-.071-.296-.179-.284-.375.012-.174.133-.301.338-.34a.712.712 0 0 1 .49.088c.067.038.102.092.062.162-.039.07-.101.062-.174.032a1.113 1.113 0 0 0-.273-.087.175.175 0 0 0-.21.127c-.017.114.066.151.15.179.085.027.181.047.27.077.226.073.318.196.298.389-.021.192-.162.322-.383.346-.025.006-.053.004-.08.004z"/><path fill="#231E1F" d="M33.273 32.22v.331c-.015.307-.214.5-.51.504-.363.006-.571-.157-.591-.483-.015-.238-.007-.478-.006-.717a.107.107 0 0 1 .119-.117.107.107 0 0 1 .114.12v.644c.005.253.188.39.426.326a.288.288 0 0 0 .216-.295 13.22 13.22 0 0 0 0-.644c0-.086.023-.15.115-.151.092-.002.119.065.116.149v.332h.001z"/><path fill="#241F20" d="M46.79 33.055a.637.637 0 0 1-.641-.445.686.686 0 0 1 .234-.761.734.734 0 0 1 .821 0c.066.047.099.107.05.173-.049.066-.12.06-.19.01-.225-.156-.472-.124-.617.077a.482.482 0 0 0 .087.652c.148.106.347.109.498.007.026-.016.05-.05.076-.052.05 0 .12-.005.143.025a.143.143 0 0 1-.013.14.57.57 0 0 1-.449.174zM22.506 33.057a.61.61 0 0 1-.592-.347.66.66 0 0 1 .06-.724.641.641 0 0 1 .666-.246c.104.025.203.065.295.12a.115.115 0 0 1-.01.208.116.116 0 0 1-.122-.02.464.464 0 0 0-.348-.105.424.424 0 0 0-.357.334.472.472 0 0 0 .174.498c.152.102.351.1.5-.007.02-.014.038-.041.058-.042.05 0 .114-.011.147.015.053.041.038.104-.011.153a.651.651 0 0 1-.46.163z"/><path fill="#211C1D" d="M40.125 31.957v.346h.51c.078 0 .144.015.143.108 0 .092-.07.106-.147.105h-.509v.387c0 .086-.029.145-.123.143-.095-.003-.11-.065-.11-.144v-1.007c0-.113.035-.147.15-.148h.687c.077 0 .135.023.135.107 0 .084-.06.106-.136.106l-.6-.003z"/><path fill="#231E1F" d="M28.743 31.957v.946c.003.04-.01.08-.036.11a.135.135 0 0 1-.12.018.173.173 0 0 1-.07-.123c-.006-.27 0-.54 0-.81v-.141h-.29c-.073 0-.127-.023-.127-.102-.001-.08.047-.111.121-.11h.825c.074 0 .123.034.123.108s-.05.107-.126.104c-.098-.002-.191 0-.3 0z"/><path fill="#252021" d="M17.54 32.393v.508c0 .081-.024.14-.111.143-.087.002-.12-.06-.12-.145v-1.018c0-.08.023-.141.11-.143.089-.002.124.06.122.145-.001.17 0 .34 0 .51zM6.262 32.392v-.52c0-.078.028-.13.11-.134.08-.004.122.05.122.133v1.04c0 .08-.034.137-.122.135-.088-.003-.11-.056-.11-.134v-.52z"/><path fill="#211C1D" d="M13.513 32.399v-.52c0-.087.028-.14.114-.141.086-.002.119.053.118.137v1.027c0 .08-.025.14-.113.14-.09 0-.12-.061-.119-.146.002-.166 0-.331 0-.497zM29.85 32.385v.52c0 .08-.026.138-.115.139-.089 0-.12-.056-.12-.137v-1.028c0-.081.032-.14.117-.141.085-.002.119.056.118.138v.509z"/><path fill="#262122" d="M10.778 31.628c.05-.086.105-.167.166-.245.053-.06.127-.032.174.014.014.013-.008.086-.035.115-.074.074-.139.18-.305.116z"/><path fill="#FCFCFC" d="M27.5 14.836c-2.53.004-4.59-2.02-4.62-4.536-.03-2.516 1.981-4.587 4.51-4.643 2.527-.056 4.63 1.924 4.712 4.439a4.584 4.584 0 0 1-1.295 3.338 4.63 4.63 0 0 1-3.308 1.402zm4.034-4.59c0-2.213-1.797-4.009-4.02-4.02-2.223-.01-4.037 1.769-4.059 3.981-.022 2.212 1.756 4.027 3.979 4.06a4.055 4.055 0 0 0 2.895-1.158 4.016 4.016 0 0 0 1.205-2.865v.002z"/><path fill="#FDFDFD" d="M1.47 25.606v-3.112c.008-.005.014-.012.019-.012.517.01 1.038-.016 1.55.042.69.078 1.157.607 1.225 1.3.05.368-.018.742-.195 1.07-.209.383-.6.633-1.037.663-.515.046-1.037.036-1.562.049z"/><path fill="#FCFCFC" d="M29.795 24.34l.659-1.332.672 1.333zM31.395 32.628c-.06-.052-.111-.099-.163-.143a.103.103 0 0 0-.158 0 .109.109 0 0 0 .01.166c.048.044.098.086.149.129a.416.416 0 0 1-.547-.103.485.485 0 0 1 .025-.61.428.428 0 0 1 .56-.054c.191.145.244.408.124.615zM24.488 32.39a.432.432 0 0 1-.435.456.442.442 0 0 1-.435-.454c0-.24.195-.433.435-.433s.435.194.435.433v-.002zM36.253 32.826v-.876c.129.001.257.01.385.029a.433.433 0 0 1-.096.845c-.093.007-.186.002-.289.002z"/><path fill="#F9F9F9" d="M15.981 32.393v-.424c.144 0 .286-.01.425 0a.179.179 0 0 1 .167.192.194.194 0 0 1-.174.204c-.133.022-.271.02-.418.028zM41.545 32.394v-.425c.141-.007.283-.007.424 0a.181.181 0 0 1 .169.201.193.193 0 0 1-.17.195c-.136.022-.274.02-.423.03z"/><path fill="#F8F8F8" d="M20.857 32.013l.219.5h-.435c.072-.165.137-.326.216-.5zM43.405 32.012l.216.5h-.435l.219-.5z"/><path fill="#211C1D" d="M31.534 10.244c0 2.22-1.808 4.02-4.039 4.02-2.23 0-4.04-1.799-4.04-4.019s1.807-4.02 4.038-4.021c1.072 0 2.1.423 2.857 1.177a4.012 4.012 0 0 1 1.184 2.843zm-5.83 1.846a.234.234 0 0 0 .038.008c.682 0 1.364 0 2.046-.01.385.002.762-.117 1.077-.338.516-.368.73-.886.73-1.504 0-1.033-.74-1.81-1.78-1.84-.687-.019-1.377-.006-2.065-.006a.202.202 0 0 0-.044.01v.294h.331v3.086h-.333v.3z"/><path fill="#FDFDFD" d="M25.704 12.09v-.297h.333V8.704h-.33V8.41a.202.202 0 0 1 .043-.01c.688 0 1.378-.013 2.066.006 1.039.03 1.78.807 1.78 1.84 0 .618-.215 1.136-.731 1.504-.315.221-.692.34-1.077.339-.682.012-1.364.008-2.046.01a.234.234 0 0 1-.038-.01zm1.079-.701c.348 0 .696.012 1.035 0a1.05 1.05 0 0 0 .774-.352c.19-.217.248-.479.261-.758.028-.581-.317-1.059-.893-1.144-.385-.057-.783-.04-1.177-.057v2.311z"/><path fill="#211C1D" d="M26.783 11.389V9.077c.397.016.792 0 1.177.057.576.086.921.562.893 1.143-.013.28-.071.541-.26.758a1.05 1.05 0 0 1-.775.352c-.344.017-.687.002-1.035.002z"/></g></svg>