<svg xmlns="http://www.w3.org/2000/svg" viewBox="0 0 58 14"><g fill="none" fill-rule="nonzero"><path fill="#4DA8B8" d="M49.162 8c-.133-.171-.498-.062-.668.048-.17.11-.414.255-.632.292-.22.048-.34.012-.34.012s.34-1.532.498-2.176c.158-.645.595-2.322.425-2.626-.17-.304-1.216-.717-1.665-.681-.462.036-.718.608-.754.912 0 0-.997-.401-2.456.85-1.592 1.374-1.848 2.712-1.872 2.98a2.16 2.16 0 0 0 .012.607s-.523.523-1.021.462c-.498-.073-.28-.851-.146-1.264.134-.414 1.119-2.359.948-2.979-.17-.62-1.118-1.24-2.224-.583-1.107.656-1.471 1.35-1.63 1.41-.157.06.256-.851.329-1.01.073-.157.365-.558-.024-.765-.39-.219-1.01-.316-1.277-.194-.255.121-.887 1.24-1.13 2.236-.244.997-.39 2.493-.39 2.493s-.376.534-.85.534c-.487 0-.438-.425-.34-.911.096-.499.729-2.262.826-2.736.097-.474.316-1.203-.766-1.227-1.07-.025-1.422.85-1.739 1.993C31.96 6.82 31.985 8 31.985 8s-.243.316-.851.51c-.608.195-.73.086-.73.086s.79-.462 1.058-2.577c.28-2.116-.498-2.225-1.046-2.334-.547-.11-1.142.085-1.653.57-.51.487-.644.803-.644.645.012-.158.182-.73.377-1.094.133-.255.012-.571-.632-.644-.645-.073-.827.134-1.204.887-.377.766-.875 2.529-.997 3.185-.121.669-.207 1.204-.207 1.204s-.4.425-.765.207c-.365-.22-.207-.973.121-1.751.328-.778 1.228-2.529.049-3.16-1.18-.633-2.736.996-2.736.996s.17-.924-.85-1.094c-1.01-.17-1.836.583-2.14.863-.34.316-.657.79-.657.632 0-.158.317-.875.402-1.094.097-.219.218-.45-.499-.705-.717-.255-1.106-.049-1.325.28-.219.328-.547 1.167-.717 1.993-.17.84-.353 2.456-.353 2.456s-.462.547-.887.547c-.414 0-.535-.194-.401-.766.133-.559.656-2.832.741-3.221.085-.377.316-.827-.158-1.143-.474-.316-1.422-.499-1.507-.219-.098.267-.134.474-.134.474s-.766-.365-1.8.049c-.996.401-1.798 1.276-2.321 2.443a6.311 6.311 0 0 0-.438 1.617s-1.374 1.094-2.577.632C5.3 8.011 5.41 6.261 5.653 5.52c.23-.73.9-1.374 1.592-1.41.475-.024.462.365.462.365s-1.118.766-.765 1.228c.364.462 1.337.644 1.823.23.499-.413 1.459-2.93-1.422-2.917-2.87.012-3.94 2.614-3.842 4.121.085 1.3.62 1.848.62 1.848s-.097.219-.401.134c-.498-.134-1.058-.912-2.018-.827-.96.097-1.495 1.045-1.617 1.18 0 0-.121.133-.049.23.073.085.159.049.256-.048.097-.086.62-.56 1.094-.535.474.012 1.13.741 1.945.705.814-.037.973-.657.973-.657s.522.73 2.054.766c1.544.049 2.93-1.07 2.918-1.057-.012.012.28 1.057 1.665 1.106 1.386.048 2.006-1.277 2.006-1.277s.012 1.13 1.18 1.192c1.166.06 1.993-.803 1.993-.803s.146.608.863.73c.717.121.766-.195.802-.401.037-.207.268-1.423.426-1.994.158-.572.571-1.775 1.35-2.03.777-.256.62.267.267 1.35-.34 1.081-.754 2.309-.535 2.71.219.39 1.629.742 1.763.219.133-.523.194-1.653.547-2.602.34-.96.85-1.41 1.07-1.556.218-.146 1.009-.45.705.401-.304.851-.973 2.456-.803 3.076.17.62.985 1.07 1.763.936.778-.134.973-.34.973-.34s-.292 2.613.17 3.513c.462.9 1.361.948 1.835.815.487-.134.34-.56.17-1.447-.17-.888-.267-2.59.05-4.389.315-1.799 1.422-3.148 1.957-2.869.534.28-.013 1.897-.158 2.237-.146.34-.292.973-.766 1.01-.474.036-.754-.098-.84.194-.084.28 0 .911.596 1.094.596.182 1.569.219 2.237.012.669-.207 1.483-.754 1.483-.754s.05.778.827.9c.778.121 1.459-.195 1.897-.499.437-.291.462-.364.462-.34.012.024.145.875 1.02.839.876-.037.584-.219.706-.936.121-.717.304-2.067.887-2.82.584-.754 1.13-.888 1.362-.767.219.122-.195 1.119-.377 1.52-.17.401-.96 2.152.097 2.796 1.058.644 2.334-.194 2.48-.292.146-.109.547-.4.547-.389 0 .013.499.876 1.508.96.997.086 1.896-.79 1.896-.765.012.024-.17 2.504-.766 3.1-.595.583-1.507.146-1.872-.571-.364-.718-.352-.79-.608-.815-.255-.012-1.313.644-1.276 1.155.049.498.705 1.726 2.747 1.787 2.055.049 2.906-2.127 3.027-2.383.122-.255.608-1.811.608-1.811s.608-.049 1.277-.523c.68-.474.802-.985.668-1.155zm-36.434-.256c-.316.68-1.033.827-1.398.486-.377-.34-.121-1.884.462-2.735.584-.851 1.289-1.3 1.726-.973 0-.012-.474 2.541-.79 3.222zm32.435.194c-.292.693-.997.851-1.386.535-.39-.328-.182-1.884.377-2.76.559-.875 1.24-1.337 1.69-1.033 0-.012-.39 2.565-.681 3.258z"/><path fill="#4DA9B9" d="M34.051 2.54c.22.122.766.268.973.037.207-.23.535-.997.705-1.191.17-.195.766-.62 0-1.01-.766-.388-1.13-.376-1.325-.34-.195.037-.754.317-.827 1.155-.085.84.183 1.192.474 1.35"/><path fill="#4DA8B8" d="M46.695 12.801c-.037.073-.061.304.255.401.316.098.377-.23.352-.364-.024-.134-.218-.207-.389-.183-.121.025-.182.073-.218.146M57.842 12.436c-.048-.048-.133.013-.243.098-.11.085-.668.328-.997.206-.328-.121-.766-.51-1.167-.486-.4.037-.571.195-.717.304-.146.11-.413.316-.547.255-.134-.06-.06-.352.036-.571.098-.219.377-.839-.012-.948-.389-.11-.826.377-.826.377s.085-.34-.256-.39c-.34-.048-.753.353-.863.499-.11.146.037-.243.061-.28.024-.048.134-.182.036-.243-.085-.048-.328-.121-.413-.073-.097.049-.243.34-.292.523-.048.182-.133.669-.133.669s-.073.012-.158 0c-.086-.012-.11-.061-.11-.061s.195-.45-.024-.802c-.219-.353-.523-.158-.523-.158s-.134-.11-.352-.061c-.231.048-.596.304-.742.693-.146.389-.11.668-.11.668s-.534.377-.887.195c-.352-.183-.316-.705-.255-.875.06-.183.413-.645.656-.304 0 .012-.304.218-.267.316.036.11.316.182.401.158.134-.037.365-.268.255-.596-.121-.353-.474-.34-.814-.267-.255.06-1.082.522-.839 1.385.17.596.742.633 1.228.511.34-.085.596-.267.596-.267s.133.291.522.352c.39.06.742-.207.9-.413.158-.207.182-.268.182-.268s.025.049.146.073c.122.025.195 0 .195 0s-.049.34.109.499c.146.146.365.085.401.036.025-.06.11-.73.243-.96.134-.231.231-.353.39-.401.157-.049.157.06.133.146a17.5 17.5 0 0 1-.23.802c-.062.207-.074.389.06.45.134.06.377.06.413.012.037-.049.037-.17.049-.219.012-.049.073-.596.255-.863.17-.255.365-.34.45-.28.085.049 0 .22-.122.596-.121.365-.218.596.085.766.304.158.657-.049.912-.255.256-.207.353-.292.56-.122.206.17.814.474 1.3.486.474.012 1.07-.389 1.216-.571.122-.255.158-.292.11-.34zm-7.172.122c-.11.207-.304.328-.45.316-.146-.012-.328-.182-.207-.73.122-.546.56-.644.56-.644-.22.365.206.62.206.62s.025.195-.11.438z"/><path fill="#F4C245" d="M49.77 6.407s-1.215-.025-1.24 1.458c-.024 1.484 1.568 2.019 3.064 2.043 1.495.024 2.808-.888 2.844-1.945.037-1.058-1.02-1.447-1.787-2.2-.316-.305-1.009-.973-.85-1.399.157-.425.777-.486.96-.194.182.292.51 1.021 1.057 1.057.547.05.985-.705.584-1.252-.401-.559-.985-.911-2.237-.863-1.24.049-2.127.73-2.164 1.63-.036.887 1.07 1.628 1.69 2.26.596.62.632 1.094.401 1.398-.292.39-.924.547-1.568.268-.644-.28-.316-.62-.195-.669.122-.048.73-.34.523-.839-.194-.498-.547-.705-1.082-.753"/></g></svg>