<svg xmlns="http://www.w3.org/2000/svg" xmlns:xlink="http://www.w3.org/1999/xlink" viewBox="0 0 20 14"><defs><rect id="a" width="19.6" height="14" x="0" y="0" rx="1.4"/></defs><g fill="none" fill-rule="evenodd"><mask id="b" fill="#fff"><use xlink:href="#a"/></mask><use fill="#FFF" xlink:href="#a"/><path fill="#DD172C" d="M0 0h19.6v3.733H0zM0 10.267h19.6V14H0z" mask="url(#b)"/><path fill="#FFD133" d="M0 3.733h19.6v6.533H0z" mask="url(#b)"/><path fill="#FFEDB1" d="M5.133 6.533h.934V7h-.934z" mask="url(#b)"/><path stroke="#A41517" stroke-width=".5" d="M4.254 6.508l.117 1.406a.78.78 0 0 0 .762.703.78.78 0 0 0 .762-.703l.117-1.406c.01-.111-.066-.191-.184-.191h-1.39c-.113 0-.193.084-.184.191z" mask="url(#b)"/><path fill="#A41517" d="M4.2 7h1.867v.467H5.6l-.467.933-.466-.933H4.2zM2.8 5.6h1v3.267h-1zM6.533 5.6h1v3.267h-1zM4.2 5.133c0-.257.2-.466.471-.466h.925c.26 0 .47.216.47.466v.231c0 .13-.1.236-.228.236h-1.41c-.126 0-.228-.114-.228-.236v-.23z" mask="url(#b)"/></g></svg>