<svg xmlns="http://www.w3.org/2000/svg" viewBox="0 0 28 20"><g fill="none" fill-rule="nonzero"><path fill="#009B3A" d="M28 16.916c0 1.692-1.393 3.065-3.111 3.065H3.11C1.393 19.98 0 18.608 0 16.916V3.125C0 1.432 1.393.06 3.111.06H24.89C26.607.06 28 1.432 28 3.125v13.79z"/><path fill="#FEDF01" d="M25.07 10.02l-11.035 8.523L3 10.02l11.035-8.524z"/><path fill="#002776" d="M18.857 9.959c0-2.733-2.167-4.948-4.839-4.948-2.673 0-4.839 2.215-4.839 4.948 0 2.732 2.166 4.948 4.839 4.948 2.672 0 4.839-2.216 4.839-4.948"/><path fill="#CBE9D4" d="M9.748 7.637a4.986 4.986 0 0 0-.504 1.55c2.993-.222 7.056 1.45 8.8 3.522.301-.463.524-.982.66-1.536-2.15-2.152-5.93-3.548-8.956-3.536"/></g></svg>