<?xml version="1.0" standalone="no"?>
<!DOCTYPE svg PUBLIC "-//W3C//DTD SVG 20010904//EN"
 "http://www.w3.org/TR/2001/REC-SVG-20010904/DTD/svg10.dtd">
<svg version="1.0" xmlns="http://www.w3.org/2000/svg"
 width="700.000000pt" height="700.000000pt" viewBox="0 0 700.000000 700.000000"
 preserveAspectRatio="xMidYMid meet">
<metadata>
Created by potrace 1.11, written by Peter Selinger 2001-2013
</metadata>
<g transform="translate(0.000000,700.000000) scale(0.100000,-0.100000)"
fill="#000000" stroke="none">
<path d="M3528 6896 c-1 -2 -75 -6 -163 -9 -88 -4 -182 -9 -210 -12 -150 -15
-207 -23 -265 -35 -25 -6 -56 -12 -70 -14 -61 -11 -121 -25 -195 -46 -44 -12
-87 -23 -95 -25 -8 -2 -55 -17 -105 -33 -337 -111 -624 -256 -945 -479 -238
-165 -598 -522 -750 -743 -13 -19 -27 -37 -30 -40 -13 -10 -139 -208 -191
-300 -49 -86 -73 -132 -139 -270 -92 -193 -209 -562 -244 -775 -44 -261 -51
-352 -51 -620 0 -121 4 -251 8 -290 4 -38 10 -92 13 -120 3 -27 9 -75 15 -105
5 -30 11 -73 15 -95 3 -22 15 -78 26 -125 11 -47 22 -92 23 -100 22 -93 113
-365 151 -448 13 -29 24 -55 24 -58 0 -3 31 -68 70 -145 174 -347 371 -621
650 -899 444 -444 997 -754 1615 -905 61 -15 119 -29 130 -31 203 -35 247 -41
455 -59 56 -5 387 -5 455 0 74 5 198 17 215 20 8 2 35 6 60 9 25 3 54 8 65 10
11 2 40 7 65 11 185 29 538 136 717 216 23 10 45 19 48 19 8 0 207 99 290 145
177 97 466 303 610 434 346 316 584 629 788 1037 96 191 216 514 243 654 3 14
11 50 19 80 7 30 19 82 24 115 6 33 13 71 16 85 8 40 19 125 32 245 10 90 10
484 1 595 -58 674 -318 1310 -757 1850 -93 114 -310 336 -406 416 -33 27 -64
54 -70 60 -21 23 -245 184 -335 241 -320 202 -666 349 -1031 438 -57 14 -120
28 -139 31 -19 3 -42 7 -50 9 -8 3 -33 7 -55 10 -22 3 -49 8 -60 10 -11 2 -49
7 -85 10 -36 4 -76 8 -90 11 -14 2 -83 6 -155 10 -71 3 -135 7 -142 9 -6 2
-13 2 -15 1z m887 -1121 c75 -20 170 -64 232 -106 63 -43 361 -336 380 -373
19 -36 19 -106 0 -142 -22 -42 -479 -492 -513 -505 -41 -16 -97 -13 -134 6
-18 9 -83 66 -144 127 -127 126 -183 159 -271 160 -104 1 -121 -13 -571 -459
-227 -225 -420 -423 -429 -442 -9 -19 -20 -60 -22 -93 -9 -97 11 -134 156
-283 69 -71 132 -140 139 -152 25 -47 8 -134 -35 -178 -11 -11 -119 -117 -240
-236 -224 -222 -244 -236 -313 -231 -69 4 -92 22 -293 220 -172 170 -239 275
-270 425 -15 67 -15 203 -2 287 12 78 76 251 131 358 98 187 213 346 429 592
59 67 369 376 455 454 364 328 698 527 975 579 90 17 263 13 340 -8z m5 -1660
c60 -31 334 -305 395 -397 210 -312 126 -717 -249 -1213 -33 -44 -70 -91 -82
-105 -131 -154 -195 -222 -358 -385 -502 -501 -887 -750 -1241 -804 -95 -14
-240 -6 -320 19 -83 26 -185 78 -240 123 -85 69 -335 321 -351 355 -20 43 -20
101 -1 139 21 39 481 491 512 503 38 15 103 12 138 -5 18 -9 82 -65 142 -125
127 -127 183 -161 268 -162 106 -1 120 10 558 442 221 217 414 413 429 435 48
69 55 153 20 233 -14 32 -62 89 -150 177 -138 140 -150 162 -135 242 5 32 39
70 223 256 119 120 234 232 255 249 58 47 123 55 187 23z"/>
</g>
</svg>
