<?xml version="1.0" encoding="UTF-8"?>
<svg width="2005px" height="553px" viewBox="0 0 2005 553" version="1.1" xmlns="http://www.w3.org/2000/svg" xmlns:xlink="http://www.w3.org/1999/xlink">
    <!-- Generator: Sketch 54.1 (76490) - https://sketchapp.com -->
    <title>Section "Call to Action"</title>
    <desc>Created with Sketch.</desc>
    <g id="Guide-&amp;-Assets" stroke="none" stroke-width="1" fill="none" fill-rule="evenodd">
        <g id="1c-Home-Push-Big" transform="translate(-121.000000, -73.000000)" stroke-width="3">
            <g id="Section-&quot;Call-to-Action&quot;" transform="translate(121.000000, 74.000000)">
                <g id="Lines" transform="translate(0.940818, 0.183980)">
                    <g id="vert" transform="translate(0.502842, 0.194945)">
                        <path d="M1491.16421,10.251878 C1491.16421,10.251878 1425.335,21.1514561 1383.84397,70.7280745 C1342.35293,120.304693 1365.56434,125.719825 1375.38455,118.96174 C1385.20476,112.203655 1410.62636,88.7582987 1462.38831,82.0002137 C1514.15026,75.2421287 1612.45637,60.1923932 1621.47051,10.251878" id="Path" stroke="#FFF88D"></path>
                        <path d="M571.162223,-86.9992837 C571.162223,-86.9992837 570.174135,-36.7468569 610.798427,-0.0365926554 C651.422719,36.6736716 667.838851,67.4316225 658.139986,92.193939 C648.44112,116.956256 622.690155,127.197354 582.065863,150.798666 C541.441571,174.399978 568.197959,194.284343 541.441571,228.906533" id="Path" stroke="#4CD964" stroke-linecap="round" stroke-linejoin="round" transform="translate(601.147722, 70.953624) rotate(86.000000) translate(-601.147722, -70.953624) "></path>
                        <path d="M1350,545.659305 C1360.15484,518.313519 1375.65426,488.731364 1399.285,460.9709 C1472.60288,374.839973 1473.59964,453.043146 1482.49243,466.914549 C1491.38522,480.785951 1512.22175,464.930444 1521.14055,502.567779 C1528.34297,532.962006 1641.48326,518.142323 1676.43711,546.780546" id="Path" stroke="#4CD964" stroke-linecap="round" stroke-linejoin="round"></path>
                        <path d="M1734.86863,0.374676871 C1734.86863,0.374676871 1828.35564,112.489574 1824.66331,188.266768 C1820.97099,264.043962 1716.81436,260.968167 1709.38636,339.205997 C1701.95836,417.443827 1845.01446,442.084845 1878.89549,439.624209 C1912.77651,437.163573 1945.45276,419.289304 1944.83737,377.397841 C1944.22199,335.506379 1952.09202,321.080467 1968.40414,314.374367 C1993.17569,304.141933 2024.61249,257.987678 1973.68261,208.748964 C1902.6096,140.067759 1938.14611,48.4610508 2001.25374,10.251878" id="Path" stroke="#4CD964" stroke-linecap="round" stroke-linejoin="round"></path>
                        <path d="M99.3954385,184 C99.3954385,184 192.882449,296.114897 189.190119,371.892091 C185.497789,447.669285 81.3411605,444.59349 73.9131642,522.83132 C66.485168,601.06915 209.541269,625.710168 243.422292,623.249532 C277.303316,620.788896 309.979566,602.914627 309.364178,561.023165 C308.748789,519.131702 316.618825,504.70579 332.930947,497.99969 C357.702492,487.767256 389.139297,441.613001 338.209419,392.374287 C267.136409,323.693082 302.672914,232.086374 365.780546,193.877201" id="Path-Copy" stroke="#3ABD50" transform="translate(219.707344, 403.707344) scale(-1, -1) rotate(90.000000) translate(-219.707344, -403.707344) "></path>
                    </g>
                    <g id="bleu" transform="translate(177.000000, 105.180398)">
                        <path d="M4.78847216,16.1797918 C4.78847216,16.1797918 25.4619599,-0.231965382 45.482846,0.00248829159 C65.5037321,0.236941965 88.8653171,10.9045841 83.5512751,26.7458373 C78.2372332,42.5870905 31.832595,42.0165866 14.5774968,36.5460009 C-1.41901251,31.4583561 -3.42343184,22.7835702 4.78847216,16.1797918 Z" id="Path" stroke="#3ABD50"></path>
                        <ellipse id="Oval" stroke="#75F5F4" cx="1068.16913" cy="317.797242" rx="20.1691334" ry="20.1616202"></ellipse>
                        <ellipse id="Oval" stroke="#FFF88D" cx="393.068321" cy="308.699819" rx="11.0683211" ry="11.0641981"></ellipse>
                    </g>
                </g>
            </g>
        </g>
    </g>
</svg>