<svg xmlns="http://www.w3.org/2000/svg" viewBox="0 0 1342 500"><g fill="none" fill-rule="evenodd" stroke-width="3"><path stroke="#FFF88D" d="M1133.164-6.37s-65.829 10.9-107.32 60.477-18.28 54.992-8.46 48.234c9.82-6.758 35.242-30.204 87.004-36.962 51.762-6.758 150.068-21.808 159.083-71.748"/><path stroke="#4CD964" stroke-linecap="round" stroke-linejoin="round" d="M805.183 23.022s-50.2 2.52-83.986 45.606c-33.787 43.086-63.325 61.608-88.704 53.66-25.378-7.948-37.39-32.922-63.768-71.8-26.378-38.88-44.348-10.801-80.752-35.078m124.542 516.628c10.155-27.346 25.654-56.928 49.285-84.688 73.318-86.131 74.314-7.928 83.207 5.943 8.893 13.872 29.73-1.984 38.648 35.654 7.203 30.394 120.343 15.574 155.297 44.212m135.36-549.405s93.487 112.114 89.795 187.892c-3.692 75.777-107.849 72.701-115.277 150.939-7.428 78.238 135.628 102.879 169.51 100.418 33.88-2.46 66.556-20.335 65.941-62.226-.615-41.892 7.255-56.318 23.567-63.024 24.771-10.232 56.208-56.386 5.278-105.625-71.073-68.681-35.536-160.288 27.571-198.497"/><path stroke="#3ABD50" d="M-27.556 507.398s112.115-93.487 187.892-89.795c75.777 3.693 72.701 107.85 150.939 115.277 78.238 7.428 102.879-135.628 100.418-169.509-2.46-33.88-20.335-66.557-62.226-65.942-41.892.616-56.318-7.254-63.024-23.566-10.232-24.772-56.386-56.209-105.625-5.279-68.681 71.073-160.288 35.537-198.497-27.57"/><g transform="translate(148.94 88.364)"><path stroke="#3ABD50" d="M4.788 16.18S25.462-.232 45.483.002c20.02.235 43.382 10.903 38.068 26.744s-51.718 15.27-68.974 9.8c-15.996-5.088-18-13.762-9.789-20.366z"/><ellipse cx="831.353" cy="317.797" stroke="#75F5F4" rx="20.169" ry="20.162"/><ellipse cx="164.068" cy="308.7" stroke="#FFF88D" rx="11.068" ry="11.064"/></g></g></svg>