<?xml version="1.0" encoding="UTF-8"?>
<svg width="1342px" height="500px" viewBox="0 0 1342 500" version="1.1" xmlns="http://www.w3.org/2000/svg" xmlns:xlink="http://www.w3.org/1999/xlink">
    <!-- Generator: Sketch 54.1 (76490) - https://sketchapp.com -->
    <title>Lines</title>
    <desc>Created with Sketch.</desc>
    <g id="Web-Design" stroke="none" stroke-width="1" fill="none" fill-rule="evenodd">
        <g id="2f2-Product-Shopify" transform="translate(0.000000, -952.000000)" stroke-width="3">
            <g id="Section-&quot;Call-to-Action&quot;" transform="translate(0.000000, 952.000000)">
                <g id="Lines" transform="translate(-28.059182, -16.816020)">
                    <g id="vert" transform="translate(0.502842, 0.194945)">
                        <path d="M1160.72055,10.251878 C1160.72055,10.251878 1094.89134,21.1514561 1053.40031,70.7280745 C1011.90927,120.304693 1035.12068,125.719825 1044.94089,118.96174 C1054.7611,112.203655 1080.1827,88.7582987 1131.94465,82.0002137 C1183.7066,75.2421287 1282.01271,60.1923932 1291.02685,10.251878" id="Path" stroke="#FFF88D"></path>
                        <path d="M647.276993,-77.3789252 C647.276993,-77.3789252 646.288904,-27.1264983 686.913197,9.58376591 C727.537489,46.2940301 743.953621,77.0519811 734.254755,101.814298 C724.555889,126.576614 698.804925,136.817712 658.180632,160.419024 C617.55634,184.020337 644.312728,203.904702 617.55634,238.526891" id="Path" stroke="#4CD964" stroke-linecap="round" stroke-linejoin="round" transform="translate(677.262491, 80.573983) rotate(86.000000) translate(-677.262491, -80.573983) "></path>
                        <path d="M640.071152,548.659305 C650.225995,521.313519 665.725408,491.731364 689.356156,463.9709 C762.674033,377.839973 763.670789,456.043146 772.563582,469.914549 C781.456376,483.785951 802.292902,467.930444 811.211698,505.567779 C818.414119,535.962006 931.554415,521.142323 966.508266,549.780546" id="Path" stroke="#4CD964" stroke-linecap="round" stroke-linejoin="round"></path>
                        <path d="M1101.86863,0.374676871 C1101.86863,0.374676871 1195.35564,112.489574 1191.66331,188.266768 C1187.97099,264.043962 1083.81436,260.968167 1076.38636,339.205997 C1068.95836,417.443827 1212.01446,442.084845 1245.89549,439.624209 C1279.77651,437.163573 1312.45276,419.289304 1311.83737,377.397841 C1311.22199,335.506379 1319.09202,321.080467 1335.40414,314.374367 C1360.17569,304.141933 1391.61249,257.987678 1340.68261,208.748964 C1269.6096,140.067759 1305.14611,48.4610508 1368.25374,10.251878" id="Path" stroke="#4CD964" stroke-linecap="round" stroke-linejoin="round"></path>
                        <path d="M99.3954385,184 C99.3954385,184 192.882449,296.114897 189.190119,371.892091 C185.497789,447.669285 81.3411605,444.59349 73.9131642,522.83132 C66.485168,601.06915 209.541269,625.710168 243.422292,623.249532 C277.303316,620.788896 309.979566,602.914627 309.364178,561.023165 C308.748789,519.131702 316.618825,504.70579 332.930947,497.99969 C357.702492,487.767256 389.139297,441.613001 338.209419,392.374287 C267.136409,323.693082 302.672914,232.086374 365.780546,193.877201" id="Path-Copy" stroke="#3ABD50" transform="translate(219.707344, 403.707344) scale(-1, -1) rotate(90.000000) translate(-219.707344, -403.707344) "></path>
                    </g>
                    <g id="bleu" transform="translate(177.000000, 105.180398)">
                        <path d="M4.78847216,16.1797918 C4.78847216,16.1797918 25.4619599,-0.231965382 45.482846,0.00248829159 C65.5037321,0.236941965 88.8653171,10.9045841 83.5512751,26.7458373 C78.2372332,42.5870905 31.832595,42.0165866 14.5774968,36.5460009 C-1.41901251,31.4583561 -3.42343184,22.7835702 4.78847216,16.1797918 Z" id="Path" stroke="#3ABD50"></path>
                        <ellipse id="Oval" stroke="#75F5F4" cx="831.352756" cy="317.797242" rx="20.1691334" ry="20.1616202"></ellipse>
                        <ellipse id="Oval" stroke="#FFF88D" cx="164.068321" cy="308.699819" rx="11.0683211" ry="11.0641981"></ellipse>
                    </g>
                </g>
            </g>
        </g>
    </g>
</svg>