<svg xmlns="http://www.w3.org/2000/svg" viewBox="0 0 61 52"><path fill="#121820" fill-rule="nonzero" d="M60.733.942V9.61c-3.328.879-5.858 2.127-7.592 3.745-1.733 1.617-3.12 3.686-4.16 6.205-1.04 2.52-1.56 5.582-1.56 9.187 4.253 0 7.407 1.213 9.464 3.64 2.057 2.427 3.086 5.004 3.086 7.731 0 3.236-1.133 5.952-3.398 8.147-2.265 2.196-4.9 3.294-7.904 3.294-3.93 0-7.292-1.676-10.088-5.027-2.797-3.351-4.195-7.94-4.195-13.763 0-5.131 1.11-9.939 3.328-14.422 2.219-4.484 5.235-8.32 9.048-11.51 3.814-3.19 8.47-5.154 13.971-5.894zm-33.905 0V9.61c-3.328.879-5.859 2.127-7.592 3.745-1.734 1.617-3.12 3.686-4.16 6.205-1.04 2.52-1.56 5.582-1.56 9.187 4.298 0 7.465 1.213 9.499 3.64 2.034 2.427 3.05 5.004 3.05 7.731 0 3.236-1.132 5.952-3.397 8.147-2.265 2.196-4.9 3.294-7.904 3.294-3.883 0-7.234-1.676-10.054-5.027C1.89 43.18.48 38.59.48 32.768c0-5.131 1.11-9.939 3.329-14.422 2.218-4.484 5.234-8.32 9.048-11.51 3.813-3.19 8.47-5.154 13.971-5.894z" opacity=".102"/></svg>