<svg xmlns="http://www.w3.org/2000/svg" viewBox="0 0 61 52"><path fill="#FFF" fill-rule="nonzero" d="M60.631.942V9.61c-3.328.879-5.859 2.127-7.592 3.745-1.734 1.617-3.12 3.686-4.16 6.205-1.04 2.52-1.56 5.582-1.56 9.187 4.252 0 7.407 1.213 9.464 3.64 2.057 2.427 3.085 5.004 3.085 7.731 0 3.236-1.132 5.952-3.397 8.147-2.265 2.196-4.9 3.294-7.904 3.294-3.93 0-7.292-1.676-10.089-5.027-2.796-3.351-4.194-7.94-4.194-13.763 0-5.131 1.109-9.939 3.328-14.422 2.218-4.484 5.234-8.32 9.048-11.51 3.813-3.19 8.47-5.154 13.971-5.894zm-33.905 0V9.61c-3.328.879-5.859 2.127-7.592 3.745-1.734 1.617-3.12 3.686-4.16 6.205-1.04 2.52-1.56 5.582-1.56 9.187 4.298 0 7.465 1.213 9.498 3.64 2.034 2.427 3.051 5.004 3.051 7.731 0 3.236-1.132 5.952-3.397 8.147-2.265 2.196-4.9 3.294-7.905 3.294-3.882 0-7.234-1.676-10.053-5.027-2.82-3.351-4.23-7.94-4.23-13.763 0-5.131 1.11-9.939 3.328-14.422 2.22-4.484 5.235-8.32 9.049-11.51 3.813-3.19 8.47-5.154 13.97-5.894z" opacity=".1"/></svg>