<svg xmlns="http://www.w3.org/2000/svg" viewBox="0 0 83 34"><g fill="none" fill-rule="evenodd"><path fill="#FFF" d="M5.056 0h72.466a5.056 5.056 0 0 1 5.056 5.056v23.593a5.056 5.056 0 0 1-5.056 5.056H5.056A5.056 5.056 0 0 1 0 28.65V5.056A5.056 5.056 0 0 1 5.056 0z"/><g fill="#EA6C00" fill-rule="nonzero"><path d="M16.853 5.056l.382 1.237h1.237l-1 .764.381 1.237-1-.765-1 .765.381-1.237-1-.764h1.236zM16.853 25.411l.382 1.237h1.237l-1 .765.381 1.236-1-.764-1 .764.381-1.236-1-.765h1.236zM21.941 6.906l.382 1.237h1.238l-1.001.765.382 1.237-1-.765-1.001.765.382-1.237-1-.765h1.236zM26.105 10.414l.382 1.237h1.237l-1 .765.382 1.237-1-.765-1.002.765.383-1.237-1.001-.765h1.237zM26.105 20.322l.382 1.238h1.237l-1 .764.382 1.237-1-.765-1.002.765.383-1.237-1.001-.764h1.237zM7.6 10.414l.382 1.237H9.22l-1 .765.382 1.237-1-.765-1.002.765.383-1.237-1.001-.765h1.237zM27.03 15.233l.382 1.237h1.237l-1 .765.382 1.237-1-.764-1.001.764.382-1.237-1-.765h1.236zM6.675 15.233l.382 1.237h1.237l-1 .765.382 1.237-1-.764-1.002.764.383-1.237-1.001-.765h1.237zM7.6 20.322l.382 1.238H9.22l-1 .764.382 1.237-1-.765-1.001.765.382-1.237-1.001-.764h1.237zM22.867 24.486l.382 1.237h1.237l-1.001.764.382 1.237-1-.764-1.001.764.382-1.237-1-.764h1.237zM11.764 6.906l.382 1.237h1.237l-1 .765.382 1.237-1.001-.765-1 .765.381-1.237-1-.765h1.236zM10.838 24.486l.383 1.237h1.237l-1.001.764.382 1.237-1-.764-1.001.764.382-1.237-1-.764h1.236z"/></g><path fill="#309670" d="M20.145 15.47l-3.638 3.716a.741.741 0 0 1-.46.194h-.314a.742.742 0 0 1-.46-.194l-1.713-1.754a.28.28 0 0 1 0-.389l.675-.686a.267.267 0 0 1 .382 0l1.094 1.112a.267.267 0 0 0 .381 0l3-3.064a.268.268 0 0 1 .382 0l.67.678a.279.279 0 0 1 0 .388z"/><path fill="#2B3945" d="M36.233 13.168c0 2.396 1.836 3.9 4.09 3.9 1.428 0 2.527-.577 3.342-1.47v-2.95h-3.648v1.617h1.734v.633c-.306.248-.839.452-1.428.452-1.235 0-2.107-.95-2.107-2.182s.872-2.181 2.107-2.181c.714 0 1.292.396 1.598.893l1.631-.86c-.555-.937-1.575-1.751-3.229-1.751-2.254 0-4.09 1.503-4.09 3.9zm8.577 3.764V9.393h3.172c2.38 0 4.09 1.424 4.09 3.764s-1.71 3.775-4.079 3.775H44.81zm1.949-1.695h1.223c1.326 0 2.096-.961 2.096-2.08 0-1.164-.702-2.068-2.085-2.068H46.76v4.148zm6.288 1.695V9.393h3.784c1.7 0 2.628 1.142 2.628 2.51 0 1.356-.929 2.475-2.628 2.475h-1.836v2.554h-1.948zm4.43-5.04c0-.52-.386-.86-.907-.86h-1.575v1.696h1.575c.521 0 .907-.328.907-.837zm7.07 5.04l-1.27-2.554h-.997v2.554h-1.948V9.393h3.784c1.677 0 2.628 1.108 2.628 2.51 0 1.31-.804 2.011-1.506 2.26l1.54 2.77h-2.232zm.215-5.052c0-.52-.43-.848-.94-.848H62.28v1.696h1.541c.51 0 .94-.328.94-.848z"/><text fill="#2B3945" font-family="HelveticaNeue-Bold, Helvetica Neue" font-size="6.741" font-weight="bold" letter-spacing=".169"><tspan x="36.233" y="25.538">READY</tspan></text></g></svg>