<svg xmlns="http://www.w3.org/2000/svg" viewBox="0 0 24 20"><g fill="#FFF" fill-rule="evenodd"><path d="M23.737 3.669c-.004-.004-.008-.008-.014-.011l-.008-.004L16.567.107a.744.744 0 0 0-.15-.054.82.82 0 0 0-.89.348l-4.115 6.637 5.164 8.33 7.183-11.586a.086.086 0 0 0-.022-.113M9.145 5.527v7.555l6.766 3.358L9.145 5.527M16.928 16.944l5.57 2.764c.724.36 1.312.108 1.312-.562V5.845l-6.882 11.099M7.97 3.68L.99.215A.806.806 0 0 0 .633.123c-.305 0-.52.235-.52.629v14.96c0 .4.296.874.656 1.053l6.15 3.051c.157.079.307.116.443.116.382 0 .65-.294.65-.786V3.748a.076.076 0 0 0-.043-.068"/></g></svg>