<svg xmlns="http://www.w3.org/2000/svg" viewBox="0 0 101 20"><path fill="#FFF" fill-rule="nonzero" d="M98.314 7.84H93.77v3.614h4.544V7.84zM100.8.613h-7.03v3.614h7.03V.613zm-7.532 0h-3.64V19.35h3.64V.613zm-12.93 0h-3.64v8.432l1.255 3.506c.628 1.767 1.305 2.516 2.385 2.516V.613zM72.682 19.35v-8.432l-1.255-3.56c-.628-1.767-1.305-2.462-2.385-2.462V19.35h3.64zm7.658 0v-3.748c-.88 0-1.984-.348-2.762-2.542L73.183.613H69.04V4.36c.879 0 1.984.322 2.762 2.543l4.394 12.447h4.143zm-19.87-3.346c-1.03 0-1.758-.91-1.758-2.007v-8.03c0-1.097.728-2.008 1.758-2.008V.345c-2.963 0-5.398 2.462-5.398 5.622v8.03c0 3.158 2.435 5.621 5.398 5.621v-3.614zm5.9-10.037c0-3.16-2.436-5.622-5.398-5.622V3.96c1.03 0 1.758.91 1.758 2.008v8.03c0 1.097-.728 2.007-1.758 2.007v3.614c2.962 0 5.398-2.462 5.398-5.621v-8.03zM52.398.613h-3.641V19.35h3.64V.613zm-5.886 0H35.44v3.614h11.072V.613zm-3.715 4.15h-3.641V19.35h3.64V4.762zM30.914 17.047l-.653-3.132h-2.21l1.13-5.193C28.68 6.53 27.928 4.87 26.395 4.87l-3.163 14.48h3.665l.502-2.301h3.516zm4.67 2.302L31.49.613h-4.168L26.52 4.36c1.055 0 2.36.67 3.064 3.988l2.334 11.002h3.665zM23.43.613H12.358v3.614H23.43V.613zm-3.716 4.15h-3.64V19.35h3.64V4.762zm-8.667.936C10.922 2.487 8.712.345 5.9.345V3.96c.854.026 1.507.83 1.507 2.008l3.64-.268zm-5.65 10.305c-1.003-.027-1.757-.99-1.757-2.007L0 14.184c.1 3.185 2.41 5.433 5.398 5.433v-3.613zm.503 3.613c2.988 0 5.524-2.489 5.524-5.7 0-2.624-1.18-4.445-3.465-5.247a89.026 89.026 0 0 1-2.51-.963c-.804-.322-1.582-.83-1.582-1.955 0-1.232.828-1.767 1.53-1.794V.345C2.637.345.202 2.54.202 5.805c0 2.17 1.029 4.39 3.64 5.355.628.24 1.306.508 2.084.83 1.054.428 1.733 1.07 1.733 2.06 0 1.232-.728 1.927-1.758 1.954v3.613z"/></svg>