<svg xmlns="http://www.w3.org/2000/svg" viewBox="0 0 54 14"><path fill="#FFF" fill-rule="nonzero" d="M12.761 6.36c.09-.5.047-.872-.128-1.119-.175-.244-.455-.367-.838-.367-.383 0-.711.125-.984.375-.272.25-.453.62-.54 1.111l-.01.054h2.49l.01-.054zm1.971 1.072c-.038.214-.153.321-.345.321h-4.365l-.005.027a2.118 2.118 0 0 0-.03.544.98.98 0 0 0 .15.464c.087.133.211.24.375.319.163.08.382.12.656.12.219 0 .452-.005.7-.014l.737-.027c.243-.01.471-.02.684-.034.212-.013.388-.029.528-.046h.041c.173 0 .248.071.222.214l-.183 1.026a.516.516 0 0 1-.098.243c-.047.054-.132.094-.255.121-.457.108-.9.19-1.33.243-.43.054-.94.08-1.533.08-.411 0-.811-.057-1.201-.173a2.43 2.43 0 0 1-1.005-.576c-.281-.268-.483-.623-.604-1.065-.122-.442-.125-.984-.01-1.627l.167-.937c.096-.536.26-1.022.494-1.46a3.83 3.83 0 0 1 .876-1.111 3.8 3.8 0 0 1 1.213-.704 4.42 4.42 0 0 1 1.51-.248c.555 0 1.03.09 1.422.269.393.178.703.424.93.736.227.313.372.683.437 1.112.065.428.052.897-.039 1.406l-.139.777zm13.683.12a4.907 4.907 0 0 1-.485 1.446 3.804 3.804 0 0 1-.853 1.092c-.342.3-.74.532-1.194.696-.455.165-.961.248-1.519.248-.557 0-1.034-.083-1.43-.248a2.345 2.345 0 0 1-.952-.696 2.355 2.355 0 0 1-.47-1.092c-.074-.428-.063-.91.032-1.446l.168-.937a4.913 4.913 0 0 1 .484-1.447c.228-.428.515-.792.86-1.091.347-.3.747-.531 1.202-.697.454-.165.96-.248 1.518-.248s1.035.083 1.43.248a2.3 2.3 0 0 1 .945.697c.235.299.39.663.464 1.091.074.429.063.91-.032 1.447l-.168.937zm-2.05-.937c.195-1.09-.112-1.634-.919-1.634-.4 0-.728.136-.985.408-.257.273-.435.681-.532 1.226l-.168.937c-.097.545-.066.956.093 1.232.16.277.439.416.838.416.808 0 1.31-.55 1.506-1.648l.167-.937zM36.522 4.35c-.017.099-.05.166-.098.201a.651.651 0 0 1-.201.094l-.448.134c.06.125.102.28.128.469.026.187.024.361-.004.522l-.02.107c-.156.875-.564 1.511-1.224 1.908-.659.398-1.527.597-2.603.597-.32 0-.6-.02-.838-.06a2.614 2.614 0 0 1-.55-.141.528.528 0 0 0-.175.14.389.389 0 0 0-.071.168c-.02.107-.007.187.038.24.045.054.147.099.305.134l1.487.336c.57.124 1.05.247 1.44.368.388.12.694.258.917.415.223.156.37.343.44.563.07.218.077.488.02.81l-.02.106c-.259 1.456-1.585 2.184-3.975 2.184-1.14 0-1.972-.188-2.493-.563-.522-.375-.72-.915-.593-1.62l.019-.108c.05-.276.16-.54.332-.79.173-.25.425-.486.757-.71a.926.926 0 0 1-.434-.555 1.512 1.512 0 0 1-.042-.69c.045-.25.141-.469.289-.657.148-.186.32-.347.517-.481a1.288 1.288 0 0 1-.347-.737 2.609 2.609 0 0 1 .003-.857l.019-.107a2.832 2.832 0 0 1 1.142-1.835c.626-.464 1.536-.696 2.731-.696h3.408c.1 0 .177.033.229.1.051.067.07.15.051.248l-.136.763zm-2.786 1.42c.05-.277.009-.507-.123-.69-.131-.183-.439-.275-.923-.275-.483 0-.828.092-1.034.276a1.17 1.17 0 0 0-.383.689l-.02.107c-.02.116-.025.23-.013.341a.546.546 0 0 0 .131.302c.075.09.189.16.339.214.15.053.357.08.621.08.484 0 .823-.084 1.018-.254a1.14 1.14 0 0 0 .368-.683l.02-.107zm-.93 5.584a.33.33 0 0 0-.015-.18c-.022-.058-.078-.114-.169-.168a1.915 1.915 0 0 0-.395-.16 11.983 11.983 0 0 0-.706-.188l-.974-.214c-.103.116-.191.239-.264.368-.074.13-.131.31-.172.542l-.02.107c-.041.233.024.405.195.517.172.11.523.167 1.052.167.283 0 .513-.016.692-.047.18-.032.323-.079.43-.14a.598.598 0 0 0 .23-.222.877.877 0 0 0 .097-.275l.02-.107zm10.008-3.923c-.038.214-.154.321-.345.321h-4.366l-.005.027a2.126 2.126 0 0 0-.029.544.982.982 0 0 0 .15.464c.086.133.21.24.374.319.164.08.383.12.657.12.218 0 .452-.005.7-.014l.737-.027c.243-.01.47-.02.683-.034.213-.013.388-.029.529-.046h.04c.174 0 .248.071.222.214l-.183 1.026a.516.516 0 0 1-.098.243c-.046.054-.131.094-.255.121-.457.108-.9.19-1.33.243-.429.054-.94.08-1.533.08-.41 0-.81-.057-1.2-.173a2.434 2.434 0 0 1-1.006-.576c-.281-.268-.482-.623-.604-1.065-.122-.442-.125-.984-.01-1.627l.167-.937c.096-.536.26-1.022.494-1.46.233-.437.525-.808.876-1.111.35-.304.755-.538 1.214-.704a4.42 4.42 0 0 1 1.508-.248c.557 0 1.031.09 1.424.269.392.178.702.424.929.736.227.313.373.683.437 1.112.065.428.052.897-.038 1.406l-.14.777zM40.843 6.36c.09-.5.046-.872-.13-1.119-.174-.244-.453-.367-.836-.367-.384 0-.711.125-.984.375s-.454.62-.541 1.111l-.01.054h2.491l.01-.054zm7.128-1.5a.21.21 0 0 1-.165.08h-.11c-.337 0-.66.045-.968.134-.308.09-.602.2-.881.334l-.934 5.225a.342.342 0 0 1-.116.194.308.308 0 0 1-.207.087h-1.656a.23.23 0 0 1-.183-.087.227.227 0 0 1-.055-.194l1.274-7.125a.312.312 0 0 1 .115-.188.314.314 0 0 1 .206-.08h1.629a.22.22 0 0 1 .177.08.219.219 0 0 1 .048.19l-.048.27c.292-.207.61-.366.955-.479.344-.113.68-.169 1.009-.169a.22.22 0 0 1 .176.081.22.22 0 0 1 .049.19l-.23 1.281a.367.367 0 0 1-.085.175zm-27.3 5.996c-.115.026-.257.05-.442.074-.225.03-.48.057-.737.076-.21.016-.523.024-.705.024-.439 0-.854-.036-1.247-.107a2.273 2.273 0 0 1-.992-.415c-.269-.206-.46-.498-.573-.878-.114-.379-.115-.872-.005-1.48l1.258-6.924a.313.313 0 0 1 .116-.187.317.317 0 0 1 .206-.08h1.793a.22.22 0 0 1 .177.08.215.215 0 0 1 .048.187L18.31 8.151c-.063.348-.04.587.069.716.108.13.322.195.642.195h1.976a.22.22 0 0 1 .177.08.218.218 0 0 1 .047.187l-.226 1.245c-.027.152-.135.246-.325.282zM8.027 2.076c.123.034.158.085.137.202l-.239 1.313c-.031.169-.109.183-.186.183h-.043a14.9 14.9 0 0 1-.49-.055 18.811 18.811 0 0 0-.714-.074c-.258-.022-.524-.04-.788-.057-.27-.016-.514-.024-.726-.024-.345 0-.595.036-.76.11-.133.06-.301.192-.354.484-.03.164.01.311.114.426.083.092.201.187.362.293l1.846 1.151c.294.187.528.377.697.565.167.187.293.38.375.574.08.192.124.39.128.586a2.975 2.975 0 0 1-.439 1.638 2.848 2.848 0 0 1-.77.822c-.32.232-.709.418-1.156.553a5.46 5.46 0 0 1-1.563.204c-.227 0-.469-.008-.72-.024a14.732 14.732 0 0 1-1.526-.184 7.33 7.33 0 0 1-.655-.143c-.123-.033-.157-.084-.135-.201L.66 9.105a.228.228 0 0 1 .075-.134.202.202 0 0 1 .144-.05h.055c.217.033.458.062.716.089.268.027.535.051.793.072.261.023.508.039.734.05.224.01.407.016.543.016.435 0 .73-.06.904-.182.179-.126.293-.32.339-.574a.578.578 0 0 0-.095-.442c-.083-.122-.234-.25-.462-.392L2.474 6.343a2.157 2.157 0 0 1-.845-.932c-.172-.375-.214-.817-.124-1.314.142-.776.514-1.373 1.108-1.774.602-.407 1.47-.613 2.576-.613.64 0 1.179.034 1.603.103.427.07.843.158 1.236.264zm45.555 2.966c0 1.082-.893 1.958-1.997 1.963h-2.543s-.074.006-.1-.052c-.033-.071.035-.128.035-.128l.88-.77a1.923 1.923 0 0 1-.288-1.013c0-1.084.899-1.964 2.007-1.964s2.006.88 2.006 1.964z"/></svg>