<svg xmlns="http://www.w3.org/2000/svg" viewBox="0 0 165 40"><g fill="none" fill-rule="evenodd"><path fill="#121820" d="M58.055 30.113c-1.351 0-2.663-.262-3.935-.788-1.273-.525-2.43-1.318-3.475-2.378l2.42-2.945a7.858 7.858 0 0 0 2.509 1.908c.433.203.864.355 1.293.456.429.102.848.152 1.258.152.634 0 1.172-.092 1.615-.276.443-.185.771-.434.986-.747.214-.313.321-.682.321-1.106a1.964 1.964 0 0 0-.524-1.397c-.163-.175-.4-.348-.713-.518a8.883 8.883 0 0 0-.972-.457 26.468 26.468 0 0 0-1.328-.477 51.291 51.291 0 0 1-1.314-.484 13.866 13.866 0 0 1-1.244-.56 9.83 9.83 0 0 1-1.16-.677 7.297 7.297 0 0 1-.973-.816 4.615 4.615 0 0 1-.783-1.01 5.318 5.318 0 0 1-.489-1.23 5.676 5.676 0 0 1-.189-1.486c0-1.06.29-2.028.867-2.904.578-.876 1.366-1.565 2.363-2.067.997-.503 2.097-.763 3.3-.782 2.46-.027 4.744.816 6.85 2.53l-2.32 3.001c-1.632-1.318-3.109-1.977-4.433-1.977-.717 0-1.302.18-1.754.54-.452.359-.683.852-.692 1.479 0 .249.046.475.14.677.093.203.219.385.377.547.158.16.394.327.706.497.312.17.625.323.937.457.312.133.734.302 1.265.504 1.697.655 2.82 1.13 3.37 1.425 1.267.682 2.11 1.525 2.53 2.53.261.627.392 1.355.392 2.185 0 .848-.145 1.624-.434 2.33-.289.705-.67 1.29-1.146 1.756a6.899 6.899 0 0 1-1.657 1.189 7.71 7.71 0 0 1-1.936.705 9.578 9.578 0 0 1-2.028.214zm17.788-14.297c.774 0 1.461.108 2.062.325.602.216 1.133.55 1.594 1.002.462.452.814 1.06 1.056 1.825.242.766.363 1.669.363 2.71v8.214h-3.747v-7.287c0-1.272-.219-2.166-.657-2.682-.438-.517-1.114-.775-2.027-.775-.97 0-1.74.327-2.314.982-.573.654-.86 1.586-.86 2.793v6.955h-3.747V16.051h3.747v1.784h.042a5.73 5.73 0 0 1 2.02-1.5 6.012 6.012 0 0 1 2.468-.52zm17.872.235h3.747v13.827h-3.565v-1.673h-.07c-.998 1.272-2.391 1.908-4.18 1.908-.96 0-1.853-.17-2.678-.511a6.217 6.217 0 0 1-2.125-1.431c-.592-.613-1.056-1.365-1.391-2.254-.336-.89-.504-1.86-.504-2.91a8.16 8.16 0 0 1 .504-2.89c.335-.895.794-1.656 1.377-2.282a6.29 6.29 0 0 1 2.097-1.48 6.392 6.392 0 0 1 2.608-.54c1.705 0 3.08.6 4.124 1.798h.056v-1.562zM90.33 26.795c.998 0 1.837-.35 2.517-1.051.68-.7 1.02-1.609 1.02-2.724 0-1.106-.333-2.028-.999-2.766-.666-.737-1.508-1.106-2.524-1.106-1.025 0-1.88.355-2.565 1.065s-1.028 1.645-1.028 2.807c0 1.115.334 2.023 1 2.724.666.7 1.526 1.05 2.58 1.05zm18.082-10.98c.736 0 1.442.114 2.118.34a5.943 5.943 0 0 1 1.825.981c.54.429 1.009.936 1.405 1.521.396.586.701 1.25.915 1.992.215.742.322 1.527.322 2.357 0 1.051-.168 2.021-.503 2.91-.336.89-.8 1.642-1.391 2.255a6.217 6.217 0 0 1-2.126 1.43 6.938 6.938 0 0 1-2.677.512c-1.752 0-3.127-.594-4.124-1.783h-.056v7.148h-3.747V16.051h3.747v1.59h.056c1.044-1.217 2.456-1.825 4.236-1.825zm-.797 10.98c1.053 0 1.913-.35 2.58-1.051.666-.7 1-1.609 1-2.724 0-1.162-.341-2.097-1.021-2.807-.68-.71-1.534-1.065-2.559-1.065-.531 0-1.023.1-1.475.298a3.436 3.436 0 0 0-1.153.808 3.724 3.724 0 0 0-.748 1.231c-.182.48-.273.991-.273 1.535 0 .737.16 1.396.482 1.977.322.581.76 1.026 1.315 1.335a3.743 3.743 0 0 0 1.852.463zm19.535 3.29c-1.118 0-2.19-.138-3.215-.414a9.717 9.717 0 0 1-2.838-1.272 9.74 9.74 0 0 1-2.258-2.054c-.639-.797-1.14-1.749-1.503-2.855-.364-1.106-.546-2.31-.546-3.609 0-1.152.145-2.247.434-3.284a9.602 9.602 0 0 1 1.307-2.841 9.702 9.702 0 0 1 2.097-2.234c.816-.631 1.78-1.122 2.894-1.472 1.114-.35 2.324-.526 3.628-.526.96 0 1.907.13 2.839.388.932.258 1.861.682 2.789 1.272.927.59 1.75 1.322 2.468 2.198l-2.95 2.49a7.62 7.62 0 0 0-2.293-1.847 5.998 5.998 0 0 0-2.853-.712c-.503 0-.988.05-1.454.152a5.883 5.883 0 0 0-2.453 1.169c-.35.28-.662.606-.937.974-.275.37-.51.772-.706 1.21a6.689 6.689 0 0 0-.447 1.431 8.363 8.363 0 0 0-.154 1.632c0 1.235.258 2.342.776 3.319a5.67 5.67 0 0 0 2.18 2.288c.938.549 2.002.823 3.195.823a6.17 6.17 0 0 0 2.867-.692 7.028 7.028 0 0 0 2.279-1.852l2.95 2.502a10.45 10.45 0 0 1-3.468 2.773c-1.38.696-2.922 1.044-4.628 1.044zm19.983-14.034h3.747v13.827h-3.565v-1.673h-.07c-.997 1.272-2.39 1.908-4.18 1.908-.96 0-1.853-.17-2.678-.511a6.217 6.217 0 0 1-2.125-1.431c-.592-.613-1.055-1.365-1.39-2.254-.336-.89-.504-1.86-.504-2.91a8.16 8.16 0 0 1 .503-2.89c.336-.895.795-1.656 1.377-2.282a6.29 6.29 0 0 1 2.098-1.48 6.392 6.392 0 0 1 2.607-.54c1.706 0 3.08.6 4.124 1.798h.056v-1.562zm-3.383 10.744c.997 0 1.836-.35 2.517-1.051.68-.7 1.02-1.609 1.02-2.724 0-1.106-.333-2.028-1-2.766-.666-.737-1.507-1.106-2.523-1.106-1.025 0-1.88.355-2.566 1.065-.685.71-1.027 1.645-1.027 2.807 0 1.115.333 2.023 1 2.724.666.7 1.526 1.05 2.579 1.05zm10.21 3.083V9.027h3.747v20.851h-3.747zm7.106 0V9.027h3.747v20.851h-3.747z"/><path fill="#4CD964" d="M28.87 10.425l-2.554 2.527a.97.97 0 0 1-1.317 0l-1.137-1.124a1.522 1.522 0 0 0-2.085 0l-4.544 4.498a1.454 1.454 0 0 0 0 2.067l1.137 1.122c.36.361.36.941 0 1.303l-2.555 2.52a.978.978 0 0 1-1.317 0c-.02-.02-.987-.9-1.555-1.49-1.371-1.409-1.583-3.134-.648-5.271.704-1.598 2.066-3.39 4.19-5.49 3.23-3.196 5.745-4.684 7.913-4.684 1.118.004 2.19.45 2.975 1.238.704.634 1.484 1.467 1.493 1.474a.922.922 0 0 1 0 1.31m-.974 12.738c-.705 1.596-2.07 3.39-4.192 5.49-3.229 3.193-5.744 4.682-7.91 4.682a4.22 4.22 0 0 1-2.976-1.235c-.704-.634-1.484-1.468-1.493-1.475a.922.922 0 0 1 0-1.31l2.554-2.527a.929.929 0 0 1 .658-.257c.245-.002.48.09.657.257l1.137 1.122a1.522 1.522 0 0 0 2.09 0l4.539-4.49a1.451 1.451 0 0 0 0-2.066l-1.141-1.122a.922.922 0 0 1 0-1.302l2.554-2.53a.978.978 0 0 1 1.318 0c.018.02.986.902 1.557 1.491 1.37 1.41 1.582 3.133.648 5.272M20.093 0C8.998-.001.001 8.894 0 19.868c-.001 10.974 8.993 19.87 20.089 19.872 11.096.002 20.092-8.894 20.093-19.868v-.002C40.182 8.897 31.188.001 20.093 0"/></g></svg>