<svg xmlns="http://www.w3.org/2000/svg" viewBox="0 0 248 61"><g fill="none" fill-rule="evenodd"><path fill="#FFF" d="M87.083 45.67c-2.027 0-3.995-.394-5.904-1.182-1.908-.788-3.645-1.977-5.211-3.568l3.628-4.418c.56.637 1.164 1.197 1.814 1.68.65.484 1.3.879 1.95 1.183.65.304 1.297.532 1.94.684a8.185 8.185 0 0 0 1.888.228c.95 0 1.758-.138 2.422-.414.664-.277 1.157-.65 1.479-1.12.321-.47.482-1.024.482-1.66 0-.442-.07-.836-.21-1.182a2.946 2.946 0 0 0-.576-.913c-.245-.262-.602-.522-1.07-.777a13.325 13.325 0 0 0-1.458-.685c-.503-.2-1.167-.439-1.992-.715a76.937 76.937 0 0 1-1.971-.726 20.798 20.798 0 0 1-1.867-.84 14.744 14.744 0 0 1-1.74-1.017c-.49-.338-.976-.746-1.458-1.223a6.923 6.923 0 0 1-1.174-1.515 7.977 7.977 0 0 1-.734-1.846 8.513 8.513 0 0 1-.283-2.23c0-1.59.433-3.041 1.3-4.355.867-1.313 2.048-2.347 3.544-3.1 1.496-.754 3.146-1.145 4.95-1.172 3.69-.042 7.116 1.223 10.276 3.795l-3.482 4.501c-2.446-1.977-4.663-2.966-6.648-2.966-1.076 0-1.954.27-2.632.809-.678.54-1.024 1.279-1.038 2.22 0 .373.07.711.21 1.016.14.304.328.577.566.819.238.242.59.49 1.06.746.468.256.936.484 1.404.685.469.2 1.101.453 1.898.757 2.545.982 4.23 1.694 5.054 2.136 1.902 1.024 3.167 2.289 3.796 3.796.392.94.587 2.033.587 3.277 0 1.272-.216 2.437-.65 3.495-.433 1.058-1.006 1.936-1.72 2.634a10.348 10.348 0 0 1-2.484 1.784c-.944.49-1.912.843-2.905 1.058-.993.214-2.006.321-3.041.321zm26.682-21.446c1.16 0 2.191.162 3.093.487a6.56 6.56 0 0 1 2.39 1.504c.693.677 1.22 1.59 1.584 2.738.364 1.147.546 2.502.546 4.065v12.32h-5.62v-10.93c0-1.909-.33-3.25-.987-4.024s-1.67-1.162-3.04-1.162c-1.455 0-2.611.491-3.471 1.473-.86.982-1.29 2.378-1.29 4.19v10.432h-5.62v-20.74h5.62v2.675h.063a8.594 8.594 0 0 1 3.03-2.25 9.018 9.018 0 0 1 3.702-.778zm26.807.352h5.62v20.741h-5.347v-2.51h-.105c-1.496 1.909-3.586 2.863-6.27 2.863-1.44 0-2.78-.256-4.016-.767a9.326 9.326 0 0 1-3.188-2.147c-.888-.92-1.584-2.047-2.087-3.38-.503-1.335-.755-2.79-.755-4.367 0-1.549.252-2.994.755-4.335.503-1.341 1.192-2.482 2.066-3.422a9.435 9.435 0 0 1 3.146-2.22 9.588 9.588 0 0 1 3.91-.808c2.56 0 4.622.899 6.187 2.696h.084v-2.344zm-5.075 16.116c1.496 0 2.755-.525 3.775-1.576 1.02-1.051 1.531-2.413 1.531-4.086 0-1.66-.5-3.042-1.5-4.148-1-1.107-2.26-1.66-3.785-1.66-1.538 0-2.82.533-3.848 1.597-1.028 1.065-1.542 2.469-1.542 4.21 0 1.674.5 3.036 1.5 4.087 1 1.05 2.29 1.576 3.87 1.576zm27.122-16.468c1.105 0 2.164.17 3.178.508a8.914 8.914 0 0 1 2.736 1.473 10.15 10.15 0 0 1 2.108 2.281 10.474 10.474 0 0 1 1.374 2.987c.321 1.113.482 2.292.482 3.536 0 1.576-.252 3.032-.755 4.366-.503 1.334-1.199 2.461-2.087 3.38a9.326 9.326 0 0 1-3.187 2.148c-1.238.511-2.576.767-4.016.767-2.629 0-4.691-.892-6.187-2.676h-.084v10.724h-5.62V24.576h5.62v2.386h.084c1.566-1.826 3.684-2.738 6.354-2.738zm-1.195 16.468c1.58 0 2.87-.525 3.87-1.576.999-1.051 1.499-2.413 1.499-4.086 0-1.742-.51-3.146-1.531-4.21-1.02-1.065-2.3-1.598-3.838-1.598a5.45 5.45 0 0 0-2.213.446 5.154 5.154 0 0 0-1.73 1.214 5.585 5.585 0 0 0-1.122 1.846 6.439 6.439 0 0 0-.409 2.302c0 1.106.242 2.095.724 2.966s1.14 1.538 1.971 2.001c.832.464 1.758.695 2.779.695zm29.303 4.937c-1.677 0-3.285-.208-4.823-.623a14.575 14.575 0 0 1-4.258-1.908 14.611 14.611 0 0 1-3.386-3.08c-.958-1.196-1.71-2.624-2.255-4.283-.545-1.66-.818-3.464-.818-5.413 0-1.729.217-3.37.65-4.926a14.404 14.404 0 0 1 1.961-4.263 14.553 14.553 0 0 1 3.146-3.35c1.223-.947 2.67-1.683 4.341-2.208 1.67-.526 3.485-.788 5.442-.788 1.44 0 2.86.193 4.258.58 1.398.387 2.792 1.023 4.183 1.908a15.576 15.576 0 0 1 3.702 3.298l-4.425 3.734a11.429 11.429 0 0 0-3.44-2.77 8.997 8.997 0 0 0-4.278-1.067c-.755 0-1.482.076-2.18.228a8.824 8.824 0 0 0-3.681 1.752c-.525.422-.993.91-1.405 1.463a9.529 9.529 0 0 0-1.06 1.814 10.033 10.033 0 0 0-.67 2.147c-.154.775-.231 1.59-.231 2.448 0 1.853.388 3.512 1.164 4.978a8.506 8.506 0 0 0 3.271 3.432c1.405.823 3.003 1.234 4.792 1.234a9.256 9.256 0 0 0 4.3-1.037 10.542 10.542 0 0 0 3.418-2.78l4.425 3.755c-1.398 1.728-3.132 3.115-5.201 4.159-2.07 1.044-4.383 1.566-6.942 1.566zm29.975-21.053h5.62v20.741h-5.348v-2.51h-.105c-1.496 1.909-3.586 2.863-6.27 2.863-1.44 0-2.779-.256-4.016-.767a9.326 9.326 0 0 1-3.188-2.147c-.888-.92-1.583-2.047-2.087-3.38-.503-1.335-.755-2.79-.755-4.367 0-1.549.252-2.994.755-4.335.504-1.341 1.192-2.482 2.066-3.422a9.435 9.435 0 0 1 3.146-2.22 9.588 9.588 0 0 1 3.911-.808c2.559 0 4.62.899 6.187 2.696h.084v-2.344zm-5.076 16.116c1.496 0 2.755-.525 3.775-1.576 1.02-1.051 1.531-2.413 1.531-4.086 0-1.66-.5-3.042-1.5-4.148-.999-1.107-2.26-1.66-3.785-1.66-1.538 0-2.82.533-3.848 1.597-1.028 1.065-1.541 2.469-1.541 4.21 0 1.674.5 3.036 1.5 4.087.999 1.05 2.289 1.576 3.868 1.576zm15.315 4.625V14.04h5.62v31.277h-5.62zm10.66 0V14.04h5.62v31.277h-5.62z"/><path fill="#FFF" d="M43.306 16.138l-3.832 3.79a1.456 1.456 0 0 1-1.976 0l-1.705-1.686a2.283 2.283 0 0 0-3.128 0l-6.815 6.747a2.181 2.181 0 0 0 0 3.1l1.705 1.683c.539.542.539 1.412 0 1.954l-3.833 3.78c-.557.51-1.418.51-1.976 0-.028-.028-1.479-1.348-2.331-2.233-2.057-2.114-2.374-4.703-.972-7.908 1.056-2.396 3.1-5.085 6.283-8.235 4.847-4.793 8.62-7.026 11.87-7.026a6.332 6.332 0 0 1 4.463 1.857c1.057.95 2.226 2.201 2.24 2.212a1.383 1.383 0 0 1 0 1.965m-1.462 19.107c-1.056 2.393-3.103 5.086-6.287 8.235-4.843 4.79-8.615 7.023-11.866 7.023a6.33 6.33 0 0 1-4.463-1.854c-1.057-.95-2.226-2.201-2.24-2.212a1.383 1.383 0 0 1 0-1.965l3.832-3.79c.264-.253.619-.392.986-.386.367-.003.721.135.987.386l1.704 1.683c.876.83 2.26.83 3.135 0l6.809-6.734a2.177 2.177 0 0 0 0-3.1l-1.712-1.682a1.383 1.383 0 0 1 0-1.955l3.832-3.793a1.467 1.467 0 0 1 1.976 0c.028.028 1.48 1.351 2.335 2.236 2.057 2.115 2.374 4.7.972 7.908M30.14.5C13.496.498.002 13.84 0 30.302c-.002 16.46 13.49 29.806 30.133 29.808 16.644.002 30.138-13.34 30.14-29.801v-.004C60.273 13.845 46.783.502 30.14.5"/></g></svg>