<svg xmlns="http://www.w3.org/2000/svg" viewBox="0 0 58 42"><path fill="#FFF" fill-rule="nonzero" d="M27.754 6.557v18.28h-14.93l14.93-18.28zm0-6.557c0 4.177-3.337 7.561-7.457 7.561-4.12 0-7.474-3.384-7.474-7.561h14.931zm2.46 24.837c0-4.177 3.337-7.561 7.457-7.561 4.12 0 7.458 3.384 7.458 7.561H30.214zm0-6.557V0h14.93l-14.93 18.28zm8.352 22.181a2.924 2.924 0 0 0 2.076-.81l1.022 1.118c-.671.712-1.613 1.23-3.083 1.23-2.507 0-4.12-1.683-4.12-3.966-.047-2.154 1.645-3.918 3.753-3.967h.128c2.491 0 3.896 1.91 3.769 4.582H36.25c.208 1.117.974 1.83 2.316 1.813zm1.788-3.06c-.16-1.036-.766-1.797-1.98-1.797-1.134 0-1.916.648-2.124 1.797h4.104zM0 40.381l4.52-4.664H.111V34.26h6.5v1.49l-4.52 4.663h4.583v1.457H0v-1.49zm11.753.08a2.86 2.86 0 0 0 2.06-.81l1.022 1.118c-.67.712-1.613 1.23-3.082 1.23-2.507 0-4.12-1.683-4.12-3.966-.048-2.154 1.645-3.918 3.753-3.967h.128c2.491 0 3.896 1.91 3.768 4.582H9.438c.207 1.117.974 1.83 2.315 1.813zm1.789-3.06c-.16-1.036-.767-1.797-1.98-1.797-1.134 0-1.917.648-2.124 1.797h4.104zm11.53.648c0-2.429 1.788-3.95 3.768-3.95a3.266 3.266 0 0 1 2.507 1.133v-4.485h1.597v11.107h-1.597V40.8c-.622.761-1.549 1.215-2.523 1.199-1.916 0-3.752-1.539-3.752-3.951zm6.355-.016c-.032-1.328-1.133-2.38-2.443-2.348-1.31.032-2.347 1.15-2.315 2.477a2.388 2.388 0 0 0 2.379 2.348c1.373 0 2.38-1.101 2.38-2.477zm11.738 2.202l1.453-.761a2.137 2.137 0 0 0 1.932 1.117c.91 0 1.373-.47 1.373-1.004 0-.615-.878-.745-1.82-.939-1.278-.275-2.603-.696-2.603-2.267 0-1.198 1.134-2.315 2.906-2.299 1.406 0 2.444.567 3.035 1.474l-1.342.744a1.984 1.984 0 0 0-1.693-.874c-.862 0-1.293.421-1.293.907 0 .55.687.696 1.772.939 1.23.275 2.635.68 2.635 2.267 0 1.052-.91 2.46-3.05 2.444-1.565.017-2.667-.615-3.305-1.748zm10.683-1.765l-1.262 1.409v1.975H50.99V30.747h1.596v7.27l3.386-3.773h1.948l-2.938 3.254L58 41.854h-1.805l-2.347-3.384zm-33.6-4.388c-1.9 0-3.496 1.247-3.496 3.32v4.452h1.629v-4.242c0-1.247.702-1.992 1.916-1.992 1.213 0 1.804.745 1.804 1.992v4.242h1.613V37.4c.016-2.072-1.58-3.319-3.465-3.319z"/></svg>