<svg xmlns="http://www.w3.org/2000/svg" viewBox="0 0 25 24"><g fill="none" fill-rule="evenodd" stroke-linecap="round" stroke-linejoin="round" stroke-width="1.5"><path stroke="#121820" d="M12.87 22.54l.01.007a4.5 4.5 0 0 0 5.6-.615l.629-.629a1.5 1.5 0 0 0 0-2.122l-2.653-2.651a1.5 1.5 0 0 0-2.122 0h0a1.5 1.5 0 0 1-2.121 0l-4.242-4.243a1.5 1.5 0 0 1 0-2.121h0a1.5 1.5 0 0 0 0-2.122L5.319 5.393a1.5 1.5 0 0 0-2.121 0l-.63.629a4.5 4.5 0 0 0-.614 5.6l.006.01A40.606 40.606 0 0 0 12.87 22.54h0z"/><path stroke="#4CD964" d="M11.75 8.25a4.5 4.5 0 0 1 4.5 4.5M11.75 4.5A8.25 8.25 0 0 1 20 12.75M11.75.75c6.627 0 12 5.373 12 12"/></g></svg>