<svg xmlns="http://www.w3.org/2000/svg" viewBox="0 0 24 24"><g fill="none" fill-rule="evenodd" transform="translate(.5)"><path stroke="#121820" stroke-linecap="round" stroke-linejoin="round" stroke-width="1.5" d="M12.37 22.54l.01.007a4.5 4.5 0 0 0 5.6-.615l.629-.629a1.5 1.5 0 0 0 0-2.122l-2.653-2.651a1.5 1.5 0 0 0-2.122 0h0a1.5 1.5 0 0 1-2.121 0l-4.242-4.243a1.5 1.5 0 0 1 0-2.121h0a1.5 1.5 0 0 0 0-2.122L4.819 5.393a1.5 1.5 0 0 0-2.121 0l-.63.629a4.5 4.5 0 0 0-.614 5.6l.006.01A40.606 40.606 0 0 0 12.37 22.54h0z"/><circle cx="18" cy="6" r="5.25" fill="#121820"/><path stroke="#FFF" stroke-linecap="round" stroke-linejoin="round" stroke-width="1.5" d="M19.591 4.409l-3.182 3.182M16.409 4.409l3.182 3.182"/></g></svg>