<svg xmlns="http://www.w3.org/2000/svg" viewBox="0 0 23 20"><g fill="none" fill-rule="evenodd" stroke="#121820"><path stroke-linecap="round" stroke-linejoin="round" stroke-width="1.5" d="M12.62 18.353l.01.006a4.5 4.5 0 0 0 5.6-.614l.629-.63a1.5 1.5 0 0 0 0-2.121l-2.651-2.652a1.5 1.5 0 0 0-2.122 0h0a1.5 1.5 0 0 1-2.121 0L7.721 8.1a1.5 1.5 0 0 1 0-2.122h0a1.5 1.5 0 0 0 0-2.121L5.069 1.205a1.5 1.5 0 0 0-2.121 0l-.63.63a4.5 4.5 0 0 0-.614 5.6l.006.01a40.62 40.62 0 0 0 10.91 10.908h0z"/><path fill="#121820" d="M13.75.688a.75.75 0 1 0 0 1.5.75.75 0 0 0 0-1.5M17.5.688a.75.75 0 1 0 0 1.5.75.75 0 0 0 0-1.5M21.25.688a.75.75 0 1 0 0 1.5.75.75 0 0 0 0-1.5"/></g></svg>