<svg xmlns="http://www.w3.org/2000/svg" viewBox="0 0 24 24"><g fill="none" fill-rule="evenodd"><path stroke="#121820" stroke-linecap="round" stroke-linejoin="round" stroke-width="1.5" d="M7.971 12.287a1.5 1.5 0 0 1 0-2.121h0a1.5 1.5 0 0 0 0-2.122L5.319 5.393a1.5 1.5 0 0 0-2.121 0l-.63.629a4.5 4.5 0 0 0-.614 5.6l.006.01A40.606 40.606 0 0 0 12.87 22.54l.01.007a4.5 4.5 0 0 0 5.6-.615l.629-.629a1.5 1.5 0 0 0 0-2.122l-2.653-2.651a1.5 1.5 0 0 0-2.122 0h0a1.5 1.5 0 0 1-2.121 0"/><path fill="#121820" d="M17.75.75a6 6 0 0 0-5.23 8.94L11 14.25l4.426-1.967A6 6 0 1 0 17.75.75z"/><path fill="#FFF" d="M17.75 7.961a.75.75 0 1 0 0 1.5.75.75 0 0 0 0-1.5"/><path stroke="#FFF" stroke-linecap="round" stroke-linejoin="round" d="M16.25 5.25a1.5 1.5 0 1 1 1.5 1.5"/></g></svg>