<svg xmlns="http://www.w3.org/2000/svg" viewBox="0 0 25 24"><g fill="none" fill-rule="evenodd" stroke-linecap="round" stroke-linejoin="round" stroke-width="1.5"><path stroke="#4CD964" d="M21.5 18.764a11.251 11.251 0 1 0-9 4.5c4.418 0 6.446-2.136 5.215-5.344"/><path stroke="#121820" d="M14.637 17.7h.008a3.226 3.226 0 0 0 4.014-.441l.452-.451c.42-.42.42-1.1 0-1.521l-1.9-1.9c-.42-.42-1.1-.42-1.521 0h0c-.42.42-1.102.42-1.522 0l-3.042-3.043c-.42-.42-.42-1.1 0-1.521h0c.42-.42.42-1.1 0-1.521l-1.9-1.9A1.076 1.076 0 0 0 7.7 5.4l-.452.451a3.229 3.229 0 0 0-.44 4.015v.007a29.14 29.14 0 0 0 7.829 7.827h0z"/></g></svg>