<svg xmlns="http://www.w3.org/2000/svg" viewBox="0 0 25 18"><g fill="none" fill-rule="evenodd" stroke-linecap="round" stroke-linejoin="round" stroke-width="1.5"><path stroke="#121820" d="M10.25 11.25V15A2.25 2.25 0 0 1 8 17.25H3.5A2.25 2.25 0 0 1 1.25 15V3A2.25 2.25 0 0 1 3.5.75H8A2.25 2.25 0 0 1 10.25 3v2.25M1.25 14.25h9M14.75 5.25V3A2.25 2.25 0 0 1 17 .75h4.5A2.25 2.25 0 0 1 23.75 3v12a2.25 2.25 0 0 1-2.25 2.25H17A2.25 2.25 0 0 1 14.75 15v-3.749M14.75 3.75h9M14.75 14.25h9"/><path stroke="#4CD964" d="M7.25 6L5 8.25l2.25 2.25M17.75 6L20 8.25l-2.25 2.25M5 8.25h15"/></g></svg>