<?xml version="1.0" encoding="UTF-8"?>
<svg width="74px" height="74px" viewBox="0 0 74 74" version="1.1" xmlns="http://www.w3.org/2000/svg" xmlns:xlink="http://www.w3.org/1999/xlink">
    <!-- Generator: Sketch 54.1 (76490) - https://sketchapp.com -->
    <title>Icon-Installation</title>
    <desc>Created with Sketch.</desc>
    <defs>
        <ellipse id="path-1" cx="35.8974359" cy="35.9090909" rx="35.8974359" ry="35.9090909"></ellipse>
    </defs>
    <g id="Web-Design" stroke="none" stroke-width="1" fill="none" fill-rule="evenodd">
        <g id="7a-Help-FAQ" transform="translate(-1019.000000, -656.000000)">
            <g id="Section-1" transform="translate(234.000000, 593.365858)">
                <g id="3" transform="translate(672.000000, 0.000000)">
                    <g id="Icon-Installation" transform="translate(114.000000, 63.634142)">
                        <mask id="mask-2" fill="white">
                            <use xlink:href="#path-1"></use>
                        </mask>
                        <use id="Oval" stroke="#3EC755" stroke-width="2" xlink:href="#path-1"></use>
                        <g id="Group-2" mask="url(#mask-2)" stroke="#3EC755" stroke-linecap="round" stroke-linejoin="round" stroke-width="2">
                            <g transform="translate(22.000000, 20.000000)">
                                <path d="M26.2219831,12.9389231 L27.7940767,12.0423077 C28.9472704,11.3837952 29.3423703,9.92543766 28.6765709,8.78492308 L27.4709777,6.71984615 C26.8051276,5.57936054 25.33052,5.18861466 24.177297,5.84707692 L22.6220817,6.73415385 C21.3332549,5.54773737 19.7952052,4.65771441 18.1179853,4.12776923 L18.1179853,2.38461538 C18.1179853,1.06762867 17.0384604,0 15.7067988,0 L13.2956124,0 C11.9639508,0 10.8844259,1.06762867 10.8844259,2.38461538 L10.8844259,4.14446154 C9.21530456,4.67772307 7.68394529,5.56476624 6.39720781,6.74369231 L4.82270304,5.84469231 C4.26861218,5.52868488 3.61026645,5.44335764 2.99255096,5.60748894 C2.37483546,5.77162024 1.8483722,6.17175945 1.5290223,6.71984615 L0.323429054,8.78492308 C-0.34237027,9.92543766 0.0527295846,11.3837952 1.20592331,12.0423077 L2.78766164,12.9460769 C2.40790327,14.6320033 2.40790327,16.3799198 2.78766164,18.0658462 L1.21556805,18.9624615 C0.661374177,19.2782922 0.256776321,19.7989539 0.0908161552,20.4098622 C-0.075144011,21.0207705 0.0111340054,21.6718613 0.330662614,22.2198462 L1.53625586,24.2849231 C2.20210592,25.4254087 3.67671358,25.8161546 4.8299366,25.1576923 L6.38515188,24.2706154 C7.6729074,25.4554446 9.20920278,26.344591 10.8844259,26.8746154 L10.8844259,28.6153846 C10.8844259,29.9323713 11.9639508,31 13.2956124,31 L15.7067988,31 C17.0384604,31 18.1179853,29.9323713 18.1179853,28.6153846 L18.1179853,26.8579231 C19.7883158,26.3257522 21.3206884,25.4385988 22.6076146,24.2586923 L24.177297,25.1553077 C25.33052,25.81377 26.8051276,25.4230241 27.4709777,24.2825385 L28.6765709,22.2174615 C29.3423703,21.076947 28.9472704,19.6185894 27.7940767,18.9600769 L26.2147495,18.0586923 C26.597759,16.3733866 26.6002289,14.6252808 26.2219831,12.9389231 Z" id="Shape"></path>
                                <circle id="Oval" cx="14.5" cy="15.5" r="6.5"></circle>
                            </g>
                        </g>
                    </g>
                </g>
            </g>
        </g>
    </g>
</svg>