<svg xmlns="http://www.w3.org/2000/svg" viewBox="0 0 44 44"><g fill="none" fill-rule="evenodd" stroke="#3EC755" stroke-width="1.5" transform="translate(1 1)"><ellipse cx="20.94" cy="20.947" fill="#E0FBFB" rx="20.94" ry="20.947"/><path stroke-linecap="round" stroke-linejoin="round" d="M23.525 28.417l.009.006h0c1.459.929 3.367.72 4.59-.504l.516-.516a1.23 1.23 0 0 0 0-1.74l-2.175-2.173a1.23 1.23 0 0 0-1.74 0 1.23 1.23 0 0 1-1.738 0l-3.477-3.478a1.23 1.23 0 0 1 0-1.74 1.23 1.23 0 0 0 0-1.739l-2.174-2.173a1.23 1.23 0 0 0-1.739 0l-.516.516h0a3.69 3.69 0 0 0-.503 4.59l.004.009h0a33.287 33.287 0 0 0 8.943 8.942h0z"/></g></svg>