<svg xmlns="http://www.w3.org/2000/svg" xmlns:xlink="http://www.w3.org/1999/xlink" viewBox="0 0 44 44"><defs><ellipse id="a" cx="20.94" cy="20.947" rx="20.94" ry="20.947"/></defs><g fill="none" fill-rule="evenodd" transform="translate(1 1)"><mask id="b" fill="#fff"><use xlink:href="#a"/></mask><use fill="#E0FBFB" stroke="#3EC755" stroke-width="1.5" xlink:href="#a"/><g stroke="#3EC755" stroke-linecap="round" stroke-linejoin="round" stroke-width="1.5" mask="url(#b)"><path d="M27.798 13.638c3.478 1.391 3.478 3.647 0 5.038-3.478 1.391-9.118 1.391-12.596 0-3.478-1.391-3.478-3.647 0-5.038 3.478-1.391 9.118-1.391 12.596 0"/><path d="M12.594 16.157V21.5c0 1.967 3.987 3.563 8.906 3.563 4.919 0 8.906-1.595 8.906-3.563v-5.343"/><path d="M12.594 21.5v5.344c0 1.967 3.987 3.562 8.906 3.562 4.919 0 8.906-1.595 8.906-3.562V21.5"/></g></g></svg>