<svg xmlns="http://www.w3.org/2000/svg" viewBox="0 0 22 26"><path fill="#FFF" fill-rule="evenodd" d="M14.78 4.047c.792-1.05 1.392-2.533 1.175-4.047-1.294.092-2.807.943-3.69 2.05-.805 1.005-1.467 2.499-1.208 3.948 1.415.046 2.875-.825 3.723-1.95zm7.22 15c-.6 1.356-.89 1.963-1.663 3.165-1.08 1.678-2.602 3.768-4.49 3.783-1.675.019-2.107-1.113-4.382-1.1-2.274.013-2.748 1.122-4.427 1.105-1.886-.017-3.328-1.903-4.408-3.58C-.39 17.73-.707 12.225 1.155 9.297 2.48 7.219 4.57 6.003 6.532 6.003c1.998 0 3.255 1.118 4.91 1.118C13.045 7.12 14.022 6 16.333 6c1.749 0 3.602.972 4.92 2.649-4.323 2.416-3.623 8.713.746 10.397z"/></svg>