<svg xmlns="http://www.w3.org/2000/svg" viewBox="0 0 2908 562"><defs><linearGradient id="a" x1="280.997%" x2="49.867%" y1="49.648%" y2="49.648%"><stop offset="0%" stop-color="#00736B"/><stop offset="100%" stop-color="#1FD3C6"/></linearGradient><linearGradient id="b" x1="-165.662%" x2="49.841%" y1="50.095%" y2="50.095%"><stop offset="0%" stop-color="#00736B"/><stop offset="100%" stop-color="#1FD3C6"/></linearGradient><linearGradient id="c" x1="49.937%" x2="49.937%" y1="215.533%" y2="36.001%"><stop offset="0%" stop-color="#00736B"/><stop offset="100%" stop-color="#1FD3C6"/></linearGradient><linearGradient id="d" x1="116.652%" x2="47.194%" y1="1.517%" y2="47.011%"><stop offset="0%" stop-color="#00736B"/><stop offset="100%" stop-color="#1FD3C6"/></linearGradient><linearGradient id="e" x1="190.722%" x2="35.79%" y1="-3.998%" y2="59.959%"><stop offset="0%" stop-color="#00736B"/><stop offset="100%" stop-color="#1FD3C6"/></linearGradient><linearGradient id="f" x1="188.623%" x2="25.012%" y1="9.756%" y2="55.806%"><stop offset="0%" stop-color="#00736B"/><stop offset="100%" stop-color="#1FD3C6"/></linearGradient><linearGradient id="g" x1="89.588%" x2="50.19%" y1="-123.374%" y2="51.67%"><stop offset="0%" stop-color="#00736B"/><stop offset="100%" stop-color="#1FD3C6"/></linearGradient><linearGradient id="h" x1="161.646%" x2="37.781%" y1="80.575%" y2="48.241%"><stop offset="0%" stop-color="#00736B"/><stop offset="100%" stop-color="#1FD3C6"/></linearGradient></defs><g fill="none" fill-rule="nonzero"><path fill="url(#a)" d="M857.121 3.769c8.41 1.839 16.117 4.104 22.82 6.759 20.529 8.065 33.546 20.059 38.146 35.793 8.108 27.734-11.115 62.78-21.232 75.597-2.894 3.64-6.295 7.845-10.117 12.559H680.786c-34.142 0-61.958-29.291-61.958-65.322 0-36.051 27.816-65.379 61.958-65.386h176.335z"/><path fill="#1ED3C6" d="M864.828 160.905a2294.212 2294.212 0 0 0 32.033-38.987c10.117-12.816 29.335-47.85 21.232-75.597-4.601-15.722-17.617-27.728-38.146-35.793a150.328 150.328 0 0 0-22.82-6.753h119.969c38.473 0 60.088 26.875 60.088 26.875 59.216 65.98-36.922 164.096-36.922 164.096L805.054 423.952c-5.015 6.119-9.508 11.572-13.11 16.143-10.13 12.809-29.253 47.855-21.227 75.582 4.607 15.766 17.63 27.742 38.135 35.844 6.721 2.648 14.422 4.883 22.838 6.697H711.727c-38.535 0-60.15-26.875-60.15-26.875-59.178-65.994 36.941-164.059 36.941-164.059l176.31-206.379z"/><path fill="url(#b)" d="M831.683 558.229a146.515 146.515 0 0 1-22.839-6.703c-20.517-8.115-33.54-20.09-38.134-35.842-8.021-27.729 11.096-62.775 21.232-75.584 2.899-3.615 6.308-7.871 10.198-12.527l205.965-.063c34.117 0 61.833 29.348 61.833 65.396 0 36.039-27.723 65.323-61.833 65.323H831.683z"/><path fill="url(#c)" d="M1322.98 71.5c-.759-37.619-31.469-67.726-69.1-67.731-38.191-.025-69.176 30.922-69.195 69.119V489.004c-.389-59.498 31.394-107.172 61.732-164.549 65.028-122.981 75.684-241.695 76.563-252.955"/><path fill="#27D3C6" d="M1322.98 71.5c-.879 11.26-11.535 129.961-76.563 252.941-30.332 57.385-62.121 105.039-61.732 164.543-.031 38.184 30.892 69.17 69.069 69.195h.126c38.184 0 69.194-30.941 69.194-69.195l-.095-170.637V71.5h.001z"/><path fill="url(#d)" d="M1779.351 236.652v-.659c-.289-103.713-65.417-211.857-206.624-202.438.194-.05.101 0 .101 0-71.027 39.998-119.203 116.04-119.203 203.097v251.334c0 38.813 31.593 70.268 70.261 70.268 38.855 0 70.355-31.469 70.355-70.268V236.652c0-50.981 41.385-92.467 92.454-92.467 50.975 0 92.454 41.498 92.454 92.454"/><path fill="url(#e)" d="M2104.787 236.652v-.659c-.295-103.682-65.422-211.857-206.623-202.438a239.439 239.439 0 0 0-48.76 36.533c43.23 42.201 70.067 100.99 70.255 165.904v.502c.195-50.912 41.58-92.31 92.562-92.31 50.969 0 92.447 41.498 92.447 92.468"/><path fill="#2DD3C6" d="M1898.17 33.555c141.201-9.42 206.33 98.756 206.625 202.438V488.1c0 37.838 29.748 68.668 67.268 70.08.188.049.188.049.287.049h.967c.477 0 .873 0 1.355.039h.295c38.77-.039 70.256-31.469 70.256-70.275V236.665c0-.214-.1-.408-.1-.659-.289-128.153-104.756-232.324-232.979-232.381-6.111-.208-62.139-.208-113.974 29.93"/><path fill="#27D3C6" d="M1849.417 70.088c43.236 42.201 70.067 100.99 70.262 165.904v251.994a76.5 76.5 0 0 1-1.362 14.316c-7.883 38.002-45.094 62.402-83.071 54.521a70.404 70.404 0 0 1-12.766-3.955h-.106c0-.051-.101-.051-.101-.051a70.023 70.023 0 0 1-42.156-53.924 73.674 73.674 0 0 1-.885-9.156c.106-.592.106-253.093.106-253.093v-.658c-.289-103.714-65.417-211.858-206.624-202.438 0 0 24.716-15.358 61.344-23.881C1689.3-3.205 1777.493.058 1849.406 70.094"/><path fill="url(#f)" d="M2698.299 487.082c-100.023 0-183.754-70.078-204.973-163.631a140.192 140.192 0 0 1-6.598-42.446c0-77.397 62.895-140.26 140.336-140.26 67.639 0 124.135 48.057 137.328 111.866-15.219-101.071-102.539-178.757-207.785-178.757-107.572 0-196.443 81.15-208.65 185.429-.59 7.198-.967 14.403-.967 21.722 0 154.418 125.605 280.079 280.086 280.079 143.141 0 261.471-107.98 278.047-246.74-17.75 98.121-103.809 172.738-206.824 172.738"/><path fill="#27D3C6" d="M2627.059.919c-147.215 0-268.074 114.031-279.119 258.376 12.213-104.284 101.082-185.447 208.656-185.447 105.258 0 192.578 77.687 207.785 178.751 1.939 9.182 3.006 18.678 3.006 28.343 0 77.429-62.988 140.361-140.328 140.361-62.611 0-115.721-41.191-133.752-97.871 21.232 93.564 104.969 163.645 204.979 163.645 103.018 0 189.076-74.629 206.813-172.75l.873-8.498c.678-8.229 1.066-16.488 1.066-24.892C2907.057 126.511 2781.451.919 2627.059.919"/><path fill="url(#g)" d="M123.087 528.736l152.09-389.252-20.73-53.071a143.868 143.868 0 0 0-16.011-27.526c-33.947-39.346-56.573-20.43-62.473-14.047 0 0-4.613 4.538-11.008 20.806L7.556 468.33s-24.734 46.299 21.621 81.1c0 0 20.536 15.025 45.666 10.959 18.113-2.906 34.732-11.951 44.849-26.674.006 0 2.905-3.666 3.395-4.979"/><path fill="url(#h)" d="M346.731 322.553c-12.132-3.025-84.326-19.832-165.27 6.107C56.409 368.758 7.562 468.33 7.562 468.33s-24.734 46.299 21.621 81.1c0 0 20.542 15.012 45.666 10.959 18.125-2.906 34.732-11.951 44.849-26.674 17.931-26.021 29.441-51.816 76.293-76.795 45.357-24.227 108.132-27.391 156.597-.861 54.759 29.994 70.588 64.639 73.764 70.375l.056-.012-79.677-203.869z"/><path fill="#1ED3C6" d="M483.74 560.939c34.23.609 66.075-27.877 65.473-64.197-.194-10.086-1.701-14.404-3.709-21.207L386.222 67.641l-4.011-8.705C359.893 11.721 312.539.914 275.692.914c-72.408 0-96.22 39.1-99.722 43.901 5.887-6.37 28.519-25.287 62.479 14.064 5.504 7.563 10.707 15.672 15.998 27.527l172.017 440.191c-.001.007 15.119 33.52 57.276 34.342"/></g></svg>