<svg xmlns="http://www.w3.org/2000/svg" viewBox="0 0 77 12"><path fill="#3375B2" fill-rule="nonzero" d="M60.773 11.287V8.376h.234l.517-.099.366-.125.347-.186.31-.214.282-.267.243-.303.235-.418.122-.348.085-.365.01-.311-.02-.365-.084-.366-.141-.338-.188-.33-.235-.293-.423-.365-.328-.196-.357-.16-.376-.099-.394-.053h-.206V.236l.357.009.591.062.572.116.555.17.526.213.507.258.498.33.488.4.423.428.347.436.3.463.235.472.16.445.046.196V.441h2.827l3.755 5.263-.009-5.29 3.08.027v10.721h-2.78L69.43 5.926v5.236h-3.052V7.36l-.075.205-.197.463-.263.48-.31.455-.357.428-.394.392-.44.356-.47.312-.498.266-.535.223-.6.178-.593.116-.563.054h-.31zm0-11.05v2.938h-.188l-.395.053-.375.107-.358.16-.328.196-.3.25-.263.276-.215.32-.16.33-.113.356-.066.374v.366l.057.373.103.357.16.347.075.133.056.072.113.152.272.276.3.23.339.197.366.142.376.099.394.044.15-.009v2.912h-.262l-.564-.045-.563-.097-.563-.17-.535-.213-.508-.25-.47-.303-.421-.338-.179-.142-.15-.143v1.576h-6.47V.441h3.033v8.067h2.602l-.113-.222-.122-.231-.207-.49-.159-.507-.113-.535-.056-.534v-.525l.065-.552.123-.561.169-.544.225-.499.282-.471.32-.446.365-.418.414-.383.44-.339.48-.294.497-.24.526-.205.545-.143.563-.089.562-.044h.244zM28.726 9.407V6.915h.686V4.92l-.686.988V1.055l.395-.614h3.268v10.721h-2.977V9.41h-.686zm6.132 1.754h3.004V3.05h2.16V.44h-7.24v2.61h2.075v8.112zm5.473 0h3.062V7.12h3.098v4.042h3.042V.441L46.491.43v4.133h-3.098V.44h-3.062v10.721zM5.966 3.192l.273.09.366.169.338.214.3.25.264.284.216.321.169.339.112.356.066.347.019.32-.028.321-.066.339-.132.347-.178.339-.263.329-.329.303-.366.259-.385.186-.375.125v2.69l.272-.037.638-.151.602-.205.506-.24.488-.303.451-.348.395-.364.347-.41.338-.481.178-.285v2.867h6.244V8.581h-3.23V7.102h3.23V4.555h-3.23V2.98h3.23V.44h-6.244v2.965l-.066-.169-.253-.4-.347-.437-.451-.454-.47-.383-.478-.311-.554-.268-.686-.231-.676-.17-.234-.035v2.645zm22.76-2.137v4.853l-.685 1.007h.685v2.494h-1.765l-.216.204-.44.383-.46.339-.49.285-.515.24-.536.196-.554.142-.573.099-.582.035-.573-.008-.563-.072-.582-.124-.592-.187-.545-.232-.478-.284-.46-.321-.404-.356-.376-.401-.338-.428-.291-.471-.263-.553-.216-.605-.14-.561-.067-.553-.018-.534.047-.543.094-.534.15-.525.216-.526.272-.508.32-.453.356-.42.395-.373.441-.338.47-.303.525-.267.592-.232.6-.16.564-.098.573-.053.573.017.563.054.563.125.563.178.536.213.497.268.46.311.423.348.357.338.14.16-1.558 2.298-.197-.169-.197-.17-.442-.31-.498-.286-.535-.231-.535-.143-.47-.053-.45.027-.46.107-.45.16-.367.222-.3.24-.254.286-.216.32-.16.348-.112.365-.047.363v.365l.066.366.122.356.17.347.225.312.272.276.3.222.339.187.376.143.422.089.423.044.403-.026.376-.072.376-.134.338-.169.32-.213.252-.214.113-.107 4.102-6.412zM3.835 8.58V3.05h.835l.414.009.394.036.384.062.104.036V.548l-.45-.062-.77-.045H.914v10.722H5.31l.413-.018.244-.026v-2.69l-.038.01-.45.087-.526.036-.291.018h-.826z"/></svg>