<svg xmlns="http://www.w3.org/2000/svg" viewBox="0 0 77 19"><path fill="#CE383C" fill-rule="nonzero" d="M18.355 8.453c.126-.706.066-1.233-.181-1.58-.247-.346-.642-.52-1.183-.52-.542 0-1.005.177-1.39.53-.386.353-.64.877-.764 1.57l-.015.076h3.52l.013-.076zm2.785 1.514c-.054.303-.217.455-.488.455h-6.167l-.007.037c-.047.262-.061.52-.041.769.02.25.09.468.212.655.121.188.297.339.528.45.231.114.54.17.928.17.309 0 .638-.007.989-.02l1.041-.038c.344-.012.665-.027.966-.047.3-.018.548-.04.746-.066h.058c.244 0 .35.102.314.304l-.26 1.45a.73.73 0 0 1-.138.342c-.065.076-.185.133-.36.171-.646.153-1.272.267-1.879.344-.606.076-1.328.114-2.166.114-.58 0-1.146-.082-1.697-.246a3.434 3.434 0 0 1-1.42-.814c-.397-.378-.681-.88-.853-1.504-.173-.624-.177-1.391-.015-2.3l.237-1.324a6.934 6.934 0 0 1 .697-2.062 5.41 5.41 0 0 1 1.238-1.57 5.37 5.37 0 0 1 1.715-.994 6.246 6.246 0 0 1 2.132-.35c.785 0 1.456.126 2.01.379.555.252.992.6 1.313 1.04.32.442.527.965.619 1.571.09.606.073 1.268-.056 1.986l-.196 1.098zm19.331.17a6.933 6.933 0 0 1-.685 2.044 5.374 5.374 0 0 1-1.205 1.542 5.235 5.235 0 0 1-1.687.984c-.642.233-1.358.35-2.146.35-.787 0-1.461-.117-2.02-.35-.559-.233-1.007-.561-1.345-.984-.338-.423-.56-.937-.664-1.542-.106-.605-.09-1.287.046-2.044L31 8.813a6.94 6.94 0 0 1 .685-2.043A5.296 5.296 0 0 1 32.9 5.227a5.384 5.384 0 0 1 1.697-.984c.642-.233 1.358-.35 2.145-.35.788 0 1.462.117 2.02.35.56.234 1.005.561 1.336.984.332.423.55.937.654 1.543.105.605.09 1.286-.045 2.043l-.237 1.324zm-2.895-1.324c.275-1.54-.158-2.308-1.299-2.308-.564 0-1.028.192-1.392.577-.363.384-.614.961-.751 1.73l-.238 1.325c-.137.77-.093 1.35.132 1.741s.62.587 1.184.587c1.14 0 1.85-.777 2.127-2.328l.237-1.324zm14.349-3.198c-.024.139-.07.234-.138.284a.92.92 0 0 1-.284.132l-.633.19c.084.177.144.397.181.662.037.265.034.51-.006.738l-.027.151c-.221 1.236-.798 2.135-1.73 2.696-.931.561-2.158.843-3.678.843-.452 0-.847-.029-1.184-.086a3.693 3.693 0 0 1-.777-.198.746.746 0 0 0-.248.198.55.55 0 0 0-.1.237c-.028.151-.01.265.055.34.063.076.207.14.43.19l2.1.473c.806.176 1.485.35 2.034.52.55.17.982.366 1.297.587.315.22.522.485.622.795.1.309.11.69.027 1.144l-.027.151c-.366 2.056-2.24 3.085-5.617 3.085-1.611 0-2.785-.265-3.522-.795-.737-.53-1.016-1.293-.838-2.29l.027-.151c.07-.391.227-.763.47-1.116.244-.353.6-.687 1.069-1.003a1.309 1.309 0 0 1-.613-.785 2.136 2.136 0 0 1-.059-.975c.063-.353.2-.662.408-.928.209-.264.452-.49.73-.68-.262-.265-.425-.611-.49-1.04a3.685 3.685 0 0 1 .004-1.212l.027-.151c.191-1.072.73-1.936 1.613-2.593.885-.655 2.17-.983 3.86-.983h4.814c.142 0 .25.047.323.142a.425.425 0 0 1 .073.35l-.193 1.078zm-3.936 2.006c.07-.391.013-.716-.173-.974-.186-.26-.62-.389-1.304-.389-.683 0-1.17.13-1.461.389a1.654 1.654 0 0 0-.542.974l-.027.151c-.03.164-.036.325-.019.482.017.159.079.3.185.426.106.127.266.227.478.303.212.075.505.113.878.113.684 0 1.163-.12 1.438-.359.275-.24.448-.56.52-.965l.027-.151zm-1.313 7.89a.466.466 0 0 0-.022-.255c-.03-.082-.11-.161-.238-.237a2.706 2.706 0 0 0-.559-.227 16.93 16.93 0 0 0-.997-.265l-1.376-.303c-.146.164-.27.338-.374.52-.104.184-.184.439-.243.767l-.027.151c-.059.329.033.571.276.73.242.156.737.236 1.485.236.4 0 .725-.022.978-.067.253-.044.456-.11.606-.198a.845.845 0 0 0 .327-.312c.066-.121.113-.25.137-.389l.027-.151zm14.138-5.544c-.053.303-.217.455-.487.455H54.16l-.007.037c-.047.262-.06.52-.04.769.02.25.09.468.211.655.121.188.297.339.529.45.23.114.54.17.927.17.309 0 .639-.007.989-.02l1.042-.038c.343-.012.665-.027.965-.047.3-.018.548-.04.747-.066h.058c.244 0 .349.102.313.304l-.26 1.45a.73.73 0 0 1-.138.342c-.065.076-.185.133-.36.171-.645.153-1.272.267-1.878.344-.607.076-1.33.114-2.167.114-.58 0-1.145-.082-1.696-.246a3.44 3.44 0 0 1-1.421-.814c-.397-.378-.68-.88-.853-1.504-.172-.624-.176-1.391-.014-2.3l.236-1.324a6.949 6.949 0 0 1 .697-2.062 5.423 5.423 0 0 1 1.239-1.57 5.377 5.377 0 0 1 1.714-.994 6.244 6.244 0 0 1 2.131-.35c.787 0 1.457.126 2.012.379.554.252.992.6 1.312 1.04.32.442.527.965.619 1.571.091.606.073 1.268-.055 1.986l-.197 1.098zM58.03 8.453c.126-.706.065-1.233-.182-1.58-.247-.346-.642-.52-1.183-.52-.542 0-1.005.177-1.39.53-.386.353-.64.877-.764 1.57l-.014.076h3.52l.013-.076zm10.07-2.12a.296.296 0 0 1-.233.114h-.154a4.89 4.89 0 0 0-1.368.19c-.436.126-.85.283-1.245.471l-1.319 7.382a.483.483 0 0 1-.165.274.435.435 0 0 1-.292.123h-2.34a.324.324 0 0 1-.258-.123.32.32 0 0 1-.078-.275l1.8-10.066a.441.441 0 0 1 .163-.265.444.444 0 0 1 .291-.113h2.3c.104 0 .187.038.251.114a.309.309 0 0 1 .069.267l-.069.382a5.031 5.031 0 0 1 1.35-.677 4.56 4.56 0 0 1 1.424-.238.31.31 0 0 1 .25.114.311.311 0 0 1 .069.268l-.324 1.81a.519.519 0 0 1-.121.248zm-38.57 8.472a6.96 6.96 0 0 1-.624.105c-.317.043-.68.08-1.04.107-.298.022-.74.034-.998.034-.62 0-1.206-.05-1.761-.152-.556-.1-1.022-.296-1.402-.586-.38-.29-.649-.703-.81-1.24-.16-.535-.162-1.232-.006-2.09L24.666 1.2a.443.443 0 0 1 .165-.264.447.447 0 0 1 .29-.115h2.533a.31.31 0 0 1 .25.115.304.304 0 0 1 .068.264l-1.777 9.783c-.09.492-.057.83.097 1.012.153.183.456.275.907.275h2.791c.103 0 .187.037.25.113a.308.308 0 0 1 .068.265l-.32 1.76c-.039.214-.191.347-.459.397zM11.667 2.4c.174.048.223.12.193.285l-.337 1.855c-.044.239-.154.259-.263.259h-.06a21.05 21.05 0 0 1-.694-.079 26.577 26.577 0 0 0-1.008-.103 48.12 48.12 0 0 0-1.113-.081c-.38-.023-.726-.034-1.025-.034-.489 0-.84.05-1.075.156-.187.084-.425.27-.5.683a.682.682 0 0 0 .161.602c.118.13.285.264.511.413l2.61 1.628c.414.263.745.532.983.797.237.264.414.537.53.81.114.273.176.551.182.829.007.291-.017.586-.07.874a4.203 4.203 0 0 1-.55 1.44 4.024 4.024 0 0 1-1.087 1.162 5.476 5.476 0 0 1-1.636.781c-.635.191-1.378.288-2.207.288-.32 0-.663-.011-1.019-.034a20.814 20.814 0 0 1-2.157-.26c-.34-.06-.65-.127-.923-.202-.173-.047-.221-.119-.191-.284l.337-1.855a.323.323 0 0 1 .106-.19.286.286 0 0 1 .203-.07h.077c.307.047.648.088 1.013.126.378.038.755.073 1.12.103.369.03.717.054 1.037.07.317.014.575.022.767.022.614 0 1.032-.084 1.278-.258.252-.177.413-.45.478-.81a.817.817 0 0 0-.135-.625c-.117-.171-.33-.352-.652-.553l-2.73-1.717c-.55-.343-.952-.786-1.195-1.317-.243-.53-.302-1.154-.175-1.856.2-1.096.726-1.94 1.565-2.507.851-.575 2.076-.866 3.64-.866.903 0 1.666.049 2.265.146.603.098 1.19.223 1.746.372zm64.362 4.19c0 1.528-1.262 2.767-2.821 2.774h-3.593s-.106.007-.143-.074c-.045-.1.05-.18.05-.18l1.243-1.088a2.717 2.717 0 0 1-.406-1.432c0-1.532 1.27-2.774 2.835-2.774 1.566 0 2.835 1.242 2.835 2.774z"/></svg>