<svg xmlns="http://www.w3.org/2000/svg" viewBox="0 0 46 25"><defs><linearGradient id="a" x1="0%" x2="99.873%" y1="105.842%" y2="105.842%"><stop offset="0%" stop-color="#7C2270"/><stop offset="24.719%" stop-color="#AA147E"/><stop offset="81.461%" stop-color="#E41D25"/><stop offset="100%" stop-color="#E41D25"/></linearGradient></defs><path fill="url(#a)" fill-rule="nonzero" d="M.822 24.038C.324 24.016 0 23.78 0 23.275V.748C0 .355.274 0 .697 0H39.88c.351 0 .632.033.798.51 0 0 3.971 12.755 4.041 12.985.148.482.052.727-.349.989-12.762 8.392-31.845 9.611-40.513 9.611-1.243 0-2.27-.025-3.036-.057zM24.967 6.642c.727-.873 2.013-1.265 3.618-1.265.746 0 1.46.074 2.037.223l2.72 8.728h8.015l-.497-1.618h-5.706l-.826-2.646h4.789l-.487-1.561h-4.788l-1.247-4.03c-.478-.263-2.401-.836-4.528-.836-3.29 0-5.61 1.61-5.973 4.006-.005.036-.032.047-.073.047-.04 0-.066-.008-.08-.047l-1.19-3.815h-2.405c-.785 3.01-2.25 5.863-3.726 8.03l-1.464-4.657c-.01-.037-.03-.047-.071-.047-.041 0-.068.008-.081.047-.22.66-.487 1.125-1.33 1.768l1.677 5.36h2.243c1.831-2.333 3.328-5.19 4.056-7.362l2.286 7.361h2.089l-.715-2.3c-.012-.04.018-.048.062-.048.028 0 .074-.001.119.048 1.426 1.576 3.626 2.47 6.157 2.47.817 0 1.65-.046 2.338-.155l-.564-1.696a14.03 14.03 0 0 1-1.776.111c-2.854 0-4.986-1.422-5.31-3.67-.135-.944.082-1.79.63-2.446zm-13.513 6.075c-.539.128-1.01.215-1.673.231-1.31.031-2.757-.291-3.036-1.14-.236-.717.745-1.09 2.183-1.802 1.837-.91 4.124-1.998 3.202-3.986-.78-1.68-2.726-2.456-5.732-2.386-1.6.038-3.476.627-4.386 1.061l.736 1.632c1.236-.639 2.806-1.01 4.065-1.04 1.453-.034 2.453.281 2.758.945.392.856-.724 1.51-2.136 2.197-1.78.866-3.832 1.916-3.109 3.784.611 1.575 2.986 2.319 5.613 2.256a10.87 10.87 0 0 0 1.992-.214l-.477-1.538z" transform="matrix(1 0 0 -1 .279 24.649)"/></svg>