<?xml version="1.0" encoding="UTF-8"?>
<svg width="16px" height="16px" viewBox="0 0 16 16" version="1.1" xmlns="http://www.w3.org/2000/svg" xmlns:xlink="http://www.w3.org/1999/xlink">
    <!-- Generator: Sketch 54.1 (76490) - https://sketchapp.com -->
    <title>LinkedIn-color</title>
    <desc>Created with Sketch.</desc>
    <g id="Web-Design" stroke="none" stroke-width="1" fill="none" fill-rule="evenodd">
        <g id="3b-Customers-Azimo" transform="translate(-1172.000000, -1409.000000)" fill="#121820">
            <g id="Section-2" transform="translate(503.500000, 1236.622222)">
                <g id="Social" transform="translate(656.000000, 15.377778)">
                    <g id="Linkedin" transform="translate(0.000000, 145.000000)">
                        <g id="LinkedIn" transform="translate(12.152174, 12.000000)">
                            <path d="M16.2881988,15.9403727 L12.7783374,15.9403727 L12.7783374,10.3576556 C12.7783374,8.89638708 12.2293088,7.89881961 11.0220062,7.89881961 C10.098555,7.89881961 9.58500786,8.5719997 9.345975,9.22077446 C9.25633768,9.45364189 9.27034351,9.77802928 9.27034351,10.1024167 L9.27034351,15.9403727 L5.79316244,15.9403727 C5.79316244,15.9403727 5.8379811,6.05113348 5.79316244,5.15220418 L9.27034351,5.15220418 L9.27034351,6.84532328 C9.47576237,6.10502856 10.5868917,5.04848157 12.3600299,5.04848157 C14.5598792,5.04848157 16.2881988,6.60025319 16.2881988,9.9417483 L16.2881988,15.9403727 L16.2881988,15.9403727 Z M2.27676504,3.80279334 L2.25435571,3.80279334 C1.1338892,3.80279334 0.407453416,2.97809689 0.407453416,1.93273567 C0.407453416,0.867036678 1.15536481,0.0596273292 2.29824065,0.0596273292 C3.44018277,0.0596273292 4.14234178,0.865002901 4.16475111,1.929685 C4.16475111,2.97504622 3.44018277,3.80279334 2.27676504,3.80279334 L2.27676504,3.80279334 L2.27676504,3.80279334 Z M0.808020194,5.15220418 L3.90330893,5.15220418 L3.90330893,15.9403727 L0.808020194,15.9403727 L0.808020194,5.15220418 L0.808020194,5.15220418 Z"></path>
                        </g>
                    </g>
                </g>
            </g>
        </g>
    </g>
</svg>