<?xml version="1.0" encoding="UTF-8"?>
<svg width="16px" height="16px" viewBox="0 0 16 16" version="1.1" xmlns="http://www.w3.org/2000/svg" xmlns:xlink="http://www.w3.org/1999/xlink">
    <!-- Generator: Sketch 54.1 (76490) - https://sketchapp.com -->
    <title>Instagram-black</title>
    <desc>Created with Sketch.</desc>
    <g id="Web-Design" stroke="none" stroke-width="1" fill="none" fill-rule="evenodd">
        <g id="3b-Customers-Azimo" transform="translate(-1172.000000, -1481.000000)" fill="#121820">
            <g id="Section-2" transform="translate(503.500000, 1236.622222)">
                <g id="Social" transform="translate(656.000000, 15.377778)">
                    <g id="Linkedin-Copy" transform="translate(0.000000, 217.000000)">
                        <path d="M20.5000149,12.5 C22.5368777,12.5 22.7922857,12.5086337 23.5922404,12.5451333 C24.390528,12.5815436 24.9357297,12.7083395 25.412785,12.8937552 C25.9059763,13.085393 26.3242332,13.341843 26.74121,13.75879 C27.158157,14.1757668 27.414607,14.5940237 27.6062746,15.087215 C27.7916605,15.5642703 27.9184564,16.109472 27.9548667,16.9077596 C27.9913663,17.7077143 28,17.9631223 28,20.0000149 C28,22.0368777 27.9913663,22.2922857 27.9548667,23.0922404 C27.9184564,23.890528 27.7916605,24.4357297 27.6062746,24.912785 C27.414607,25.4059763 27.158157,25.8242332 26.74121,26.24121 C26.3242332,26.658157 25.9059763,26.914607 25.412785,27.1062746 C24.9357297,27.2916605 24.390528,27.4184564 23.5922404,27.4548667 C22.7922857,27.4913663 22.5368777,27.5 20.5000149,27.5 C18.4631223,27.5 18.2077143,27.4913663 17.4077596,27.4548667 C16.609472,27.4184564 16.0642703,27.2916605 15.587215,27.1062746 C15.0940237,26.914607 14.6757668,26.658157 14.25879,26.24121 C13.841843,25.8242332 13.585393,25.4059763 13.3937552,24.912785 C13.2083395,24.4357297 13.0815436,23.890528 13.0451333,23.0922404 C13.0086337,22.2922857 13,22.0368777 13,20.0000149 C13,17.9631223 13.0086337,17.7077143 13.0451333,16.9077596 C13.0815436,16.109472 13.2083395,15.5642703 13.3937552,15.087215 C13.585393,14.5940237 13.841843,14.1757668 14.25879,13.75879 C14.6757668,13.341843 15.0940237,13.085393 15.587215,12.8937552 C16.0642703,12.7083395 16.609472,12.5815436 17.4077596,12.5451333 C18.2077143,12.5086337 18.4631223,12.5 20.5000149,12.5 Z M20.5000149,13.8513489 C18.4974188,13.8513489 18.2602011,13.8590002 17.4693564,13.895083 C16.7381138,13.9284268 16.3409945,14.0506082 16.0767147,14.1533192 C15.726634,14.289374 15.4767933,14.4518955 15.2143593,14.7143593 C14.9518955,14.9767933 14.789374,15.226634 14.6533192,15.5767147 C14.5506082,15.8409945 14.4284268,16.2381138 14.395083,16.9693564 C14.3590002,17.7602011 14.3513489,17.9974188 14.3513489,20.0000149 C14.3513489,22.0025812 14.3590002,22.2397989 14.395083,23.0306436 C14.4284268,23.7618862 14.5506082,24.1590055 14.6533192,24.4232853 C14.789374,24.773366 14.9519253,25.0232067 15.2143593,25.2856407 C15.4767933,25.5481045 15.726634,25.710626 16.0767147,25.8466808 C16.3409945,25.9493918 16.7381138,26.0715732 17.4693564,26.104917 C18.2601118,26.1409998 18.49727,26.1486511 20.5000149,26.1486511 C22.50273,26.1486511 22.739918,26.1409998 23.5306436,26.104917 C24.2618862,26.0715732 24.6590055,25.9493918 24.9232853,25.8466808 C25.273366,25.710626 25.5232067,25.5481045 25.7856407,25.2856407 C26.0481045,25.0232067 26.210626,24.773366 26.3466808,24.4232853 C26.4493918,24.1590055 26.5715732,23.7618862 26.604917,23.0306436 C26.6409998,22.2397989 26.6486511,22.0025812 26.6486511,20.0000149 C26.6486511,17.9974188 26.6409998,17.7602011 26.604917,16.9693564 C26.5715732,16.2381138 26.4493918,15.8409945 26.3466808,15.5767147 C26.210626,15.226634 26.0481045,14.9767933 25.7856407,14.7143593 C25.5232067,14.4518955 25.273366,14.289374 24.9232853,14.1533192 C24.6590055,14.0506082 24.2618862,13.9284268 23.5306436,13.895083 C22.7397989,13.8590002 22.5025812,13.8513489 20.5000149,13.8513489 Z M20.5000149,16.1486511 C22.627055,16.1486511 24.3513489,17.872945 24.3513489,20.0000149 C24.3513489,22.127055 22.627055,23.8513489 20.5000149,23.8513489 C18.372945,23.8513489 16.6486511,22.127055 16.6486511,20.0000149 C16.6486511,17.872945 18.372945,16.1486511 20.5000149,16.1486511 Z M20.5000149,22.5 C21.8807183,22.5 23,21.3807183 23,20.0000149 C23,18.6192817 21.8807183,17.5 20.5000149,17.5 C19.1192817,17.5 18,18.6192817 18,20.0000149 C18,21.3807183 19.1192817,22.5 20.5000149,22.5 Z M25.4035261,15.99649 C25.4035261,16.4935515 25.0005716,16.8964763 24.50351,16.8964763 C24.0064782,16.8964763 23.6035237,16.4935515 23.6035237,15.99649 C23.6035237,15.4994284 24.0064782,15.0964739 24.50351,15.0964739 C25.0005716,15.0964739 25.4035261,15.4994284 25.4035261,15.99649 Z" id="Instagram"></path>
                    </g>
                </g>
            </g>
        </g>
    </g>
</svg>