<svg viewBox="0 0 18 14" xmlns="http://www.w3.org/2000/svg">
	<path d="M17.4 1.657a6.732 6.732 0 0 1-1.98.557A3.527 3.527 0 0 0 16.938.259a6.788 6.788 0 0 1-2.19.856A3.4 3.4 0 0 0 12.23 0c-1.902 0-3.445 1.583-3.445 3.534 0 .277.03.546.088.805C6.01 4.191 3.471 2.786 1.77.645a3.599 3.599 0 0 0-.467 1.779c0 1.225.608 2.307 1.533 2.941a3.384 3.384 0 0 1-1.562-.44v.043c0 1.713 1.189 3.142 2.766 3.465a3.348 3.348 0 0 1-1.557.062c.44 1.404 1.711 2.426 3.22 2.453A6.806 6.806 0 0 1 .6 12.413 9.596 9.596 0 0 0 5.883 14c6.341 0 9.807-5.385 9.807-10.055 0-.154-.003-.308-.009-.458a7.074 7.074 0 0 0 1.719-1.83" fill="#00AAEC" fill-rule="evenodd"/>
</svg>