<svg xmlns="http://www.w3.org/2000/svg" viewBox="0 0 89 15"><path fill="#121820" d="M10.293 10.253a3.684 3.684 0 0 1-3.036 1.603c-2.156 0-3.784-1.671-3.784-3.887 0-1.11.395-2.112 1.11-2.821.694-.688 1.645-1.067 2.674-1.067a3.678 3.678 0 0 1 3.036 1.607l.113.162 2.244-1.945-.113-.137a6.824 6.824 0 0 0-5.284-2.504C3.53 1.26.5 4.269.5 7.969c0 3.693 3.03 6.69 6.753 6.69a6.81 6.81 0 0 0 5.28-2.486l.114-.137-2.244-1.945-.11.162zm13.2-9.555v13.637h-2.476v-.598a5.549 5.549 0 0 1-2.794.76c-2.67 0-4.861-2.06-4.861-5.08 0-3.073 2.191-5.08 4.861-5.08.98.004 1.938.26 2.794.746V.698h2.476zM21.017 11.37V7.425c-.585-.505-1.413-.833-2.35-.833-1.645 0-2.864 1.211-2.864 2.822 0 1.664 1.219 2.803 2.864 2.803.92 0 1.769-.325 2.35-.847zm4.594-6.064h2.459v9.03h-2.46v-9.03zm5.006 6.37c1.183.526 2.085.796 3.29.796 1.13 0 1.575-.432 1.575-.94 0-.562-.55-.814-2.033-1.138-2.071-.469-3.572-1.157-3.572-3.056 0-1.772 1.434-3 3.66-3 1.504 0 2.706.36 3.748.795l-.814 1.845c-.937-.36-2.032-.634-2.987-.634-.937 0-1.413.342-1.413.868 0 .544.585.796 2.121 1.12 2.227.473 3.52 1.265 3.52 3.056 0 1.863-1.399 3.091-3.854 3.091-1.663 0-2.741-.234-4.154-.94l.913-1.863zm17.113.832c-.866 1.211-2.226 1.971-3.713 1.971-2.899 0-5.252-2.259-5.252-5.062 0-2.82 2.35-5.08 5.252-5.08 1.54 0 2.882.76 3.749 1.953l-1.593 1.502A2.6 2.6 0 0 0 44.017 6.6a2.83 2.83 0 0 0-2.828 2.82c0 1.54 1.271 2.804 2.828 2.804a2.573 2.573 0 0 0 2.156-1.21l1.557 1.494zm11.242-3.094c0 2.803-2.35 5.062-5.253 5.062s-5.252-2.26-5.252-5.062c0-2.822 2.35-5.08 5.252-5.08 2.903 0 5.253 2.258 5.253 5.08zm-2.42 0a2.818 2.818 0 0 0-2.83-2.822 2.83 2.83 0 0 0-2.828 2.822c0 1.538 1.272 2.803 2.829 2.803 1.57 0 2.829-1.265 2.829-2.803zm13.062-4.818v9.74h-2.459v-.653c-.729.508-1.627.796-2.617.796-2.811 0-4.104-1.336-4.104-4.521V4.596h2.459v5.362c0 1.52.729 2.259 2.085 2.259.884 0 1.61-.289 2.174-.779V4.593h2.462v.003zm11.157 4.26v5.48h-2.459v-5.48c0-1.521-.73-2.26-2.085-2.26-.867 0-1.575.288-2.121.778v6.961h-2.46V4.514h2.46v.616c.708-.508 1.592-.797 2.564-.797 2.808 0 4.1 1.34 4.1 4.522zm5.016-2.264v3.474c0 1.754.282 2.259 1.522 2.259.423 0 .796-.054 1.131-.09v1.88c-.106.036-.849.36-2.226.36-1.61 0-2.9-1.03-2.9-3.09V6.591h-1.36V4.514h1.36V.698h2.477v3.816h2.684v2.078h-2.688zM25.516 1.984c0-.814.634-1.484 1.412-1.484.779 0 1.399.67 1.399 1.484 0 .815-.62 1.467-1.399 1.467-.785-.007-1.42-.663-1.412-1.467z"/></svg>