<svg xmlns="http://www.w3.org/2000/svg" viewBox="0 0 38 38"><g fill="none" fill-rule="nonzero"><path fill="#121820" d="M34.357 7.183c-2.438.884-4.657 1.718-6.903 2.47-.295.099-.783-.152-1.1-.365C19.343 4.552 10 8.257 8.2 16.528a10.992 10.992 0 0 0 1.368 8.194c.341.573.314.954-.012 1.495C8.447 28.042 7.397 29.9 6.233 31.9 1.929 27.27.209 21.916 1.163 15.76 2.29 8.48 7.93 2.394 15.281.739c7.505-1.686 13.792.613 19.076 6.444zM34.195 30.48c-5.18 7.008-15.45 8.756-22.135 5.32 1.07-1.848 2.12-3.703 3.227-5.526a.945.945 0 0 1 .842-.293c3.79 1.11 7.272.503 10.497-1.745.21-.143.552-.278.758-.21 2.265.793 4.522 1.625 6.81 2.454zM34.268 26.8a3.204 3.204 0 0 1-3.252-3.261c.023-1.815 1.473-3.194 3.335-3.158a3.215 3.215 0 1 1-.091 6.427l.008-.008z"/><path fill="#EFEFEF" d="M12.7 39.79h1.263H12.7zM25.121 39.79h.842-.842z"/></g></svg>