<svg xmlns="http://www.w3.org/2000/svg" viewBox="0 0 88 54"><g fill="none" fill-rule="nonzero"><path fill="#121820" d="M11.718 53.85c0-2.474.006-4.946.018-7.418 0-.633.046-1.263.053-1.885 0-.249.098-.377.348-.355H71.055c.23 0 .34.114.34.378 0 2.982.038 5.969.053 8.952a1.047 1.047 0 0 1-.068.253H12.273a1.675 1.675 0 0 0-.378.086l-.177-.011zm5.43-4.039c-.098-.17-.158-.264-.215-.377-.434-.807-.865-1.621-1.31-2.425a1.325 1.325 0 0 0-.314-.279c-.079.117-.204.223-.226.351a108.768 108.768 0 0 0-.54 3.104c-.08.497-.144.999-.223 1.508.185 0 .302.034.419.038.706 0 .699 0 .793-.702.06-.467.144-.935.215-1.399.379.58.727 1.18 1.043 1.795.1.14.218.268.351.377.13-.111.244-.238.344-.377.328-.6.638-1.21.955-1.817.134.49.236.987.306 1.49.121.67.129.659.835.64.294 0 .378-.079.336-.407-.242-1.297-.442-2.602-.676-3.903a4.276 4.276 0 0 0-.264-.713 4.15 4.15 0 0 0-.495.6c-.446.822-.869 1.633-1.333 2.496zm34.808-.532a2.532 2.532 0 0 0 2.545 2.572 2.57 2.57 0 0 0 2.552-2.588 2.57 2.57 0 0 0-2.593-2.548 2.544 2.544 0 0 0-2.504 2.564zm-12.841.023a2.597 2.597 0 0 0 2.58 2.546 2.568 2.568 0 0 0 2.366-1.596 2.561 2.561 0 0 0-.573-2.793 2.571 2.571 0 0 0-2.804-.538 2.564 2.564 0 0 0-1.57 2.381zm-3.109.471l.216-.135c.619-.311.934-1.014.755-1.682a1.544 1.544 0 0 0-1.541-1.158h-1.813c-.287 0-.408.106-.408.4v4.148c0 .377.189.426.484.407.294-.019.683.095.683-.415v-1.13c.03-.136.085-.264.163-.378.132.072.317.113.377.223.204.331.378.69.544 1.04.344.69.657.811 1.51.525l-.97-1.845zm29.75-1.904h1.575c.397 0 .487-.188.484-.532-.004-.343-.065-.554-.469-.546H64.99c-.318 0-.427.117-.423.426v4.118c0 .305.102.433.419.426.755 0 1.54-.019 2.311 0 .408 0 .521-.174.521-.547 0-.373-.128-.554-.528-.54-.506.023-1.016 0-1.534 0v-.912h1.284c.416 0 .412-.275.42-.57.007-.293 0-.538-.423-.52-.423.02-.835 0-1.28 0v-.803zm-42.232 0c.581 0 1.11-.019 1.635 0 .378 0 .446-.196.43-.509-.014-.313.054-.588-.41-.577-.783.023-1.572 0-2.354 0-.317 0-.427.113-.423.422v4.118c0 .306.09.438.412.43.785 0 1.571-.019 2.357 0 .411 0 .423-.222.419-.524-.004-.302.03-.58-.423-.562-.537.027-1.077 0-1.628 0v-.912h1.3c.418 0 .377-.264.377-.543 0-.28.045-.562-.378-.543-.423.018-.865 0-1.318 0l.004-.8zm24.172 2.09h.755a1.581 1.581 0 0 0 .072-3.156c-.514-.024-1.028-.001-1.541-.001-.295 0-.4.113-.397.403v4.149c0 .422.25.407.536.4.287-.008.601.07.578-.4-.022-.472.012-.89.012-1.396h-.015zm-19.036-2.09v3.454c0 .483.28.442.593.442.314 0 .6.037.586-.442-.027-.98 0-1.96 0-2.941 0-.158 0-.317.022-.513h.722c.377 0 .427-.241.427-.543 0-.302-.046-.54-.435-.535h-2.644a.461.461 0 0 0-.343.143.591.591 0 0 0 .547.92l.525.015zm31.892 2.82v-3.468c0-.445-.253-.438-.56-.423-.305.015-.622-.094-.619.407v4.149c0 .324.14.414.439.407.706 0 1.416-.019 2.122 0 .404 0 .43-.215.423-.517-.007-.301.038-.592-.415-.57-.454.023-.869.016-1.375.016h-.015zm-37.138-4.257l1.096-.475c.234-.102.434-.196.253-.531-.182-.336-.355-.306-.616-.14-.26.166-.43.275-.657.377-.34.192-.412.411-.06.77h-.016zM.478 24.255c.15-.754.332-1.508.442-2.263.253-1.76.502-3.518.676-5.279.083-.833-.027-1.682-.027-2.526a3.543 3.543 0 0 1 3.056-3.462c.944-.12 1.79.377 1.888 1.316.138 1.27.187 2.55.147 3.827-.03 1.32-.162 2.64-.31 3.96-.17 1.508-.403 3.04-.607 4.56a.497.497 0 0 0 0 .112c1.888-.596 3.346-1.885 4.819-3.133 1.382-1.17 2.708-2.406 4.154-3.504.699-.531 1.511-1.1 2.52-.852 1.51.377 2.179 1.467 1.725 2.953-.483 1.58-1.537 2.768-2.81 3.737-1.397 1.067-2.881 2.029-4.347 3.017a190.859 190.859 0 0 1-4.808 3.137 7.727 7.727 0 0 1-1.552.61c-.725.257-1.443.533-2.187.717-.744.185-1.306-.075-1.73-.814a9.04 9.04 0 0 1-.966-3.319 2.12 2.12 0 0 0-.098-.324l.015-2.47z"/><path fill="#D8D7D7" d="M11.899 53.85c.122-.043.249-.073.377-.087h59.089a.666.666 0 0 1 0 .087H11.899z"/><path fill="#121820" d="M80.716 24.515c0 2.523-.528 4.326-2.04 5.702-.857.784-1.748 1.561-2.968 1.795a8.974 8.974 0 0 0-1.069.453c-.63.233-1.274.424-1.93.569a3.621 3.621 0 0 0-1.763.754 1.252 1.252 0 0 0-.378.58c-.525 1.788-1.832 1.796-3.021 1.276a5.554 5.554 0 0 1-.624-.378 1.67 1.67 0 0 1-.755-1.233 19.475 19.475 0 0 0-.755-2.349c-.068-.196-.167-.377-.216-.592a7.536 7.536 0 0 0-.944-2.263 8.725 8.725 0 0 1-.665-1.814c-.219-.64-.4-1.293-.638-1.927-.158-.414-.378-.803-.59-1.202a10.978 10.978 0 0 1-.543-1.132 165.513 165.513 0 0 1-1.564-4.416c-.226-.682-.34-1.402-.536-2.096-.42-1.479-.8-2.968-1.295-4.42-.65-1.908.555-2.753 1.854-3.017a3.404 3.404 0 0 1 1.035 0 1.212 1.212 0 0 1 1.16 1.018c.377 1.366.619 2.783 1.174 4.073.555 1.29.933 2.64 1.363 3.956.2.615.408 1.226.635 1.829.08.14.18.267.298.377.11-.124.276-.234.325-.377a4.83 4.83 0 0 1 2.395-2.674c2.122-1.097 4.305-1.848 6.756-.867a5.232 5.232 0 0 1 1.828 1.105c.329.324.733.577 1.062.931.52.603.948 1.28 1.269 2.01a10.629 10.629 0 0 1 1.14 4.33zm-12.463.558a5.183 5.183 0 0 0 1.609 2.987c.638.61 1.416 1.094 2.266.86 1.265-.343 2.443-.928 2.934-2.316a2.74 2.74 0 0 1 .287-.652 2.704 2.704 0 0 0 .457-2.55c-.279-.848-.517-1.704-1.102-2.401a1.644 1.644 0 0 0-1.802-.638 7.4 7.4 0 0 0-3.739 2.342 3.606 3.606 0 0 0-.918 2.368h.008zM34.224 26.19a16.3 16.3 0 0 1-.257 1.908c-.476 1.885-2.266 2.979-4.31 2.534-1.51-.324-2.968-.784-4.449-1.184-.755-.208-1.484-.257-2.092.377a1.085 1.085 0 0 0-.227 1.422c.756 1.244 1.655 2.405 3.078 2.94a3.135 3.135 0 0 0 2.297.02 3.46 3.46 0 0 1 2.202-.283c1.03.268 1.51 1.218 1.053 2.172a6.83 6.83 0 0 1-.823 1.131c-.09.117-.238.189-.332.306-.797.969-1.889 1.335-3.078 1.508a3.052 3.052 0 0 1-1.288-.117c-1.923-.57-3.467-1.787-5.012-3.016a.849.849 0 0 1-.163-.215c-.642-1.034-1.295-2.063-1.914-3.112a3.469 3.469 0 0 1-.499-2.598c.48-1.923 1.092-3.816 1.64-5.724a3.394 3.394 0 0 1 1.325-1.855c1.303-.958 2.602-1.886 4.215-2.297a8.957 8.957 0 0 1 3.84-.268 5.397 5.397 0 0 1 4.567 4.525c.11.604.151 1.207.227 1.826zm-6.648-2.478c-.46.042-1.106.136-1.752.15-.645.037-1.226.4-1.541.963a.851.851 0 0 0 .427 1.33c1.419.556 2.914.893 4.434 1a.9.9 0 0 0 .69-.283 2.173 2.173 0 0 0 .235-1.983c-.362-.868-1.05-1.215-2.493-1.177zM44.338 13.794c-.057 1.407-.166 2.674-.151 3.937.026 2.327.034 4.657.283 6.98.132 1.249 0 2.527.057 3.771.072 1.777.204 3.545.302 5.318 0 .414 0 .833-.023 1.248-.053.931-.083 1.863-.192 2.786a4.36 4.36 0 0 1-1.39 2.768c-.96.883-1.934.86-2.825-.075a4.626 4.626 0 0 1-1.258-4.37c.48-2.18.302-4.333 0-6.51a4.775 4.775 0 0 1 .14-1.56c.377-1.796.06-3.575-.057-5.36-.064-.946-.034-1.885 0-2.831.03-1.531.132-3.05.257-4.57.03-.378-.083-.781-.08-1.173 0-.611.046-1.222.087-1.83.03-.376.129-.754.14-1.13.034-1.475 1.541-2.21 2.557-2.146.514.03.816.418 1.073.822a8.426 8.426 0 0 1 1.08 3.925zM81.2 8.349c-.537-.51-1.039-1.007-1.564-1.47-1.099-.974-1.16-2.18-.782-3.47.51-1.754 2.304-3.066 4.174-3.247 2.568-.249 4.479 1.946 4.83 4.039a5.58 5.58 0 0 1-.377 3.171c-.854 2.033-2.372 3.45-4.155 4.631-.68.444-1.387.847-2.115 1.207-.816.407-1.54.075-2.156-.468-.552-.49-.597-1.15-.423-1.836a2.23 2.23 0 0 1 .951-1.165c.567-.445 1.307-.702 1.617-1.392zM58.656 36.567c.128 1.448-.638 2.014-1.62 2.384-.393.15-.8.258-1.217.32a1.636 1.636 0 0 1-1.786-.954 5.672 5.672 0 0 1-.525-2.262 20.188 20.188 0 0 0-.536-3.462c-.442-1.735-1.092-3.432-1.103-5.242.014-1.14.13-2.275.347-3.394.13-.466.383-.888.733-1.222a1.621 1.621 0 0 1 2.712.28c.34.614.594 1.273.755 1.957.487 1.938.948 3.887 1.352 5.848.34 1.663.593 3.345.869 5.023.027.24.033.483.019.724zM49.199 17.21a4.552 4.552 0 0 1 1.412-3.227.714.714 0 0 1 .43-.189c.45-.037.903-.049 1.357-.049 1.235 0 1.937.55 2.205 1.761.23.916.108 1.885-.343 2.715a2.918 2.918 0 0 1-3.328 1.366c-.755-.204-1.11-.819-1.51-1.354-.2-.253-.16-.675-.223-1.022z"/><path fill="#FDFDFD" d="M17.149 49.811c.464-.863.887-1.674 1.333-2.47a4.15 4.15 0 0 1 .495-.6c.109.23.197.468.264.713.234 1.301.434 2.606.676 3.903.06.328-.042.4-.336.408-.706.018-.714.03-.835-.641-.07-.503-.172-1-.306-1.49-.317.607-.627 1.218-.955 1.818-.1.138-.215.265-.344.377a1.94 1.94 0 0 1-.351-.377 20.092 20.092 0 0 0-1.043-1.795c-.071.463-.154.931-.215 1.399-.094.712-.087.716-.793.701-.117 0-.234-.023-.42-.038.08-.528.144-1.03.224-1.508.173-1.037.347-2.07.54-3.104.022-.128.147-.233.226-.35.119.075.225.17.314.279.445.803.876 1.618 1.31 2.424.057.087.102.182.216.351zM51.956 49.28a2.54 2.54 0 0 1 2.555-2.525 2.54 2.54 0 0 1 2.528 2.55 2.578 2.578 0 0 1-2.538 2.546 2.54 2.54 0 0 1-2.545-2.572zm3.913 0a1.39 1.39 0 0 0-1.41-1.403 1.48 1.48 0 0 0-1.385 1.41 1.457 1.457 0 0 0 1.442 1.395 1.372 1.372 0 0 0 1.353-1.403zM39.11 49.302a2.564 2.564 0 0 1 1.57-2.381 2.571 2.571 0 0 1 2.804.538c.74.73.966 1.832.573 2.793a2.568 2.568 0 0 1-2.367 1.596 2.608 2.608 0 0 1-2.58-2.546zm3.963-.03a1.403 1.403 0 0 0-2.408-.961 1.397 1.397 0 0 0 1.04 2.371 1.442 1.442 0 0 0 1.368-1.41zM36.002 49.773l.979 1.886c-.861.287-1.175.166-1.511-.524-.178-.35-.34-.71-.544-1.041-.068-.11-.253-.15-.378-.222a1.085 1.085 0 0 0-.162.377c-.023.377 0 .754 0 1.13 0 .51-.378.397-.684.416-.306.019-.487-.034-.483-.408V47.24c0-.294.12-.403.408-.4h1.813c.721-.02 1.361.46 1.54 1.158a1.459 1.459 0 0 1-.755 1.682l-.223.094zm-1.068-2.043c-.208.079-.525.101-.6.248-.277.544.018.973.615.973.596 0 .955-.207.963-.577.007-.37-.336-.573-.978-.644z"/><path fill="#FBFBFB" d="M65.756 47.87v.829h1.28c.416 0 .431.218.424.52-.008.302.037.592-.42.57-.457-.023-.838 0-1.284 0v.912h1.534c.4 0 .528.155.528.54 0 .384-.113.558-.52.546-.756-.022-1.542 0-2.312 0-.317 0-.423-.12-.42-.426v-4.118c0-.31.106-.434.424-.426h2.356c.404 0 .469.211.469.547 0 .335-.087.547-.484.532-.51-.05-1.02-.027-1.575-.027z"/><path fill="#FCFCFC" d="M23.524 47.87v.829h1.318c.43 0 .378.267.378.543 0 .275.037.562-.378.543-.415-.02-.842 0-1.3 0v.912h1.629c.453 0 .419.264.423.562.003.298 0 .536-.42.524-.785-.022-1.57 0-2.356 0-.321 0-.416-.124-.412-.43v-4.117c0-.31.106-.43.423-.423.782 0 1.571.02 2.353 0 .464 0 .4.287.412.577.01.29-.034.524-.431.51-.529-.053-1.058-.03-1.64-.03z"/><path fill="#FDFDFD" d="M47.71 49.958v1.403c0 .445-.298.377-.577.4-.28.022-.54.022-.537-.4.02-1.388 0-2.775 0-4.148 0-.29.102-.411.397-.404h1.541a1.581 1.581 0 0 1-.072 3.157l-.751-.008zm0-1.022c.439 0 .877.129 1.134-.316a.591.591 0 0 0-.03-.528c-.284-.377-.695-.2-1.092-.189l-.011 1.033z"/><path fill="#FBFBFB" d="M28.675 47.87h-.517a.593.593 0 0 1-.548-.921.461.461 0 0 1 .344-.143h2.644c.378 0 .434.23.434.535 0 .306-.038.555-.427.543h-.721c0 .196-.023.355-.023.513 0 .98-.022 1.961 0 2.941 0 .48-.272.442-.585.442-.314 0-.604.041-.593-.442.008-1.142-.008-2.27-.008-3.469z"/><path fill="#FAFAFA" d="M60.567 50.69h1.401c.446 0 .408.275.416.57.007.293-.02.527-.423.516-.707-.023-1.417 0-2.123 0-.298 0-.442-.083-.438-.407V47.22c0-.502.332-.396.62-.408.286-.011.566-.022.558.423-.022 1.112-.011 2.24-.011 3.454z"/><path fill="#FBFBFB" d="M23.43 46.432c-.352-.358-.28-.577.075-.754.227-.117.442-.252.657-.377.215-.124.446-.18.616.14.17.32 0 .43-.253.531l-1.096.46z"/><path fill="#121820" d="M55.869 49.28a1.368 1.368 0 0 1-1.353 1.402 1.457 1.457 0 0 1-1.442-1.395 1.48 1.48 0 0 1 1.386-1.41 1.395 1.395 0 0 1 1.409 1.402zM43.073 49.272a1.403 1.403 0 0 1-2.802.019 1.403 1.403 0 0 1 2.802-.019zM34.934 47.73c.642.071.985.279.978.644-.008.366-.348.577-.963.577-.616 0-.892-.43-.616-.973.076-.131.393-.17.6-.248zM47.73 48.936v-1.033c.396 0 .808-.188 1.091.189a.591.591 0 0 1 .03.528c-.245.445-.683.316-1.121.316z"/></g></svg>