<svg xmlns="http://www.w3.org/2000/svg" viewBox="0 0 88 22"><g fill="#121820" fill-rule="nonzero"><path d="M74.544 12.499c-.201-.255-.748-.091-1.003.073-.256.164-.62.383-.949.437-.328.073-.51.019-.51.019s.51-2.298.747-3.264c.237-.967.894-3.483.639-3.94-.256-.455-1.824-1.075-2.499-1.02-.693.054-1.075.911-1.13 1.367 0 0-1.495-.602-3.684 1.277-2.389 2.06-2.771 4.066-2.808 4.467-.055.584.018.912.018.912s-.784.784-1.531.693c-.748-.11-.42-1.276-.22-1.896.201-.62 1.678-3.538 1.423-4.468-.255-.93-1.678-1.86-3.337-.875-1.66.984-2.206 2.024-2.444 2.115-.237.091.383-1.277.493-1.514.11-.237.547-.838-.037-1.148-.583-.329-1.513-.475-1.914-.292-.383.182-1.332 1.86-1.696 3.355-.365 1.495-.584 3.738-.584 3.738s-.565.803-1.276.803c-.73 0-.657-.639-.51-1.368.145-.748 1.093-3.392 1.24-4.103.145-.711.473-1.805-1.15-1.842-1.604-.036-2.133 1.277-2.607 2.99-.474 1.715-.438 3.484-.438 3.484s-.365.474-1.276.766c-.912.291-1.095.127-1.095.127s1.186-.693 1.587-3.866c.42-3.172-.748-3.337-1.568-3.5-.82-.165-1.714.127-2.48.856-.766.73-.967 1.204-.967.967.018-.237.274-1.094.566-1.641.2-.383.018-.857-.949-.967-.966-.11-1.24.2-1.805 1.331-.565 1.15-1.313 3.793-1.495 4.778-.183 1.003-.31 1.805-.31 1.805s-.602.639-1.15.31c-.546-.328-.31-1.459.183-2.626.493-1.167 1.842-3.793.073-4.74-1.769-.949-4.103 1.495-4.103 1.495s.256-1.386-1.276-1.642c-1.514-.255-2.754.876-3.21 1.295-.51.474-.984 1.185-.984.948 0-.237.474-1.313.601-1.64.146-.33.329-.676-.747-1.059-1.076-.382-1.66-.072-1.988.42-.328.492-.82 1.75-1.076 2.99-.255 1.259-.529 3.684-.529 3.684s-.693.82-1.33.82c-.62 0-.803-.291-.603-1.148.201-.84.985-4.25 1.113-4.833.127-.565.474-1.24-.237-1.714s-2.134-.747-2.261-.328c-.146.401-.201.711-.201.711s-1.149-.547-2.699.073c-1.495.602-2.699 1.915-3.483 3.665-.51 1.15-.656 2.426-.656 2.426s-2.06 1.64-3.866.948c-1.805-.693-1.641-3.319-1.277-4.431.347-1.094 1.35-2.06 2.39-2.115.71-.037.692.547.692.547s-1.677 1.148-1.149 1.841c.547.693 2.006.967 2.736.347.747-.62 2.188-4.395-2.134-4.377-4.303.019-5.908 3.92-5.762 6.182.127 1.951.93 2.772.93 2.772s-.146.328-.602.2c-.748-.2-1.586-1.367-3.027-1.24-1.44.146-2.243 1.569-2.425 1.77 0 0-.183.2-.073.346.11.127.237.073.383-.073.146-.128.93-.839 1.64-.803.712.019 1.697 1.113 2.918 1.058 1.222-.055 1.46-.985 1.46-.985s.783 1.095 3.081 1.15c2.316.072 4.395-1.605 4.377-1.587-.019.018.419 1.586 2.498 1.66 2.079.072 3.009-1.916 3.009-1.916s.018 1.696 1.768 1.788c1.751.09 2.991-1.204 2.991-1.204s.219.912 1.295 1.094c1.076.182 1.149-.292 1.203-.602.055-.31.401-2.133.638-2.99.238-.857.858-2.663 2.025-3.046 1.167-.382.93.402.4 2.025-.51 1.623-1.13 3.464-.802 4.066.329.584 2.444 1.112 2.645.328.2-.784.291-2.48.82-3.902.51-1.44 1.277-2.115 1.605-2.334.328-.219 1.513-.675 1.057.602-.455 1.276-1.458 3.683-1.203 4.613.255.93 1.477 1.605 2.644 1.404 1.167-.2 1.459-.51 1.459-.51s-.438 3.92.255 5.27c.693 1.35 2.043 1.422 2.754 1.221.73-.2.51-.838.255-2.17-.255-1.33-.401-3.884.073-6.583.474-2.698 2.133-4.722 2.936-4.303.802.42-.018 2.845-.237 3.355-.22.51-.438 1.46-1.15 1.514-.71.054-1.13-.146-1.257.292-.128.419 0 1.367.893 1.64.894.274 2.353.329 3.356.019 1.002-.31 2.224-1.13 2.224-1.13s.073 1.166 1.24 1.349c1.167.182 2.188-.292 2.845-.748.656-.438.693-.547.693-.51.018.036.219 1.312 1.532 1.258 1.313-.055.875-.328 1.057-1.404.183-1.076.456-3.1 1.331-4.23.876-1.132 1.696-1.332 2.043-1.15.328.183-.292 1.678-.565 2.28-.256.601-1.441 3.227.145 4.194 1.587.966 3.502-.292 3.72-.438.22-.164.821-.602.821-.583 0 .018.748 1.313 2.261 1.44 1.495.128 2.845-1.185 2.845-1.149.018.037-.255 3.757-1.149 4.65-.893.876-2.261.22-2.808-.857-.547-1.076-.529-1.185-.912-1.221-.383-.019-1.97.966-1.915 1.732.073.748 1.058 2.59 4.122 2.68 3.081.073 4.358-3.19 4.54-3.574.182-.383.912-2.717.912-2.717s.912-.073 1.915-.784c1.02-.711 1.203-1.477 1.003-1.732zm-54.652-.383c-.474 1.021-1.55 1.24-2.097.73-.565-.511-.182-2.827.693-4.104.876-1.276 1.933-1.95 2.59-1.458 0-.019-.712 3.81-1.186 4.832zm48.652.292c-.438 1.04-1.495 1.276-2.079.802-.583-.492-.273-2.826.566-4.14.838-1.312 1.86-2.005 2.534-1.55 0-.018-.583 3.848-1.02 4.888zM51.877 4.311c.328.183 1.149.401 1.459.055.31-.347.802-1.495 1.058-1.787.255-.292 1.148-.93 0-1.514-1.15-.583-1.696-.565-1.988-.51-.292.054-1.13.474-1.24 1.732-.128 1.258.273 1.787.711 2.024M70.842 19.702c-.055.11-.091.456.383.602.474.145.565-.347.529-.548-.037-.2-.329-.31-.584-.273-.182.036-.274.11-.328.219M87.564 19.155c-.073-.073-.201.018-.365.146-.164.127-1.003.492-1.495.31-.493-.183-1.15-.766-1.751-.73-.602.055-.857.292-1.076.456-.219.164-.62.474-.82.383-.201-.091-.092-.529.054-.857.146-.328.565-1.258-.018-1.422-.584-.165-1.24.565-1.24.565s.128-.51-.383-.584c-.51-.073-1.13.53-1.295.748-.164.219.055-.365.091-.42.037-.072.201-.273.055-.364-.127-.073-.492-.182-.62-.11-.146.073-.365.511-.437.785-.073.273-.201 1.003-.201 1.003s-.11.018-.237 0c-.128-.019-.164-.092-.164-.092s.292-.674-.037-1.203c-.328-.529-.784-.237-.784-.237s-.2-.164-.529-.091c-.346.073-.893.455-1.112 1.039-.219.584-.164 1.003-.164 1.003s-.802.565-1.331.292c-.53-.274-.474-1.058-.383-1.313.09-.274.62-.967.984-.456 0 .018-.455.328-.4.474.054.164.473.274.601.237.2-.055.547-.401.383-.893-.182-.53-.711-.511-1.222-.402-.383.092-1.623.784-1.258 2.08.255.893 1.112.947 1.842.765.51-.128.893-.401.893-.401s.2.438.784.529c.584.09 1.113-.31 1.35-.62.237-.31.273-.401.273-.401s.037.072.22.109c.182.036.29 0 .29 0s-.072.51.165.748c.219.218.547.127.602.054.036-.09.164-1.094.365-1.44.2-.347.346-.53.583-.602.237-.073.237.091.2.219-.018.11-.255.912-.346 1.203-.091.31-.11.584.091.675.2.091.566.091.62.018.055-.073.055-.255.073-.328.019-.073.11-.894.383-1.295.256-.383.547-.51.675-.42.128.074 0 .33-.182.894-.183.547-.329.894.127 1.15.456.236.985-.074 1.368-.384.383-.31.529-.437.839-.182.31.255 1.221.711 1.95.73.712.018 1.606-.584 1.824-.858.183-.383.237-.437.165-.51zm-10.76.182c-.163.31-.455.492-.674.474-.219-.018-.492-.273-.31-1.094.182-.82.839-.966.839-.966-.328.547.31.93.31.93s.036.291-.164.656z"/><path d="M75.455 10.11s-1.823-.036-1.86 2.188c-.036 2.225 2.353 3.027 4.596 3.064 2.243.036 4.212-1.331 4.267-2.918.054-1.586-1.532-2.17-2.68-3.3-.475-.456-1.514-1.46-1.277-2.098.237-.638 1.167-.729 1.44-.291.274.437.766 1.531 1.587 1.586.82.073 1.477-1.057.875-1.878-.602-.839-1.477-1.368-3.355-1.295-1.86.073-3.192 1.094-3.246 2.444-.055 1.33 1.604 2.443 2.534 3.392.894.93.949 1.64.602 2.097-.437.583-1.386.82-2.352.4-.967-.419-.474-.93-.292-1.002.182-.073 1.094-.51.784-1.258-.292-.748-.82-1.058-1.623-1.131"/></g></svg>