<svg xmlns="http://www.w3.org/2000/svg" viewBox="0 0 86 42"><g fill="none" fill-rule="nonzero"><path fill="#121820" d="M24.035 41.995H.144c.079-1.472.105-2.948.238-4.415.29-3.083.966-6.119 2.013-9.04 2.628-7.432 7.026-13.683 13.23-18.682C22.97 3.942 31.43.788 40.915.285a42.249 42.249 0 0 1 8.306.385c5.15.747 10.021 2.317 14.572 4.8 7.602 4.149 13.43 10.001 17.421 17.574 3.128 5.939 4.64 12.272 4.652 18.951H61.34c.325-.088.652-.17.973-.265 4.427-1.327 7.046-5.985 5.878-10.452-1.149-4.398-5.403-7.064-9.945-6.233-3.462.633-6.24 3.42-6.813 6.839-.164.974-.142 1.95-.022 2.926H64.18v-2.364h-9.857c.086-.406.134-.767.238-1.11.953-3.082 4.7-4.389 7.457-3.218 2.662 1.132 4.118 4.17 3.233 7.038-.743 2.404-2.36 3.977-4.976 4.301-2.006.248-3.628-.56-4.92-2.057a.795.795 0 0 0-.517-.248c-.794-.026-1.588-.012-2.382-.01a2.934 2.934 0 0 0-.304.03c.793 1.918 2.619 3.597 4.75 4.358.515.184 1.051.31 1.577.466H44.116c.018-.034.04-.067.055-.103l7.01-16.205c.043-.1.07-.206.121-.356-.985 0-1.92.013-2.857-.007-.317-.006-.483.073-.606.389-.562 1.435-1.16 2.857-1.747 4.284-1.035 2.53-2.072 5.06-3.11 7.59-.05.117-.159.21-.245.31-.08-.106-.16-.21-.239-.318a.538.538 0 0 1-.046-.107c-1.595-3.938-3.189-7.877-4.78-11.819-.095-.233-.205-.34-.484-.331-.754.023-1.508.008-2.262.008h-.763c.066.163.101.26.143.354l6.985 15.878c.051.142.093.286.126.432H26.972c.064-.031.131-.057.2-.077 2.656-.576 4.665-1.995 5.935-4.373.059-.11.107-.226.18-.381-.175-.01-.302-.022-.43-.023-.714 0-1.428.017-2.142-.008-.326-.012-.52.098-.73.338-1.419 1.625-3.207 2.345-5.373 1.907-2.645-.535-4.571-2.9-4.66-5.668-.103-3.245 2.118-5.606 4.938-5.984 2.324-.31 4.841.976 5.764 3.067.223.506.317 1.067.493 1.674H21.25c0 .682.005 1.32 0 1.967-.005.319.136.405.456.404 4.008-.01 8.016-.01 12.023 0 .09 0 .18-.012.288-.02l.064-.586c.613-5.992-5.02-10.644-10.92-9.015-4.03 1.113-6.7 5.135-6.133 9.24.497 3.604 2.937 6.427 6.338 7.344.224.06.446.13.669.194z"/><path fill="#FFF" d="M24.035 41.995c-.223-.065-.445-.134-.67-.194-3.403-.917-5.839-3.74-6.338-7.344-.567-4.104 2.103-8.126 6.134-9.239 5.9-1.632 11.533 3.019 10.918 9.009l-.064.587c-.108.007-.198.02-.288.02H21.704c-.318 0-.462-.086-.457-.405.008-.642 0-1.285 0-1.967h9.898c-.174-.606-.27-1.166-.493-1.674-.921-2.09-3.44-3.377-5.764-3.067-2.82.376-5.04 2.737-4.937 5.984.088 2.769 2.015 5.13 4.66 5.668 2.165.439 3.954-.282 5.372-1.907.21-.24.405-.35.73-.338.715.026 1.429.007 2.143.009.127 0 .254.013.429.022-.072.156-.12.271-.18.382-1.27 2.378-3.278 3.796-5.934 4.372-.07.02-.137.046-.201.078l-2.935.004zM58.482 41.995c-.526-.155-1.062-.285-1.577-.466-2.132-.76-3.96-2.44-4.75-4.357.1-.016.203-.026.305-.03.793 0 1.587-.017 2.38.01a.795.795 0 0 1 .518.247c1.29 1.497 2.912 2.305 4.92 2.057 2.616-.324 4.234-1.897 4.976-4.3.886-2.866-.571-5.907-3.232-7.034-2.756-1.172-6.508.136-7.456 3.217-.106.343-.154.704-.238 1.11h9.852v2.365H51.41c-.12-.976-.142-1.953.022-2.926.573-3.42 3.351-6.207 6.813-6.84 4.542-.83 8.796 1.836 9.945 6.234 1.165 4.463-1.454 9.12-5.878 10.448-.318.096-.648.177-.973.265h-2.858zM41.417 41.995a3.56 3.56 0 0 0-.13-.43c-2.324-5.293-4.653-10.586-6.985-15.878-.042-.095-.079-.191-.143-.355h.764c.754 0 1.508.016 2.261-.007.28-.01.39.096.485.33a4352.54 4352.54 0 0 0 4.78 11.82.538.538 0 0 0 .046.106l.238.319c.08-.104.196-.197.246-.311 1.041-2.528 2.078-5.058 3.11-7.59.584-1.427 1.182-2.849 1.746-4.284.124-.31.289-.393.607-.388.936.02 1.871.007 2.857.007-.05.15-.08.256-.122.356L44.17 41.894c-.015.035-.037.069-.055.103l-2.698-.002z"/></g></svg>