<svg xmlns="http://www.w3.org/2000/svg" viewBox="0 0 89 19"><defs><linearGradient id="a" x1="-6.387%" x2="107.641%" y1="108.929%" y2="-18.522%"><stop offset="0%"/><stop offset="17%" stop-opacity=".99"/><stop offset="30%" stop-opacity=".95"/><stop offset="42%" stop-opacity=".88"/><stop offset="53%" stop-opacity=".79"/><stop offset="64%" stop-opacity=".68"/><stop offset="74%" stop-opacity=".53"/><stop offset="84%" stop-opacity=".36"/><stop offset="93%" stop-opacity=".16"/><stop offset="100%" stop-opacity="0"/></linearGradient><linearGradient id="b" x1="6.985%" x2="129.614%" y1="114.661%" y2="-43.731%"><stop offset="0%"/><stop offset="9%" stop-opacity=".98"/><stop offset="22%" stop-opacity=".91"/><stop offset="36%" stop-opacity=".81"/><stop offset="51%" stop-opacity=".66"/><stop offset="68%" stop-opacity=".46"/><stop offset="85%" stop-opacity=".23"/><stop offset="100%" stop-opacity="0"/></linearGradient><linearGradient id="c" x1="2177%" x2="2166%" y1="1065%" y2="1065%"><stop offset="0%" stop-color="#FFF"/><stop offset="10%" stop-color="#FFF" stop-opacity=".94"/><stop offset="28%" stop-color="#FFF" stop-opacity=".78"/><stop offset="54%" stop-color="#FFF" stop-opacity=".52"/><stop offset="86%" stop-color="#FFF" stop-opacity=".17"/><stop offset="100%" stop-color="#FFF" stop-opacity="0"/></linearGradient><linearGradient id="d" x1="25.816%" x2="148.535%" y1="83.713%" y2="-75.554%"><stop offset="0%"/><stop offset="11%" stop-opacity=".98"/><stop offset="24%" stop-opacity=".93"/><stop offset="37%" stop-opacity=".84"/><stop offset="50%" stop-opacity=".72"/><stop offset="64%" stop-opacity=".56"/><stop offset="78%" stop-opacity=".37"/><stop offset="91.644%" stop-opacity=".15"/><stop offset="100%" stop-opacity="0"/></linearGradient><linearGradient id="e" x1="48.564%" x2="138.822%" y1="49.998%" y2="48.516%"><stop offset="0%"/><stop offset="9%" stop-opacity=".98"/><stop offset="22%" stop-opacity=".91"/><stop offset="36%" stop-opacity=".8"/><stop offset="52%" stop-opacity=".64"/><stop offset="69.275%" stop-opacity=".44"/><stop offset="86%" stop-opacity=".2"/><stop offset="100%" stop-opacity="0"/></linearGradient><linearGradient id="f" x1="21.64%" x2="167.22%" y1="49.433%" y2="49.433%"><stop offset="0%"/><stop offset="10.502%" stop-opacity=".98"/><stop offset="23%" stop-opacity=".93"/><stop offset="36%" stop-opacity=".84"/><stop offset="49.089%" stop-opacity=".71"/><stop offset="64%" stop-opacity=".55"/><stop offset="78%" stop-opacity=".36"/><stop offset="93%" stop-opacity=".13"/><stop offset="100%" stop-opacity="0"/></linearGradient><linearGradient id="g" x1="117.674%" x2="-27.803%" y1="94.413%" y2="94.413%"><stop offset="0%"/><stop offset="11%" stop-opacity=".98"/><stop offset="23%" stop-opacity=".93"/><stop offset="36%" stop-opacity=".84"/><stop offset="50%" stop-opacity=".72"/><stop offset="64.408%" stop-opacity=".56"/><stop offset="78%" stop-opacity=".36"/><stop offset="92%" stop-opacity=".13"/><stop offset="100%" stop-opacity="0"/></linearGradient><linearGradient id="h" x1="60.528%" x2="25.012%" y1="-41.123%" y2="143.49%"><stop offset="0%"/><stop offset="16%" stop-opacity=".99"/><stop offset="29%" stop-opacity=".95"/><stop offset="41%" stop-opacity=".88"/><stop offset="53%" stop-opacity=".79"/><stop offset="63%" stop-opacity=".67"/><stop offset="74%" stop-opacity=".52"/><stop offset="84%" stop-opacity=".34"/><stop offset="94%" stop-opacity=".15"/><stop offset="100%" stop-opacity="0"/></linearGradient><linearGradient id="i" x1="6.698%" x2="136.499%" y1="68.558%" y2="-30.297%"><stop offset="0%"/><stop offset="10%" stop-opacity=".98"/><stop offset="23%" stop-opacity=".92"/><stop offset="35.346%" stop-opacity=".82"/><stop offset="50%" stop-opacity=".69"/><stop offset="65%" stop-opacity=".52"/><stop offset="81%" stop-opacity=".3"/><stop offset="99.945%" stop-opacity=".06"/><stop offset="100%" stop-color="#FFF" stop-opacity="0"/></linearGradient></defs><g fill="none"><path fill="url(#a)" d="M81.523 15.26a6.4 6.4 0 0 1-6.228-4.984 4.283 4.283 0 0 1 1.01-4.29 4.256 4.256 0 0 1 4.253-1.116 4.27 4.27 0 0 1 2.975 3.245 6.393 6.393 0 0 0-6.418-5.445 6.394 6.394 0 0 0-6.24 5.648c-.018.218-.03.438-.03.662-.016 4.524 3.493 8.274 7.997 8.547 4.504.272 8.437-3.028 8.964-7.521a6.4 6.4 0 0 1-6.283 5.255z" transform="translate(.3 .5)"/><path fill="#121820" d="M79.658.947c-4.442.005-8.134 3.432-8.482 7.873a6.394 6.394 0 0 1 6.24-5.643 6.392 6.392 0 0 1 6.417 5.438 4.275 4.275 0 0 1-3.1 4.998 4.262 4.262 0 0 1-5.14-2.84 6.39 6.39 0 0 0 6.37 4.992 6.391 6.391 0 0 0 6.145-5.27l.03-.259c.02-.251.032-.502.032-.758-.007-4.71-3.814-8.526-8.512-8.531z"/><path fill="url(#b)" d="M63.527 7.639V7.62c0-3.128-1.968-6.391-6.214-6.107a7.06 7.06 0 0 0-1.468 1.101A7.017 7.017 0 0 1 57.96 7.62v.014a2.786 2.786 0 0 1 2.782-2.79 2.786 2.786 0 0 1 2.782 2.79" transform="translate(.3 .5)"/><path fill="#FFF" d="M57.623 2.006h-.012l.029-.017zm-8.599-.531h.01-.01z"/><path fill="#121820" d="M68.05 8.12c-.016-3.872-3.149-7.005-7.01-7.01-.141 0-.277 0-.414.014l-.127.01a7.232 7.232 0 0 0-.296.03l-.127.015c-.12.017-.238.036-.357.058h-.044a6.676 6.676 0 0 0-.408.095l-.067.019c-.113.03-.226.065-.343.101l-.077.026a6.623 6.623 0 0 0-.365.136H58.4a7.04 7.04 0 0 0-.763.368l-.029.017c4.246-.284 6.206 2.979 6.214 6.107v7.713c0 .024 0 .093.01.138.011.044 0 .05.011.073.01.025.014.09.024.135.01.044.012.048.019.073l.034.126c.012.041.019.05.028.074l.044.117c.016.038.024.051.038.077.014.026.032.07.051.103l.05.083c.019.029.036.06.057.09.02.028.042.058.065.087.022.029.036.05.055.072.018.022.054.062.082.091l.053.057c.019.019.069.063.103.094l.046.042c.04.032.082.063.125.092l.038.028c.048.033.098.062.147.09l.026.015c.055.03.112.057.172.082h.013a2.11 2.11 0 0 0 2.076-.246c.542-.4.861-1.034.86-1.708V8.12zM40.166 3.157a21.357 21.357 0 0 1-2.304 7.632c-.912 1.73-1.868 3.168-1.856 4.965 0 1.153.932 2.087 2.082 2.087s2.082-.934 2.082-2.087V3.206c-.002-.021-.004-.035-.004-.049z"/><path fill="url(#c)" d="M25.06 17.335h.01" transform="translate(.3 .5)"/><path fill="#121820" d="M32.133 3.307v-.048c0-.017 0-.072-.01-.107v-.039c0-.038-.01-.074-.017-.109v-.032c0-.036-.016-.072-.026-.107v-.022l-.034-.114v-.012a4.041 4.041 0 0 0-.043-.118v-.01c-.017-.04-.033-.078-.052-.114a2.458 2.458 0 0 0-.797-.908l-.082-.058-.02-.014-.026-.017-.016-.01-.056-.038a2.636 2.636 0 0 0-1.23-.318h-3.59c.235.05.464.118.687.204.617.245 1.002.607 1.146 1.08.235.77-.217 1.664-.639 2.28l-.298.377-.161.203-.009.014-.295.344-3.171 3.764-2.33 2.704-.309.356c-.915 1.162-1.383 2.193-1.388 3.073.002.783.405 1.51 1.066 1.927l.019.009.024.015.022.016.026.017.03.019c.377.204.799.313 1.228.318h3.575a4.412 4.412 0 0 1-.678-.201c-.617-.244-1.002-.607-1.146-1.08-.235-.77.217-1.664.639-2.279l.3-.378.15-.2.01-.01 2.821-3.36.91-1.083 1.248-1.42 1.142-1.308c.25-.315.478-.646.686-.99l.014-.023c.036-.058.068-.118.1-.172l.018-.029.015-.029c.03-.053.055-.103.08-.155l.04-.077.052-.108.012-.026V4.89l.034-.074.046-.113.012-.03.03-.072.029-.082.008-.026c.012-.033.024-.065.034-.1l.026-.082v-.026l.024-.088c0-.027.016-.058.02-.086l.025-.106v-.079c0-.033.012-.069.017-.102.005-.032 0-.048.008-.07.009-.022 0-.07.01-.105.011-.034 0-.034 0-.051V3.427c0-.017.044-.086.04-.12z"/><path fill="url(#d)" d="M8.005 3.06a3.581 3.581 0 0 0-.465-.79c-1.029-1.187-1.704-.616-1.886-.424a3.89 3.89 0 0 0-.207.354l-.136.342-.22.573c-2.15 5.557-3.643 9.39-4.438 11.391-.017.041-.035.08-.048.124l-.086.218-.017.046c-.009.03-.017.057-.024.086l-.014.052c0 .017-.01.034-.014.052l-.02.122v.074a1.955 1.955 0 0 0 1.958 2.143 1.97 1.97 0 0 0 1.605-.82c.021-.036.07-.113.131-.232L8.668 4.71l-.663-1.65z" transform="translate(.3 .5)"/><path fill="url(#e)" d="M13.127 16.173l-.036-.072-.46-1.188-1.858-4.735.017.05-.077-.018a9.323 9.323 0 0 0-4.131 0l-.076.018h-.008a9.401 9.401 0 0 0-5.84 4.271h-.01c-.017.041-.034.08-.05.124l-.087.225c0 .016-.012.031-.017.046a1.28 1.28 0 0 0-.024.086l-.015.052c0 .017-.01.034-.014.052l-.02.122v.074a1.518 1.518 0 0 0-.01.202v.02a1.91 1.91 0 0 0 .57 1.334l.019.018c.04.036.079.074.12.107l.034.024c.04.029.077.06.119.086l.053.032c.036.023.07.045.108.066l.07.034c.034.015.067.034.101.048l.09.033.09.032.105.026.084.02c.04 0 .084.015.125.02l.068.01c.066 0 .134.009.201.009a1.97 1.97 0 0 0 1.603-.82c.022-.036.068-.114.132-.232v-.014l.024-.048.01-.02.019-.035a3.26 3.26 0 0 1 .177-.286c.215-.313.465-.601.745-.859.057-.05.107-.095.16-.14l.025-.02.153-.124.04-.03.154-.116.055-.04.159-.104.067-.045.171-.098.08-.046.172-.093.084-.043h.01l.172-.084.08-.036.025-.01.18-.078.054-.02a5.563 5.563 0 0 1 1.464-.28h.515c.499.027.992.121 1.465.28l.055.02.18.077.024.01.083.037.171.084h.01l.083.043.171.093.08.046.163.098.069.045.158.105.055.04.154.114.041.031c.053.042.105.083.153.124l.024.02a5.043 5.043 0 0 1 .905.999c.032.043.063.093.094.141.03.049.062.104.084.145l.019.034.01.02.026.049v.014l.01.019-.058-.195z" transform="translate(.3 .5)"/><path fill="#121820" d="M17.181 15.781v-.074c0-.04-.012-.082-.02-.122-.009-.04-.009-.034-.014-.051l-.014-.052c0-.03-.015-.057-.024-.086l-.017-.046-.086-.219A1552.429 1552.429 0 0 1 12.52 3.616l-.223-.574-.152-.333a2.802 2.802 0 0 0-1.047-1.141l-.018-.01c-.559-.345-1.279-.517-2.134-.527-.856-.01-1.576.18-2.135.523l-.017.01a2.84 2.84 0 0 0-.84.789c.172-.193.857-.763 1.886.425.186.24.341.502.461.782l.641 1.65 2.126 5.468 1.863 4.735.46 1.188.036.072.072.215c.058.109.101.18.122.215a1.97 1.97 0 0 0 1.602.82 1.955 1.955 0 0 0 1.958-2.142z"/><path fill="url(#f)" d="M27.67 1.901c-.145-.473-.53-.835-1.148-1.08a4.41 4.41 0 0 0-.685-.204H20.53c-1.029 0-1.86.884-1.86 1.97 0 1.086.835 1.97 1.862 1.97h6.198l.299-.378c.42-.614.874-1.51.64-2.278z" transform="translate(.3 .5)"/><path fill="url(#g)" d="M25.883 17.334h4.491c1.029 0 1.86-.882 1.86-1.969 0-1.086-.835-1.968-1.86-1.968H24.17l-.3.378c-.422.616-.873 1.51-.64 2.28.144.472.53.835 1.147 1.08.22.084.446.152.677.2h.83v-.001z" transform="translate(.3 .5)"/><path fill="url(#h)" d="M39.866 2.657a2.084 2.084 0 0 0-2.1-2.009 2.084 2.084 0 0 0-2.06 2.052v12.55c-.012-1.797.943-3.235 1.856-4.965a21.357 21.357 0 0 0 2.304-7.627z" transform="translate(.3 .5)"/><path fill="url(#i)" d="M53.735 7.62c0-3.128-1.968-6.393-6.216-6.107a7.035 7.035 0 0 0-3.586 6.13v7.583c0 1.171.946 2.12 2.114 2.12s2.115-.949 2.115-2.12V7.64c0-.997.53-1.918 1.39-2.416a2.776 2.776 0 0 1 2.783 0 2.791 2.791 0 0 1 1.391 2.416s.009-.012.009-.019z" transform="translate(.3 .5)"/><path fill="#121820" d="M58.259 8.12a7.017 7.017 0 0 0-2.62-5.454 6.997 6.997 0 0 0-.936-.64l-.034-.019c-.07-.039-.142-.077-.214-.115l-.062-.032-.206-.1-.075-.034-.206-.09-.077-.03a6.927 6.927 0 0 0-.662-.226l-.133-.038-.16-.04-.16-.037-.152-.031-.171-.031-.146-.022-.188-.024-.138-.016-.216-.017h-.449c-.142 0-.283 0-.421.014l-.117.008c-.106 0-.21.02-.314.031l-.11.014a6.574 6.574 0 0 0-.375.062h-.026c-.29.057-.576.133-.857.227h-.01a6.92 6.92 0 0 0-1.2.533h-.012c4.246-.286 6.207 2.979 6.216 6.107v7.654a2.12 2.12 0 0 0 .945 1.72h.012a2.1 2.1 0 0 0 .157.094l.031.015c.05.026.101.05.151.073l.051.018c.047.02.095.037.143.052l.072.019c.043.01.085.024.128.033l.101.015.107.015c.063 0 .127.01.192.01h.022a2.117 2.117 0 0 0 2.114-2.119V8.134s.005-.009.005-.014z"/></g></svg>