<svg xmlns="http://www.w3.org/2000/svg" viewBox="0 0 54 29"><path fill="#121820" d="M1.34.566C.75.591.366.865.366 1.45v26.074c0 .454.324.865.824.865h46.36c.416 0 .748-.038.944-.59 0 0 4.699-14.763 4.781-15.03.175-.557.062-.84-.412-1.143C37.764 1.91 15.186.5 4.93.5 3.461.5 2.246.53 1.34.566zM29.904 20.7c.861 1.011 2.382 1.464 4.282 1.464.882 0 1.726-.085 2.409-.258l3.219-10.102h9.483l-.589 1.873h-6.75l-.978 3.063h5.666l-.577 1.807h-5.664L38.93 23.21c-.566.304-2.841.967-5.357.967-3.893 0-6.639-1.863-7.067-4.636-.006-.041-.038-.054-.087-.054-.047 0-.078.01-.093.054l-1.408 4.416h-2.847c-.929-3.485-2.662-6.786-4.409-9.295l-1.73 5.39c-.014.043-.037.055-.085.055-.049 0-.08-.01-.096-.054-.26-.765-.577-1.303-1.574-2.047l1.984-6.203h2.655c2.166 2.7 3.937 6.006 4.798 8.52l2.705-8.52h2.471l-.845 2.663c-.015.046.02.056.073.056.033 0 .087 0 .14-.056 1.687-1.824 4.291-2.859 7.285-2.859.967 0 1.953.053 2.766.179l-.667 1.964a16.963 16.963 0 0 0-2.102-.13c-3.375 0-5.899 1.646-6.28 4.25-.161 1.091.096 2.07.744 2.829zm-15.987-7.03a9.03 9.03 0 0 0-1.98-.268c-1.55-.036-3.26.337-3.591 1.32-.28.83.88 1.26 2.582 2.085 2.173 1.054 4.88 2.313 3.789 4.614-.922 1.944-3.225 2.842-6.781 2.76-1.894-.043-4.113-.725-5.19-1.227l.87-1.89c1.464.74 3.32 1.169 4.81 1.205 1.72.039 2.902-.326 3.263-1.094.464-.991-.856-1.748-2.527-2.543-2.105-1.002-4.534-2.218-3.678-4.38.723-1.822 3.533-2.683 6.641-2.61.967.022 1.546.099 2.356.248l-.564 1.78z"/></svg>