<svg xmlns="http://www.w3.org/2000/svg" viewBox="0 0 89 53"><g fill="none"><path fill="#201C1D" d="M44.745.639c.14.037.279.065.418.113.78.277 1.186.868 1.317 1.652.061.364.052.74.09 1.109.085.803.491 1.54 1.126 2.044a55.74 55.74 0 0 0 2.151 1.708A11.776 11.776 0 0 1 52.075 9.4a9.963 9.963 0 0 1 2 4.733c.278 1.971.068 3.88-.81 5.681-1.392 2.85-3.634 4.695-6.747 5.357-3.456.736-6.494-.174-9.02-2.633a9.13 9.13 0 0 1-2.746-5.569c-.36-2.972.404-5.633 2.335-7.947.62-.744 1.383-1.329 2.137-1.923.655-.517 1.319-1.022 1.95-1.57a3.092 3.092 0 0 0 1.097-2.467 2.95 2.95 0 0 1 .19-1.123A1.975 1.975 0 0 1 43.994.676a.49.49 0 0 0 .085-.033l.667-.004zm-.313 22.399a7.38 7.38 0 0 0 6.836-4.584 7.32 7.32 0 0 0-1.696-8.028 7.406 7.406 0 0 0-8.11-1.457 7.342 7.342 0 0 0-4.41 6.93c.113 3.976 3.384 7.14 7.38 7.139z"/><path fill="#201B1C" d="M.433 33.736c1.515 0 3.03-.02 4.545.012a4.01 4.01 0 0 1 2.765 1.109 3.707 3.707 0 0 1 1.092 2.046 4.307 4.307 0 0 1-.324 2.755c-.549 1.127-1.483 1.77-2.696 2.017a6.475 6.475 0 0 1-1.225.117c-1.325.016-2.646 0-3.976.007-.06 0-.12.01-.18.016v-.799h.72v-6.513h-.72v-.767zm2.352 6.539c.836-.022 1.671 0 2.506-.078a2.05 2.05 0 0 0 1.653-1.067 2.812 2.812 0 0 0 .31-1.717c-.11-1.098-.857-1.95-1.96-2.078-.82-.093-1.654-.051-2.481-.068-.008 0-.018.011-.03.02l.002 4.988zm85.637-5.015h-2.861v6.513h-1.617V35.26H81.08v-1.524h7.343z"/><path fill="#FBFBFB" d="M.433 34.495h.722v6.513H.433z"/><path fill="#201B1C" d="M75.753 36.982v1.534h-4.38v1.733h4.882v1.54H69.75v-8.053h6.333v1.524h-4.71v1.721zm-55.507-3.246v1.524h-4.713v1.728h4.372v1.535h-4.37v1.726h4.874v1.54h-6.503v-8.053z"/><path fill="#211C1D" d="M53.77 41.795H52.1a.24.24 0 0 1-.162-.123l-.873-1.737a.195.195 0 0 0-.2-.127h-3.39a.19.19 0 0 0-.201.125 79.571 79.571 0 0 1-.858 1.74c-.025.05-.085.117-.13.117-.556.008-1.113 0-1.693 0 .16-.329.307-.635.457-.94 1.145-2.324 2.288-4.65 3.431-6.976a.217.217 0 0 1 .237-.145c.312.01.624 0 .935.007a.219.219 0 0 1 .16.097 1716.543 1716.543 0 0 1 3.871 7.782c.027.051.052.105.087.18zm-5.665-3.55h2.13l-1.076-2.131-1.054 2.13zm-14.248-4.532l-4.431 9.138-4.418-9.138h1.253c.177 0 .389-.045.518.034.13.079.166.29.24.443l2.401 4.965c.152-.31.297-.604.439-.898.707-1.463 1.413-2.927 2.116-4.391a.231.231 0 0 1 .25-.157c.537.01 1.07.004 1.632.004z"/><path fill="#201B1C" d="M64.857 40.239v1.546h-6.434v-8.05h1.596v6.498zm-24.549 1.584H38.7v-8.118h1.607z"/><path fill="#252021" d="M50.962 51.759c.046.04.09.073.127.113a.172.172 0 0 1 .015.252.156.156 0 0 1-.249.014c-.11-.124-.206-.1-.341-.036a1.096 1.096 0 0 1-1.348-.367 1.105 1.105 0 0 1 .14-1.386 1.143 1.143 0 0 1 1.442-.069c.407.323.524.89.278 1.347-.015.043-.039.085-.064.132zm-.296-.254a.758.758 0 0 0-.198-.978.685.685 0 0 0-.897.084.776.776 0 0 0-.04.977c.206.27.584.341.874.165-.08-.07-.161-.138-.236-.206a.174.174 0 0 1-.017-.265.165.165 0 0 1 .252 0c.085.065.167.14.262.223z"/><path fill="#231E1F" d="M19.72 50.712v1.228c0 .128-.032.226-.176.229-.143.003-.193-.1-.193-.233 0-.532 0-1.064.007-1.595a.314.314 0 0 1 .123-.238.24.24 0 0 1 .305.097c.303.397.61.79.917 1.183l.08.094c.007-.063.016-.104.016-.138v-1.013c0-.132.036-.24.188-.239.151.002.182.102.182.228v1.63c0 .098-.015.21-.13.215a.353.353 0 0 1-.256-.097c-.32-.389-.625-.792-.934-1.19l-.128-.16zm-7.652.003v1.222c0 .128-.03.228-.174.232-.143.004-.196-.097-.196-.232 0-.53 0-1.062.007-1.595a.315.315 0 0 1 .121-.238.237.237 0 0 1 .306.094c.296.388.598.772.897 1.156.026.035.054.068.1.125.007-.064.017-.104.017-.139v-1.014c0-.139.035-.241.185-.241s.185.11.185.242v1.597c0 .102 0 .205-.128.24a.237.237 0 0 1-.278-.107c-.31-.4-.619-.8-.929-1.196a.735.735 0 0 0-.113-.146zm59.931.049v1.247c-.009.113-.081.187-.185.16-.066-.016-.162-.103-.163-.162-.011-.58-.01-1.162 0-1.744 0-.056.072-.155.111-.155a.41.41 0 0 1 .279.079c.189.209.353.44.527.663.159.213.33.415.513.607v-1.168c0-.123.06-.208.189-.204.128.005.18.086.18.212v1.613c0 .109 0 .217-.13.255-.13.04-.209-.029-.278-.123a94.606 94.606 0 0 0-.795-1.025l-.204-.258-.044.003z"/><path fill="#241F20" d="M38.911 52.188a1.046 1.046 0 0 1-.769-.3 1.035 1.035 0 0 1-.309-.761 1.058 1.058 0 0 1 .322-.767c.208-.201.489-.31.778-.3.382.004.733.21.92.541a1.06 1.06 0 0 1-.01 1.065 1.07 1.07 0 0 1-.932.522zm.696-1.064a.695.695 0 0 0-.719-.656.694.694 0 0 0-.672.703.695.695 0 0 0 .695.682.698.698 0 0 0 .703-.729h-.007z"/><path fill="#262122" d="M58.045 51.127v-.693c0-.3.037-.34.33-.335a4.7 4.7 0 0 1 .715.031c.511.08.875.537.835 1.05a1.015 1.015 0 0 1-.974.97c-.227.016-.456.01-.684.01-.164 0-.226-.069-.228-.238.006-.265.006-.53.006-.795zm.389.693c.164 0 .313.008.462 0a.693.693 0 0 0 .153-1.352 4.656 4.656 0 0 0-.615-.047v1.399z"/><path fill="#221D1E" d="M26.867 51.372l.35.44c.08.1.152.206.031.32-.089.084-.218.044-.323-.09-.104-.132-.238-.276-.338-.43a.336.336 0 0 0-.36-.173 1.553 1.553 0 0 1-.23 0v.503c0 .13-.034.224-.177.225-.144.002-.192-.083-.192-.216v-1.643c0-.139.065-.218.21-.218.267 0 .534-.008.8 0 .5.022.788.4.662.852a.636.636 0 0 1-.433.43zm-.864-.242c.234-.013.456-.012.673-.04a.31.31 0 0 0 .278-.326.283.283 0 0 0-.267-.308c-.223-.022-.45 0-.68 0l-.004.674zm41.768.243c.12.151.239.298.354.445.116.147.12.26.021.319-.128.076-.228.028-.313-.086-.106-.139-.231-.277-.328-.416a.367.367 0 0 0-.398-.192 1.4 1.4 0 0 1-.206 0v.511c0 .139-.044.22-.186.218-.142-.003-.184-.093-.184-.225V50.32c0-.15.065-.227.218-.226.262 0 .524-.008.784 0 .504.018.791.384.673.843a.636.636 0 0 1-.435.436zm-.866-.242c.238-.014.46-.013.678-.042a.31.31 0 0 0 .27-.311.287.287 0 0 0-.27-.322 6.499 6.499 0 0 0-.678 0v.675z"/><path fill="#241F20" d="M15.872 51.324h-.392c-.103 0-.191-.049-.169-.154a.249.249 0 0 1 .162-.165c.188-.015.378-.015.566 0a.19.19 0 0 1 .195.205c0 .183.009.366 0 .554a.29.29 0 0 1-.089.187c-.417.336-1.21.381-1.62-.11a1.119 1.119 0 0 1 .17-1.548 1.21 1.21 0 0 1 1.32-.053c.11.07.18.16.1.287-.081.126-.193.094-.304.023-.319-.202-.672-.184-.906.045a.79.79 0 0 0-.117.95.724.724 0 0 0 1.024.2c.056-.038.048-.175.063-.266a.95.95 0 0 0-.003-.155zm7.823-.898v.526h.77c.128 0 .264 0 .262.172-.003.172-.14.163-.254.162h-.775v.543h.703c.105-.01.21-.008.314.007.073.026.13.082.156.154.023.098-.048.17-.157.17h-1.218a.173.173 0 0 1-.187-.19v-1.68c0-.138.08-.198.215-.198h1.136c.114 0 .2.037.2.166 0 .13-.086.167-.2.167h-.965zm6.069 0v.526h.53c.11-.013.222-.013.332 0a.263.263 0 0 1 .174.154c.024.105-.061.17-.174.172h-.857v.543h1.005c.103 0 .186.051.168.157-.01.063-.086.164-.139.166-.418.012-.845.014-1.267 0-.057 0-.153-.125-.155-.194a41.377 41.377 0 0 1 0-1.663.185.185 0 0 1 .213-.201h1.152c.11 0 .19.049.194.16.004.11-.078.174-.197.173l-.979.007zm25.121 0v.526h.754c.13 0 .279-.014.29.164.011.177-.149.173-.278.171h-.76v.544h1.019c.089 0 .182.066.158.167-.014.061-.096.153-.149.156-.417.012-.824.01-1.236 0a.169.169 0 0 1-.176-.183v-1.697c0-.124.078-.187.206-.185h1.153c.122 0 .2.058.195.176-.004.118-.08.16-.195.16h-.981zm22.321.859v.543h.901c.05 0 .114-.02.14 0 .06.043.13.11.139.17a.2.2 0 0 1-.14.147c-.417.013-.835.01-1.253 0a.167.167 0 0 1-.17-.187V50.28a.178.178 0 0 1 .197-.198h1.17c.114 0 .187.057.189.165.001.108-.08.172-.2.17h-.975v.527h.753c.14 0 .3-.022.3.167-.002.19-.17.165-.304.165l-.747.009z"/><path fill="#231E1F" d="M17.418 50.426v.526h.803c.126 0 .234.022.236.168.001.145-.113.169-.234.167h-.805v.544h.892c.05 0 .115-.02.147 0 .06.041.139.106.139.169a.203.203 0 0 1-.14.147c-.417.012-.845.013-1.266 0-.055 0-.15-.114-.15-.176a45.768 45.768 0 0 1 0-1.694.17.17 0 0 1 .19-.184h1.186a.166.166 0 1 1 0 .333h-.998z"/><path fill="#241F20" d="M61.088 50.426v.526h.803c.124 0 .236.018.234.17-.001.15-.114.165-.235.165h-.797v.544h.946c.125 0 .237.023.238.166.001.143-.11.169-.235.169h-1.085c-.2 0-.244-.046-.244-.247v-1.578c0-.194.046-.241.231-.242h1.103c.123 0 .215.034.212.171-.003.138-.102.165-.221.164-.311-.01-.623-.008-.95-.008z"/><path fill="#221D1E" d="M42.508 50.837c.011.22.011.442 0 .662a.763.763 0 0 1-.77.693c-.662.023-.982-.277-.982-.94v-.849c0-.237.05-.325.188-.321.138.004.18.089.18.314 0 .3-.007.6 0 .898.014.416.29.636.668.54a.426.426 0 0 0 .348-.416c.018-.287.013-.575.015-.864v-.277a.175.175 0 0 1 .186-.192.173.173 0 0 1 .182.192v.566l-.015-.006z"/><path fill="#241F20" d="M34.842 52.036c-.043.04-.089.118-.139.12a.28.28 0 0 1-.209-.083 1.106 1.106 0 0 1-.139-.298.152.152 0 0 0-.171-.116c-.25.008-.501.008-.752 0a.156.156 0 0 0-.174.112c-.036.098-.08.194-.124.29a.174.174 0 0 1-.25.093.153.153 0 0 1-.074-.224c.26-.58.516-1.162.788-1.736a.266.266 0 0 1 .225-.118c.098.024.18.087.229.175.256.539.495 1.085.74 1.63.017.038.027.083.05.155zm-1.037-1.515c-.121.277-.231.534-.345.8h.696l-.35-.8zm35.273 1.656c-.156-.018-.223-.077-.202-.202a.674.674 0 0 1 .053-.139c.232-.518.466-1.036.696-1.555.053-.116.111-.216.261-.217.15-.002.21.094.264.212.228.514.462 1.025.696 1.538.02.046.057.096.051.139-.01.069-.032.171-.078.19-.046.02-.15-.01-.225-.031-.022-.007-.043-.053-.049-.083-.063-.334-.278-.416-.587-.369-.15.015-.3.015-.45 0a.148.148 0 0 0-.169.115c-.033.1-.077.196-.13.287a.545.545 0 0 1-.131.115zm.808-1.663l-.348.798h.697c-.119-.255-.227-.514-.354-.792l.005-.006zm-25.802 1.671a1.258 1.258 0 0 1-.709-.205c-.109-.069-.193-.155-.11-.277.084-.122.194-.094.302-.016a.823.823 0 0 0 .577.174c.139-.014.278-.051.306-.223.028-.172-.096-.234-.228-.277-.153-.049-.31-.083-.464-.139-.347-.115-.473-.287-.454-.601.018-.277.212-.48.54-.542.27-.05.55 0 .786.139.105.06.161.148.099.26-.063.112-.163.099-.279.05a1.781 1.781 0 0 0-.437-.138.28.28 0 0 0-.337.203c-.027.182.106.241.24.286.136.044.29.076.432.123.362.118.51.315.477.622-.034.308-.26.516-.612.555-.04.01-.085.006-.13.006z"/><path fill="#231E1F" d="M53.67 50.851v.53c-.025.491-.342.8-.817.807-.579.01-.913-.25-.945-.773-.024-.381-.01-.765-.009-1.147a.171.171 0 0 1 .19-.188.172.172 0 0 1 .182.192v1.03c.009.405.3.626.682.523a.46.46 0 0 0 .346-.472 21.15 21.15 0 0 0 0-1.03c0-.139.036-.24.184-.243.147-.002.19.104.186.239v.532h.002z"/><path fill="#241F20" d="M75.296 52.188a1.019 1.019 0 0 1-1.025-.712 1.097 1.097 0 0 1 .375-1.218 1.174 1.174 0 0 1 1.314 0c.105.076.158.172.08.277-.078.105-.193.096-.305.017-.36-.251-.754-.199-.986.123a.77.77 0 0 0 .139 1.042c.237.17.555.175.796.013.042-.027.08-.08.122-.084.079 0 .193-.008.23.04a.23.23 0 0 1-.022.224.913.913 0 0 1-.718.278zm-38.854.003a.975.975 0 0 1-.947-.554 1.056 1.056 0 0 1 .097-1.16 1.026 1.026 0 0 1 1.065-.394c.166.04.325.106.472.194a.184.184 0 0 1-.016.332.186.186 0 0 1-.194-.031.743.743 0 0 0-.557-.17.678.678 0 0 0-.571.534.755.755 0 0 0 .278.797c.242.164.562.16.8-.01.031-.023.06-.066.093-.067.08 0 .182-.018.235.023.085.067.06.166-.018.245a1.042 1.042 0 0 1-.737.261z"/><path fill="#211C1D" d="M64.633 50.431v.554h.816c.125 0 .231.024.23.172-.002.148-.112.17-.236.17h-.814v.617c0 .139-.046.233-.198.229-.152-.004-.177-.104-.177-.23v-1.61c0-.182.057-.236.241-.237h1.1c.123 0 .216.036.216.17 0 .135-.096.17-.217.17l-.961-.005z"/><path fill="#231E1F" d="M46.422 50.431v1.513a.243.243 0 0 1-.057.176.217.217 0 0 1-.194.03.277.277 0 0 1-.11-.197c-.01-.433 0-.865 0-1.296v-.226h-.465c-.117 0-.202-.037-.203-.163-.002-.127.075-.178.195-.176h1.318c.12 0 .198.054.198.173s-.08.17-.202.166c-.156-.003-.306 0-.48 0z"/><path fill="#252021" d="M28.499 51.128v.814c0 .13-.04.224-.18.228-.14.004-.192-.095-.19-.231v-1.63c0-.129.035-.226.176-.229.14-.002.196.096.194.233-.002.272 0 .544 0 .815zm-18.046-.001v-.832c0-.124.045-.209.174-.215.13-.005.196.08.196.214v1.663c0 .13-.054.22-.194.216-.141-.004-.177-.089-.176-.213v-.833z"/><path fill="#211C1D" d="M22.055 51.138v-.832c0-.138.044-.223.182-.226.138-.002.19.085.188.22v1.643c0 .129-.039.224-.181.224s-.19-.098-.19-.234c.003-.264 0-.53 0-.795zm26.138-.022v.831c0 .128-.042.222-.184.223-.142.002-.19-.09-.19-.219v-1.645c0-.13.05-.223.186-.226.136-.002.19.09.188.22-.002.272 0 .544 0 .816z"/><path fill="#262122" d="M17.678 49.905c.08-.137.169-.268.266-.393.085-.095.204-.05.279.023.022.02-.014.138-.057.184-.119.119-.222.288-.488.186z"/><path fill="#FCFCFC" d="M44.432 23.038c-4.046.006-7.342-3.231-7.39-7.257-.049-4.026 3.17-7.34 7.214-7.43 4.045-.09 7.408 3.078 7.54 7.103a7.335 7.335 0 0 1-2.072 5.34 7.407 7.407 0 0 1-5.292 2.244zm6.457-7.345c-.002-3.54-2.876-6.413-6.433-6.43-3.557-.017-6.459 2.829-6.494 6.368-.036 3.54 2.81 6.443 6.366 6.496a6.488 6.488 0 0 0 4.632-1.853 6.426 6.426 0 0 0 1.929-4.583v.002z"/><path fill="#FDFDFD" d="M2.785 40.27v-4.98c.013-.008.022-.019.03-.019.828.017 1.662-.025 2.482.068 1.103.125 1.85.97 1.96 2.079a2.814 2.814 0 0 1-.313 1.712 2.05 2.05 0 0 1-1.66 1.062c-.824.073-1.66.057-2.499.077z"/><path fill="#FCFCFC" d="M48.105 38.245l1.054-2.131 1.076 2.13zm2.561 13.26c-.096-.083-.178-.158-.262-.229a.165.165 0 0 0-.252 0 .174.174 0 0 0 .017.265c.075.07.156.139.236.207a.666.666 0 0 1-.874-.165.776.776 0 0 1 .04-.977.685.685 0 0 1 .897-.085c.305.232.39.653.198.984zm-11.052-.381a.691.691 0 0 1-.696.729.708.708 0 0 1-.696-.726c0-.383.312-.693.696-.693.385 0 .696.31.696.693v-.003zm18.824.697V50.42c.206.002.412.017.616.046a.693.693 0 0 1-.154 1.352c-.149.011-.298.003-.462.003z"/><path fill="#F9F9F9" d="M26.003 51.13v-.68c.23 0 .457-.016.68 0a.286.286 0 0 1 .267.308.31.31 0 0 1-.278.326c-.213.034-.435.033-.669.046zm40.902 0v-.68c.226-.011.453-.011.678 0a.29.29 0 0 1 .27.322.31.31 0 0 1-.27.312c-.218.034-.44.033-.678.047z"/><path fill="#F8F8F8" d="M33.805 50.521l.35.8h-.697c.116-.264.22-.521.347-.8zm36.075-.001c.122.277.23.53.348.798h-.697l.35-.798z"/><path fill="#211C1D" d="M50.889 15.69c0 3.553-2.894 6.433-6.463 6.433-3.57 0-6.464-2.878-6.465-6.43 0-3.553 2.892-6.434 6.461-6.435a6.48 6.48 0 0 1 4.572 1.883 6.418 6.418 0 0 1 1.895 4.55zm-9.33 2.954a.4.4 0 0 0 .062.013c1.091 0 2.182 0 3.273-.015a2.988 2.988 0 0 0 1.723-.542c.827-.589 1.168-1.417 1.17-2.407 0-1.653-1.186-2.896-2.848-2.943-1.102-.03-2.204-.01-3.306-.01a.323.323 0 0 0-.07.016v.47h.53v4.938h-.534v.48z"/><path fill="#FDFDFD" d="M41.56 18.644v-.476h.533v-4.941h-.53v-.471a.323.323 0 0 1 .07-.016c1.102 0 2.204-.02 3.306.01 1.662.047 2.847 1.29 2.847 2.943 0 .99-.342 1.818-1.17 2.407a2.988 2.988 0 0 1-1.722.542c-1.091.02-2.182.013-3.273.015a.375.375 0 0 1-.062-.013zm1.726-1.122c.557 0 1.114.02 1.656 0 .474-.005.924-.21 1.239-.564.303-.346.397-.764.418-1.212.044-.93-.509-1.693-1.43-1.83-.616-.09-1.252-.064-1.883-.09v3.696z"/><path fill="#211C1D" d="M43.286 17.522v-3.7c.635.027 1.267 0 1.884.092.92.139 1.473.9 1.429 1.83-.021.447-.115.865-.418 1.212a1.681 1.681 0 0 1-1.24.564c-.55.026-1.098.002-1.655.002z"/></g></svg>