<svg xmlns="http://www.w3.org/2000/svg" xmlns:xlink="http://www.w3.org/1999/xlink" viewBox="0 0 399 526"><defs><path id="a" d="M0 0h398v631H0z"/></defs><g fill="none" fill-rule="evenodd" transform="translate(.991 -105)"><mask id="b" fill="#fff"><use xlink:href="#a"/></mask><path stroke="#75F5F4" stroke-linecap="round" stroke-linejoin="round" stroke-width="3" d="M397.395-19.634S490.882 92.48 487.19 168.258c-3.692 75.777-107.849 72.701-115.277 150.94-7.428 78.237 135.628 102.878 169.51 100.417 33.88-2.46 66.557-20.335 65.941-62.226-.615-41.891 7.255-56.317 23.567-63.023 24.771-10.233 56.208-56.387 5.278-105.626-71.073-68.681-35.536-160.288 27.572-198.497" mask="url(#b)" transform="scale(1 -1) rotate(90 717.78 0)"/><ellipse cx="347.077" cy="497.064" stroke="#75F5F4" stroke-linecap="round" stroke-linejoin="round" stroke-width="3" mask="url(#b)" rx="11.068" ry="11.064"/><path stroke="#75F5F4" stroke-linecap="round" stroke-linejoin="round" stroke-width="3" d="M26.4 467.444C39.015 495.5 56.93 526.71 80.563 548.176c53.184 48.312 75.137 87.595 29.09 110.753-46.046 23.159 21.954 84.613-61.464 63.761C.024 710.65-72.946 652.178-134.708 582.825" mask="url(#b)" transform="rotate(-15 0 597.192)"/></g></svg>