<svg xmlns="http://www.w3.org/2000/svg" xmlns:xlink="http://www.w3.org/1999/xlink" viewBox="0 0 399 631"><defs><path id="a" d="M0 0h398v631H0z"/></defs><g fill="none" fill-rule="evenodd" transform="translate(.991)"><mask id="b" fill="#fff"><use xlink:href="#a"/></mask><use fill="#E0FBFB" xlink:href="#a"/><path stroke="#75F5F4" stroke-linecap="round" stroke-linejoin="round" stroke-width="3" d="M397.395-19.634S490.882 92.48 487.19 168.258c-3.692 75.777-107.849 72.701-115.277 150.94-7.428 78.237 135.628 102.878 169.51 100.417 33.88-2.46 66.557-20.335 65.941-62.226-.615-41.891 7.255-56.317 23.567-63.023 24.771-10.233 56.208-56.387 5.278-105.626-71.073-68.681-35.536-160.288 27.572-198.497" mask="url(#b)" transform="scale(1 -1) rotate(90 717.78 0)"/><ellipse cx="387.077" cy="497.064" stroke="#75F5F4" stroke-linecap="round" stroke-linejoin="round" stroke-width="3" mask="url(#b)" rx="11.068" ry="11.064"/><path stroke="#75F5F4" stroke-linecap="round" stroke-linejoin="round" stroke-width="3" d="M41.108 467.444C53.723 495.5 71.64 526.71 95.271 548.176c53.185 48.312 75.138 87.595 29.091 110.753-46.047 23.159 21.953 84.613-61.465 63.761C14.733 710.65-58.238 652.178-120 582.825" mask="url(#b)" transform="rotate(-15 14.708 597.192)"/></g></svg>